<svg width="100" height="100" viewBox="0 0 100 100" fill="none" xmlns="http://www.w3.org/2000/svg">
<path d="M49.4279 0.303711C62.6045 0.303712 74.9938 5.43541 84.3111 14.7527C93.6307 24.0701 98.7623 36.4594 98.7623 49.6359C98.7623 62.8125 93.6306 75.204 84.3134 84.5214C74.9961 93.8387 62.6067 98.9703 49.4279 98.9703C36.2491 98.9703 23.8621 93.8387 14.5447 84.5214C5.22739 75.204 0.0957021 62.8147 0.0957031 49.6382C0.0957043 36.4615 5.22739 24.0723 14.5447 14.755C23.8621 5.43541 36.2514 0.303711 49.4279 0.303711ZM49.4279 95.6183C61.7091 95.6183 73.2582 90.8351 81.9426 82.1507C90.6271 73.4662 95.4103 61.9194 95.4103 49.6359C95.4103 37.3525 90.6271 25.8057 81.9426 17.1213C73.2582 8.43681 61.7114 3.65355 49.4279 3.65355C37.1445 3.65355 25.5977 8.4368 16.9133 17.1213C8.22879 25.8057 3.44553 37.3525 3.44553 49.6359C3.44553 61.9194 8.22879 73.4641 16.9133 82.1507C25.5998 90.8351 37.1467 95.6183 49.4279 95.6183Z" fill="url(#paint0_linear)"/>
<path d="M49.4288 95.7874C74.9171 95.7874 95.5794 75.1251 95.5794 49.6369C95.5794 24.1486 74.9171 3.48633 49.4288 3.48633C23.9406 3.48633 3.27832 24.1486 3.27832 49.6369C3.27832 75.1251 23.9406 95.7874 49.4288 95.7874Z" fill="white"/>
<path d="M49.4289 0.302734C62.6055 0.302736 74.9948 5.43444 84.3121 14.7517C93.6317 24.0691 98.7633 36.4584 98.7633 49.6349C98.7633 62.8115 93.6316 75.2031 84.3144 84.5204C74.9971 93.8377 62.6077 98.9693 49.4289 98.9693C36.2501 98.9693 23.863 93.8377 14.5457 84.5204C5.22837 75.2031 0.0966786 62.8137 0.0966797 49.6372C0.0966809 36.4605 5.22837 24.0713 14.5457 14.754C23.863 5.43444 36.2524 0.302734 49.4289 0.302734ZM49.4289 95.6173C61.7101 95.6173 73.2592 90.8341 81.9436 82.1497C90.6281 73.4652 95.4113 61.9184 95.4113 49.6349C95.4113 37.3515 90.6281 25.8047 81.9436 17.1203C73.2592 8.43584 61.7124 3.65257 49.4289 3.65257C37.1455 3.65257 25.5986 8.43582 16.9142 17.1203C8.22977 25.8047 3.4465 37.3515 3.4465 49.6349C3.4465 61.9184 8.22977 73.4631 16.9142 82.1497C25.6008 90.8341 37.1477 95.6173 49.4289 95.6173Z" fill="url(#paint1_linear)"/>
<path d="M49.4279 95.7864C74.9161 95.7864 95.5784 75.1241 95.5784 49.6359C95.5784 24.1477 74.9161 3.48535 49.4279 3.48535C23.9396 3.48535 3.27734 24.1477 3.27734 49.6359C3.27734 75.1241 23.9396 95.7864 49.4279 95.7864Z" fill="white"/>
<g clip-path="url(#clip0)">
<path d="M28.2134 49.5002C29.7241 49.34 32.5656 48.4561 32.5656 43.7582C32.5656 37.7245 27.5941 38.001 27.5941 38.001H14.2026C14.0446 38.001 13.888 38.0311 13.742 38.0896C13.596 38.1481 13.4634 38.2338 13.3517 38.3419C13.24 38.4499 13.1514 38.5782 13.0911 38.7194C13.0307 38.8605 12.9998 39.0118 13 39.1645V45.644C13.3831 42.5916 15.8728 42.6702 15.8728 42.6702H24.8886C24.9605 42.6702 26.6901 42.5191 26.6901 45.1106C26.6901 47.702 24.9308 47.5736 24.9308 47.5736H19.9592V45.6092H18.4986C17.4727 45.6092 17.5243 46.599 17.5243 46.599V52.4C17.5243 52.4 17.4727 53.3912 18.4986 53.3912H19.9592V51.4268H24.9308C24.9308 51.4268 26.6901 51.3014 26.6901 53.8899C26.6901 56.4783 24.9605 56.3318 24.8886 56.3318H15.8728C15.8728 56.3318 13.3831 56.4088 13 53.3565V59.8299C13 60.1381 13.1267 60.4336 13.3522 60.6516C13.5778 60.8695 13.8837 60.9919 14.2026 60.9919H27.5941C27.5941 60.9919 32.5656 61.2684 32.5656 55.2362C32.5656 50.5429 29.7241 49.6604 28.2134 49.5002Z" fill="#000001"/>
<path d="M36.7832 49.3788V40.4121H39.7812C40.8373 40.4121 41.6291 40.5904 42.1567 40.947C42.6842 41.3036 42.948 41.8431 42.948 42.5654C42.9479 42.7863 42.9206 43.0065 42.8667 43.2212C42.8151 43.4303 42.7295 43.6302 42.6133 43.8135C42.4995 43.9932 42.3558 44.1535 42.1879 44.288C42.0084 44.4295 41.8039 44.5385 41.5843 44.6099C41.8165 44.6466 42.041 44.7195 42.2489 44.8259C42.4575 44.933 42.6449 45.0747 42.8025 45.2445C42.9644 45.4225 43.0915 45.6272 43.1779 45.8489C43.2736 46.0994 43.3208 46.3647 43.3171 46.6317C43.3171 47.5464 42.9996 48.2334 42.3647 48.6928C41.7297 49.1521 40.8138 49.3818 39.6169 49.3818L36.7832 49.3788ZM41.1276 42.8616C41.1289 42.7067 41.1003 42.5529 41.0432 42.4082C40.9856 42.2705 40.8912 42.15 40.7695 42.0592C40.6257 41.9539 40.4613 41.8778 40.2863 41.8355C40.0532 41.7793 39.8134 41.7529 39.5732 41.757H38.516V44.1309H39.5747C39.8191 44.1367 40.0628 44.103 40.2957 44.0311C40.4753 43.9747 40.6401 43.8814 40.7789 43.7576C40.9003 43.6462 40.9925 43.5084 41.0479 43.3557C41.1037 43.1966 41.1307 43.0295 41.1276 42.8616ZM39.7358 47.9992C39.9849 48.0034 40.2331 47.9687 40.4708 47.8964C40.6653 47.836 40.8455 47.7389 41.001 47.6108C41.1399 47.4926 41.2499 47.346 41.3231 47.1817C41.3973 47.0152 41.4351 46.8356 41.4342 46.6543C41.441 46.4791 41.4034 46.3048 41.3247 46.1468C41.2459 45.9888 41.1283 45.8518 40.9822 45.7477C40.6819 45.5291 40.2216 45.4193 39.6013 45.4183H38.516V48.0052L39.7358 47.9992Z" fill="#000001"/>
<path d="M50.4814 49.3788L49.9701 47.6093H46.7328L46.2074 49.3788H44.4746L47.227 40.4121H49.6698L52.4175 49.3788H50.4814ZM48.3733 42.0577L47.152 46.2312H49.5806L48.3733 42.0577Z" fill="#000001"/>
<path d="M60.2665 46.6659C60.2771 47.1063 60.1812 47.543 59.9866 47.9413C59.8049 48.2968 59.5366 48.6043 59.2046 48.8373C58.8427 49.0838 58.4357 49.2617 58.0051 49.3617C57.5079 49.4803 56.9972 49.5382 56.485 49.5339C56.0146 49.5341 55.5445 49.5063 55.0776 49.4508C54.621 49.3957 54.1701 49.3037 53.7295 49.1758V47.5136C53.9469 47.5877 54.1736 47.6557 54.4113 47.7192C54.6491 47.7826 54.8805 47.84 55.1245 47.8884C55.3684 47.9367 55.6015 47.973 55.8376 48.0002C56.0664 48.0282 56.2967 48.0423 56.5273 48.0425C56.8112 48.0477 57.0947 48.0198 57.3718 47.9594C57.5734 47.9171 57.7657 47.8404 57.9394 47.7328C58.0761 47.6481 58.1868 47.5297 58.26 47.3897C58.3269 47.2528 58.3606 47.1029 58.3586 46.9515C58.3657 46.7503 58.2962 46.5535 58.1631 46.3985C58.0174 46.2383 57.8431 46.1047 57.6486 46.0041C57.4158 45.8829 57.1725 45.7817 56.9214 45.7019C56.6492 45.6097 56.3709 45.5115 56.0894 45.4072C55.8079 45.303 55.5154 45.173 55.2496 45.0385C54.9826 44.9105 54.7373 44.7439 54.5224 44.5444C54.3059 44.3439 54.1307 44.1054 54.0063 43.8417C53.8687 43.5308 53.8025 43.1946 53.8124 42.8565C53.8104 42.5133 53.8779 42.1729 54.011 41.8547C54.1481 41.5348 54.3626 41.2513 54.6365 41.0281C54.9592 40.7724 55.3314 40.5814 55.7313 40.466C56.2537 40.3159 56.7971 40.245 57.342 40.256C57.5281 40.256 57.7205 40.265 57.9207 40.2802C58.1209 40.2953 58.321 40.3179 58.5181 40.3421C58.7151 40.3663 58.9044 40.398 59.0858 40.4313C59.2672 40.4645 59.4345 40.5008 59.5862 40.5386V42.0814C59.4298 42.027 59.2734 41.9771 59.0889 41.9302C58.9044 41.8834 58.7245 41.8456 58.5322 41.8109C58.3398 41.7761 58.1474 41.7504 57.9535 41.7323C57.7596 41.7142 57.5751 41.7051 57.3999 41.7051C57.1373 41.7002 56.875 41.724 56.618 41.7761C56.4326 41.8139 56.255 41.8814 56.0925 41.9756C55.9646 42.0503 55.8614 42.1588 55.7954 42.2884C55.7321 42.4166 55.7005 42.5573 55.7031 42.6994C55.6996 42.8789 55.7693 43.0526 55.897 43.1829C56.0475 43.3318 56.2231 43.455 56.4162 43.5471C56.6529 43.6636 56.8974 43.7646 57.1481 43.8493C57.4202 43.943 57.6991 44.0437 57.9848 44.1515C58.2711 44.2587 58.5509 44.3813 58.823 44.5187C59.0896 44.6528 59.3359 44.8216 59.5549 45.0204C59.7718 45.2186 59.9475 45.4551 60.0726 45.717C60.2094 46.0154 60.2757 46.3396 60.2665 46.6659Z" fill="#000001"/>
<path d="M62.667 41.7902V40.4121H68.5315V41.7902H66.4875V47.9856H68.5315V49.3773H62.667V47.9856H64.711V41.7902H62.667Z" fill="#000001"/>
<path d="M77.3097 49.0292C76.9221 49.1822 76.5212 49.3015 76.1118 49.3858C75.716 49.4641 75.3131 49.5031 74.9091 49.5021C74.3055 49.5125 73.7051 49.4162 73.1373 49.2181C72.6405 49.0393 72.195 48.7487 71.8377 48.3704C71.4678 47.9673 71.1939 47.4906 71.0354 46.9741C70.6622 45.68 70.6708 44.3108 71.0604 43.0212C71.2355 42.4736 71.5256 41.9669 71.9127 41.5328C72.2813 41.1281 72.7416 40.8111 73.2577 40.6065C73.8231 40.3869 74.4281 40.2785 75.0374 40.2876C75.2501 40.2876 75.4502 40.2876 75.6363 40.3012C75.8224 40.3148 76.007 40.3269 76.1868 40.3526C76.3667 40.3783 76.5496 40.4116 76.7342 40.4524C76.9187 40.4931 77.1095 40.546 77.3097 40.6035V42.2777C76.9419 42.1071 76.556 41.9759 76.1587 41.8864C75.8324 41.8134 75.4989 41.7744 75.164 41.77C74.7742 41.7598 74.3874 41.8385 74.0349 41.9997C73.7267 42.15 73.4619 42.3716 73.2639 42.6449C73.0529 42.9443 72.9027 43.2796 72.8214 43.6332C72.7227 44.0458 72.675 44.4684 72.679 44.8919C72.6736 45.3296 72.7224 45.7664 72.8245 46.1929C72.9059 46.5421 73.0591 46.872 73.2749 47.163C73.4771 47.4264 73.7465 47.6347 74.0568 47.7674C74.4131 47.9153 74.7983 47.987 75.1859 47.9775C75.3564 47.9762 75.5264 47.9611 75.6942 47.9321C75.8756 47.9019 76.0601 47.8641 76.2478 47.8158C76.4355 47.7674 76.6184 47.71 76.8014 47.6435C76.9844 47.577 77.1533 47.5106 77.3097 47.4411V49.0292Z" fill="#000001"/>
<path d="M85.9995 46.6656C86.01 47.1059 85.9142 47.5426 85.7196 47.9409C85.5379 48.2964 85.2696 48.6039 84.9376 48.837C84.5757 49.0834 84.1687 49.2614 83.7381 49.3613C83.2409 49.4799 82.7302 49.5378 82.218 49.5336C81.7476 49.5337 81.2775 49.506 80.8106 49.4505C80.3536 49.3952 79.9021 49.3032 79.4609 49.1755V47.5133C79.6799 47.5873 79.9066 47.6553 80.1428 47.7188C80.3789 47.7823 80.6119 47.8397 80.8575 47.888C81.103 47.9364 81.3266 47.9726 81.5706 47.9998C81.7983 48.0282 82.0276 48.0429 82.2571 48.0437C82.5411 48.0487 82.8246 48.0208 83.1016 47.9606C83.3033 47.9183 83.4956 47.8415 83.6693 47.7339C83.8037 47.6489 83.9117 47.5304 83.9821 47.3909C84.0502 47.2543 84.0845 47.1043 84.0822 46.9527C84.0886 46.7515 84.0191 46.555 83.8867 46.3996C83.741 46.2394 83.5667 46.1059 83.3722 46.0052C83.1395 45.884 82.8961 45.7829 82.645 45.703C82.3718 45.6103 82.0945 45.5121 81.813 45.4084C81.5315 45.3046 81.2547 45.1852 80.9826 45.0502C80.7156 44.9222 80.4704 44.7556 80.2554 44.5561C80.0389 44.3556 79.8638 44.1171 79.7393 43.8535C79.6017 43.5425 79.5355 43.2063 79.5454 42.8683C79.5434 42.525 79.6109 42.1847 79.744 41.8664C79.8805 41.5462 80.0951 41.2626 80.3695 41.0399C80.6922 40.7842 81.0644 40.5931 81.4643 40.4777C81.9867 40.3276 82.5301 40.2568 83.075 40.2677C83.2596 40.2677 83.4535 40.2768 83.6537 40.2919C83.8538 40.307 84.054 40.3297 84.2511 40.3538C84.4481 40.378 84.6358 40.4097 84.8188 40.443C85.0017 40.4762 85.1675 40.5125 85.3192 40.5503V42.0931C85.1628 42.0387 85.0064 41.9888 84.8219 41.942C84.6374 41.8951 84.4559 41.8573 84.2652 41.8226C84.0744 41.7878 83.8804 41.7621 83.6865 41.744C83.4926 41.7259 83.3081 41.7168 83.1329 41.7168C82.8703 41.7119 82.608 41.7358 82.351 41.7878C82.1656 41.8257 81.988 41.8931 81.8255 41.9873C81.6975 42.0623 81.5939 42.1708 81.5268 42.3001C81.4642 42.4286 81.4327 42.5691 81.4345 42.7111C81.4316 42.8908 81.5018 43.0644 81.63 43.1946C81.7802 43.3439 81.9558 43.4671 82.1492 43.5588C82.3854 43.6753 82.6293 43.7763 82.8796 43.861C83.1517 43.9547 83.4311 44.0555 83.7178 44.1632C84.0041 44.2704 84.2839 44.393 84.556 44.5304C84.8226 44.6645 85.0689 44.8333 85.2879 45.0321C85.5042 45.2308 85.6798 45.4672 85.8056 45.7287C85.9399 46.0237 86.0061 46.3434 85.9995 46.6656Z" fill="#000001"/>
<path d="M42.0101 59.187C41.376 59.4404 40.6962 59.5699 40.0099 59.5678C38.8892 59.5678 38.0275 59.2439 37.4249 58.5962C36.8222 57.9484 36.5209 56.9914 36.5209 55.7251C36.5137 55.1618 36.5982 54.6009 36.7712 54.063C36.9185 53.5995 37.1599 53.1691 37.4811 52.7967C37.7873 52.4518 38.1701 52.178 38.6009 51.9958C39.0648 51.8026 39.5658 51.7063 40.0709 51.7132C40.4157 51.7108 40.7599 51.7417 41.0984 51.8054C41.4121 51.865 41.7179 51.9583 42.0101 52.0835V53.111C41.728 52.9605 41.4282 52.8433 41.1171 52.7619C40.7874 52.6789 40.4477 52.6383 40.1069 52.641C39.7591 52.6336 39.4137 52.6996 39.0951 52.8345C38.7945 52.9688 38.5313 53.1703 38.3272 53.4223C38.1036 53.7022 37.9385 54.0214 37.8408 54.3621C37.7211 54.7741 37.6637 55.2006 37.6704 55.6284C37.6704 56.6227 37.8789 57.3722 38.2959 57.8769C38.713 58.3816 39.325 58.6334 40.1319 58.6324C40.4618 58.6337 40.7906 58.5956 41.1109 58.5191C41.4214 58.4429 41.7228 58.3355 42.0101 58.1988V59.187Z" fill="#000001"/>
<path d="M50.0874 59.4736H48.9082L48.3546 57.8008H45.0486L44.4887 59.4736H43.3643L46.0025 51.7988H47.4851L50.0874 59.4736ZM48.0449 56.867L46.7016 52.7614L45.3582 56.867H48.0449Z" fill="#000001"/>
<path d="M56.821 54.1471C56.82 54.4656 56.7579 54.7812 56.638 55.0779C56.5147 55.3896 56.322 55.6713 56.0735 55.903C55.792 56.162 55.4589 56.3631 55.0945 56.4938C54.6393 56.654 54.1572 56.7303 53.6729 56.7189H52.6877V59.4736H51.6055V51.7989H53.8434C54.2236 51.797 54.6026 51.8391 54.9725 51.9243C55.314 52.0004 55.6372 52.1389 55.9249 52.3323C56.1992 52.5214 56.4228 52.7711 56.577 53.0606C56.7489 53.3981 56.8326 53.7711 56.821 54.1471ZM55.6966 54.1939C55.7098 53.9803 55.6713 53.7667 55.5842 53.57C55.497 53.3732 55.3636 53.1988 55.1946 53.0606C54.862 52.7997 54.3928 52.6688 53.7871 52.6678H52.6814V55.8274H53.6901C54.3313 55.8274 54.825 55.6919 55.1711 55.4209C55.5172 55.1499 55.6924 54.7409 55.6966 54.1939Z" fill="#000001"/>
<path d="M60.8629 52.6783H59.0332V51.7988H63.7874V52.6783H61.9576V58.5805H63.7874V59.4736H59.0332V58.5805H60.8629V52.6783Z" fill="#000001"/>
<path d="M71.6516 52.6904H69.3058V59.4736H68.211V52.6904H65.8652V51.7988H71.6641L71.6516 52.6904Z" fill="#000001"/>
<path d="M79.4555 59.4736H78.2763L77.7227 57.8008H74.4167L73.8568 59.4736H72.7324L75.3769 51.7988H76.8595L79.4555 59.4736ZM77.41 56.867L76.0666 52.7614L74.7232 56.867H77.41Z" fill="#000001"/>
<path d="M86.0003 59.4736H81.4307V51.7988H82.5254V58.5805H85.9956L86.0003 59.4736Z" fill="#000001"/>
</g>
<defs>
<linearGradient id="paint0_linear" x1="84.3129" y1="14.753" x2="14.545" y2="84.521" gradientUnits="userSpaceOnUse">
<stop/>
<stop offset="1" stop-color="#515151"/>
</linearGradient>
<linearGradient id="paint1_linear" x1="84.3139" y1="14.752" x2="14.546" y2="84.52" gradientUnits="userSpaceOnUse">
<stop/>
<stop offset="1" stop-color="#515151"/>
</linearGradient>
<clipPath id="clip0">
<rect width="73" height="23" fill="white" transform="translate(13 38)"/>
</clipPath>
</defs>
</svg>
