<svg width="151" height="28" viewBox="0 0 151 28" fill="none" xmlns="http://www.w3.org/2000/svg">
<path d="M0 0.0193024H11.0702C13.1788 0.0193024 14.7603 0.54798 15.9317 1.42911C17.2203 2.48646 17.9232 4.01375 17.9232 5.89349C17.9232 8.06694 17.0446 9.418 15.2874 10.2404V10.3579C17.6303 11.1215 18.9775 13.2362 18.9775 15.7621C18.9775 18.1705 18.0403 20.0503 16.5175 21.2251C15.2289 22.165 13.5888 22.5762 11.3631 22.5762H0V0.0193024ZM9.95733 8.83058C11.1288 8.83058 12.0074 8.18442 12.0074 6.83336C12.0074 5.54104 11.1288 4.89488 9.89875 4.89488H6.09154V8.77184H9.95733V8.83058ZM10.4845 17.5831C11.8316 17.5831 12.8274 16.7607 12.8274 15.2922C12.8274 13.7062 11.7731 13.0013 10.4845 13.0013H6.15012V17.6419H10.4845V17.5831Z" fill="black"/>
<path d="M19.9736 0.0194359H25.7723V22.6351H19.9736V0.0194359Z" fill="black"/>
<path d="M26.9434 14.5874C26.9434 9.47688 30.2234 6.06985 35.3192 6.06985C40.415 6.06985 43.6365 9.53562 43.6365 14.5874C43.6365 19.698 40.415 23.105 35.3192 23.105C30.2234 23.105 26.9434 19.698 26.9434 14.5874ZM37.8379 14.5874C37.8379 11.7678 36.9593 10.0056 35.2021 10.0056C33.4449 10.0056 32.6249 11.7678 32.6249 14.5874C32.6249 17.407 33.4449 19.228 35.2021 19.228C36.9593 19.1693 37.8379 17.407 37.8379 14.5874Z" fill="black"/>
<path d="M44.2803 14.5874C44.2803 9.47688 47.5603 6.06985 52.6561 6.06985C57.752 6.06985 60.9149 9.47688 60.9149 14.5874C60.9149 19.698 57.6934 23.105 52.5976 23.105C47.5603 23.105 44.2803 19.698 44.2803 14.5874ZM55.1748 14.5874C55.1748 11.7678 54.2962 10.0056 52.539 10.0056C50.7818 10.0056 49.9618 11.7678 49.9618 14.5874C49.9618 17.407 50.7818 19.228 52.539 19.228C54.2962 19.1693 55.1748 17.407 55.1748 14.5874Z" fill="black"/>
<path d="M62.0869 6.48104H67.4756V8.88946H67.5927C68.647 7.00972 70.1113 6.01111 72.4542 6.01111C74.5043 6.01111 76.0272 7.00972 76.7886 8.77198H76.9058C78.1944 6.65727 79.893 6.01111 81.8844 6.01111C85.6331 6.01111 87.2145 8.77198 87.2145 12.4727V22.5763H81.5916V13.4713C81.5916 11.8266 81.0644 10.7692 79.6587 10.7692C78.2529 10.7692 77.5501 12.0615 77.5501 13.8238V22.5763H71.9271V13.4713C71.9271 11.8266 71.3999 10.7692 69.9942 10.7692C68.5885 10.7692 67.8856 12.0615 67.8856 13.8238V22.5763H62.0869V6.48104Z" fill="black"/>
<path d="M94.3017 20.4616H94.2432V22.5763H88.8545V0.0194359H94.4774V8.12582H94.5946C95.6489 6.71601 97.1132 5.95237 99.1632 5.95237C103.205 5.95237 105.548 9.59436 105.548 14.4699C105.548 19.9329 103.029 23.105 98.8118 23.105C97.0546 23.105 95.2389 22.2826 94.3017 20.4616ZM99.749 14.4112C99.749 11.8266 98.8118 10.123 97.1132 10.123C95.356 10.123 94.3017 11.8266 94.3017 14.4112C94.3017 16.9958 95.4146 18.6994 97.1132 18.6994C98.8118 18.6994 99.749 17.0546 99.749 14.4112Z" fill="black"/>
<path d="M106.192 14.5287C106.192 9.47688 109.531 6.01111 114.334 6.01111C116.735 6.01111 118.551 6.77475 119.957 8.12582C121.831 9.94682 122.651 12.7664 122.593 16.056H111.815C112.05 18.0532 112.987 19.1106 114.685 19.1106C115.681 19.1106 116.56 18.6406 116.911 17.5833H122.358C121.421 21.284 118.551 23.105 114.51 23.105C109.531 23.0463 106.192 19.6392 106.192 14.5287ZM111.815 12.8252H116.97C116.853 10.8867 115.798 9.88808 114.451 9.88808C112.87 9.82933 111.991 10.9454 111.815 12.8252Z" fill="black"/>
<path d="M128.977 9.24191H129.094C130.265 7.00972 131.788 6.12859 133.721 6.12859C134.19 6.12859 134.482 6.18734 134.658 6.30482V11.2391H134.541C131.202 10.6517 129.269 12.2378 129.269 15.8797V22.6351H123.588V6.48104H128.977V9.24191Z" fill="black"/>
<path d="M135.244 22.6351H140.691C140.926 23.34 141.628 23.9861 142.976 23.9861C144.791 23.9861 145.436 22.87 145.436 21.1665V19.9917H145.319C144.44 21.049 143.21 21.8127 141.453 21.8127C137.997 21.8127 134.951 19.228 134.951 14.1762C134.951 9.53561 137.411 5.95236 141.16 5.95236C143.327 5.95236 144.616 6.83349 145.494 8.18455H145.611V6.42229H151V20.4029C151 22.9875 150.121 24.9847 148.774 26.1596C147.369 27.3932 145.377 27.9218 143.093 27.9218C138.758 27.9806 135.771 26.2183 135.244 22.6351ZM145.67 13.9413C145.67 11.944 144.733 10.2993 143.093 10.2993C141.511 10.2993 140.516 11.7091 140.516 13.9413C140.516 16.1147 141.511 17.642 143.093 17.642C144.674 17.642 145.67 16.056 145.67 13.9413Z" fill="black"/>
</svg>
