<svg width="287" height="47" viewBox="0 0 287 47" fill="none" xmlns="http://www.w3.org/2000/svg">
<g clip-path="url(#clip0)">
<path d="M66.8525 23.1615C66.8525 28.8814 71.0807 32.6978 76.2067 32.6978C78.9883 32.7038 81.7167 31.9275 84.0864 30.4559V36.0113C83.0212 36.6787 79.821 37.8913 76.2486 37.8913C67.913 37.8772 61.3125 31.4899 61.3125 23.1615C61.3125 14.8331 67.913 8.45988 76.2486 8.45988C79.821 8.45988 83.0212 9.66308 84.0864 10.3399V15.8624C81.7147 14.3963 78.9871 13.6235 76.2067 13.6299C71.0807 13.6299 66.8525 17.4416 66.8525 23.1615ZM108.614 23.4999V37.4636H103.497V25.1496C103.497 22.7056 102.427 20.882 99.6784 20.882C97.0131 20.882 95.4548 22.5787 95.4548 25.6478V37.4636H90.3381V7.20028H95.4548V20.177C95.8223 19.237 97.2596 16.3183 101.567 16.3183C105.991 16.3183 108.614 18.9738 108.614 23.4999ZM136.435 33.1114V37.4636H129.83C129.722 37.4701 129.615 37.454 129.514 37.4163C129.413 37.3786 129.321 37.3202 129.243 37.2446C129.166 37.169 129.105 37.078 129.064 36.9774C129.023 36.8767 129.004 36.7686 129.006 36.6599V32.9469C128.309 35.3909 126.425 37.8772 122.494 37.8772C117.159 37.8772 113.303 33.8587 113.303 27.1001C113.303 20.2569 117.526 16.3183 122.778 16.3183C127.62 16.3183 128.606 20.3415 128.606 20.3415V16.7366H133.723V33.1114H136.435ZM128.76 27.1424C128.76 23.2461 126.899 20.7974 123.839 20.7974C120.885 20.7974 118.629 22.997 118.629 27.1001C118.629 31.2032 120.489 33.4028 123.592 33.4028C126.75 33.4028 128.76 31.3301 128.76 27.1424ZM148.18 17.5638V37.4636H143.063V21.0888H139.342V16.7366H147.38C147.488 16.7332 147.595 16.7524 147.694 16.793C147.794 16.8336 147.885 16.8947 147.96 16.9725C148.035 17.0503 148.094 17.143 148.131 17.2448C148.169 17.3466 148.186 17.4552 148.18 17.5638ZM148.017 12.422H142.477V7.20028H148.017V12.422ZM154.157 16.7366H159.204V20.4261C159.372 19.8856 160.6 16.3183 165.4 16.3183C169.833 16.3183 172.461 18.9738 172.461 23.4905V37.4636H167.344V25.1496C167.344 22.7056 166.279 20.882 163.53 20.882C160.86 20.882 159.302 22.5787 159.302 25.6478V37.4636H154.185L154.157 16.7366ZM200.277 33.1114V37.4636H193.672C193.565 37.4701 193.457 37.454 193.356 37.4163C193.255 37.3786 193.163 37.3202 193.086 37.2446C193.008 37.169 192.947 37.078 192.906 36.9774C192.866 36.8767 192.846 36.7686 192.849 36.6599V32.9469C192.151 35.3909 190.267 37.8772 186.337 37.8772C181.001 37.8772 177.145 33.8587 177.145 27.1001C177.145 20.2569 181.369 16.3183 186.625 16.3183C191.467 16.3183 192.449 20.3415 192.449 20.3415V16.7366H197.565V33.1114H200.277ZM192.602 27.1424C192.602 23.2461 190.742 20.7974 187.681 20.7974C184.727 20.7974 182.471 22.997 182.471 27.1001C182.471 31.2032 184.355 33.4028 187.458 33.4028C190.593 33.4028 192.602 31.3301 192.602 27.1424ZM210.743 8.45988V37.4636H205.599V11.5525H202.398V7.20028H209.497C209.661 7.19839 209.824 7.22968 209.976 7.29231C210.128 7.35494 210.266 7.44765 210.382 7.56499C210.498 7.68234 210.59 7.82195 210.652 7.97562C210.714 8.1293 210.745 8.29394 210.743 8.45988ZM219.958 46.9999H214.841V42.6477H218.623C219.977 42.6477 220.595 42.2341 221.084 40.9886L222.605 37.0923L214.706 16.7366H220.409L225.21 31.3677L230.177 16.7366H235.88L225.786 42.9767C224.721 45.7544 222.954 46.9999 219.958 46.9999ZM238.722 36.1382V31.1233C239.42 31.5933 242.248 33.4733 245.411 33.4733C247.83 33.4733 248.895 32.7683 248.895 31.4006C248.895 27.2975 238.434 30.3243 238.434 22.5317C238.434 19.0067 241.388 16.3089 246.807 16.3089C249.798 16.3089 251.923 17.0985 252.756 17.5967V22.5599C251.728 21.8925 249.677 20.5671 246.886 20.5671C244.467 20.5671 243.564 21.3144 243.564 22.4753C243.564 25.8311 253.984 23.5093 253.984 31.1421C253.984 35.2875 250.579 37.896 245.611 37.896C242.346 37.8772 239.667 36.7586 238.722 36.1382ZM266.255 17.5638V37.4636H261.138V21.0888H257.417V16.7366H265.459C265.567 16.7331 265.674 16.7523 265.773 16.793C265.873 16.8336 265.963 16.8948 266.038 16.9727C266.113 17.0506 266.171 17.1433 266.208 17.2451C266.245 17.3469 266.261 17.4554 266.255 17.5638ZM266.092 12.422H260.552V7.20028H266.092V12.422ZM271.739 36.1382V31.1233C272.432 31.5933 275.265 33.4733 278.423 33.4733C280.847 33.4733 281.912 32.7683 281.912 31.4006C281.912 27.2975 271.45 30.3243 271.45 22.5317C271.45 19.0067 274.404 16.3089 279.823 16.3089C282.819 16.3089 284.94 17.0985 285.773 17.5967V22.5599C284.056 21.3225 282.015 20.6288 279.907 20.5671C277.484 20.5671 276.581 21.3144 276.581 22.4753C276.581 25.8311 287.005 23.5093 287.005 31.1421C287.005 35.2875 283.6 37.896 278.632 37.896C275.372 37.8772 272.678 36.7586 271.739 36.1382Z" fill="#FF5300"/>
<path d="M23.2573 0C23.7783 0 24.3691 0.0658 24.3691 0.0658C22.6212 2.18403 21.5679 4.79871 21.3549 7.5482C18.0615 8.10488 15.0295 9.70778 12.6991 12.1241C10.3687 14.5405 8.86126 17.6445 8.39567 20.9855C5.38613 21.3145 1.9812 22.7057 0.0229025 24.6938C-0.442251 11.0544 9.90277 0 23.2573 0ZM26.6065 40.9746C25.9904 41.0666 25.3685 41.1121 24.7458 41.1109C23.6711 41.0979 22.5986 41.0084 21.5363 40.843C20.7063 42.8621 19.6111 44.7592 18.2802 46.483C14.1055 45.5527 10.2653 43.4779 7.18149 40.4863C4.09768 37.4947 1.88956 33.7022 0.79971 29.5254C2.89755 27.0109 7.74446 25.5539 10.754 25.5539C17.1731 25.5539 20.5781 28.9943 21.7595 34.357C17.8941 33.2995 15.6009 31.114 14.0938 27.871C13.2131 27.5479 12.2817 27.3887 11.3448 27.401C10.4993 27.3975 9.65891 27.5324 8.85618 27.8005C10.5586 34.357 16.8475 39.2544 24.5086 39.2544C31.5836 39.2544 34.5931 35.6166 34.5931 35.6166V30.0518C34.5931 30.0518 31.1231 33.6943 26.8018 34.4228C26.3157 31.0233 24.7503 27.8752 22.3412 25.4519C19.932 23.0286 16.8092 21.4612 13.4426 20.9855C14.5543 15.4254 18.7453 12.314 24.4435 12.314C30.1416 12.314 34.728 16.4829 34.728 16.4829V10.9886C34.728 10.9886 31.779 8.2062 26.5413 7.614C26.6716 5.17 28.2438 2.1197 29.9463 0.9917C37.0817 3.243 43.9613 9.3342 45.9243 18.2031C45.9243 18.2031 42.7799 21.3803 36.8864 21.3803C32.0395 21.3803 28.9787 18.9316 27.2577 14.6311C26.3548 14.3062 25.4018 14.147 24.4435 14.1611C23.5492 14.1512 22.6609 14.3106 21.8247 14.6311C23.7225 21.5166 29.7323 26.1461 36.4305 26.1461C42.9799 26.1461 46.515 23.1052 46.515 23.1052C46.515 36.8715 36.1002 46.7368 23.7225 47C25.1645 45.59 26.2762 42.4974 26.6065 40.9746Z" fill="#FF5300"/>
</g>
<defs>
<clipPath id="clip0">
<rect width="287" height="47" fill="white"/>
</clipPath>
</defs>
</svg>
