<svg width="173" height="153" viewBox="0 0 173 153" fill="none" xmlns="http://www.w3.org/2000/svg">
<ellipse cx="87.8055" cy="77.9568" rx="72.8387" ry="72.9768" fill="#1A6AF4" fill-opacity="0.08"/>
<path d="M120.4 40.6353H55.2113C51.5064 40.6353 47.9533 42.1098 45.3336 44.7345C42.7139 47.3592 41.2422 50.919 41.2422 54.6309V101.283C41.2422 104.995 42.7139 108.554 45.3336 111.179C47.9533 113.804 51.5064 115.278 55.2113 115.278H120.4C124.105 115.278 127.658 113.804 130.278 111.179C132.898 108.554 134.369 104.995 134.369 101.283V54.6309C134.369 50.919 132.898 47.3592 130.278 44.7345C127.658 42.1098 124.105 40.6353 120.4 40.6353ZM118.491 49.9657L91.1118 77.3969C90.6789 77.8342 90.1639 78.1813 89.5965 78.4181C89.029 78.655 88.4204 78.7769 87.8057 78.7769C87.191 78.7769 86.5824 78.655 86.015 78.4181C85.4476 78.1813 84.9326 77.8342 84.4997 77.3969L57.1204 49.9657H118.491ZM125.057 101.283C125.057 102.52 124.566 103.707 123.693 104.581C122.82 105.456 121.635 105.948 120.4 105.948H55.2113C53.9763 105.948 52.792 105.456 51.9187 104.581C51.0455 103.707 50.5549 102.52 50.5549 101.283V56.5436L77.9343 83.9749C80.5535 86.5958 84.1039 88.0679 87.8057 88.0679C91.5076 88.0679 95.058 86.5958 97.6772 83.9749L125.057 56.5436V101.283Z" fill="url(#paint0_linear_3713_860)"/>
<path d="M95.7884 16.4764C74.1549 29.272 27.8754 83.1318 12.8647 119.255C-17.1567 191.502 131.538 104.161 153.162 28.9724V28.9724" stroke="url(#paint1_linear_3713_860)" stroke-dasharray="6 6"/>
<path d="M95.7884 16.4764C74.1549 29.272 27.8754 83.1318 12.8647 119.255C-17.1567 191.502 131.538 104.161 153.162 28.9724V28.9724" stroke="url(#paint2_linear_3713_860)" stroke-dasharray="6 6"/>
<g clip-path="url(#clip0_3713_860)">
<path d="M161.777 4.77422C161.442 4.61917 161.07 4.55817 160.703 4.59773C160.335 4.63728 159.986 4.77591 159.691 4.99885L144.287 16.6222C143.958 16.8737 143.714 17.2193 143.586 17.6132C143.458 18.0071 143.452 18.4308 143.57 18.8279C143.688 19.2249 143.924 19.5767 144.246 19.8365C144.568 20.0963 144.962 20.2517 145.374 20.2823L149.193 20.5617L152.866 26.4909C152.916 26.57 152.976 26.6417 153.045 26.704C153.056 26.7136 153.069 26.7193 153.08 26.7285C153.158 26.7927 153.245 26.8445 153.339 26.8821C153.366 26.8931 153.392 26.9033 153.419 26.912C153.527 26.9483 153.64 26.9655 153.754 26.9631L153.766 26.961L153.773 26.962C153.84 26.9578 153.907 26.947 153.973 26.9295C153.979 26.9278 153.984 26.9233 153.99 26.9215C154.089 26.8933 154.182 26.8499 154.267 26.7931C154.287 26.7798 154.302 26.7624 154.321 26.7478C154.383 26.7001 154.439 26.6452 154.488 26.5843C154.526 26.5299 154.564 26.4755 154.602 26.4211L156.436 22.8411L161.126 24.8131C161.539 24.988 161.999 25.02 162.433 24.904C162.887 24.7815 163.285 24.5064 163.56 24.1248C163.836 23.7431 163.972 23.2782 163.946 22.8079L162.954 6.49778C162.933 6.13056 162.811 5.7762 162.604 5.47261C162.397 5.16901 162.111 4.92761 161.777 4.77422ZM152.528 19.9959C152.43 20.1652 152.384 20.3596 152.396 20.5549L152.486 22.0873L151.061 19.7862L154.432 16.6902L152.528 19.9959ZM161.899 22.9693L156.356 20.639C156.124 20.5418 155.864 20.5358 155.628 20.622C155.392 20.7082 155.197 20.8804 155.082 21.1042L154.495 22.2505L154.406 20.736L159.403 12.0639C159.522 11.8571 159.564 11.6144 159.52 11.3796C159.476 11.1448 159.35 10.9335 159.164 10.7841C158.978 10.6346 158.745 10.5568 158.506 10.5647C158.268 10.5727 158.041 10.6659 157.865 10.8274L149.435 18.5682L145.493 18.2158L160.963 6.61894L161.899 22.9693Z" fill="#1A6AF4"/>
</g>
<path d="M13.6407 4.25735C13.0474 6.61615 12.451 8.96938 11.8577 11.3282C11.8475 11.3489 11.8428 11.3664 11.8357 11.3927L10.4877 16.4334C10.3587 16.9155 10.6509 17.4215 11.1331 17.5509L15.9108 18.8336L14.4404 24.8937C13.6347 24.8324 12.8214 24.6939 11.9591 24.4577C5.79939 22.8088 2.87889 18.0598 4.53557 11.8477C5.85083 6.92976 9.22353 4.27889 13.6407 4.25735Z" fill="url(#paint3_linear_3713_860)"/>
<path d="M24.6108 17.2324C23.2934 22.1407 19.9605 24.8104 15.6333 24.9324L16.1519 22.8004C16.5574 21.1788 16.9606 19.566 17.3661 17.9444L17.7932 16.3474L18.631 13.2148C18.7601 12.7322 18.4684 12.2259 17.9867 12.0966L16.5503 11.711L13.2485 10.8246L14.7074 4.82576L14.8371 4.3057C15.6024 4.37479 16.4126 4.52176 17.2271 4.74042C23.3251 6.36807 26.255 11.067 24.6108 17.2324Z" fill="url(#paint4_linear_3713_860)"/>
<path d="M167.901 122.147C165.948 122.703 163.998 123.254 162.045 123.81C162.026 123.811 162.011 123.815 161.989 123.821L157.782 124.95C157.379 125.059 157.136 125.481 157.243 125.885L158.312 129.88L153.316 131.347C153.024 130.738 152.785 130.091 152.595 129.368C151.214 124.219 153.427 120.12 158.611 118.725C162.715 117.623 166.041 118.958 167.901 122.147Z" fill="url(#paint5_linear_3713_860)"/>
<path d="M163.111 135.53C159.016 136.626 155.696 135.325 153.8 132.239L155.556 131.724C156.897 131.341 158.23 130.959 159.57 130.576L160.902 130.218L163.514 129.517C163.916 129.409 164.16 128.986 164.052 128.583L163.731 127.381L162.992 124.617L167.933 123.169L168.363 123.045C168.633 123.629 168.865 124.278 169.047 124.96C170.419 130.06 168.25 134.147 163.111 135.53Z" fill="url(#paint6_linear_3713_860)"/>
<defs>
<linearGradient id="paint0_linear_3713_860" x1="117.666" y1="13.232" x2="41.961" y2="281.624" gradientUnits="userSpaceOnUse">
<stop stop-color="#00DECA"/>
<stop offset="0.37798" stop-color="#3A8AFA"/>
<stop offset="1" stop-color="#1A6AF4"/>
</linearGradient>
<linearGradient id="paint1_linear_3713_860" x1="153.66" y1="33.471" x2="94.2804" y2="20.0238" gradientUnits="userSpaceOnUse">
<stop stop-color="#1A6AF4"/>
<stop offset="1" stop-color="#1A6AF4" stop-opacity="0"/>
</linearGradient>
<linearGradient id="paint2_linear_3713_860" x1="48.892" y1="142.936" x2="25.872" y2="94.9854" gradientUnits="userSpaceOnUse">
<stop stop-color="#206BEE"/>
<stop offset="1" stop-color="#1F6DF3" stop-opacity="0"/>
</linearGradient>
<linearGradient id="paint3_linear_3713_860" x1="7.08285" y1="-1.71264" x2="13.5513" y2="66.9543" gradientUnits="userSpaceOnUse">
<stop stop-color="#00DECA"/>
<stop offset="0.37798" stop-color="#3A8AFA"/>
<stop offset="1" stop-color="#1A6AF4"/>
</linearGradient>
<linearGradient id="paint4_linear_3713_860" x1="13.5509" y1="-3.18625" x2="20.0104" y2="65.0755" gradientUnits="userSpaceOnUse">
<stop stop-color="#00DECA"/>
<stop offset="0.37798" stop-color="#3A8AFA"/>
<stop offset="1" stop-color="#1A6AF4"/>
</linearGradient>
<linearGradient id="paint5_linear_3713_860" x1="169.478" y1="114.905" x2="122.508" y2="148.231" gradientUnits="userSpaceOnUse">
<stop stop-color="#00DECA"/>
<stop offset="0.37798" stop-color="#3A8AFA"/>
<stop offset="1" stop-color="#1A6AF4"/>
</linearGradient>
<linearGradient id="paint6_linear_3713_860" x1="173.236" y1="118.984" x2="126.568" y2="152.081" gradientUnits="userSpaceOnUse">
<stop stop-color="#00DECA"/>
<stop offset="0.37798" stop-color="#3A8AFA"/>
<stop offset="1" stop-color="#1A6AF4"/>
</linearGradient>
<clipPath id="clip0_3713_860">
<rect width="23.95" height="23.9893" fill="white" transform="matrix(0.965803 -0.259277 0.258362 0.966048 139.691 8.19067)"/>
</clipPath>
</defs>
</svg>
