<svg width="548" height="474" viewBox="0 0 548 474" fill="none" xmlns="http://www.w3.org/2000/svg">
<path d="M0.698242 1.7207H541.083V469.197H0.698242V1.7207Z" fill="white"/>
<path fill-rule="evenodd" clip-rule="evenodd" d="M278.875 19.8044C275.439 19.5705 272.001 19.4409 268.563 19.4159L268.571 18.3438C272.031 18.3689 275.49 18.4993 278.948 18.7346L278.875 19.8044ZM258.248 19.6552C254.818 19.8394 251.391 20.128 247.966 20.5213L247.843 19.4561C251.29 19.0603 254.739 18.7699 258.19 18.5846L258.248 19.6552ZM299.337 22.4348C295.944 21.7927 292.546 21.2526 289.145 20.8148L289.282 19.7513C292.704 20.1919 296.123 20.7353 299.536 21.3813L299.337 22.4348ZM237.754 22.0065C234.381 22.6007 231.012 23.2973 227.649 24.0965L227.401 23.0534C230.784 22.2493 234.174 21.5484 237.568 20.9505L237.754 22.0065ZM319.358 27.4266C316.052 26.402 312.738 25.4751 309.418 24.6463L309.678 23.606C313.017 24.4397 316.351 25.372 319.676 26.4025L319.358 27.4266ZM217.681 26.7718C214.407 27.752 211.139 28.8306 207.88 30.0078L207.516 28.9994C210.794 27.8154 214.08 26.7306 217.374 25.7446L217.681 26.7718ZM334.642 31.8965C334.758 32.1687 334.632 32.4838 334.36 32.6004L329.925 34.4998C329.653 34.6164 329.337 34.4902 329.221 34.2181C329.104 33.9459 329.231 33.6308 329.503 33.5142L332.743 32.1267C331.54 31.6545 330.337 31.1954 329.132 30.7494L329.504 29.7439C330.721 30.1942 331.935 30.6576 333.149 31.1343L331.757 27.8834C331.64 27.6112 331.766 27.2961 332.038 27.1795C332.311 27.063 332.626 27.1891 332.742 27.4613L334.642 31.8965ZM198.27 33.7768C195.127 35.1075 191.993 36.5313 188.87 38.0484L188.402 37.084C191.541 35.5589 194.692 34.1274 197.852 32.7894L198.27 33.7768ZM174.791 45.3842C174.505 45.3082 174.334 45.0146 174.41 44.7284L175.65 40.0654C175.726 39.7793 176.019 39.609 176.305 39.685C176.592 39.7611 176.762 40.0547 176.686 40.3408L175.778 43.7582C176.91 43.1101 178.045 42.4745 179.181 41.8514L179.696 42.7914C178.57 43.4092 177.445 44.0394 176.322 44.6819L179.729 45.5873C180.015 45.6634 180.186 45.957 180.11 46.2432C180.034 46.5293 179.74 46.6996 179.454 46.6236L174.791 45.3842ZM327.483 69.2684C327.779 69.2642 328.022 69.5008 328.026 69.7968L328.095 74.6212C328.099 74.9173 327.863 75.1607 327.567 75.1649C327.271 75.1691 327.027 74.9325 327.023 74.6365L326.973 71.1062L323.911 74.2558L323.143 73.5085L326.204 70.359L322.673 70.4093C322.377 70.4136 322.134 70.177 322.13 69.8809C322.126 69.5849 322.362 69.3415 322.658 69.3373L327.483 69.2684ZM315.984 82.4105C313.341 85.1286 310.699 87.8466 308.056 90.5644L307.287 89.817C309.93 87.0992 312.573 84.3812 315.215 81.6631L315.984 82.4105ZM300.128 98.718L292.2 106.872L291.431 106.124L299.359 97.9706L300.128 98.718ZM105.999 103.044C106.294 103.02 106.553 103.239 106.577 103.535L106.974 108.343C106.998 108.638 106.779 108.897 106.483 108.921C106.188 108.946 105.929 108.726 105.905 108.431L105.616 104.917C104.804 105.884 104.001 106.853 103.209 107.823L102.379 107.145C103.176 106.168 103.984 105.192 104.802 104.219L101.279 104.509C100.984 104.533 100.725 104.314 100.7 104.019C100.676 103.724 100.896 103.465 101.191 103.44L105.999 103.044ZM284.272 115.026C281.629 117.744 278.987 120.462 276.345 123.18L275.576 122.433C278.218 119.714 280.861 116.996 283.503 114.278L284.272 115.026ZM96.9528 115.795C94.8988 118.521 92.9208 121.259 91.0184 124.009L90.1367 123.399C92.0474 120.637 94.034 117.887 96.0966 115.15L96.9528 115.795ZM268.419 131.336C265.777 134.054 263.135 136.773 260.494 139.493L259.725 138.746C262.366 136.026 265.008 133.307 267.65 130.589L268.419 131.336ZM85.4328 132.462C83.6149 135.346 81.8787 138.243 80.2241 141.15L79.2922 140.62C80.9549 137.698 82.6994 134.788 84.5257 131.89L85.4328 132.462ZM252.571 147.652C251.251 149.011 249.931 150.371 248.61 151.732L248.571 151.773L248.523 151.804C248.434 151.864 248.353 151.923 248.276 151.984L247.612 151.142C247.697 151.075 247.785 151.01 247.88 150.945C249.187 149.598 250.494 148.251 251.802 146.905L252.571 147.652ZM75.4213 150.067C73.8779 153.103 72.4218 156.149 71.0531 159.205L70.0746 158.767C71.4506 155.695 72.9142 152.633 74.4656 149.581L75.4213 150.067ZM247.802 152.411C247.727 152.485 247.647 152.564 247.559 152.653L243.8 156.412L243.042 155.653L246.801 151.894L246.802 151.893C246.889 151.806 246.972 151.723 247.051 151.645L247.802 152.411ZM236.282 163.93L228.764 171.448L228.006 170.69L235.524 163.172L236.282 163.93ZM67.1495 168.55C65.9205 171.72 64.7841 174.898 63.74 178.084L62.7211 177.75C63.7712 174.546 64.914 171.35 66.1499 168.163L67.1495 168.55ZM221.246 178.966L213.728 186.484L212.969 185.726L220.488 178.208L221.246 178.966ZM59.9141 191.432L62.9154 189.585C63.1676 189.43 63.4978 189.509 63.653 189.761C63.8081 190.013 63.7295 190.343 63.4773 190.499L59.368 193.027C59.1159 193.182 58.7857 193.104 58.6305 192.851L56.102 188.742C55.9469 188.49 56.0255 188.16 56.2777 188.005C56.5299 187.849 56.8601 187.928 57.0152 188.18L58.8688 191.193C59.1707 189.964 59.4859 188.737 59.8147 187.51L60.8503 187.788C60.525 189.002 60.2129 190.217 59.9141 191.432ZM206.21 194.002L198.692 201.52L197.933 200.762L205.451 193.244L206.21 194.002ZM191.174 209.038L183.655 216.556L182.897 215.798L190.415 208.28L191.174 209.038ZM176.137 224.074L172.378 227.833C170.659 229.553 169.363 231.55 168.49 233.688L167.497 233.283C168.422 231.016 169.797 228.898 171.62 227.075L175.379 223.316L176.137 224.074ZM168.49 247.5C169.363 249.639 170.659 251.635 172.378 253.355L175.941 256.918L175.183 257.676L171.62 254.113C169.797 252.29 168.422 250.172 167.497 247.905L168.49 247.5ZM183.067 264.044L190.193 271.17L189.435 271.928L182.309 264.802L183.067 264.044ZM197.319 278.296L204.445 285.421L203.686 286.18L196.561 279.054L197.319 278.296ZM61.8779 285.059C62.0196 284.799 62.3452 284.703 62.6052 284.844L66.842 287.153C67.102 287.294 67.1979 287.62 67.0563 287.88C66.9146 288.14 66.589 288.236 66.329 288.094L63.2343 286.408C63.5815 287.558 63.9398 288.704 64.3091 289.847L63.2888 290.177C62.9158 289.022 62.5539 287.864 62.2032 286.703L60.5111 289.808C60.3694 290.068 60.0438 290.164 59.7838 290.023C59.5238 289.881 59.4279 289.555 59.5695 289.295L61.8779 285.059ZM211.57 292.547L218.696 299.673L217.938 300.431L210.812 293.305L211.57 292.547ZM70.3061 308.594C68.9756 305.575 67.7275 302.536 66.5611 299.475L67.563 299.094C68.7229 302.137 69.964 305.159 71.2873 308.162L70.3061 308.594ZM225.822 306.799L232.948 313.924L232.19 314.683L225.064 307.557L225.822 306.799ZM79.127 326.217C77.5059 323.331 75.965 320.431 74.5036 317.514L75.4623 317.034C76.916 319.935 78.4489 322.821 80.0618 325.692L79.127 326.217ZM243.793 320.167V324.992C243.793 325.288 243.553 325.528 243.257 325.528H238.432C238.136 325.528 237.896 325.288 237.896 324.992C237.896 324.696 238.136 324.456 238.432 324.456H241.963L239.315 321.808L240.073 321.05L242.721 323.698V320.167C242.721 319.871 242.961 319.631 243.257 319.631C243.553 319.631 243.793 319.871 243.793 320.167ZM89.5374 342.946C87.665 340.207 85.8689 337.458 84.1483 334.695L85.0584 334.128C86.7707 336.878 88.5585 339.614 90.4225 342.341L89.5374 342.946ZM101.287 358.755C99.2077 356.167 97.1992 353.57 95.2612 350.965L96.1214 350.325C98.0513 352.92 100.052 355.505 102.123 358.084L101.287 358.755ZM114.136 373.681C111.889 371.235 109.708 368.784 107.591 366.328L108.403 365.628C110.512 368.076 112.686 370.518 114.926 372.956L114.136 373.681ZM124.367 384.338C123.198 383.171 122.045 382.003 120.906 380.834L121.674 380.086C122.81 381.252 123.96 382.416 125.126 383.581L125.128 383.583C126.242 384.708 127.357 385.816 128.473 386.908L127.723 387.675C126.603 386.579 125.485 385.467 124.367 384.338ZM124.557 384.148L124.367 384.338C124.367 384.337 124.367 384.338 124.367 384.338M139.009 396.914C139.027 397.209 138.802 397.464 138.507 397.482L133.691 397.779C133.396 397.797 133.141 397.572 133.123 397.277C133.105 396.981 133.33 396.727 133.625 396.709L137.153 396.491C136.301 395.73 135.449 394.961 134.599 394.183L135.323 393.392C136.167 394.164 137.012 394.928 137.859 395.684L137.642 392.164C137.623 391.869 137.848 391.614 138.144 391.596C138.439 391.578 138.694 391.802 138.712 392.098L139.009 396.914Z" fill="#8F92A1"/>
<path fill-rule="evenodd" clip-rule="evenodd" d="M414.027 85.3664C414.019 85.0705 414.252 84.8238 414.548 84.8155L419.371 84.6799C419.667 84.6716 419.914 84.9048 419.922 85.2007C419.93 85.4967 419.697 85.7434 419.401 85.7517L415.885 85.8505C416.18 86.1231 416.488 86.4049 416.804 86.6933L416.082 87.4854C415.757 87.1892 415.44 86.8988 415.135 86.6177L415.235 90.1593C415.243 90.4552 415.01 90.7019 414.714 90.7102C414.418 90.7185 414.171 90.4853 414.163 90.1894L414.027 85.3664ZM421.689 92.6997C421.145 92.1549 420.521 91.5592 419.856 90.939L420.588 90.1552C421.257 90.7798 421.891 91.3847 422.448 91.9415C423.821 93.3111 425.174 94.6986 426.507 96.1028L425.729 96.8409C424.403 95.4436 423.056 94.0623 421.689 92.6997ZM440.758 114.425C438.409 111.381 435.979 108.382 433.467 105.44L434.283 104.744C436.806 107.7 439.248 110.712 441.607 113.77L440.758 114.425ZM454.023 133.383C451.969 130.145 449.83 126.931 447.607 123.751L448.486 123.137C450.719 126.33 452.866 129.558 454.929 132.808L454.023 133.383ZM465.572 153.437C463.808 150.051 461.954 146.663 460.01 143.287L460.94 142.752C462.891 146.141 464.752 149.542 466.523 152.942L465.572 153.437ZM294.655 161.676V156.851C294.655 156.555 294.895 156.315 295.191 156.315H300.016C300.312 156.315 300.552 156.555 300.552 156.851C300.552 157.147 300.312 157.387 300.016 157.387H296.485L298.651 159.553L297.893 160.311L295.727 158.145V161.676C295.727 161.972 295.487 162.212 295.191 162.212C294.895 162.212 294.655 161.972 294.655 161.676ZM475.408 174.39C473.94 170.891 472.373 167.36 470.708 163.813L471.679 163.357C473.35 166.918 474.923 170.463 476.397 173.975L475.408 174.39ZM304.812 165.714L310.974 171.876L310.216 172.634L304.054 166.472L304.812 165.714ZM317.136 178.037L323.297 184.199L322.539 184.957L316.377 178.795L317.136 178.037ZM481.178 189.375C480.688 187.978 480.181 186.57 479.658 185.155L480.663 184.783C481.191 186.208 481.701 187.625 482.194 189.032L483.742 185.854C483.872 185.588 484.193 185.477 484.459 185.607C484.725 185.736 484.836 186.057 484.706 186.323L482.593 190.661C482.464 190.927 482.143 191.038 481.876 190.908L477.539 188.795C477.273 188.665 477.162 188.345 477.292 188.078C477.421 187.812 477.742 187.702 478.008 187.831L481.178 189.375ZM329.459 190.36L335.62 196.522L334.862 197.28L328.7 191.118L329.459 190.36ZM341.782 202.683L350.223 211.125L349.465 211.883L341.023 203.441L341.782 202.683ZM360.944 221.846L366.305 227.207C368.129 229.03 369.503 231.148 370.428 233.415L369.435 233.82C368.563 231.682 367.267 229.685 365.547 227.965L360.186 222.604L360.944 221.846ZM370.428 248.037C369.503 250.304 368.129 252.422 366.305 254.245L362.415 258.135L361.657 257.377L365.547 253.487C367.267 251.767 368.563 249.771 369.435 247.632L370.428 248.037ZM354.636 265.915L346.856 273.694L346.098 272.936L353.878 265.157L354.636 265.915ZM339.077 281.474L331.297 289.253L330.539 288.495L338.319 280.716L339.077 281.474ZM482.911 285.39C483.166 285.239 483.494 285.324 483.645 285.579L486.099 289.733C486.249 289.988 486.165 290.317 485.91 290.467C485.655 290.618 485.326 290.533 485.175 290.278L483.394 287.262C483.321 287.581 483.248 287.91 483.174 288.245L482.127 288.016C482.206 287.656 482.284 287.303 482.364 286.958L479.302 288.766C479.047 288.917 478.718 288.832 478.567 288.577C478.417 288.322 478.501 287.994 478.756 287.843L482.911 285.39ZM482.166 292.829C481.972 293.636 481.769 294.414 481.552 295.122C481.04 296.788 480.511 298.433 479.965 300.059L478.949 299.717C479.492 298.101 480.018 296.465 480.527 294.808C480.735 294.129 480.932 293.374 481.123 292.579L482.166 292.829ZM323.518 297.033L316.653 303.897L315.895 303.139L322.76 296.275L323.518 297.033ZM310.704 309.846L304.755 315.795L303.997 315.037L309.946 309.088L310.704 309.846ZM476.386 309.793C475.093 313.018 473.714 316.18 472.238 319.3L471.269 318.842C472.735 315.741 474.106 312.599 475.391 309.395L476.386 309.793ZM298.806 321.744L295.838 324.713C295.837 324.714 295.836 324.715 295.835 324.715C294.698 325.89 293.567 327.055 292.441 328.212L291.673 327.464C292.799 326.307 293.93 325.142 295.067 323.967L295.074 323.961L298.048 320.986L298.806 321.744ZM467.522 328.538C465.877 331.534 464.131 334.509 462.273 337.482L461.364 336.914C463.211 333.957 464.948 330.999 466.582 328.022L467.522 328.538ZM285.625 335.176C283.326 337.513 281.045 339.821 278.776 342.109L278.015 341.354C280.283 339.067 282.563 336.76 284.86 334.424L285.625 335.176ZM456.555 346.13C454.625 348.9 452.591 351.685 450.446 354.5L449.593 353.85C451.73 351.047 453.754 348.274 455.676 345.517L456.555 346.13ZM271.904 349.017C269.602 351.324 267.307 353.619 265.016 355.909L264.258 355.151C266.549 352.861 268.843 350.567 271.145 348.259L271.904 349.017ZM444.019 362.626C442.939 363.945 441.835 365.273 440.705 366.611C440.471 366.889 440.252 367.153 440.04 367.411L439.212 366.73C439.426 366.47 439.648 366.202 439.886 365.92C441.012 364.585 442.113 363.261 443.189 361.947L444.019 362.626ZM258.124 362.796C255.833 365.086 253.539 367.38 251.237 369.688L250.478 368.931C252.781 366.623 255.075 364.328 257.366 362.038L258.124 362.796ZM437.652 370.017C437.356 370.037 437.101 369.814 437.08 369.519L436.753 364.705C436.733 364.41 436.956 364.154 437.251 364.134C437.546 364.114 437.802 364.337 437.822 364.632L438.086 368.511L438.09 368.514L438.529 368.883L442.393 368.62C442.688 368.6 442.944 368.823 442.964 369.118C442.984 369.413 442.761 369.669 442.465 369.689L437.652 370.017ZM244.367 376.594C242.099 378.88 239.819 381.187 237.522 383.523L236.757 382.771C239.056 380.434 241.337 378.126 243.606 375.839L244.367 376.594ZM226.938 394.143C226.642 394.148 226.398 393.912 226.393 393.616L226.315 388.792C226.31 388.496 226.546 388.252 226.842 388.247C227.138 388.242 227.382 388.478 227.387 388.774L227.444 392.305C228.28 391.444 229.112 390.587 229.941 389.736L230.709 390.484C229.881 391.334 229.05 392.19 228.216 393.05L231.745 392.993C232.041 392.988 232.285 393.224 232.29 393.52C232.295 393.816 232.059 394.06 231.762 394.065L226.938 394.143ZM364.827 429.011C365.112 429.093 365.276 429.39 365.193 429.675L363.853 434.31C363.771 434.594 363.474 434.758 363.189 434.676C362.905 434.594 362.741 434.296 362.823 434.012L363.805 430.615C363.593 430.731 363.38 430.846 363.167 430.961L362.658 430.017C362.866 429.905 363.073 429.793 363.281 429.68L359.895 428.701C359.61 428.618 359.446 428.321 359.528 428.037C359.611 427.752 359.908 427.588 360.192 427.671L364.827 429.011ZM359.599 432.842C359.001 433.151 358.402 433.456 357.802 433.757C356.062 434.634 354.325 435.482 352.591 436.302L352.132 435.332C353.858 434.516 355.587 433.672 357.32 432.8C357.917 432.499 358.513 432.196 359.108 431.889L359.599 432.842ZM341.988 440.981C338.361 442.466 334.745 443.827 331.139 445.063L330.791 444.049C334.377 442.82 337.973 441.467 341.582 439.989L341.988 440.981ZM222.698 444.776C222.565 444.512 222.672 444.189 222.936 444.057L227.248 441.892C227.513 441.759 227.835 441.866 227.968 442.131C228.101 442.395 227.994 442.717 227.729 442.85L224.579 444.432C226.005 444.894 227.428 445.339 228.848 445.765L228.54 446.792C227.107 446.362 225.672 445.914 224.234 445.447L225.821 448.607C225.953 448.872 225.847 449.194 225.582 449.327C225.317 449.46 224.995 449.353 224.862 449.088L222.698 444.776ZM320.062 448.475C316.294 449.504 312.533 450.396 308.776 451.151L308.565 450.1C312.298 449.35 316.035 448.464 319.779 447.441L320.062 448.475ZM251.107 452.072C247.33 451.444 243.541 450.683 239.736 449.789L239.981 448.746C243.764 449.634 247.53 450.39 251.282 451.014L251.107 452.072ZM297.332 453.03C293.482 453.52 289.633 453.867 285.781 454.07L285.724 453C289.55 452.798 293.373 452.454 297.196 451.967L297.332 453.03ZM274.183 454.25C270.331 454.167 266.473 453.941 262.605 453.574L262.706 452.507C266.549 452.872 270.381 453.095 274.206 453.178L274.183 454.25Z" fill="#8F92A1"/>
<path fill-rule="evenodd" clip-rule="evenodd" d="M95.1387 217.779L95.1395 217.778C85.659 198.64 67.4139 190.109 44.2084 196.327C16.9421 203.633 5.29197 225.129 12.5181 252.098C13.5502 255.95 14.9691 259.698 16.4781 263.01L16.4772 263.01C25.9577 282.148 44.3962 290.628 67.795 284.358C95.0614 277.052 106.325 255.659 99.1503 228.884C98.0665 224.839 96.6477 221.09 95.1387 217.779Z" fill="white"/>
<path fill-rule="evenodd" clip-rule="evenodd" d="M16.4781 263.01C14.9691 259.698 13.5502 255.95 12.5181 252.098C5.29197 225.129 16.9421 203.633 44.2084 196.327C67.4139 190.109 85.659 198.64 95.1395 217.778L95.1387 217.779C96.6477 221.09 98.0665 224.839 99.1503 228.884C106.325 255.659 95.0614 277.052 67.795 284.358C44.3962 290.628 25.9577 282.148 16.4772 263.01L16.4781 263.01ZM17.4603 262.579C22.1022 271.927 28.8971 278.617 37.3383 282.226C45.797 285.843 56.0043 286.407 67.5175 283.322C80.9287 279.729 90.291 272.707 95.4503 263.402C100.613 254.09 101.648 242.346 98.1146 229.161C97.0483 225.181 95.651 221.489 94.163 218.223L94.1564 218.209C89.5128 208.857 82.7635 202.155 74.3944 198.528C66.0091 194.893 55.9003 194.304 44.4859 197.362C31.0741 200.956 21.6131 208.005 16.3637 217.363C11.1118 226.726 9.99627 238.543 13.5537 251.82C14.5681 255.606 15.965 259.298 17.4538 262.565L17.4603 262.579Z" fill="#8F92A1"/>
<g clip-path="url(#clip0)">
<path d="M55.3808 211.578L52.2039 213.332L43.547 218.134L40.3701 219.888V236.507L43.547 238.26L52.2834 243.063L55.4602 244.816L58.6371 243.063L67.2146 238.26L70.3915 236.507V219.888L67.2146 218.134L58.5577 213.332L55.3808 211.578ZM46.7238 233V223.394L55.3808 218.592L64.0378 223.394V233L55.3808 237.803L46.7238 233Z" fill="#2A5ADA"/>
</g>
<path fill-rule="evenodd" clip-rule="evenodd" d="M531.521 217.779L531.521 217.778C522.041 198.64 503.796 190.109 480.59 196.327C453.324 203.633 441.674 225.129 448.9 252.098C449.932 255.95 451.351 259.698 452.86 263.01L452.859 263.01C462.34 282.148 480.778 290.628 504.177 284.358C531.443 277.052 542.707 255.659 535.532 228.884C534.448 224.839 533.03 221.09 531.521 217.779Z" fill="white"/>
<path fill-rule="evenodd" clip-rule="evenodd" d="M452.86 263.01C451.351 259.698 449.932 255.95 448.9 252.098C441.674 225.129 453.324 203.633 480.59 196.327C503.796 190.109 522.041 198.64 531.521 217.778L531.521 217.779C533.03 221.09 534.448 224.839 535.532 228.884C542.707 255.659 531.443 277.052 504.177 284.358C480.778 290.628 462.34 282.148 452.859 263.01L452.86 263.01ZM453.842 262.579C458.484 271.927 465.279 278.617 473.72 282.226C482.179 285.843 492.386 286.407 503.899 283.322C517.311 279.729 526.673 272.707 531.832 263.402C536.995 254.09 538.029 242.346 534.496 229.161C533.43 225.181 532.033 221.489 530.545 218.223L530.538 218.209C525.895 208.857 519.145 202.155 510.776 198.528C502.391 194.893 492.282 194.304 480.868 197.362C467.456 200.956 457.995 208.005 452.746 217.363C447.494 226.726 446.378 238.543 449.936 251.82C450.95 255.606 452.347 259.298 453.836 262.565L453.842 262.579Z" fill="#8F92A1"/>
<g clip-path="url(#clip1)">
<path d="M485.195 222.852L492.483 215.564L499.774 222.855L504.015 218.615L492.483 207.083L480.955 218.611L485.195 222.852L485.195 222.852ZM473.72 225.846L477.96 221.605L482.201 225.845L477.96 230.086L473.72 225.846ZM485.195 228.841L492.483 236.129L499.774 228.838L504.017 233.076L504.015 233.078L492.483 244.61L480.955 233.082L480.949 233.076L485.196 228.841L485.195 228.841ZM502.765 225.848L507.006 221.608L511.246 225.848L507.006 230.089L502.765 225.848Z" fill="#F3BA2F"/>
<path d="M496.784 225.844H496.786L492.483 221.541L489.303 224.72L488.937 225.086L488.184 225.84L488.178 225.845L488.184 225.852L492.483 230.151L496.786 225.848L496.788 225.846L496.784 225.844" fill="#F3BA2F"/>
</g>
<path fill-rule="evenodd" clip-rule="evenodd" d="M443.602 379.68L443.602 379.679C434.122 360.541 415.877 352.01 392.671 358.228C365.405 365.534 353.755 387.031 360.981 413.999C362.013 417.851 363.432 421.6 364.941 424.911L364.94 424.912C374.421 444.05 392.859 452.529 416.258 446.259C443.524 438.953 454.788 417.56 447.613 390.785C446.529 386.74 445.111 382.992 443.602 379.68Z" fill="white"/>
<path fill-rule="evenodd" clip-rule="evenodd" d="M364.941 424.911C363.432 421.6 362.013 417.851 360.981 413.999C353.755 387.031 365.405 365.534 392.671 358.228C415.877 352.01 434.122 360.541 443.602 379.679L443.602 379.68C445.111 382.992 446.529 386.74 447.613 390.785C454.788 417.56 443.524 438.953 416.258 446.259C392.859 452.529 374.421 444.05 364.94 424.912L364.941 424.911ZM365.923 424.481C370.565 433.829 377.36 440.518 385.801 444.128C394.26 447.744 404.467 448.309 415.98 445.224C429.392 441.63 438.754 434.609 443.913 425.303C449.076 415.992 450.11 404.248 446.577 391.062C445.511 387.083 444.114 383.39 442.626 380.125L442.619 380.11C437.976 370.759 431.226 364.056 422.857 360.429C414.472 356.795 404.363 356.205 392.949 359.264C379.537 362.858 370.076 369.906 364.827 379.265C359.575 388.628 358.459 400.445 362.017 413.721C363.031 417.507 364.428 421.2 365.917 424.467L365.923 424.481Z" fill="#8F92A1"/>
<path d="M392.85 400.86C391.951 400.313 391.379 399.3 391.379 398.259V392.318C391.379 392.099 391.433 391.88 391.542 391.688C391.896 391.086 392.686 390.867 393.286 391.223L406.632 399.053C407.422 399.519 407.885 400.34 407.885 401.271V407.431C407.885 407.705 407.803 407.979 407.667 408.225C407.231 408.937 406.278 409.184 405.57 408.746L392.85 400.86ZM412.76 389.58C413.55 390.046 414.013 390.867 414.013 391.798V404.31C414.013 404.693 413.822 405.022 413.496 405.214L410.581 406.856C410.554 406.884 410.5 406.884 410.472 406.911V399.984C410.472 399.081 410.009 398.259 409.247 397.794L397.535 390.757V382.845C397.535 382.626 397.589 382.407 397.698 382.215C398.052 381.613 398.842 381.394 399.441 381.75L412.76 389.58ZM418.589 380.326C419.379 380.791 419.842 381.613 419.842 382.544V400.806C419.842 401.189 419.624 401.517 419.297 401.709L416.519 403.215V390.511C416.519 389.608 416.056 388.786 415.293 388.321L403.309 381.093V373.673C403.309 373.454 403.363 373.235 403.472 373.043C403.826 372.441 404.616 372.222 405.215 372.578L418.589 380.326Z" fill="#00D395"/>
<path fill-rule="evenodd" clip-rule="evenodd" d="M179.842 50.5171L179.843 50.5163C170.362 31.3783 152.117 22.8472 128.912 29.0651C101.645 36.3711 89.9951 57.8677 97.2212 84.8358C98.2534 88.688 99.6722 92.4365 101.181 95.7482L101.18 95.7487C110.661 114.887 129.099 123.366 152.498 117.096C179.765 109.79 191.028 88.3974 183.853 61.6218C182.77 57.5772 181.351 53.8287 179.842 50.5171Z" fill="white"/>
<path fill-rule="evenodd" clip-rule="evenodd" d="M101.181 95.7482C99.6722 92.4365 98.2534 88.688 97.2212 84.8358C89.9951 57.8677 101.645 36.3711 128.912 29.0651C152.117 22.8472 170.362 31.3783 179.843 50.5163L179.842 50.5171C181.351 53.8287 182.77 57.5772 183.853 61.6218C191.028 88.3974 179.765 109.79 152.498 117.096C129.099 123.366 110.661 114.887 101.18 95.7487L101.181 95.7482ZM102.163 95.3178C106.805 104.666 113.6 111.355 122.041 114.965C130.5 118.581 140.707 119.146 152.221 116.061C165.632 112.467 174.994 105.445 180.153 96.1402C185.316 86.8285 186.351 75.0845 182.818 61.8994C181.751 57.9197 180.354 54.2272 178.866 50.9617L178.86 50.9471C174.216 41.5955 167.467 34.8933 159.098 31.266C150.712 27.6317 140.603 27.0423 129.189 30.1008C115.777 33.6944 106.316 40.7431 101.067 50.1017C95.8149 59.4648 94.6994 71.2817 98.2568 84.5583C99.2712 88.344 100.668 92.0364 102.157 95.3036L102.163 95.3178Z" fill="#8F92A1"/>
<path d="M139.875 46.46L139.669 47.1611V67.5039L139.875 67.7099L149.318 62.1282L139.875 46.46Z" fill="#62688F"/>
<path d="M139.879 46.46L130.436 62.1282L139.879 67.7099V57.836V46.46Z" fill="#8A92B2"/>
<path d="M139.874 69.4977L139.758 69.6396V76.886L139.874 77.2256L149.323 63.9189L139.874 69.4977Z" fill="#62688F"/>
<path d="M139.877 77.2256V69.4977L130.434 63.9189L139.877 77.2256Z" fill="#8A92B2"/>
<path d="M139.874 67.7098L149.317 62.1281L139.874 57.8359V67.7098Z" fill="#454A75"/>
<path d="M130.434 62.1281L139.877 67.7098V57.8359L130.434 62.1281Z" fill="#62688F"/>
<path d="M112.266 84.2348H117.991V85.2383H113.346V88.0947H117.682V89.0982H113.346V92.3405H118.223V93.3441H112.266V84.2348Z" fill="black"/>
<path d="M123.006 88.1719H121.231V91.1826C121.231 91.3799 121.235 91.5643 121.243 91.7358C121.252 91.8988 121.286 92.0446 121.346 92.1733C121.406 92.2934 121.496 92.392 121.617 92.4692C121.737 92.5378 121.908 92.5721 122.131 92.5721C122.277 92.5721 122.427 92.555 122.581 92.5207C122.736 92.4864 122.882 92.4349 123.019 92.3663L123.058 93.2798C122.886 93.357 122.693 93.4127 122.479 93.447C122.273 93.4814 122.075 93.4985 121.887 93.4985C121.526 93.4985 121.239 93.4513 121.025 93.357C120.81 93.2626 120.643 93.1297 120.523 92.9581C120.403 92.7866 120.321 92.5764 120.278 92.3277C120.244 92.0704 120.227 91.7873 120.227 91.4785V88.1719H118.915V87.3227H120.227V85.6115H121.231V87.3227H123.006V88.1719Z" fill="black"/>
<path d="M124.248 83.6172H125.252V88.159H125.277C125.346 88.0389 125.44 87.9231 125.561 87.8116C125.681 87.6915 125.822 87.5843 125.985 87.4899C126.157 87.3956 126.345 87.3184 126.551 87.2584C126.757 87.1983 126.976 87.1683 127.207 87.1683C127.602 87.1683 127.941 87.2283 128.224 87.3484C128.516 87.4685 128.756 87.6358 128.944 87.8502C129.133 88.0646 129.27 88.3263 129.356 88.635C129.45 88.9353 129.498 89.2655 129.498 89.6258V93.3441H128.494V89.7287C128.494 89.2226 128.383 88.8238 128.16 88.5321C127.937 88.2405 127.589 88.0947 127.117 88.0947C126.791 88.0947 126.508 88.1504 126.268 88.2619C126.037 88.3734 125.844 88.5321 125.689 88.738C125.543 88.9438 125.432 89.1883 125.355 89.4714C125.286 89.7544 125.252 90.0675 125.252 90.4106V93.3441H124.248V83.6172Z" fill="black"/>
<path d="M136.776 92.2505C136.415 92.7137 136.021 93.0396 135.592 93.2283C135.163 93.4084 134.666 93.4985 134.099 93.4985C133.628 93.4985 133.203 93.417 132.826 93.2541C132.448 93.0825 132.127 92.8552 131.861 92.5721C131.603 92.2891 131.402 91.9546 131.256 91.5686C131.119 91.1826 131.05 90.7709 131.05 90.3334C131.05 89.8702 131.127 89.4456 131.282 89.0596C131.436 88.6651 131.651 88.3305 131.925 88.0561C132.2 87.773 132.525 87.5543 132.903 87.3999C133.28 87.2455 133.692 87.1683 134.138 87.1683C134.558 87.1683 134.944 87.2412 135.296 87.387C135.648 87.5243 135.948 87.7301 136.197 88.0046C136.454 88.2705 136.651 88.6007 136.789 88.9953C136.926 89.3813 136.994 89.823 136.994 90.3205V90.6422H132.131C132.148 90.8995 132.208 91.1483 132.311 91.3884C132.423 91.62 132.564 91.8259 132.736 92.006C132.907 92.1776 133.109 92.3148 133.34 92.4177C133.572 92.5207 133.825 92.5721 134.099 92.5721C134.537 92.5721 134.906 92.4949 135.206 92.3405C135.506 92.1861 135.776 91.9588 136.017 91.6586L136.776 92.2505ZM135.914 89.793C135.896 89.2784 135.729 88.8666 135.412 88.5578C135.094 88.2491 134.657 88.0947 134.099 88.0947C133.542 88.0947 133.092 88.2491 132.748 88.5578C132.405 88.8666 132.2 89.2784 132.131 89.793H135.914Z" fill="black"/>
<path d="M138.547 88.7508C138.547 88.4764 138.538 88.219 138.521 87.9789C138.504 87.7387 138.495 87.52 138.495 87.3227H139.448C139.448 87.4857 139.452 87.6486 139.46 87.8116C139.469 87.9746 139.473 88.1418 139.473 88.3134H139.499C139.568 88.1676 139.662 88.026 139.782 87.8888C139.911 87.7516 140.061 87.6315 140.232 87.5285C140.404 87.417 140.597 87.3313 140.811 87.2712C141.026 87.2026 141.257 87.1683 141.506 87.1683C141.575 87.1683 141.643 87.1726 141.712 87.1812C141.781 87.1897 141.849 87.2069 141.918 87.2326L141.854 88.2491C141.682 88.1976 141.502 88.1719 141.313 88.1719C140.696 88.1719 140.245 88.3734 139.962 88.7766C139.688 89.1711 139.55 89.7158 139.55 90.4106V93.3441H138.547V88.7508Z" fill="black"/>
<path d="M148.222 92.2505C147.862 92.7137 147.467 93.0396 147.038 93.2283C146.61 93.4084 146.112 93.4985 145.546 93.4985C145.074 93.4985 144.65 93.417 144.272 93.2541C143.895 93.0825 143.573 92.8552 143.307 92.5721C143.05 92.2891 142.848 91.9546 142.702 91.5686C142.565 91.1826 142.497 90.7709 142.497 90.3334C142.497 89.8702 142.574 89.4456 142.728 89.0596C142.883 88.6651 143.097 88.3305 143.372 88.0561C143.646 87.773 143.972 87.5543 144.349 87.3999C144.727 87.2455 145.139 87.1683 145.585 87.1683C146.005 87.1683 146.391 87.2412 146.743 87.387C147.094 87.5243 147.394 87.7301 147.643 88.0046C147.9 88.2705 148.098 88.6007 148.235 88.9953C148.372 89.3813 148.441 89.823 148.441 90.3205V90.6422H143.577C143.595 90.8995 143.655 91.1483 143.758 91.3884C143.869 91.62 144.011 91.8259 144.182 92.006C144.354 92.1776 144.555 92.3148 144.787 92.4177C145.018 92.5207 145.271 92.5721 145.546 92.5721C145.983 92.5721 146.352 92.4949 146.652 92.3405C146.953 92.1861 147.223 91.9588 147.463 91.6586L148.222 92.2505ZM147.36 89.793C147.343 89.2784 147.176 88.8666 146.858 88.5578C146.541 88.2491 146.103 88.0947 145.546 88.0947C144.988 88.0947 144.538 88.2491 144.195 88.5578C143.852 88.8666 143.646 89.2784 143.577 89.793H147.36Z" fill="black"/>
<path d="M155.243 91.916C155.243 92.1904 155.251 92.4478 155.269 92.6879C155.286 92.9281 155.294 93.1468 155.294 93.3441H154.342C154.342 93.1811 154.338 93.0182 154.329 92.8552C154.321 92.6922 154.316 92.525 154.316 92.3534H154.291C154.222 92.4992 154.123 92.6408 153.995 92.778C153.875 92.9152 153.729 93.0396 153.557 93.1511C153.386 93.2541 153.193 93.3355 152.978 93.3956C152.764 93.4642 152.532 93.4985 152.284 93.4985C151.889 93.4985 151.546 93.4385 151.254 93.3184C150.971 93.1983 150.735 93.031 150.547 92.8166C150.358 92.6022 150.216 92.3448 150.122 92.0446C150.036 91.7358 149.993 91.4013 149.993 91.041V87.3227H150.997V90.9381C150.997 91.4442 151.108 91.843 151.331 92.1347C151.554 92.4263 151.902 92.5721 152.374 92.5721C152.7 92.5721 152.978 92.5164 153.21 92.4049C153.45 92.2934 153.643 92.1347 153.789 91.9288C153.943 91.723 154.055 91.4785 154.123 91.1954C154.201 90.9124 154.239 90.5993 154.239 90.2562V87.3227H155.243V91.916Z" fill="black"/>
<path d="M157.143 88.7508C157.143 88.4764 157.134 88.219 157.117 87.9789C157.1 87.7387 157.091 87.52 157.091 87.3227H158.043C158.043 87.4857 158.048 87.6486 158.056 87.8116C158.065 87.9746 158.069 88.1418 158.069 88.3134H158.095C158.163 88.1676 158.258 88.026 158.378 87.8888C158.507 87.7516 158.657 87.6315 158.828 87.5285C159 87.417 159.193 87.3313 159.407 87.2712C159.622 87.2026 159.853 87.1683 160.102 87.1683C160.428 87.1683 160.698 87.2112 160.913 87.297C161.136 87.3741 161.32 87.4728 161.466 87.5929C161.612 87.7044 161.723 87.8288 161.8 87.966C161.886 88.0947 161.955 88.2105 162.006 88.3134C162.229 87.9531 162.487 87.6744 162.778 87.4771C163.07 87.2712 163.447 87.1683 163.91 87.1683C164.339 87.1683 164.7 87.2283 164.991 87.3484C165.283 87.4599 165.519 87.6272 165.699 87.8502C165.879 88.0646 166.008 88.3305 166.085 88.6479C166.162 88.9567 166.201 89.3041 166.201 89.6901V93.3441H165.197V89.7415C165.197 89.5357 165.176 89.3341 165.133 89.1368C165.09 88.9395 165.013 88.7637 164.901 88.6093C164.79 88.4549 164.639 88.3305 164.451 88.2362C164.262 88.1418 164.022 88.0947 163.73 88.0947C163.516 88.0947 163.314 88.1375 163.126 88.2233C162.937 88.3091 162.77 88.4292 162.624 88.5836C162.487 88.738 162.375 88.9267 162.289 89.1497C162.212 89.3641 162.173 89.6043 162.173 89.8702V93.3441H161.17V89.9345C161.17 89.2655 161.08 88.7937 160.9 88.5193C160.72 88.2362 160.424 88.0947 160.012 88.0947C159.686 88.0947 159.403 88.1504 159.163 88.2619C158.931 88.3734 158.738 88.5321 158.584 88.738C158.438 88.9438 158.326 89.1883 158.249 89.4714C158.181 89.7544 158.146 90.0675 158.146 90.4106V93.3441H157.143V88.7508Z" fill="black"/>
<path d="M36.0879 259.028C35.8134 258.659 35.4746 258.385 35.0715 258.205C34.6683 258.016 34.248 257.922 33.8106 257.922C33.3045 257.922 32.837 258.025 32.4082 258.231C31.9879 258.436 31.6233 258.715 31.3145 259.067C31.0057 259.41 30.7656 259.813 30.594 260.276C30.4225 260.731 30.3367 261.207 30.3367 261.704C30.3367 262.236 30.4225 262.734 30.594 263.197C30.7656 263.652 31.0014 264.05 31.3017 264.394C31.6104 264.728 31.975 264.994 32.3953 265.191C32.8242 265.389 33.2959 265.487 33.8106 265.487C34.3681 265.487 34.8656 265.38 35.3031 265.166C35.7405 264.943 36.1222 264.625 36.4482 264.213L37.2588 264.895C36.847 265.444 36.3495 265.847 35.7663 266.105C35.1916 266.362 34.5397 266.491 33.8106 266.491C33.1587 266.491 32.5497 266.371 31.9836 266.13C31.4174 265.89 30.9242 265.56 30.5039 265.14C30.0922 264.711 29.7663 264.205 29.5261 263.622C29.2945 263.038 29.1787 262.399 29.1787 261.704C29.1787 261.035 29.2902 260.409 29.5132 259.826C29.7448 259.243 30.0665 258.737 30.4782 258.308C30.8899 257.879 31.3788 257.54 31.945 257.291C32.5111 257.043 33.133 256.918 33.8106 256.918C34.4282 256.918 35.02 257.03 35.5861 257.253C36.1608 257.476 36.6412 257.84 37.0272 258.346L36.0879 259.028Z" fill="black"/>
<path d="M38.5853 256.532H39.5889V261.074H39.6146C39.6832 260.954 39.7776 260.838 39.8977 260.727C40.0177 260.607 40.1593 260.499 40.3222 260.405C40.4938 260.311 40.6825 260.233 40.8884 260.173C41.0942 260.113 41.3129 260.083 41.5445 260.083C41.9391 260.083 42.2779 260.143 42.561 260.263C42.8526 260.384 43.0928 260.551 43.2815 260.765C43.4702 260.98 43.6074 261.241 43.6932 261.55C43.7876 261.85 43.8347 262.181 43.8347 262.541V266.259H42.8312V262.644C42.8312 262.138 42.7197 261.739 42.4966 261.447C42.2736 261.156 41.9262 261.01 41.4545 261.01C41.1285 261.01 40.8455 261.065 40.6053 261.177C40.3737 261.288 40.1807 261.447 40.0263 261.653C39.8805 261.859 39.769 262.103 39.6918 262.386C39.6232 262.669 39.5889 262.983 39.5889 263.326V266.259H38.5853V256.532Z" fill="black"/>
<path d="M45.6574 261.01C45.9662 260.692 46.3308 260.461 46.7511 260.315C47.1799 260.161 47.6131 260.083 48.0506 260.083C48.9426 260.083 49.5859 260.293 49.9805 260.714C50.3751 261.134 50.5724 261.773 50.5724 262.631V265.217C50.5724 265.389 50.5809 265.569 50.5981 265.757C50.6153 265.937 50.6367 266.105 50.6624 266.259H49.6975C49.6631 266.122 49.6417 265.972 49.6331 265.809C49.6331 265.637 49.6331 265.487 49.6331 265.359H49.6074C49.4101 265.667 49.1442 265.92 48.8097 266.118C48.4837 266.315 48.0892 266.414 47.626 266.414C47.3172 266.414 47.0256 266.375 46.7511 266.298C46.4852 266.221 46.2493 266.109 46.0434 265.963C45.8461 265.809 45.6875 265.62 45.5674 265.397C45.4473 265.174 45.3872 264.917 45.3872 264.625C45.3872 264.128 45.5159 263.737 45.7732 263.454C46.0306 263.171 46.3479 262.961 46.7253 262.824C47.1113 262.687 47.5231 262.601 47.9605 262.567C48.4065 262.532 48.814 262.515 49.1828 262.515H49.5688V262.335C49.5688 261.897 49.4358 261.567 49.1699 261.344C48.9126 261.121 48.5481 261.01 48.0763 261.01C47.7504 261.01 47.4287 261.065 47.1113 261.177C46.8025 261.28 46.5281 261.443 46.2879 261.666L45.6574 261.01ZM48.5652 263.364C47.9219 263.364 47.4115 263.454 47.0341 263.634C46.6567 263.815 46.468 264.11 46.468 264.522C46.468 264.9 46.5924 265.17 46.8411 265.333C47.0985 265.487 47.4158 265.564 47.7932 265.564C48.0849 265.564 48.3379 265.517 48.5524 265.423C48.7754 265.32 48.9598 265.187 49.1056 265.024C49.2514 264.861 49.3629 264.672 49.4401 264.458C49.5173 264.235 49.5602 263.999 49.5688 263.75V263.364H48.5652Z" fill="black"/>
<path d="M52.4966 260.238H53.5002V266.259H52.4966V260.238ZM52.265 257.883C52.265 257.686 52.3336 257.514 52.4708 257.369C52.6167 257.223 52.7925 257.15 52.9984 257.15C53.2042 257.15 53.3758 257.223 53.513 257.369C53.6588 257.514 53.7317 257.686 53.7317 257.883C53.7317 258.098 53.6631 258.273 53.5259 258.411C53.3886 258.548 53.2128 258.617 52.9984 258.617C52.7839 258.617 52.6081 258.548 52.4708 258.411C52.3336 258.273 52.265 258.098 52.265 257.883Z" fill="black"/>
<path d="M55.4974 261.666C55.4974 261.391 55.4889 261.134 55.4717 260.894C55.4546 260.654 55.446 260.435 55.446 260.238H56.3981C56.3981 260.401 56.4024 260.564 56.411 260.727C56.4195 260.89 56.4238 261.057 56.4238 261.228H56.4496C56.5182 261.083 56.6125 260.941 56.7326 260.804C56.8613 260.667 57.0114 260.547 57.1829 260.444C57.3545 260.332 57.5475 260.246 57.7619 260.186C57.9764 260.118 58.2079 260.083 58.4567 260.083C58.8513 260.083 59.1901 260.143 59.4731 260.263C59.7648 260.384 60.0049 260.551 60.1936 260.765C60.3824 260.98 60.5196 261.241 60.6054 261.55C60.6997 261.85 60.7469 262.181 60.7469 262.541V266.259H59.7433V262.644C59.7433 262.138 59.6318 261.739 59.4088 261.447C59.1858 261.156 58.8384 261.01 58.3666 261.01C58.0407 261.01 57.7576 261.065 57.5175 261.177C57.2859 261.288 57.0929 261.447 56.9385 261.653C56.7927 261.859 56.6811 262.103 56.6039 262.386C56.5353 262.669 56.501 262.983 56.501 263.326V266.259H55.4974V261.666Z" fill="black"/>
<path d="M62.7369 256.532H63.7404V266.259H62.7369V256.532Z" fill="black"/>
<path d="M65.8403 260.238H66.8439V266.259H65.8403V260.238ZM65.6088 257.883C65.6088 257.686 65.6774 257.514 65.8146 257.369C65.9604 257.223 66.1363 257.15 66.3421 257.15C66.548 257.15 66.7195 257.223 66.8568 257.369C67.0026 257.514 67.0755 257.686 67.0755 257.883C67.0755 258.098 67.0069 258.273 66.8697 258.411C66.7324 258.548 66.5566 258.617 66.3421 258.617C66.1277 258.617 65.9519 258.548 65.8146 258.411C65.6774 258.273 65.6088 258.098 65.6088 257.883Z" fill="black"/>
<path d="M68.8412 261.666C68.8412 261.391 68.8326 261.134 68.8155 260.894C68.7983 260.654 68.7897 260.435 68.7897 260.238H69.7419C69.7419 260.401 69.7461 260.564 69.7547 260.727C69.7633 260.89 69.7676 261.057 69.7676 261.228H69.7933C69.8619 261.083 69.9563 260.941 70.0764 260.804C70.205 260.667 70.3551 260.547 70.5267 260.444C70.6982 260.332 70.8912 260.246 71.1057 260.186C71.3201 260.118 71.5517 260.083 71.8005 260.083C72.195 260.083 72.5338 260.143 72.8169 260.263C73.1085 260.384 73.3487 260.551 73.5374 260.765C73.7261 260.98 73.8634 261.241 73.9491 261.55C74.0435 261.85 74.0907 262.181 74.0907 262.541V266.259H73.0871V262.644C73.0871 262.138 72.9756 261.739 72.7526 261.447C72.5296 261.156 72.1822 261.01 71.7104 261.01C71.3844 261.01 71.1014 261.065 70.8612 261.177C70.6296 261.288 70.4366 261.447 70.2822 261.653C70.1364 261.859 70.0249 262.103 69.9477 262.386C69.8791 262.669 69.8448 262.983 69.8448 263.326V266.259H68.8412V261.666Z" fill="black"/>
<path d="M75.9906 256.532H76.9941V262.888L79.7347 260.238H81.1628L78.255 262.978L81.4587 266.259H79.9791L76.9941 263.094V266.259H75.9906V256.532Z" fill="black"/>
<path fill-rule="evenodd" clip-rule="evenodd" d="M222.73 395.764L222.731 395.763C213.25 376.625 195.005 368.094 171.8 374.312C144.534 381.618 132.884 403.115 140.11 430.083C141.142 433.935 142.561 437.683 144.07 440.995L144.069 440.995C153.549 460.133 171.988 468.613 195.387 462.343C222.653 455.037 233.916 433.644 226.742 406.869C225.658 402.824 224.239 399.076 222.73 395.764Z" fill="white"/>
<path fill-rule="evenodd" clip-rule="evenodd" d="M144.07 440.995C142.561 437.683 141.142 433.935 140.11 430.083C132.884 403.115 144.534 381.618 171.8 374.312C195.005 368.094 213.25 376.625 222.731 395.763L222.73 395.764C224.239 399.076 225.658 402.824 226.742 406.869C233.916 433.644 222.653 455.037 195.387 462.343C171.988 468.613 153.549 460.133 144.069 440.995L144.07 440.995ZM145.052 440.564C149.694 449.912 156.489 456.602 164.93 460.211C173.389 463.828 183.596 464.392 195.109 461.307C208.52 457.714 217.882 450.692 223.042 441.387C228.204 432.075 229.239 420.331 225.706 407.146C224.64 403.167 223.242 399.474 221.754 396.209L221.748 396.194C217.104 386.843 210.355 380.14 201.986 376.513C193.601 372.879 183.492 372.289 172.078 375.348C158.666 378.942 149.205 385.99 143.955 395.349C138.704 404.712 137.588 416.529 141.145 429.805C142.16 433.591 143.557 437.283 145.046 440.55L145.052 440.564Z" fill="#8F92A1"/>
<g clip-path="url(#clip2)">
<path d="M182.002 427.675C192.149 427.675 200.376 419.448 200.376 409.301C200.376 399.153 192.149 390.927 182.002 390.927C171.854 390.927 163.628 399.153 163.628 409.301C163.628 419.448 171.854 427.675 182.002 427.675Z" fill="#2E3148"/>
<path d="M182.002 419.962C187.89 419.962 192.664 415.189 192.664 409.301C192.664 403.413 187.89 398.64 182.002 398.64C176.114 398.64 171.341 403.413 171.341 409.301C171.341 415.189 176.114 419.962 182.002 419.962Z" fill="#1B1E36"/>
<path d="M182.04 393.271C180.056 393.271 178.448 400.464 178.448 409.338C178.448 418.212 180.056 425.406 182.04 425.406C184.023 425.406 185.631 418.212 185.631 409.338C185.631 400.464 184.023 393.271 182.04 393.271ZM182.288 424.499C182.061 424.802 181.834 424.575 181.834 424.575C180.921 423.516 180.464 421.55 180.464 421.55C178.866 416.409 179.247 405.369 179.247 405.369C179.998 396.605 181.363 394.535 181.828 394.075C181.876 394.028 181.938 393.999 182.005 393.994C182.071 393.989 182.137 394.007 182.192 394.046C182.866 394.523 183.432 396.522 183.432 396.522C185.102 402.722 184.951 408.544 184.951 408.544C185.102 413.61 184.114 419.281 184.114 419.281C183.353 423.591 182.288 424.499 182.288 424.499Z" fill="#6F7390"/>
<path d="M195.977 401.342C194.989 399.621 187.95 401.806 180.249 406.222C172.548 410.638 167.115 415.613 168.102 417.333C169.089 419.054 176.129 416.869 183.83 412.453C191.531 408.037 196.963 403.062 195.977 401.342ZM169.013 417.097C168.635 417.05 168.72 416.739 168.72 416.739C169.184 415.42 170.66 414.046 170.66 414.046C174.326 410.101 184.092 404.937 184.092 404.937C192.067 401.227 194.544 401.383 195.172 401.556C195.237 401.575 195.293 401.615 195.33 401.67C195.368 401.725 195.385 401.792 195.378 401.859C195.302 402.682 193.847 404.167 193.847 404.167C189.303 408.703 184.177 411.469 184.177 411.469C179.858 414.123 174.448 416.086 174.448 416.086C170.33 417.57 169.013 417.097 169.013 417.097H169.013Z" fill="#6F7390"/>
<path d="M195.941 417.391C196.937 415.674 191.518 410.676 183.844 406.227C176.17 401.778 169.131 399.566 168.137 401.285C167.143 403.005 172.561 408 180.239 412.449C187.917 416.898 194.947 419.11 195.941 417.391ZM168.797 401.948C168.65 401.6 168.96 401.516 168.96 401.516C170.334 401.257 172.263 401.848 172.263 401.848C177.513 403.043 186.874 408.907 186.874 408.907C194.082 413.95 195.187 416.172 195.353 416.802C195.37 416.867 195.363 416.936 195.334 416.996C195.305 417.056 195.256 417.105 195.195 417.132C194.444 417.476 192.431 416.964 192.431 416.964C186.227 415.3 181.265 412.252 181.265 412.252C176.807 409.848 172.399 406.148 172.399 406.148C169.049 403.328 168.798 401.952 168.798 401.952L168.797 401.948Z" fill="#6F7390"/>
<path d="M182.003 411.191C183.047 411.191 183.893 410.344 183.893 409.3C183.893 408.256 183.047 407.41 182.003 407.41C180.959 407.41 180.112 408.256 180.112 409.3C180.112 410.344 180.959 411.191 182.003 411.191Z" fill="#B7B9C8"/>
<path d="M189.753 403.177C190.358 403.177 190.849 402.669 190.849 402.042C190.849 401.416 190.358 400.908 189.753 400.908C189.147 400.908 188.656 401.416 188.656 402.042C188.656 402.669 189.147 403.177 189.753 403.177Z" fill="#B7B9C8"/>
<path d="M171.757 407.032C172.362 407.032 172.853 406.524 172.853 405.898C172.853 405.271 172.362 404.764 171.757 404.764C171.151 404.764 170.66 405.271 170.66 405.898C170.66 406.524 171.151 407.032 171.757 407.032Z" fill="#B7B9C8"/>
<path d="M179.771 420.945C180.377 420.945 180.868 420.437 180.868 419.811C180.868 419.185 180.377 418.677 179.771 418.677C179.166 418.677 178.675 419.185 178.675 419.811C178.675 420.437 179.166 420.945 179.771 420.945Z" fill="#B7B9C8"/>
</g>
<path fill-rule="evenodd" clip-rule="evenodd" d="M416.796 33.3618L416.797 33.361C407.316 14.2231 389.071 5.69196 365.866 11.9098C338.599 19.2158 326.949 40.7124 334.175 67.6805C335.207 71.5327 336.626 75.2813 338.135 78.5929L338.134 78.5934C347.615 97.7314 366.053 106.211 389.452 99.941C416.719 92.635 427.982 71.2421 420.807 44.4666C419.724 40.4219 418.305 36.6734 416.796 33.3618Z" fill="white"/>
<path fill-rule="evenodd" clip-rule="evenodd" d="M338.135 78.5929C336.626 75.2813 335.207 71.5327 334.175 67.6805C326.949 40.7124 338.599 19.2158 365.866 11.9098C389.071 5.69196 407.316 14.2231 416.797 33.361L416.796 33.3618C418.305 36.6734 419.724 40.4219 420.807 44.4666C427.982 71.2421 416.719 92.635 389.452 99.941C366.053 106.211 347.615 97.7314 338.134 78.5934L338.135 78.5929ZM339.117 78.1625C343.759 87.5104 350.554 94.1999 358.996 97.8092C367.454 101.426 377.662 101.99 389.175 98.9053C402.586 95.3118 411.948 88.2902 417.107 78.9849C422.27 69.6733 423.305 57.9292 419.772 44.7441C418.705 40.7645 417.308 37.0719 415.82 33.8064L415.814 33.7919C411.17 24.4402 404.421 17.7381 396.052 14.1108C387.666 10.4764 377.558 9.88702 366.143 12.9455C352.731 16.5392 343.27 23.5878 338.021 32.9464C332.769 42.3095 331.653 54.1264 335.211 67.403C336.225 71.1887 337.622 74.8812 339.111 78.1483L339.117 78.1625Z" fill="#8F92A1"/>
<path d="M354.582 70.5883H357.284C357.704 70.5883 358.103 70.6312 358.481 70.7169C358.867 70.7941 359.205 70.9314 359.497 71.1287C359.797 71.3174 360.033 71.5747 360.205 71.9006C360.385 72.218 360.475 72.6126 360.475 73.0843C360.475 73.5818 360.38 73.9936 360.192 74.3195C360.003 74.6455 359.759 74.9028 359.458 75.0915C359.167 75.2802 358.845 75.4132 358.493 75.4903C358.142 75.5675 357.807 75.6061 357.49 75.6061H355.663V79.6976H354.582V70.5883ZM355.663 74.6026H357.49C358.03 74.6026 358.468 74.4825 358.802 74.2423C359.145 73.9936 359.317 73.6119 359.317 73.0972C359.317 72.5826 359.145 72.2052 358.802 71.965C358.468 71.7162 358.03 71.5919 357.49 71.5919H355.663V74.6026Z" fill="black"/>
<path d="M361.681 76.6869C361.681 76.2152 361.763 75.7863 361.926 75.4003C362.089 75.0143 362.312 74.6841 362.595 74.4096C362.878 74.1265 363.217 73.9078 363.611 73.7534C364.006 73.599 364.435 73.5218 364.898 73.5218C365.361 73.5218 365.79 73.599 366.185 73.7534C366.579 73.9078 366.918 74.1265 367.201 74.4096C367.484 74.6841 367.707 75.0143 367.87 75.4003C368.033 75.7863 368.114 76.2152 368.114 76.6869C368.114 77.1587 368.033 77.5876 367.87 77.9735C367.707 78.3595 367.484 78.6941 367.201 78.9771C366.918 79.2516 366.579 79.466 366.185 79.6204C365.79 79.7748 365.361 79.852 364.898 79.852C364.435 79.852 364.006 79.7748 363.611 79.6204C363.217 79.466 362.878 79.2516 362.595 78.9771C362.312 78.6941 362.089 78.3595 361.926 77.9735C361.763 77.5876 361.681 77.1587 361.681 76.6869ZM362.762 76.6869C362.762 77.0043 362.809 77.3002 362.904 77.5747C363.007 77.8406 363.152 78.0765 363.341 78.2823C363.53 78.4796 363.753 78.6383 364.01 78.7584C364.276 78.8699 364.572 78.9257 364.898 78.9257C365.224 78.9257 365.515 78.8699 365.773 78.7584C366.039 78.6383 366.266 78.4796 366.455 78.2823C366.643 78.0765 366.785 77.8406 366.879 77.5747C366.982 77.3002 367.034 77.0043 367.034 76.6869C367.034 76.3695 366.982 76.0779 366.879 75.812C366.785 75.5375 366.643 75.3016 366.455 75.1044C366.266 74.8985 366.039 74.7398 365.773 74.6283C365.515 74.5082 365.224 74.4482 364.898 74.4482C364.572 74.4482 364.276 74.5082 364.01 74.6283C363.753 74.7398 363.53 74.8985 363.341 75.1044C363.152 75.3016 363.007 75.5375 362.904 75.812C362.809 76.0779 362.762 76.3695 362.762 76.6869Z" fill="black"/>
<path d="M369.758 69.9707H370.762V79.6976H369.758V69.9707Z" fill="black"/>
<path d="M374.972 81.0743C374.869 81.3317 374.762 81.5632 374.65 81.7691C374.547 81.9835 374.419 82.1637 374.264 82.3095C374.119 82.4639 373.938 82.5797 373.724 82.6569C373.518 82.7427 373.265 82.7855 372.965 82.7855C372.819 82.7855 372.665 82.777 372.502 82.7598C372.347 82.7427 372.201 82.6998 372.064 82.6311L372.193 81.7562C372.296 81.7991 372.403 81.8249 372.515 81.8334C372.626 81.8506 372.755 81.8592 372.901 81.8592C373.226 81.8592 373.467 81.7691 373.621 81.589C373.775 81.4088 373.908 81.1687 374.02 80.8685L374.432 79.7362L371.936 73.6762H373.106L374.972 78.3981H374.998L376.786 73.6762H377.88L374.972 81.0743Z" fill="black"/>
<path d="M384.975 79.4274C384.975 80.5254 384.691 81.3574 384.125 81.9235C383.568 82.4982 382.757 82.7855 381.694 82.7855C381.102 82.7855 380.566 82.6998 380.085 82.5282C379.614 82.3567 379.163 82.0607 378.734 81.6404L379.455 80.817C379.772 81.1601 380.107 81.4174 380.458 81.589C380.819 81.7691 381.23 81.8592 381.694 81.8592C382.14 81.8592 382.509 81.7906 382.8 81.6533C383.1 81.5246 383.336 81.3445 383.508 81.1129C383.679 80.8899 383.799 80.6326 383.868 80.3409C383.937 80.0493 383.971 79.7448 383.971 79.4274V78.6555H383.945C383.705 79.0414 383.392 79.3245 383.006 79.5046C382.62 79.6848 382.225 79.7748 381.822 79.7748C381.351 79.7748 380.917 79.6976 380.523 79.5432C380.128 79.3888 379.789 79.1744 379.506 78.8999C379.223 78.6254 379.005 78.2995 378.85 77.9221C378.696 77.5447 378.619 77.1329 378.619 76.6869C378.619 76.198 378.696 75.7563 378.85 75.3617C379.005 74.9671 379.219 74.6369 379.494 74.371C379.777 74.0965 380.115 73.8863 380.51 73.7405C380.905 73.5947 381.342 73.5218 381.822 73.5218C382.028 73.5218 382.234 73.5475 382.44 73.599C382.646 73.6419 382.843 73.7148 383.032 73.8177C383.229 73.9121 383.405 74.0365 383.559 74.1909C383.714 74.3367 383.842 74.5082 383.945 74.7055H383.971V73.6762H384.975V79.4274ZM379.699 76.6869C379.699 76.9957 379.755 77.2831 379.867 77.549C379.978 77.8063 380.128 78.0336 380.317 78.2309C380.514 78.4196 380.742 78.5697 380.999 78.6812C381.256 78.7927 381.531 78.8485 381.822 78.8485C382.165 78.8485 382.47 78.7884 382.736 78.6683C383.002 78.5482 383.225 78.3896 383.405 78.1923C383.594 77.9864 383.735 77.7548 383.829 77.4975C383.924 77.2316 383.971 76.9528 383.971 76.6612C383.971 76.3352 383.92 76.0393 383.817 75.7734C383.714 75.4989 383.568 75.263 383.379 75.0658C383.19 74.8685 382.963 74.7184 382.697 74.6154C382.431 74.5039 382.14 74.4482 381.822 74.4482C381.505 74.4482 381.213 74.5082 380.947 74.6283C380.69 74.7398 380.467 74.8985 380.278 75.1044C380.098 75.3016 379.957 75.5375 379.854 75.812C379.751 76.0779 379.699 76.3695 379.699 76.6869Z" fill="black"/>
<path d="M386.484 76.6869C386.484 76.2152 386.566 75.7863 386.729 75.4003C386.892 75.0143 387.115 74.6841 387.398 74.4096C387.681 74.1265 388.02 73.9078 388.414 73.7534C388.809 73.599 389.238 73.5218 389.701 73.5218C390.164 73.5218 390.593 73.599 390.987 73.7534C391.382 73.9078 391.721 74.1265 392.004 74.4096C392.287 74.6841 392.51 75.0143 392.673 75.4003C392.836 75.7863 392.917 76.2152 392.917 76.6869C392.917 77.1587 392.836 77.5876 392.673 77.9735C392.51 78.3595 392.287 78.6941 392.004 78.9771C391.721 79.2516 391.382 79.466 390.987 79.6204C390.593 79.7748 390.164 79.852 389.701 79.852C389.238 79.852 388.809 79.7748 388.414 79.6204C388.02 79.466 387.681 79.2516 387.398 78.9771C387.115 78.6941 386.892 78.3595 386.729 77.9735C386.566 77.5876 386.484 77.1587 386.484 76.6869ZM387.565 76.6869C387.565 77.0043 387.612 77.3002 387.706 77.5747C387.809 77.8406 387.955 78.0765 388.144 78.2823C388.333 78.4796 388.556 78.6383 388.813 78.7584C389.079 78.8699 389.375 78.9257 389.701 78.9257C390.027 78.9257 390.318 78.8699 390.576 78.7584C390.842 78.6383 391.069 78.4796 391.258 78.2823C391.446 78.0765 391.588 77.8406 391.682 77.5747C391.785 77.3002 391.837 77.0043 391.837 76.6869C391.837 76.3695 391.785 76.0779 391.682 75.812C391.588 75.5375 391.446 75.3016 391.258 75.1044C391.069 74.8985 390.842 74.7398 390.576 74.6283C390.318 74.5082 390.027 74.4482 389.701 74.4482C389.375 74.4482 389.079 74.5082 388.813 74.6283C388.556 74.7398 388.333 74.8985 388.144 75.1044C387.955 75.3016 387.809 75.5375 387.706 75.812C387.612 76.0779 387.565 76.3695 387.565 76.6869Z" fill="black"/>
<path d="M394.471 75.1044C394.471 74.8299 394.462 74.5726 394.445 74.3324C394.428 74.0922 394.419 73.8735 394.419 73.6762H395.372C395.372 73.8392 395.376 74.0021 395.384 74.1651C395.393 74.3281 395.397 74.4954 395.397 74.6669H395.423C395.492 74.5211 395.586 74.3796 395.706 74.2423C395.835 74.1051 395.985 73.985 396.156 73.8821C396.328 73.7706 396.521 73.6848 396.735 73.6247C396.95 73.5561 397.181 73.5218 397.43 73.5218C397.825 73.5218 398.164 73.5818 398.447 73.7019C398.738 73.822 398.978 73.9893 399.167 74.2037C399.356 74.4182 399.493 74.6798 399.579 74.9886C399.673 75.2888 399.72 75.619 399.72 75.9793V79.6976H398.717V76.0822C398.717 75.5761 398.605 75.1773 398.382 74.8856C398.159 74.594 397.812 74.4482 397.34 74.4482C397.014 74.4482 396.731 74.5039 396.491 74.6154C396.259 74.7269 396.066 74.8856 395.912 75.0915C395.766 75.2974 395.655 75.5418 395.577 75.8249C395.509 76.1079 395.474 76.421 395.474 76.7641V79.6976H394.471V75.1044Z" fill="black"/>
<path d="M471.968 256.945H474.747C475.124 256.945 475.493 256.984 475.853 257.061C476.214 257.138 476.535 257.267 476.818 257.447C477.101 257.619 477.329 257.846 477.5 258.129C477.68 258.412 477.77 258.764 477.77 259.184C477.77 259.716 477.625 260.158 477.333 260.509C477.05 260.852 476.664 261.097 476.175 261.243V261.268C476.467 261.294 476.737 261.371 476.986 261.5C477.243 261.62 477.462 261.779 477.642 261.976C477.831 262.173 477.976 262.405 478.079 262.671C478.182 262.928 478.234 263.207 478.234 263.507C478.234 264.013 478.126 264.429 477.912 264.755C477.706 265.081 477.432 265.343 477.089 265.54C476.754 265.729 476.372 265.862 475.943 265.939C475.523 266.016 475.103 266.055 474.683 266.055H471.968V256.945ZM473.049 260.805H474.541C474.798 260.805 475.047 260.788 475.287 260.754C475.536 260.719 475.759 260.651 475.956 260.548C476.154 260.436 476.312 260.286 476.432 260.098C476.552 259.9 476.613 259.643 476.613 259.326C476.613 259.043 476.557 258.815 476.445 258.644C476.334 258.464 476.184 258.322 475.995 258.219C475.815 258.116 475.605 258.048 475.364 258.013C475.133 257.97 474.897 257.949 474.657 257.949H473.049V260.805ZM473.049 265.051H474.876C475.141 265.051 475.403 265.025 475.66 264.974C475.926 264.914 476.162 264.824 476.368 264.704C476.582 264.575 476.754 264.412 476.883 264.215C477.011 264.009 477.076 263.76 477.076 263.469C477.076 263.151 477.011 262.885 476.883 262.671C476.763 262.456 476.6 262.285 476.394 262.156C476.196 262.028 475.965 261.937 475.699 261.886C475.442 261.835 475.176 261.809 474.901 261.809H473.049V265.051Z" fill="black"/>
<path d="M479.982 260.033H480.986V266.055H479.982V260.033ZM479.75 257.679C479.75 257.481 479.819 257.31 479.956 257.164C480.102 257.018 480.278 256.945 480.484 256.945C480.69 256.945 480.861 257.018 480.998 257.164C481.144 257.31 481.217 257.481 481.217 257.679C481.217 257.893 481.149 258.069 481.011 258.206C480.874 258.343 480.698 258.412 480.484 258.412C480.269 258.412 480.093 258.343 479.956 258.206C479.819 258.069 479.75 257.893 479.75 257.679Z" fill="black"/>
<path d="M482.983 261.461C482.983 261.187 482.974 260.93 482.957 260.689C482.94 260.449 482.931 260.231 482.931 260.033H483.883C483.883 260.196 483.888 260.359 483.896 260.522C483.905 260.685 483.909 260.852 483.909 261.024H483.935C484.004 260.878 484.098 260.737 484.218 260.599C484.347 260.462 484.497 260.342 484.668 260.239C484.84 260.128 485.033 260.042 485.247 259.982C485.462 259.913 485.693 259.879 485.942 259.879C486.337 259.879 486.675 259.939 486.959 260.059C487.25 260.179 487.49 260.346 487.679 260.561C487.868 260.775 488.005 261.037 488.091 261.346C488.185 261.646 488.232 261.976 488.232 262.336V266.055H487.229V262.439C487.229 261.933 487.117 261.534 486.894 261.243C486.671 260.951 486.324 260.805 485.852 260.805C485.526 260.805 485.243 260.861 485.003 260.972C484.771 261.084 484.578 261.243 484.424 261.449C484.278 261.654 484.167 261.899 484.089 262.182C484.021 262.465 483.986 262.778 483.986 263.121V266.055H482.983V261.461Z" fill="black"/>
<path d="M490.055 260.805C490.364 260.488 490.728 260.256 491.149 260.11C491.577 259.956 492.011 259.879 492.448 259.879C493.34 259.879 493.983 260.089 494.378 260.509C494.773 260.93 494.97 261.569 494.97 262.426V265.012C494.97 265.184 494.978 265.364 494.996 265.553C495.013 265.733 495.034 265.9 495.06 266.055H494.095C494.061 265.917 494.039 265.767 494.031 265.604C494.031 265.433 494.031 265.283 494.031 265.154H494.005C493.808 265.463 493.542 265.716 493.207 265.913C492.881 266.11 492.487 266.209 492.024 266.209C491.715 266.209 491.423 266.17 491.149 266.093C490.883 266.016 490.647 265.905 490.441 265.759C490.244 265.604 490.085 265.416 489.965 265.193C489.845 264.97 489.785 264.712 489.785 264.421C489.785 263.923 489.913 263.533 490.171 263.25C490.428 262.967 490.745 262.757 491.123 262.619C491.509 262.482 491.921 262.396 492.358 262.362C492.804 262.328 493.212 262.311 493.58 262.311H493.966V262.13C493.966 261.693 493.833 261.363 493.567 261.14C493.31 260.917 492.946 260.805 492.474 260.805C492.148 260.805 491.826 260.861 491.509 260.972C491.2 261.075 490.926 261.238 490.685 261.461L490.055 260.805ZM492.963 263.16C492.319 263.16 491.809 263.25 491.432 263.43C491.054 263.61 490.866 263.906 490.866 264.318C490.866 264.695 490.99 264.965 491.239 265.128C491.496 265.283 491.813 265.36 492.191 265.36C492.482 265.36 492.735 265.313 492.95 265.218C493.173 265.115 493.357 264.982 493.503 264.819C493.649 264.657 493.76 264.468 493.838 264.253C493.915 264.03 493.958 263.794 493.966 263.546V263.16H492.963Z" fill="black"/>
<path d="M496.804 261.461C496.804 261.187 496.795 260.93 496.778 260.689C496.761 260.449 496.753 260.231 496.753 260.033H497.705C497.705 260.196 497.709 260.359 497.718 260.522C497.726 260.685 497.73 260.852 497.73 261.024H497.756C497.825 260.878 497.919 260.737 498.039 260.599C498.168 260.462 498.318 260.342 498.49 260.239C498.661 260.128 498.854 260.042 499.069 259.982C499.283 259.913 499.515 259.879 499.763 259.879C500.158 259.879 500.497 259.939 500.78 260.059C501.071 260.179 501.312 260.346 501.5 260.561C501.689 260.775 501.826 261.037 501.912 261.346C502.006 261.646 502.054 261.976 502.054 262.336V266.055H501.05V262.439C501.05 261.933 500.938 261.534 500.715 261.243C500.492 260.951 500.145 260.805 499.673 260.805C499.347 260.805 499.064 260.861 498.824 260.972C498.592 261.084 498.399 261.243 498.245 261.449C498.099 261.654 497.988 261.899 497.911 262.182C497.842 262.465 497.808 262.778 497.808 263.121V266.055H496.804V261.461Z" fill="black"/>
<path d="M508.238 261.539C508.023 261.281 507.792 261.097 507.543 260.985C507.294 260.865 507.02 260.805 506.72 260.805C506.385 260.805 506.089 260.865 505.832 260.985C505.575 261.097 505.36 261.256 505.189 261.461C505.026 261.667 504.901 261.907 504.815 262.182C504.73 262.448 504.687 262.735 504.687 263.044C504.687 263.353 504.734 263.644 504.828 263.919C504.931 264.185 505.068 264.421 505.24 264.626C505.42 264.832 505.635 264.995 505.883 265.115C506.132 265.227 506.411 265.283 506.72 265.283C507.38 265.283 507.89 265.034 508.251 264.536L508.997 265.244C508.705 265.579 508.362 265.823 507.968 265.977C507.573 266.132 507.157 266.209 506.72 266.209C506.256 266.209 505.832 266.132 505.446 265.977C505.06 265.823 504.73 265.604 504.455 265.321C504.189 265.038 503.979 264.704 503.825 264.318C503.679 263.932 503.606 263.507 503.606 263.044C503.606 262.589 503.679 262.169 503.825 261.783C503.979 261.397 504.194 261.063 504.468 260.779C504.743 260.496 505.068 260.278 505.446 260.123C505.832 259.96 506.256 259.879 506.72 259.879C507.166 259.879 507.586 259.956 507.981 260.11C508.384 260.265 508.735 260.505 509.036 260.831L508.238 261.539Z" fill="black"/>
<path d="M515.539 264.961C515.178 265.424 514.784 265.75 514.355 265.939C513.926 266.119 513.428 266.209 512.862 266.209C512.391 266.209 511.966 266.128 511.589 265.965C511.211 265.793 510.889 265.566 510.624 265.283C510.366 265 510.165 264.665 510.019 264.279C509.882 263.893 509.813 263.481 509.813 263.044C509.813 262.581 509.89 262.156 510.045 261.77C510.199 261.376 510.413 261.041 510.688 260.767C510.962 260.484 511.288 260.265 511.666 260.11C512.043 259.956 512.455 259.879 512.901 259.879C513.321 259.879 513.707 259.952 514.059 260.098C514.411 260.235 514.711 260.441 514.96 260.715C515.217 260.981 515.414 261.311 515.551 261.706C515.689 262.092 515.757 262.534 515.757 263.031V263.353H510.894C510.911 263.61 510.971 263.859 511.074 264.099C511.185 264.331 511.327 264.536 511.498 264.717C511.67 264.888 511.872 265.025 512.103 265.128C512.335 265.231 512.588 265.283 512.862 265.283C513.3 265.283 513.669 265.205 513.969 265.051C514.269 264.897 514.539 264.669 514.779 264.369L515.539 264.961ZM514.676 262.504C514.659 261.989 514.492 261.577 514.175 261.268C513.857 260.96 513.42 260.805 512.862 260.805C512.305 260.805 511.854 260.96 511.511 261.268C511.168 261.577 510.962 261.989 510.894 262.504H514.676Z" fill="black"/>
<path d="M380.769 417.712C380.494 417.343 380.155 417.069 379.752 416.888C379.349 416.7 378.929 416.605 378.491 416.605C377.985 416.605 377.518 416.708 377.089 416.914C376.669 417.12 376.304 417.399 375.995 417.75C375.686 418.094 375.446 418.497 375.275 418.96C375.103 419.415 375.017 419.891 375.017 420.388C375.017 420.92 375.103 421.417 375.275 421.881C375.446 422.335 375.682 422.734 375.982 423.077C376.291 423.412 376.656 423.678 377.076 423.875C377.505 424.072 377.977 424.171 378.491 424.171C379.049 424.171 379.546 424.064 379.984 423.849C380.421 423.626 380.803 423.309 381.129 422.897L381.939 423.579C381.528 424.128 381.03 424.531 380.447 424.788C379.872 425.046 379.22 425.174 378.491 425.174C377.839 425.174 377.23 425.054 376.664 424.814C376.098 424.574 375.605 424.244 375.185 423.823C374.773 423.395 374.447 422.888 374.207 422.305C373.975 421.722 373.859 421.083 373.859 420.388C373.859 419.719 373.971 419.093 374.194 418.51C374.425 417.926 374.747 417.42 375.159 416.991C375.571 416.562 376.06 416.224 376.626 415.975C377.192 415.726 377.814 415.602 378.491 415.602C379.109 415.602 379.701 415.713 380.267 415.936C380.841 416.159 381.322 416.524 381.708 417.03L380.769 417.712Z" fill="black"/>
<path d="M382.919 421.932C382.919 421.46 383 421.031 383.163 420.645C383.326 420.259 383.549 419.929 383.832 419.655C384.115 419.372 384.454 419.153 384.849 418.999C385.243 418.844 385.672 418.767 386.135 418.767C386.598 418.767 387.027 418.844 387.422 418.999C387.816 419.153 388.155 419.372 388.438 419.655C388.721 419.929 388.944 420.259 389.107 420.645C389.27 421.031 389.352 421.46 389.352 421.932C389.352 422.404 389.27 422.833 389.107 423.219C388.944 423.605 388.721 423.939 388.438 424.222C388.155 424.497 387.816 424.711 387.422 424.866C387.027 425.02 386.598 425.097 386.135 425.097C385.672 425.097 385.243 425.02 384.849 424.866C384.454 424.711 384.115 424.497 383.832 424.222C383.549 423.939 383.326 423.605 383.163 423.219C383 422.833 382.919 422.404 382.919 421.932ZM383.999 421.932C383.999 422.249 384.047 422.545 384.141 422.82C384.244 423.086 384.39 423.322 384.578 423.527C384.767 423.725 384.99 423.883 385.247 424.004C385.513 424.115 385.809 424.171 386.135 424.171C386.461 424.171 386.753 424.115 387.01 424.004C387.276 423.883 387.503 423.725 387.692 423.527C387.881 423.322 388.022 423.086 388.117 422.82C388.219 422.545 388.271 422.249 388.271 421.932C388.271 421.615 388.219 421.323 388.117 421.057C388.022 420.783 387.881 420.547 387.692 420.349C387.503 420.144 387.276 419.985 387.01 419.873C386.753 419.753 386.461 419.693 386.135 419.693C385.809 419.693 385.513 419.753 385.247 419.873C384.99 419.985 384.767 420.144 384.578 420.349C384.39 420.547 384.244 420.783 384.141 421.057C384.047 421.323 383.999 421.615 383.999 421.932Z" fill="black"/>
<path d="M390.905 420.349C390.905 420.075 390.897 419.818 390.88 419.577C390.862 419.337 390.854 419.119 390.854 418.921H391.806C391.806 419.084 391.81 419.247 391.819 419.41C391.827 419.573 391.832 419.74 391.832 419.912H391.857C391.926 419.766 392.02 419.625 392.14 419.487C392.269 419.35 392.419 419.23 392.591 419.127C392.762 419.016 392.955 418.93 393.17 418.87C393.384 418.801 393.616 418.767 393.865 418.767C394.191 418.767 394.461 418.81 394.675 418.896C394.898 418.973 395.083 419.071 395.228 419.192C395.374 419.303 395.486 419.427 395.563 419.565C395.649 419.693 395.717 419.809 395.769 419.912C395.992 419.552 396.249 419.273 396.541 419.076C396.832 418.87 397.21 418.767 397.673 418.767C398.102 418.767 398.462 418.827 398.754 418.947C399.045 419.059 399.281 419.226 399.461 419.449C399.642 419.663 399.77 419.929 399.847 420.247C399.925 420.555 399.963 420.903 399.963 421.289V424.943H398.96V421.34C398.96 421.134 398.938 420.933 398.895 420.735C398.852 420.538 398.775 420.362 398.664 420.208C398.552 420.054 398.402 419.929 398.213 419.835C398.025 419.74 397.785 419.693 397.493 419.693C397.278 419.693 397.077 419.736 396.888 419.822C396.699 419.908 396.532 420.028 396.386 420.182C396.249 420.337 396.138 420.525 396.052 420.748C395.975 420.963 395.936 421.203 395.936 421.469V424.943H394.932V421.533C394.932 420.864 394.842 420.392 394.662 420.118C394.482 419.835 394.186 419.693 393.775 419.693C393.449 419.693 393.166 419.749 392.925 419.861C392.694 419.972 392.501 420.131 392.346 420.337C392.201 420.542 392.089 420.787 392.012 421.07C391.943 421.353 391.909 421.666 391.909 422.009V424.943H390.905V420.349Z" fill="black"/>
<path d="M401.81 418.921H402.814V419.796H402.84C403.114 419.47 403.431 419.217 403.792 419.037C404.161 418.857 404.564 418.767 405.001 418.767C405.473 418.767 405.902 418.848 406.288 419.011C406.682 419.166 407.017 419.385 407.291 419.668C407.566 419.951 407.78 420.285 407.935 420.671C408.089 421.057 408.166 421.477 408.166 421.932C408.166 422.387 408.089 422.807 407.935 423.193C407.78 423.579 407.566 423.913 407.291 424.197C407.025 424.48 406.708 424.703 406.339 424.866C405.97 425.02 405.576 425.097 405.156 425.097C404.615 425.097 404.139 424.981 403.727 424.75C403.324 424.51 403.028 424.218 402.84 423.875H402.814V427.876H401.81V418.921ZM402.814 421.932C402.814 422.249 402.861 422.545 402.955 422.82C403.058 423.086 403.204 423.322 403.393 423.527C403.582 423.725 403.805 423.883 404.062 424.004C404.328 424.115 404.624 424.171 404.95 424.171C405.276 424.171 405.567 424.115 405.825 424.004C406.091 423.883 406.318 423.725 406.507 423.527C406.695 423.322 406.837 423.086 406.931 422.82C407.034 422.545 407.086 422.249 407.086 421.932C407.086 421.615 407.034 421.323 406.931 421.057C406.837 420.783 406.695 420.547 406.507 420.349C406.318 420.144 406.091 419.985 405.825 419.873C405.567 419.753 405.276 419.693 404.95 419.693C404.624 419.693 404.328 419.753 404.062 419.873C403.805 419.985 403.582 420.144 403.393 420.349C403.204 420.547 403.058 420.783 402.955 421.057C402.861 421.323 402.814 421.615 402.814 421.932Z" fill="black"/>
<path d="M409.38 421.932C409.38 421.46 409.461 421.031 409.624 420.645C409.787 420.259 410.01 419.929 410.293 419.655C410.576 419.372 410.915 419.153 411.31 418.999C411.704 418.844 412.133 418.767 412.597 418.767C413.06 418.767 413.489 418.844 413.883 418.999C414.278 419.153 414.617 419.372 414.9 419.655C415.183 419.929 415.406 420.259 415.569 420.645C415.732 421.031 415.813 421.46 415.813 421.932C415.813 422.404 415.732 422.833 415.569 423.219C415.406 423.605 415.183 423.939 414.9 424.222C414.617 424.497 414.278 424.711 413.883 424.866C413.489 425.02 413.06 425.097 412.597 425.097C412.133 425.097 411.704 425.02 411.31 424.866C410.915 424.711 410.576 424.497 410.293 424.222C410.01 423.939 409.787 423.605 409.624 423.219C409.461 422.833 409.38 422.404 409.38 421.932ZM410.461 421.932C410.461 422.249 410.508 422.545 410.602 422.82C410.705 423.086 410.851 423.322 411.04 423.527C411.228 423.725 411.451 423.883 411.709 424.004C411.975 424.115 412.271 424.171 412.597 424.171C412.922 424.171 413.214 424.115 413.471 424.004C413.737 423.883 413.965 423.725 414.153 423.527C414.342 423.322 414.484 423.086 414.578 422.82C414.681 422.545 414.732 422.249 414.732 421.932C414.732 421.615 414.681 421.323 414.578 421.057C414.484 420.783 414.342 420.547 414.153 420.349C413.965 420.144 413.737 419.985 413.471 419.873C413.214 419.753 412.922 419.693 412.597 419.693C412.271 419.693 411.975 419.753 411.709 419.873C411.451 419.985 411.228 420.144 411.04 420.349C410.851 420.547 410.705 420.783 410.602 421.057C410.508 421.323 410.461 421.615 410.461 421.932Z" fill="black"/>
<path d="M422.616 423.515C422.616 423.789 422.625 424.046 422.642 424.287C422.659 424.527 422.668 424.745 422.668 424.943H421.716C421.716 424.78 421.711 424.617 421.703 424.454C421.694 424.291 421.69 424.124 421.69 423.952H421.664C421.595 424.098 421.497 424.239 421.368 424.377C421.248 424.514 421.102 424.638 420.931 424.75C420.759 424.853 420.566 424.934 420.352 424.994C420.137 425.063 419.906 425.097 419.657 425.097C419.262 425.097 418.919 425.037 418.628 424.917C418.345 424.797 418.109 424.63 417.92 424.415C417.731 424.201 417.59 423.943 417.495 423.643C417.41 423.334 417.367 423 417.367 422.64V418.921H418.37V422.537C418.37 423.043 418.482 423.442 418.705 423.733C418.928 424.025 419.275 424.171 419.747 424.171C420.073 424.171 420.352 424.115 420.583 424.004C420.823 423.892 421.016 423.733 421.162 423.527C421.317 423.322 421.428 423.077 421.497 422.794C421.574 422.511 421.613 422.198 421.613 421.855V418.921H422.616V423.515Z" fill="black"/>
<path d="M424.516 420.349C424.516 420.075 424.507 419.818 424.49 419.577C424.473 419.337 424.465 419.119 424.465 418.921H425.417C425.417 419.084 425.421 419.247 425.43 419.41C425.438 419.573 425.442 419.74 425.442 419.912H425.468C425.537 419.766 425.631 419.625 425.751 419.487C425.88 419.35 426.03 419.23 426.202 419.127C426.373 419.016 426.566 418.93 426.781 418.87C426.995 418.801 427.227 418.767 427.475 418.767C427.87 418.767 428.209 418.827 428.492 418.947C428.783 419.067 429.024 419.234 429.212 419.449C429.401 419.663 429.538 419.925 429.624 420.234C429.718 420.534 429.765 420.864 429.765 421.224V424.943H428.762V421.327C428.762 420.821 428.65 420.422 428.427 420.131C428.204 419.839 427.857 419.693 427.385 419.693C427.059 419.693 426.776 419.749 426.536 419.861C426.304 419.972 426.111 420.131 425.957 420.337C425.811 420.542 425.7 420.787 425.623 421.07C425.554 421.353 425.52 421.666 425.52 422.009V424.943H424.516V420.349Z" fill="black"/>
<path d="M436.67 423.875H436.645C436.456 424.218 436.156 424.51 435.744 424.75C435.341 424.981 434.869 425.097 434.329 425.097C433.908 425.097 433.514 425.02 433.145 424.866C432.776 424.703 432.455 424.48 432.18 424.197C431.914 423.913 431.704 423.579 431.55 423.193C431.395 422.807 431.318 422.387 431.318 421.932C431.318 421.477 431.395 421.057 431.55 420.671C431.704 420.285 431.918 419.951 432.193 419.668C432.467 419.385 432.798 419.166 433.184 419.011C433.578 418.848 434.011 418.767 434.483 418.767C434.921 418.767 435.319 418.857 435.68 419.037C436.049 419.217 436.37 419.47 436.645 419.796H436.67V415.216H437.674V424.943H436.67V423.875ZM436.67 421.932C436.67 421.615 436.619 421.323 436.516 421.057C436.422 420.783 436.28 420.547 436.091 420.349C435.903 420.144 435.675 419.985 435.409 419.873C435.152 419.753 434.861 419.693 434.535 419.693C434.209 419.693 433.913 419.753 433.647 419.873C433.389 419.985 433.166 420.144 432.978 420.349C432.789 420.547 432.643 420.783 432.54 421.057C432.446 421.323 432.399 421.615 432.399 421.932C432.399 422.249 432.446 422.545 432.54 422.82C432.643 423.086 432.789 423.322 432.978 423.527C433.166 423.725 433.389 423.883 433.647 424.004C433.913 424.115 434.209 424.171 434.535 424.171C434.861 424.171 435.152 424.115 435.409 424.004C435.675 423.883 435.903 423.725 436.091 423.527C436.28 423.322 436.422 423.086 436.516 422.82C436.619 422.545 436.67 422.249 436.67 421.932Z" fill="black"/>
<path d="M167.033 437.013C166.759 436.645 166.42 436.37 166.017 436.19C165.614 436.001 165.193 435.907 164.756 435.907C164.25 435.907 163.782 436.01 163.353 436.216C162.933 436.422 162.569 436.7 162.26 437.052C161.951 437.395 161.711 437.798 161.539 438.261C161.368 438.716 161.282 439.192 161.282 439.69C161.282 440.221 161.368 440.719 161.539 441.182C161.711 441.637 161.947 442.036 162.247 442.379C162.556 442.713 162.92 442.979 163.341 443.176C163.769 443.374 164.241 443.472 164.756 443.472C165.313 443.472 165.811 443.365 166.248 443.151C166.686 442.928 167.068 442.61 167.393 442.199L168.204 442.88C167.792 443.429 167.295 443.833 166.712 444.09C166.137 444.347 165.485 444.476 164.756 444.476C164.104 444.476 163.495 444.356 162.929 444.116C162.363 443.875 161.87 443.545 161.449 443.125C161.038 442.696 160.712 442.19 160.471 441.607C160.24 441.023 160.124 440.384 160.124 439.69C160.124 439.021 160.236 438.394 160.459 437.811C160.69 437.228 161.012 436.722 161.424 436.293C161.835 435.864 162.324 435.525 162.89 435.276C163.456 435.028 164.078 434.903 164.756 434.903C165.373 434.903 165.965 435.015 166.531 435.238C167.106 435.461 167.586 435.825 167.972 436.331L167.033 437.013Z" fill="black"/>
<path d="M169.183 441.234C169.183 440.762 169.265 440.333 169.428 439.947C169.591 439.561 169.814 439.231 170.097 438.956C170.38 438.673 170.719 438.454 171.113 438.3C171.508 438.146 171.937 438.068 172.4 438.068C172.863 438.068 173.292 438.146 173.686 438.3C174.081 438.454 174.42 438.673 174.703 438.956C174.986 439.231 175.209 439.561 175.372 439.947C175.535 440.333 175.616 440.762 175.616 441.234C175.616 441.705 175.535 442.134 175.372 442.52C175.209 442.906 174.986 443.241 174.703 443.524C174.42 443.798 174.081 444.013 173.686 444.167C173.292 444.321 172.863 444.399 172.4 444.399C171.937 444.399 171.508 444.321 171.113 444.167C170.719 444.013 170.38 443.798 170.097 443.524C169.814 443.241 169.591 442.906 169.428 442.52C169.265 442.134 169.183 441.705 169.183 441.234ZM170.264 441.234C170.264 441.551 170.311 441.847 170.406 442.121C170.508 442.387 170.654 442.623 170.843 442.829C171.032 443.026 171.255 443.185 171.512 443.305C171.778 443.417 172.074 443.472 172.4 443.472C172.726 443.472 173.017 443.417 173.275 443.305C173.541 443.185 173.768 443.026 173.957 442.829C174.145 442.623 174.287 442.387 174.381 442.121C174.484 441.847 174.536 441.551 174.536 441.234C174.536 440.916 174.484 440.625 174.381 440.359C174.287 440.084 174.145 439.848 173.957 439.651C173.768 439.445 173.541 439.286 173.275 439.175C173.017 439.055 172.726 438.995 172.4 438.995C172.074 438.995 171.778 439.055 171.512 439.175C171.255 439.286 171.032 439.445 170.843 439.651C170.654 439.848 170.508 440.084 170.406 440.359C170.311 440.625 170.264 440.916 170.264 441.234Z" fill="black"/>
<path d="M177.299 442.662C177.496 442.91 177.71 443.108 177.942 443.254C178.182 443.399 178.482 443.472 178.843 443.472C178.997 443.472 179.151 443.455 179.306 443.421C179.469 443.387 179.615 443.331 179.743 443.254C179.872 443.176 179.975 443.082 180.052 442.97C180.129 442.85 180.168 442.709 180.168 442.546C180.168 442.383 180.129 442.25 180.052 442.147C179.983 442.044 179.889 441.958 179.769 441.89C179.649 441.813 179.512 441.752 179.357 441.71C179.203 441.667 179.044 441.628 178.881 441.594C178.598 441.534 178.328 441.465 178.071 441.388C177.813 441.311 177.586 441.212 177.389 441.092C177.2 440.963 177.046 440.8 176.926 440.603C176.814 440.406 176.758 440.153 176.758 439.844C176.758 439.552 176.823 439.295 176.951 439.072C177.08 438.849 177.251 438.665 177.466 438.519C177.68 438.373 177.921 438.261 178.186 438.184C178.452 438.107 178.727 438.068 179.01 438.068C179.439 438.068 179.833 438.154 180.194 438.326C180.562 438.497 180.85 438.776 181.056 439.162L180.219 439.715C180.091 439.501 179.919 439.329 179.705 439.201C179.499 439.063 179.246 438.995 178.946 438.995C178.808 438.995 178.667 439.012 178.521 439.046C178.384 439.081 178.259 439.132 178.148 439.201C178.036 439.269 177.942 439.359 177.865 439.471C177.796 439.574 177.762 439.694 177.762 439.831C177.762 439.96 177.8 440.071 177.878 440.166C177.963 440.251 178.075 440.329 178.212 440.397C178.358 440.466 178.521 440.526 178.701 440.577C178.89 440.629 179.083 440.672 179.28 440.706C179.546 440.757 179.799 440.826 180.039 440.912C180.279 440.989 180.489 441.096 180.67 441.234C180.85 441.371 180.991 441.542 181.094 441.748C181.197 441.954 181.249 442.207 181.249 442.507C181.249 442.85 181.18 443.142 181.043 443.382C180.905 443.622 180.721 443.82 180.489 443.974C180.266 444.12 180.009 444.227 179.717 444.296C179.434 444.364 179.143 444.399 178.843 444.399C178.328 444.399 177.882 444.321 177.504 444.167C177.136 444.004 176.801 443.708 176.501 443.279L177.299 442.662Z" fill="black"/>
<path d="M182.648 439.651C182.648 439.377 182.64 439.119 182.622 438.879C182.605 438.639 182.597 438.42 182.597 438.223H183.549C183.549 438.386 183.553 438.549 183.562 438.712C183.57 438.875 183.575 439.042 183.575 439.214H183.6C183.669 439.068 183.763 438.926 183.883 438.789C184.012 438.652 184.162 438.532 184.334 438.429C184.505 438.317 184.698 438.231 184.913 438.171C185.127 438.103 185.359 438.068 185.607 438.068C185.933 438.068 186.204 438.111 186.418 438.197C186.641 438.274 186.825 438.373 186.971 438.493C187.117 438.605 187.229 438.729 187.306 438.866C187.392 438.995 187.46 439.111 187.512 439.214C187.735 438.853 187.992 438.575 188.284 438.377C188.575 438.171 188.953 438.068 189.416 438.068C189.845 438.068 190.205 438.128 190.497 438.249C190.788 438.36 191.024 438.527 191.204 438.75C191.384 438.965 191.513 439.231 191.59 439.548C191.667 439.857 191.706 440.204 191.706 440.59V444.244H190.703V440.642C190.703 440.436 190.681 440.234 190.638 440.037C190.595 439.84 190.518 439.664 190.407 439.509C190.295 439.355 190.145 439.231 189.956 439.136C189.768 439.042 189.527 438.995 189.236 438.995C189.021 438.995 188.82 439.038 188.631 439.123C188.442 439.209 188.275 439.329 188.129 439.484C187.992 439.638 187.88 439.827 187.795 440.05C187.718 440.264 187.679 440.504 187.679 440.77V444.244H186.675V440.835C186.675 440.166 186.585 439.694 186.405 439.419C186.225 439.136 185.929 438.995 185.517 438.995C185.191 438.995 184.908 439.051 184.668 439.162C184.437 439.274 184.244 439.432 184.089 439.638C183.943 439.844 183.832 440.088 183.755 440.371C183.686 440.655 183.652 440.968 183.652 441.311V444.244H182.648V439.651Z" fill="black"/>
<path d="M193.257 441.234C193.257 440.762 193.339 440.333 193.502 439.947C193.665 439.561 193.888 439.231 194.171 438.956C194.454 438.673 194.793 438.454 195.187 438.3C195.582 438.146 196.011 438.068 196.474 438.068C196.937 438.068 197.366 438.146 197.76 438.3C198.155 438.454 198.494 438.673 198.777 438.956C199.06 439.231 199.283 439.561 199.446 439.947C199.609 440.333 199.69 440.762 199.69 441.234C199.69 441.705 199.609 442.134 199.446 442.52C199.283 442.906 199.06 443.241 198.777 443.524C198.494 443.798 198.155 444.013 197.76 444.167C197.366 444.321 196.937 444.399 196.474 444.399C196.011 444.399 195.582 444.321 195.187 444.167C194.793 444.013 194.454 443.798 194.171 443.524C193.888 443.241 193.665 442.906 193.502 442.52C193.339 442.134 193.257 441.705 193.257 441.234ZM194.338 441.234C194.338 441.551 194.385 441.847 194.48 442.121C194.583 442.387 194.728 442.623 194.917 442.829C195.106 443.026 195.329 443.185 195.586 443.305C195.852 443.417 196.148 443.472 196.474 443.472C196.8 443.472 197.091 443.417 197.349 443.305C197.615 443.185 197.842 443.026 198.031 442.829C198.219 442.623 198.361 442.387 198.455 442.121C198.558 441.847 198.61 441.551 198.61 441.234C198.61 440.916 198.558 440.625 198.455 440.359C198.361 440.084 198.219 439.848 198.031 439.651C197.842 439.445 197.615 439.286 197.349 439.175C197.091 439.055 196.8 438.995 196.474 438.995C196.148 438.995 195.852 439.055 195.586 439.175C195.329 439.286 195.106 439.445 194.917 439.651C194.728 439.848 194.583 440.084 194.48 440.359C194.385 440.625 194.338 440.916 194.338 441.234Z" fill="black"/>
<path d="M201.373 442.662C201.57 442.91 201.784 443.108 202.016 443.254C202.256 443.399 202.556 443.472 202.917 443.472C203.071 443.472 203.225 443.455 203.38 443.421C203.543 443.387 203.689 443.331 203.817 443.254C203.946 443.176 204.049 443.082 204.126 442.97C204.203 442.85 204.242 442.709 204.242 442.546C204.242 442.383 204.203 442.25 204.126 442.147C204.057 442.044 203.963 441.958 203.843 441.89C203.723 441.813 203.586 441.752 203.431 441.71C203.277 441.667 203.118 441.628 202.955 441.594C202.672 441.534 202.402 441.465 202.145 441.388C201.887 441.311 201.66 441.212 201.463 441.092C201.274 440.963 201.12 440.8 201 440.603C200.888 440.406 200.832 440.153 200.832 439.844C200.832 439.552 200.897 439.295 201.025 439.072C201.154 438.849 201.326 438.665 201.54 438.519C201.754 438.373 201.995 438.261 202.26 438.184C202.526 438.107 202.801 438.068 203.084 438.068C203.513 438.068 203.907 438.154 204.268 438.326C204.636 438.497 204.924 438.776 205.13 439.162L204.293 439.715C204.165 439.501 203.993 439.329 203.779 439.201C203.573 439.063 203.32 438.995 203.02 438.995C202.882 438.995 202.741 439.012 202.595 439.046C202.458 439.081 202.333 439.132 202.222 439.201C202.11 439.269 202.016 439.359 201.939 439.471C201.87 439.574 201.836 439.694 201.836 439.831C201.836 439.96 201.874 440.071 201.952 440.166C202.037 440.251 202.149 440.329 202.286 440.397C202.432 440.466 202.595 440.526 202.775 440.577C202.964 440.629 203.157 440.672 203.354 440.706C203.62 440.757 203.873 440.826 204.113 440.912C204.353 440.989 204.564 441.096 204.744 441.234C204.924 441.371 205.065 441.542 205.168 441.748C205.271 441.954 205.323 442.207 205.323 442.507C205.323 442.85 205.254 443.142 205.117 443.382C204.98 443.622 204.795 443.82 204.564 443.974C204.341 444.12 204.083 444.227 203.792 444.296C203.509 444.364 203.217 444.399 202.917 444.399C202.402 444.399 201.956 444.321 201.579 444.167C201.21 444.004 200.875 443.708 200.575 443.279L201.373 442.662Z" fill="black"/>
<path d="M389.344 39.4816C388.658 39.0874 387.777 39.0874 386.993 39.4816L381.506 42.7338L377.784 44.8033L372.395 48.0554C371.709 48.4496 370.828 48.4496 370.044 48.0554L365.831 45.4932C365.145 45.099 364.655 44.3106 364.655 43.4236V38.4961C364.655 37.7078 365.047 36.9194 365.831 36.4266L370.044 33.9629C370.73 33.5687 371.611 33.5687 372.395 33.9629L376.608 36.5252C377.294 36.9194 377.784 37.7078 377.784 38.5947V41.8468L381.506 39.6787V36.3281C381.506 35.5397 381.115 34.7513 380.331 34.2585L372.493 29.6267C371.807 29.2325 370.926 29.2325 370.142 29.6267L362.108 34.3571C361.324 34.7513 360.933 35.5397 360.933 36.3281V45.5917C360.933 46.3801 361.324 47.1685 362.108 47.6612L370.044 52.2931C370.73 52.6873 371.611 52.6873 372.395 52.2931L377.784 49.1395L381.506 46.9714L386.895 43.8178C387.581 43.4236 388.462 43.4236 389.246 43.8178L393.459 46.2815C394.145 46.6757 394.634 47.4641 394.634 48.3511V53.2786C394.634 54.0669 394.243 54.8553 393.459 55.3481L389.344 57.8118C388.658 58.206 387.777 58.206 386.993 57.8118L382.78 55.3481C382.094 54.9539 381.604 54.1655 381.604 53.2786V50.125L377.882 52.2931V55.5452C377.882 56.3336 378.273 57.122 379.057 57.6147L386.993 62.2465C387.679 62.6407 388.56 62.6407 389.344 62.2465L397.28 57.6147C397.965 57.2205 398.455 56.4321 398.455 55.5452V46.183C398.455 45.3946 398.063 44.6062 397.28 44.1135L389.344 39.4816Z" fill="#8247E5"/>
<path d="M236.619 237.001L233.838 236.479C232.002 236.113 231.582 235.904 231.582 234.911C231.582 233.918 232.212 233.5 234.258 233.5C236.567 233.5 237.249 234.022 237.249 235.695V235.956L240.712 235.015C240.449 232.298 238.508 230.312 234.363 230.312C229.851 230.312 228.119 232.663 228.119 235.068C228.119 237.524 229.378 238.988 232.369 239.51L235.15 239.981C237.354 240.346 237.616 240.712 237.616 241.758C237.616 242.803 237.144 243.221 235.097 243.221C232.264 243.221 231.635 242.751 231.635 241.026V240.765L228.172 241.705C228.434 244.789 230.585 246.409 234.888 246.409C239.347 246.409 241.026 244.162 241.026 241.653C241.079 239.406 239.925 237.681 236.619 237.001Z" fill="black"/>
<path d="M253.727 239.303V239.042C253.727 236.167 251.418 234.233 248.27 234.233C244.335 234.233 242.079 236.638 242.079 240.401C242.079 244.112 244.178 246.463 248.061 246.463C251.314 246.463 253.675 244.53 253.675 241.655V241.394H250.159V241.551C250.159 242.857 249.425 243.328 247.956 243.328C246.277 243.328 245.542 242.544 245.542 240.348C245.542 238.153 246.277 237.369 247.956 237.369C249.425 237.369 250.159 237.787 250.159 239.146V239.355H253.727V239.303Z" fill="black"/>
<path d="M260.809 234.179C257.503 234.179 255.299 236.008 255.299 238.83V239.092L258.657 238.83C258.657 237.628 259.235 237.262 260.651 237.262C262.015 237.262 262.802 237.524 262.802 238.883V239.248L258.762 239.876C256.349 240.241 255.037 241.391 255.037 243.168C255.037 245.311 256.664 246.409 258.762 246.409C260.966 246.409 262.12 245.468 262.802 244.579H262.96V246.147H266.213V239.196C266.108 236.113 264.272 234.179 260.809 234.179ZM259.864 243.743C258.815 243.743 258.343 243.534 258.343 242.907C258.343 242.437 258.657 242.175 259.392 242.071L262.75 241.548C262.75 243.377 261.281 243.743 259.864 243.743Z" fill="black"/>
<path d="M268.205 231.461V246.2H271.72V230.521L268.205 231.461Z" fill="black"/>
<path d="M273.927 231.461V246.2H277.442V230.521L273.927 231.461Z" fill="black"/>
<path fill-rule="evenodd" clip-rule="evenodd" d="M285.101 234.179C281.324 234.179 279.067 236.583 279.067 240.294C279.067 244.005 281.324 246.409 285.101 246.409C288.879 246.409 291.083 244.005 291.083 240.294C291.083 236.583 288.879 234.179 285.101 234.179ZM285.209 243.544C283.417 243.544 281.959 242.086 281.959 240.294C281.959 238.502 283.417 237.044 285.209 237.044C285.481 237.044 285.753 237.077 286.02 237.144C286.074 237.161 286.124 237.198 286.15 237.248L286.202 237.35C286.589 238.105 287.253 238.682 288.055 238.961C288.138 238.99 288.193 239.066 288.193 239.153V241.43C288.193 241.518 288.138 241.593 288.055 241.623C287.253 241.902 286.588 242.478 286.199 243.232L286.145 243.336C286.12 243.39 286.07 243.427 286.016 243.44C285.748 243.511 285.477 243.544 285.209 243.544Z" fill="black"/>
<path d="M299.582 234.179C297.798 234.179 296.434 234.858 295.804 236.165H295.699V234.44H292.446V250.12L295.962 249.179V244.632H296.067C296.591 245.625 297.746 246.409 299.634 246.409C302.835 246.409 304.619 244.005 304.619 240.294C304.671 236.583 302.888 234.179 299.582 234.179ZM298.533 243.43C296.854 243.43 295.962 242.855 295.962 241.235V239.353C295.962 237.785 296.906 237.158 298.533 237.158C300.579 237.158 301.104 238.151 301.104 240.294C301.104 242.437 300.579 243.43 298.533 243.43Z" fill="black"/>
<path d="M210.3 227.175C207.965 229.582 205.629 231.979 203.293 234.386C203.267 234.403 203.249 234.421 203.222 234.448L198.135 239.535C197.649 240.021 197.649 240.827 198.135 241.313L202.957 246.135L197.02 252.355C196.1 251.727 195.224 251.001 194.357 250.125C188.138 243.914 187.925 236.235 194.189 229.962C199.153 224.999 205.01 224.158 210.3 227.175Z" fill="url(#paint0_linear)"/>
<path d="M214.476 250.24C209.521 255.186 203.7 256.07 198.444 253.23L200.532 251.045C202.134 249.391 203.726 247.745 205.328 246.09L206.938 244.48L210.096 241.322C210.583 240.835 210.583 240.03 210.096 239.543L208.645 238.092L205.31 234.757L211.185 228.608L211.698 228.077C212.565 228.688 213.432 229.422 214.255 230.245C220.421 236.394 220.687 244.02 214.476 250.24Z" fill="url(#paint1_linear)"/>
<path d="M318.058 245.179C317.153 245.179 316.371 244.982 315.712 244.588C315.058 244.194 314.553 243.642 314.196 242.933C313.844 242.225 313.668 241.401 313.668 240.462C313.668 239.522 313.844 238.698 314.196 237.99C314.553 237.281 315.058 236.73 315.712 236.335C316.371 235.941 317.153 235.744 318.058 235.744C319.098 235.744 319.97 236.002 320.675 236.518C321.384 237.034 321.883 237.732 322.172 238.612L320.448 239.09C320.281 238.541 319.998 238.115 319.599 237.814C319.201 237.507 318.687 237.354 318.058 237.354C317.484 237.354 317.004 237.482 316.618 237.738C316.236 237.994 315.949 238.354 315.756 238.82C315.563 239.285 315.467 239.833 315.467 240.462C315.467 241.091 315.563 241.638 315.756 242.103C315.949 242.569 316.236 242.929 316.618 243.185C317.004 243.441 317.484 243.569 318.058 243.569C318.687 243.569 319.201 243.416 319.599 243.11C319.998 242.803 320.281 242.378 320.448 241.833L322.172 242.311C321.883 243.191 321.384 243.89 320.675 244.405C319.97 244.921 319.098 245.179 318.058 245.179Z" fill="url(#paint2_linear)"/>
<path d="M324.256 244.99V235.933H325.967V239.656H330.017V235.933H331.728V244.99H330.017V241.254H325.967V244.99H324.256Z" fill="url(#paint3_linear)"/>
<path d="M333.564 244.99L336.331 235.933H338.885L341.653 244.99H339.891L337.426 237.002H337.753L335.325 244.99H333.564ZM335.224 243.103V241.506H340.005V243.103H335.224Z" fill="url(#paint4_linear)"/>
<path d="M343.605 244.99V235.933H345.315V244.99H343.605Z" fill="url(#paint5_linear)"/>
<path d="M347.9 244.99V235.933H349.636L353.573 241.971V235.933H355.309V244.99H353.573L349.636 238.952V244.99H347.9Z" fill="url(#paint6_linear)"/>
<path fill-rule="evenodd" clip-rule="evenodd" d="M157.35 235.347C157.559 235.556 157.559 235.896 157.35 236.105L153.938 239.517C153.729 239.726 153.389 239.726 153.18 239.517C152.971 239.307 152.971 238.968 153.18 238.759L155.676 236.262H152.727V235.19H155.676L153.18 232.693C152.971 232.484 152.971 232.145 153.18 231.935C153.389 231.726 153.729 231.726 153.938 231.935L157.35 235.347ZM109.074 239.517L105.663 236.105C105.453 235.896 105.453 235.556 105.663 235.347L109.074 231.935C109.284 231.726 109.623 231.726 109.832 231.935C110.042 232.145 110.042 232.484 109.832 232.693L107.336 235.19H110.286V236.262H107.336L109.832 238.759C110.042 238.968 110.042 239.307 109.832 239.517C109.623 239.726 109.284 239.726 109.074 239.517ZM135.75 235.19H144.238V236.262H135.75V235.19ZM118.774 235.19H127.262V236.262H118.774V235.19Z" fill="#8F92A1"/>
<path fill-rule="evenodd" clip-rule="evenodd" d="M435.048 235.347C435.257 235.556 435.257 235.896 435.048 236.105L431.636 239.517C431.427 239.726 431.088 239.726 430.878 239.517C430.669 239.307 430.669 238.968 430.878 238.759L433.375 236.262H430.425V235.19H433.375L430.878 232.693C430.669 232.484 430.669 232.145 430.878 231.935C431.088 231.726 431.427 231.726 431.636 231.935L435.048 235.347ZM386.772 239.517L383.361 236.105C383.151 235.896 383.151 235.556 383.361 235.347L386.772 231.935C386.982 231.726 387.321 231.726 387.531 231.935C387.74 232.145 387.74 232.484 387.531 232.693L385.034 235.19H387.984V236.262H385.034L387.531 238.759C387.74 238.968 387.74 239.307 387.531 239.517C387.321 239.726 386.982 239.726 386.772 239.517ZM413.449 235.19H421.937V236.262H413.449V235.19ZM396.472 235.19H404.96V236.262H396.472V235.19Z" fill="#8F92A1"/>
<path fill-rule="evenodd" clip-rule="evenodd" d="M359.977 353.337C359.977 353.633 359.737 353.873 359.441 353.873L354.616 353.873C354.32 353.873 354.08 353.633 354.08 353.337C354.08 353.041 354.32 352.801 354.616 352.801L358.147 352.801L356.061 350.715L356.819 349.957L358.905 352.043L358.905 348.512C358.905 348.216 359.145 347.976 359.441 347.976C359.737 347.976 359.977 348.216 359.977 348.512L359.977 353.337ZM322.892 322.15L322.892 317.325C322.892 317.029 323.132 316.789 323.428 316.789L328.253 316.789C328.549 316.789 328.789 317.029 328.789 317.325C328.789 317.621 328.549 317.861 328.253 317.861L324.723 317.861L326.809 319.947L326.05 320.705L323.965 318.619L323.965 322.15C323.965 322.446 323.724 322.686 323.428 322.686C323.132 322.686 322.892 322.446 322.892 322.15ZM344.815 337.953L350.817 343.955L350.059 344.713L344.057 338.711L344.815 337.953ZM332.811 325.949L338.813 331.951L338.054 332.709L332.052 326.707L332.811 325.949Z" fill="#8F92A1"/>
<path fill-rule="evenodd" clip-rule="evenodd" d="M207.726 167.848C207.726 168.144 207.486 168.384 207.19 168.384L202.365 168.384C202.069 168.384 201.829 168.144 201.829 167.848C201.829 167.552 202.069 167.312 202.365 167.312L205.896 167.312L203.81 165.226L204.568 164.468L206.654 166.554L206.654 163.023C206.654 162.727 206.894 162.487 207.19 162.487C207.486 162.487 207.726 162.727 207.726 163.023L207.726 167.848ZM170.641 136.661L170.641 131.836C170.641 131.54 170.881 131.3 171.177 131.3L176.002 131.3C176.298 131.3 176.538 131.54 176.538 131.836C176.538 132.132 176.298 132.372 176.002 132.372L172.472 132.372L174.558 134.458L173.799 135.216L171.714 133.13L171.714 136.661C171.714 136.957 171.474 137.197 171.177 137.197C170.881 137.197 170.641 136.957 170.641 136.661ZM192.564 152.464L198.566 158.466L197.808 159.224L191.806 153.222L192.564 152.464ZM180.56 140.46L186.562 146.462L185.804 147.22L179.801 141.218L180.56 140.46Z" fill="#8F92A1"/>
<defs>
<linearGradient id="paint0_linear" x1="206.586" y1="215.533" x2="167.022" y2="301.976" gradientUnits="userSpaceOnUse">
<stop stop-color="#00DECA"/>
<stop offset="0.37798" stop-color="#3A8AFA"/>
<stop offset="1" stop-color="#1A6AF4"/>
</linearGradient>
<linearGradient id="paint1_linear" x1="215.32" y1="218.253" x2="175.999" y2="304.119" gradientUnits="userSpaceOnUse">
<stop stop-color="#00DECA"/>
<stop offset="0.37798" stop-color="#3A8AFA"/>
<stop offset="1" stop-color="#1A6AF4"/>
</linearGradient>
<linearGradient id="paint2_linear" x1="347.84" y1="232.28" x2="344.939" y2="268.673" gradientUnits="userSpaceOnUse">
<stop stop-color="#00DECA"/>
<stop offset="0.37798" stop-color="#3A8AFA"/>
<stop offset="1" stop-color="#1A6AF4"/>
</linearGradient>
<linearGradient id="paint3_linear" x1="347.84" y1="232.28" x2="344.939" y2="268.673" gradientUnits="userSpaceOnUse">
<stop stop-color="#00DECA"/>
<stop offset="0.37798" stop-color="#3A8AFA"/>
<stop offset="1" stop-color="#1A6AF4"/>
</linearGradient>
<linearGradient id="paint4_linear" x1="347.84" y1="232.28" x2="344.939" y2="268.673" gradientUnits="userSpaceOnUse">
<stop stop-color="#00DECA"/>
<stop offset="0.37798" stop-color="#3A8AFA"/>
<stop offset="1" stop-color="#1A6AF4"/>
</linearGradient>
<linearGradient id="paint5_linear" x1="347.84" y1="232.28" x2="344.939" y2="268.673" gradientUnits="userSpaceOnUse">
<stop stop-color="#00DECA"/>
<stop offset="0.37798" stop-color="#3A8AFA"/>
<stop offset="1" stop-color="#1A6AF4"/>
</linearGradient>
<linearGradient id="paint6_linear" x1="347.84" y1="232.28" x2="344.939" y2="268.673" gradientUnits="userSpaceOnUse">
<stop stop-color="#00DECA"/>
<stop offset="0.37798" stop-color="#3A8AFA"/>
<stop offset="1" stop-color="#1A6AF4"/>
</linearGradient>
<clipPath id="clip0">
<rect width="30.0214" height="33.238" fill="white" transform="translate(40.3701 211.578)"/>
</clipPath>
<clipPath id="clip1">
<rect width="37.5267" height="37.5267" fill="white" transform="translate(473.72 207.083)"/>
</clipPath>
<clipPath id="clip2">
<rect width="36.7478" height="36.7478" fill="white" transform="translate(163.628 390.927)"/>
</clipPath>
</defs>
</svg>
