<svg width="100" height="100" viewBox="0 0 100 100" fill="none" xmlns="http://www.w3.org/2000/svg">
<path d="M49.4279 0.303711C62.6045 0.303712 74.9938 5.43541 84.3111 14.7527C93.6307 24.07 98.7623 36.4594 98.7623 49.6359C98.7623 62.8126 93.6306 75.204 84.3134 84.5214C74.9961 93.8387 62.6067 98.9703 49.4279 98.9703C36.2491 98.9703 23.8621 93.8387 14.5447 84.5214C5.22739 75.204 0.0957021 62.8147 0.0957031 49.6382C0.0957043 36.4615 5.22739 24.0723 14.5447 14.755C23.8621 5.4354 36.2514 0.30371 49.4279 0.303711ZM49.4279 95.6183C61.7091 95.6183 73.2582 90.8351 81.9426 82.1507C90.6271 73.4663 95.4103 61.9194 95.4103 49.6359C95.4103 37.3524 90.6271 25.8056 81.9426 17.1212C73.2582 8.43682 61.7114 3.65354 49.4279 3.65354C37.1445 3.65354 25.5977 8.4368 16.9133 17.1212C8.22879 25.8056 3.44553 37.3524 3.44553 49.6359C3.44553 61.9194 8.22879 73.464 16.9133 82.1507C25.5998 90.8351 37.1467 95.6183 49.4279 95.6183Z" fill="url(#paint0_linear_2482:306)"/>
<path d="M49.4289 95.7874C74.9171 95.7874 95.5794 75.1251 95.5794 49.6369C95.5794 24.1486 74.9171 3.48633 49.4289 3.48633C23.9406 3.48633 3.27832 24.1486 3.27832 49.6369C3.27832 75.1251 23.9406 95.7874 49.4289 95.7874Z" fill="#333333"/>
<mask id="mask0_2482:306" style="mask-type:alpha" maskUnits="userSpaceOnUse" x="3" y="3" width="93" height="93">
<path d="M49.4796 95.8372C74.9679 95.8372 95.6302 75.1749 95.6302 49.6867C95.6302 24.1984 74.9679 3.53613 49.4796 3.53613C23.9914 3.53613 3.3291 24.1984 3.3291 49.6867C3.3291 75.1749 23.9914 95.8372 49.4796 95.8372Z" fill="black"/>
</mask>
<g mask="url(#mask0_2482:306)">
<path d="M49.4806 95.8362C74.9688 95.8362 95.6311 75.1739 95.6311 49.6857C95.6311 24.1975 74.9688 3.53516 49.4806 3.53516C23.9924 3.53516 3.33008 24.1975 3.33008 49.6857C3.33008 75.1739 23.9924 95.8362 49.4806 95.8362Z" fill="white"/>
<path d="M15.94 55.5997C17.0114 55.5997 17.88 54.7312 17.88 53.6597C17.88 52.5883 17.0114 51.7197 15.94 51.7197C14.8686 51.7197 14 52.5883 14 53.6597C14 54.7312 14.8686 55.5997 15.94 55.5997Z" fill="#003A70"/>
<path d="M15.94 63.3702C17.0114 63.3702 17.88 62.5017 17.88 61.4302C17.88 60.3588 17.0114 59.4902 15.94 59.4902C14.8686 59.4902 14 60.3588 14 61.4302C14 62.5017 14.8686 63.3702 15.94 63.3702Z" fill="#003A70"/>
<path d="M15.94 71.1398C17.0114 71.1398 17.88 70.2712 17.88 69.1998C17.88 68.1283 17.0114 67.2598 15.94 67.2598C14.8686 67.2598 14 68.1283 14 69.1998C14 70.2712 14.8686 71.1398 15.94 71.1398Z" fill="#003A70"/>
<path d="M22.7799 52.8098C24.4975 52.8098 25.8899 51.4174 25.8899 49.6998C25.8899 47.9822 24.4975 46.5898 22.7799 46.5898C21.0623 46.5898 19.6699 47.9822 19.6699 49.6998C19.6699 51.4174 21.0623 52.8098 22.7799 52.8098Z" fill="#003A70"/>
<path d="M22.7799 60.5804C24.4975 60.5804 25.8899 59.188 25.8899 57.4704C25.8899 55.7527 24.4975 54.3604 22.7799 54.3604C21.0623 54.3604 19.6699 55.7527 19.6699 57.4704C19.6699 59.188 21.0623 60.5804 22.7799 60.5804Z" fill="#003A70"/>
<path d="M22.7799 68.3499C24.4975 68.3499 25.8899 66.9575 25.8899 65.2399C25.8899 63.5223 24.4975 62.1299 22.7799 62.1299C21.0623 62.1299 19.6699 63.5223 19.6699 65.2399C19.6699 66.9575 21.0623 68.3499 22.7799 68.3499Z" fill="#003A70"/>
<path d="M22.7798 74.9503C23.8513 74.9503 24.7198 74.0817 24.7198 73.0103C24.7198 71.9389 23.8513 71.0703 22.7798 71.0703C21.7084 71.0703 20.8398 71.9389 20.8398 73.0103C20.8398 74.0817 21.7084 74.9503 22.7798 74.9503Z" fill="#003A70"/>
<path d="M29.6099 55.5997C30.6814 55.5997 31.5499 54.7312 31.5499 53.6597C31.5499 52.5883 30.6814 51.7197 29.6099 51.7197C28.5385 51.7197 27.6699 52.5883 27.6699 53.6597C27.6699 54.7312 28.5385 55.5997 29.6099 55.5997Z" fill="#003A70"/>
<path d="M29.6099 63.3702C30.6814 63.3702 31.5499 62.5017 31.5499 61.4302C31.5499 60.3588 30.6814 59.4902 29.6099 59.4902C28.5385 59.4902 27.6699 60.3588 27.6699 61.4302C27.6699 62.5017 28.5385 63.3702 29.6099 63.3702Z" fill="#003A70"/>
<path d="M29.61 72.3098C31.3276 72.3098 32.72 70.9174 32.72 69.1998C32.72 67.4822 31.3276 66.0898 29.61 66.0898C27.8924 66.0898 26.5 67.4822 26.5 69.1998C26.5 70.9174 27.8924 72.3098 29.61 72.3098Z" fill="#003A70"/>
<path d="M29.6099 78.9103C30.6814 78.9103 31.5499 78.0417 31.5499 76.9703C31.5499 75.8988 30.6814 75.0303 29.6099 75.0303C28.5385 75.0303 27.6699 75.8988 27.6699 76.9703C27.6699 78.0417 28.5385 78.9103 29.6099 78.9103Z" fill="#003A70"/>
<path d="M36.4503 50.8703C37.0964 50.8703 37.6203 50.3464 37.6203 49.7003C37.6203 49.0541 37.0964 48.5303 36.4503 48.5303C35.8041 48.5303 35.2803 49.0541 35.2803 49.7003C35.2803 50.3464 35.8041 50.8703 36.4503 50.8703Z" fill="#003A70"/>
<path d="M36.4503 58.6398C37.0964 58.6398 37.6203 58.116 37.6203 57.4698C37.6203 56.8236 37.0964 56.2998 36.4503 56.2998C35.8041 56.2998 35.2803 56.8236 35.2803 57.4698C35.2803 58.116 35.8041 58.6398 36.4503 58.6398Z" fill="#003A70"/>
<path d="M36.4498 67.1798C37.5212 67.1798 38.3898 66.3112 38.3898 65.2398C38.3898 64.1684 37.5212 63.2998 36.4498 63.2998C35.3783 63.2998 34.5098 64.1684 34.5098 65.2398C34.5098 66.3112 35.3783 67.1798 36.4498 67.1798Z" fill="#003A70"/>
<path d="M36.4498 76.1204C38.1674 76.1204 39.5598 74.728 39.5598 73.0104C39.5598 71.2928 38.1674 69.9004 36.4498 69.9004C34.7322 69.9004 33.3398 71.2928 33.3398 73.0104C33.3398 74.728 34.7322 76.1204 36.4498 76.1204Z" fill="#003A70"/>
<path d="M36.4498 82.7101C37.5212 82.7101 38.3898 81.8415 38.3898 80.7701C38.3898 79.6986 37.5212 78.8301 36.4498 78.8301C35.3783 78.8301 34.5098 79.6986 34.5098 80.7701C34.5098 81.8415 35.3783 82.7101 36.4498 82.7101Z" fill="#003A70"/>
<path d="M43.28 54.4399C43.7108 54.4399 44.06 54.0907 44.06 53.6599C44.06 53.2291 43.7108 52.8799 43.28 52.8799C42.8492 52.8799 42.5 53.2291 42.5 53.6599C42.5 54.0907 42.8492 54.4399 43.28 54.4399Z" fill="#003A70"/>
<path d="M43.2804 62.5998C43.9265 62.5998 44.4504 62.0759 44.4504 61.4298C44.4504 60.7836 43.9265 60.2598 43.2804 60.2598C42.6342 60.2598 42.1104 60.7836 42.1104 61.4298C42.1104 62.0759 42.6342 62.5998 43.2804 62.5998Z" fill="#003A70"/>
<path d="M43.2798 71.1398C44.3513 71.1398 45.2198 70.2712 45.2198 69.1998C45.2198 68.1283 44.3513 67.2598 43.2798 67.2598C42.2084 67.2598 41.3398 68.1283 41.3398 69.1998C41.3398 70.2712 42.2084 71.1398 43.2798 71.1398Z" fill="#003A70"/>
<path d="M43.2799 80.0804C44.9975 80.0804 46.3899 78.688 46.3899 76.9704C46.3899 75.2527 44.9975 73.8604 43.2799 73.8604C41.5623 73.8604 40.1699 75.2527 40.1699 76.9704C40.1699 78.688 41.5623 80.0804 43.2799 80.0804Z" fill="#003A70"/>
<path d="M43.2798 86.6798C44.3513 86.6798 45.2198 85.8112 45.2198 84.7398C45.2198 83.6684 44.3513 82.7998 43.2798 82.7998C42.2084 82.7998 41.3398 83.6684 41.3398 84.7398C41.3398 85.8112 42.2084 86.6798 43.2798 86.6798Z" fill="#003A70"/>
<path d="M43.2798 16.7696C44.3513 16.7696 45.2198 15.9011 45.2198 14.8296C45.2198 13.7582 44.3513 12.8896 43.2798 12.8896C42.2084 12.8896 41.3398 13.7582 41.3398 14.8296C41.3398 15.9011 42.2084 16.7696 43.2798 16.7696Z" fill="#003A70"/>
<path d="M43.2799 25.7005C44.9975 25.7005 46.3899 24.3081 46.3899 22.5905C46.3899 20.8729 44.9975 19.4805 43.2799 19.4805C41.5623 19.4805 40.1699 20.8729 40.1699 22.5905C40.1699 24.3081 41.5623 25.7005 43.2799 25.7005Z" fill="#003A70"/>
<path d="M43.2798 32.2999C44.3513 32.2999 45.2198 31.4314 45.2198 30.3599C45.2198 29.2885 44.3513 28.4199 43.2798 28.4199C42.2084 28.4199 41.3398 29.2885 41.3398 30.3599C41.3398 31.4314 42.2084 32.2999 43.2798 32.2999Z" fill="#003A70"/>
<path d="M43.2804 39.3C43.9265 39.3 44.4504 38.7761 44.4504 38.13C44.4504 37.4838 43.9265 36.96 43.2804 36.96C42.6342 36.96 42.1104 37.4838 42.1104 38.13C42.1104 38.7761 42.6342 39.3 43.2804 39.3Z" fill="#003A70"/>
<path d="M43.28 46.6801C43.7108 46.6801 44.06 46.3309 44.06 45.9001C44.06 45.4693 43.7108 45.1201 43.28 45.1201C42.8492 45.1201 42.5 45.4693 42.5 45.9001C42.5 46.3309 42.8492 46.6801 43.28 46.6801Z" fill="#003A70"/>
<path d="M15.94 32.2198C17.0114 32.2198 17.88 31.3513 17.88 30.2798C17.88 29.2084 17.0114 28.3398 15.94 28.3398C14.8686 28.3398 14 29.2084 14 30.2798C14 31.3513 14.8686 32.2198 15.94 32.2198Z" fill="#003A70"/>
<path d="M15.94 39.9904C17.0114 39.9904 17.88 39.1218 17.88 38.0504C17.88 36.9789 17.0114 36.1104 15.94 36.1104C14.8686 36.1104 14 36.9789 14 38.0504C14 39.1218 14.8686 39.9904 15.94 39.9904Z" fill="#003A70"/>
<path d="M15.94 47.7599C17.0114 47.7599 17.88 46.8913 17.88 45.8199C17.88 44.7484 17.0114 43.8799 15.94 43.8799C14.8686 43.8799 14 44.7484 14 45.8199C14 46.8913 14.8686 47.7599 15.94 47.7599Z" fill="#003A70"/>
<path d="M22.7798 28.42C23.8513 28.42 24.7198 27.5515 24.7198 26.48C24.7198 25.4086 23.8513 24.54 22.7798 24.54C21.7084 24.54 20.8398 25.4086 20.8398 26.48C20.8398 27.5515 21.7084 28.42 22.7798 28.42Z" fill="#003A70"/>
<path d="M22.7799 37.3596C24.4975 37.3596 25.8899 35.9673 25.8899 34.2496C25.8899 32.532 24.4975 31.1396 22.7799 31.1396C21.0623 31.1396 19.6699 32.532 19.6699 34.2496C19.6699 35.9673 21.0623 37.3596 22.7799 37.3596Z" fill="#003A70"/>
<path d="M22.7799 45.1204C24.4975 45.1204 25.8899 43.728 25.8899 42.0104C25.8899 40.2928 24.4975 38.9004 22.7799 38.9004C21.0623 38.9004 19.6699 40.2928 19.6699 42.0104C19.6699 43.728 21.0623 45.1204 22.7799 45.1204Z" fill="#003A70"/>
<path d="M29.6099 24.4601C30.6814 24.4601 31.5499 23.5915 31.5499 22.5201C31.5499 21.4486 30.6814 20.5801 29.6099 20.5801C28.5385 20.5801 27.6699 21.4486 27.6699 22.5201C27.6699 23.5915 28.5385 24.4601 29.6099 24.4601Z" fill="#003A70"/>
<path d="M29.61 33.3899C31.3276 33.3899 32.72 31.9975 32.72 30.2799C32.72 28.5623 31.3276 27.1699 29.61 27.1699C27.8924 27.1699 26.5 28.5623 26.5 30.2799C26.5 31.9975 27.8924 33.3899 29.61 33.3899Z" fill="#003A70"/>
<path d="M29.6099 39.9904C30.6814 39.9904 31.5499 39.1218 31.5499 38.0504C31.5499 36.9789 30.6814 36.1104 29.6099 36.1104C28.5385 36.1104 27.6699 36.9789 27.6699 38.0504C27.6699 39.1218 28.5385 39.9904 29.6099 39.9904Z" fill="#003A70"/>
<path d="M29.6099 47.7599C30.6814 47.7599 31.5499 46.8913 31.5499 45.8199C31.5499 44.7484 30.6814 43.8799 29.6099 43.8799C28.5385 43.8799 27.6699 44.7484 27.6699 45.8199C27.6699 46.8913 28.5385 47.7599 29.6099 47.7599Z" fill="#003A70"/>
<path d="M36.4498 20.6495C37.5212 20.6495 38.3898 19.781 38.3898 18.7095C38.3898 17.6381 37.5212 16.7695 36.4498 16.7695C35.3783 16.7695 34.5098 17.6381 34.5098 18.7095C34.5098 19.781 35.3783 20.6495 36.4498 20.6495Z" fill="#003A70"/>
<path d="M36.4498 29.5901C38.1674 29.5901 39.5598 28.1977 39.5598 26.4801C39.5598 24.7625 38.1674 23.3701 36.4498 23.3701C34.7322 23.3701 33.3398 24.7625 33.3398 26.4801C33.3398 28.1977 34.7322 29.5901 36.4498 29.5901Z" fill="#003A70"/>
<path d="M36.4498 36.1896C37.5212 36.1896 38.3898 35.321 38.3898 34.2496C38.3898 33.1781 37.5212 32.3096 36.4498 32.3096C35.3783 32.3096 34.5098 33.1781 34.5098 34.2496C34.5098 35.321 35.3783 36.1896 36.4498 36.1896Z" fill="#003A70"/>
<path d="M36.4503 43.1798C37.0964 43.1798 37.6203 42.656 37.6203 42.0098C37.6203 41.3637 37.0964 40.8398 36.4503 40.8398C35.8041 40.8398 35.2803 41.3637 35.2803 42.0098C35.2803 42.656 35.8041 43.1798 36.4503 43.1798Z" fill="#003A70"/>
<path d="M50.1198 50.4799C50.5506 50.4799 50.8998 50.1307 50.8998 49.6999C50.8998 49.2691 50.5506 48.9199 50.1198 48.9199C49.6891 48.9199 49.3398 49.2691 49.3398 49.6999C49.3398 50.1307 49.6891 50.4799 50.1198 50.4799Z" fill="#003A70"/>
<path d="M50.1198 58.2504C50.5506 58.2504 50.8998 57.9012 50.8998 57.4704C50.8998 57.0397 50.5506 56.6904 50.1198 56.6904C49.6891 56.6904 49.3398 57.0397 49.3398 57.4704C49.3398 57.9012 49.6891 58.2504 50.1198 58.2504Z" fill="#003A70"/>
<path d="M50.1202 66.4103C50.7664 66.4103 51.2902 65.8865 51.2902 65.2403C51.2902 64.5941 50.7664 64.0703 50.1202 64.0703C49.474 64.0703 48.9502 64.5941 48.9502 65.2403C48.9502 65.8865 49.474 66.4103 50.1202 66.4103Z" fill="#003A70"/>
<path d="M50.1197 74.9503C51.1911 74.9503 52.0597 74.0817 52.0597 73.0103C52.0597 71.9389 51.1911 71.0703 50.1197 71.0703C49.0483 71.0703 48.1797 71.9389 48.1797 73.0103C48.1797 74.0817 49.0483 74.9503 50.1197 74.9503Z" fill="#003A70"/>
<path d="M50.1198 83.8801C51.8374 83.8801 53.2298 82.4878 53.2298 80.7701C53.2298 79.0525 51.8374 77.6602 50.1198 77.6602C48.4022 77.6602 47.0098 79.0525 47.0098 80.7701C47.0098 82.4878 48.4022 83.8801 50.1198 83.8801Z" fill="#003A70"/>
<path d="M50.1197 90.4796C51.1911 90.4796 52.0597 89.611 52.0597 88.5396C52.0597 87.4682 51.1911 86.5996 50.1197 86.5996C49.0483 86.5996 48.1797 87.4682 48.1797 88.5396C48.1797 89.611 49.0483 90.4796 50.1197 90.4796Z" fill="#003A70"/>
<path d="M56.9597 54.4399C57.3905 54.4399 57.7397 54.0907 57.7397 53.6599C57.7397 53.2291 57.3905 52.8799 56.9597 52.8799C56.5289 52.8799 56.1797 53.2291 56.1797 53.6599C56.1797 54.0907 56.5289 54.4399 56.9597 54.4399Z" fill="#003A70"/>
<path d="M56.96 62.5998C57.6062 62.5998 58.13 62.0759 58.13 61.4298C58.13 60.7836 57.6062 60.2598 56.96 60.2598C56.3139 60.2598 55.79 60.7836 55.79 61.4298C55.79 62.0759 56.3139 62.5998 56.96 62.5998Z" fill="#003A70"/>
<path d="M56.9595 71.1398C58.031 71.1398 58.8995 70.2712 58.8995 69.1998C58.8995 68.1283 58.031 67.2598 56.9595 67.2598C55.8881 67.2598 55.0195 68.1283 55.0195 69.1998C55.0195 70.2712 55.8881 71.1398 56.9595 71.1398Z" fill="#003A70"/>
<path d="M56.9596 80.0804C58.6772 80.0804 60.0696 78.688 60.0696 76.9704C60.0696 75.2527 58.6772 73.8604 56.9596 73.8604C55.242 73.8604 53.8496 75.2527 53.8496 76.9704C53.8496 78.688 55.242 80.0804 56.9596 80.0804Z" fill="#003A70"/>
<path d="M56.9595 86.6798C58.031 86.6798 58.8995 85.8112 58.8995 84.7398C58.8995 83.6684 58.031 82.7998 56.9595 82.7998C55.8881 82.7998 55.0195 83.6684 55.0195 84.7398C55.0195 85.8112 55.8881 86.6798 56.9595 86.6798Z" fill="#003A70"/>
<path d="M63.7898 50.4799C64.2206 50.4799 64.5698 50.1307 64.5698 49.6999C64.5698 49.2691 64.2206 48.9199 63.7898 48.9199C63.359 48.9199 63.0098 49.2691 63.0098 49.6999C63.0098 50.1307 63.359 50.4799 63.7898 50.4799Z" fill="#003A70"/>
<path d="M63.7901 58.6398C64.4363 58.6398 64.9601 58.116 64.9601 57.4698C64.9601 56.8236 64.4363 56.2998 63.7901 56.2998C63.1439 56.2998 62.6201 56.8236 62.6201 57.4698C62.6201 58.116 63.1439 58.6398 63.7901 58.6398Z" fill="#003A70"/>
<path d="M63.7896 67.1798C64.861 67.1798 65.7296 66.3112 65.7296 65.2398C65.7296 64.1684 64.861 63.2998 63.7896 63.2998C62.7182 63.2998 61.8496 64.1684 61.8496 65.2398C61.8496 66.3112 62.7182 67.1798 63.7896 67.1798Z" fill="#003A70"/>
<path d="M63.7897 76.1204C65.5073 76.1204 66.8997 74.728 66.8997 73.0104C66.8997 71.2928 65.5073 69.9004 63.7897 69.9004C62.0721 69.9004 60.6797 71.2928 60.6797 73.0104C60.6797 74.728 62.0721 76.1204 63.7897 76.1204Z" fill="#003A70"/>
<path d="M63.7896 82.7101C64.861 82.7101 65.7296 81.8415 65.7296 80.7701C65.7296 79.6986 64.861 78.8301 63.7896 78.8301C62.7182 78.8301 61.8496 79.6986 61.8496 80.7701C61.8496 81.8415 62.7182 82.7101 63.7896 82.7101Z" fill="#003A70"/>
<path d="M70.63 54.8302C71.2761 54.8302 71.8 54.3064 71.8 53.6602C71.8 53.0141 71.2761 52.4902 70.63 52.4902C69.9838 52.4902 69.46 53.0141 69.46 53.6602C69.46 54.3064 69.9838 54.8302 70.63 54.8302Z" fill="#003A70"/>
<path d="M70.6304 63.3702C71.7019 63.3702 72.5704 62.5017 72.5704 61.4302C72.5704 60.3588 71.7019 59.4902 70.6304 59.4902C69.559 59.4902 68.6904 60.3588 68.6904 61.4302C68.6904 62.5017 69.559 63.3702 70.6304 63.3702Z" fill="#003A70"/>
<path d="M70.6295 72.3098C72.3471 72.3098 73.7395 70.9174 73.7395 69.1998C73.7395 67.4822 72.3471 66.0898 70.6295 66.0898C68.9119 66.0898 67.5195 67.4822 67.5195 69.1998C67.5195 70.9174 68.9119 72.3098 70.6295 72.3098Z" fill="#003A70"/>
<path d="M70.6304 78.9103C71.7019 78.9103 72.5704 78.0417 72.5704 76.9703C72.5704 75.8988 71.7019 75.0303 70.6304 75.0303C69.559 75.0303 68.6904 75.8988 68.6904 76.9703C68.6904 78.0417 69.559 78.9103 70.6304 78.9103Z" fill="#003A70"/>
<path d="M77.4597 50.4799C77.8905 50.4799 78.2397 50.1307 78.2397 49.6999C78.2397 49.2691 77.8905 48.9199 77.4597 48.9199C77.0289 48.9199 76.6797 49.2691 76.6797 49.6999C76.6797 50.1307 77.0289 50.4799 77.4597 50.4799Z" fill="#003A70"/>
<path d="M77.46 58.6398C78.1062 58.6398 78.63 58.116 78.63 57.4698C78.63 56.8236 78.1062 56.2998 77.46 56.2998C76.8139 56.2998 76.29 56.8236 76.29 57.4698C76.29 58.116 76.8139 58.6398 77.46 58.6398Z" fill="#003A70"/>
<path d="M77.4595 67.1798C78.531 67.1798 79.3995 66.3112 79.3995 65.2398C79.3995 64.1684 78.531 63.2998 77.4595 63.2998C76.3881 63.2998 75.5195 64.1684 75.5195 65.2398C75.5195 66.3112 76.3881 67.1798 77.4595 67.1798Z" fill="#003A70"/>
<path d="M77.4595 74.9503C78.531 74.9503 79.3995 74.0817 79.3995 73.0103C79.3995 71.9389 78.531 71.0703 77.4595 71.0703C76.3881 71.0703 75.5195 71.9389 75.5195 73.0103C75.5195 74.0817 76.3881 74.9503 77.4595 74.9503Z" fill="#003A70"/>
<path d="M84.2995 54.4399C84.7303 54.4399 85.0795 54.0907 85.0795 53.6599C85.0795 53.2291 84.7303 52.8799 84.2995 52.8799C83.8688 52.8799 83.5195 53.2291 83.5195 53.6599C83.5195 54.0907 83.8688 54.4399 84.2995 54.4399Z" fill="#003A70"/>
<path d="M84.2999 62.5998C84.9461 62.5998 85.4699 62.0759 85.4699 61.4298C85.4699 60.7836 84.9461 60.2598 84.2999 60.2598C83.6537 60.2598 83.1299 60.7836 83.1299 61.4298C83.1299 62.0759 83.6537 62.5998 84.2999 62.5998Z" fill="#003A70"/>
<path d="M84.2999 70.3703C84.9461 70.3703 85.4699 69.8464 85.4699 69.2003C85.4699 68.5541 84.9461 68.0303 84.2999 68.0303C83.6537 68.0303 83.1299 68.5541 83.1299 69.2003C83.1299 69.8464 83.6537 70.3703 84.2999 70.3703Z" fill="#003A70"/>
<path d="M50.1197 12.88C51.1911 12.88 52.0597 12.0114 52.0597 10.94C52.0597 9.86857 51.1911 9 50.1197 9C49.0483 9 48.1797 9.86857 48.1797 10.94C48.1797 12.0114 49.0483 12.88 50.1197 12.88Z" fill="#003A70"/>
<path d="M50.1198 21.8196C51.8374 21.8196 53.2298 20.4272 53.2298 18.7096C53.2298 16.992 51.8374 15.5996 50.1198 15.5996C48.4022 15.5996 47.0098 16.992 47.0098 18.7096C47.0098 20.4272 48.4022 21.8196 50.1198 21.8196Z" fill="#003A70"/>
<path d="M50.1197 28.42C51.1911 28.42 52.0597 27.5515 52.0597 26.48C52.0597 25.4086 51.1911 24.54 50.1197 24.54C49.0483 24.54 48.1797 25.4086 48.1797 26.48C48.1797 27.5515 49.0483 28.42 50.1197 28.42Z" fill="#003A70"/>
<path d="M50.1202 35.4201C50.7664 35.4201 51.2902 34.8963 51.2902 34.2501C51.2902 33.6039 50.7664 33.0801 50.1202 33.0801C49.474 33.0801 48.9502 33.6039 48.9502 34.2501C48.9502 34.8963 49.474 35.4201 50.1202 35.4201Z" fill="#003A70"/>
<path d="M50.1198 42.7905C50.5506 42.7905 50.8998 42.4412 50.8998 42.0105C50.8998 41.5797 50.5506 41.2305 50.1198 41.2305C49.6891 41.2305 49.3398 41.5797 49.3398 42.0105C49.3398 42.4412 49.6891 42.7905 50.1198 42.7905Z" fill="#003A70"/>
<path d="M56.9595 16.6896C58.031 16.6896 58.8995 15.821 58.8995 14.7496C58.8995 13.6781 58.031 12.8096 56.9595 12.8096C55.8881 12.8096 55.0195 13.6781 55.0195 14.7496C55.0195 15.821 55.8881 16.6896 56.9595 16.6896Z" fill="#003A70"/>
<path d="M56.9596 25.6302C58.6772 25.6302 60.0696 24.2378 60.0696 22.5202C60.0696 20.8026 58.6772 19.4102 56.9596 19.4102C55.242 19.4102 53.8496 20.8026 53.8496 22.5202C53.8496 24.2378 55.242 25.6302 56.9596 25.6302Z" fill="#003A70"/>
<path d="M56.9595 32.2198C58.031 32.2198 58.8995 31.3513 58.8995 30.2798C58.8995 29.2084 58.031 28.3398 56.9595 28.3398C55.8881 28.3398 55.0195 29.2084 55.0195 30.2798C55.0195 31.3513 55.8881 32.2198 56.9595 32.2198Z" fill="#003A70"/>
<path d="M56.96 39.2199C57.6062 39.2199 58.13 38.6961 58.13 38.0499C58.13 37.4037 57.6062 36.8799 56.96 36.8799C56.3139 36.8799 55.79 37.4037 55.79 38.0499C55.79 38.6961 56.3139 39.2199 56.96 39.2199Z" fill="#003A70"/>
<path d="M56.9597 46.6C57.3905 46.6 57.7397 46.2508 57.7397 45.82C57.7397 45.3893 57.3905 45.04 56.9597 45.04C56.5289 45.04 56.1797 45.3893 56.1797 45.82C56.1797 46.2508 56.5289 46.6 56.9597 46.6Z" fill="#003A70"/>
<path d="M63.7896 20.6495C64.861 20.6495 65.7296 19.781 65.7296 18.7095C65.7296 17.6381 64.861 16.7695 63.7896 16.7695C62.7182 16.7695 61.8496 17.6381 61.8496 18.7095C61.8496 19.781 62.7182 20.6495 63.7896 20.6495Z" fill="#003A70"/>
<path d="M63.7897 29.5901C65.5073 29.5901 66.8997 28.1977 66.8997 26.4801C66.8997 24.7625 65.5073 23.3701 63.7897 23.3701C62.0721 23.3701 60.6797 24.7625 60.6797 26.4801C60.6797 28.1977 62.0721 29.5901 63.7897 29.5901Z" fill="#003A70"/>
<path d="M63.7896 36.1896C64.861 36.1896 65.7296 35.321 65.7296 34.2496C65.7296 33.1781 64.861 32.3096 63.7896 32.3096C62.7182 32.3096 61.8496 33.1781 61.8496 34.2496C61.8496 35.321 62.7182 36.1896 63.7896 36.1896Z" fill="#003A70"/>
<path d="M63.7901 43.1798C64.4363 43.1798 64.9601 42.656 64.9601 42.0098C64.9601 41.3637 64.4363 40.8398 63.7901 40.8398C63.1439 40.8398 62.6201 41.3637 62.6201 42.0098C62.6201 42.656 63.1439 43.1798 63.7901 43.1798Z" fill="#003A70"/>
<path d="M70.6304 24.4601C71.7019 24.4601 72.5704 23.5915 72.5704 22.5201C72.5704 21.4486 71.7019 20.5801 70.6304 20.5801C69.559 20.5801 68.6904 21.4486 68.6904 22.5201C68.6904 23.5915 69.559 24.4601 70.6304 24.4601Z" fill="#003A70"/>
<path d="M70.6295 33.3899C72.3471 33.3899 73.7395 31.9975 73.7395 30.2799C73.7395 28.5623 72.3471 27.1699 70.6295 27.1699C68.9119 27.1699 67.5195 28.5623 67.5195 30.2799C67.5195 31.9975 68.9119 33.3899 70.6295 33.3899Z" fill="#003A70"/>
<path d="M70.6304 39.9904C71.7019 39.9904 72.5704 39.1218 72.5704 38.0504C72.5704 36.9789 71.7019 36.1104 70.6304 36.1104C69.559 36.1104 68.6904 36.9789 68.6904 38.0504C68.6904 39.1218 69.559 39.9904 70.6304 39.9904Z" fill="#003A70"/>
<path d="M70.63 46.9904C71.2761 46.9904 71.8 46.4666 71.8 45.8204C71.8 45.1742 71.2761 44.6504 70.63 44.6504C69.9838 44.6504 69.46 45.1742 69.46 45.8204C69.46 46.4666 69.9838 46.9904 70.63 46.9904Z" fill="#003A70"/>
<path d="M77.4595 28.42C78.531 28.42 79.3995 27.5515 79.3995 26.48C79.3995 25.4086 78.531 24.54 77.4595 24.54C76.3881 24.54 75.5195 25.4086 75.5195 26.48C75.5195 27.5515 76.3881 28.42 77.4595 28.42Z" fill="#003A70"/>
<path d="M77.4595 36.1896C78.531 36.1896 79.3995 35.321 79.3995 34.2496C79.3995 33.1781 78.531 32.3096 77.4595 32.3096C76.3881 32.3096 75.5195 33.1781 75.5195 34.2496C75.5195 35.321 76.3881 36.1896 77.4595 36.1896Z" fill="#003A70"/>
<path d="M77.46 43.1798C78.1062 43.1798 78.63 42.656 78.63 42.0098C78.63 41.3637 78.1062 40.8398 77.46 40.8398C76.8139 40.8398 76.29 41.3637 76.29 42.0098C76.29 42.656 76.8139 43.1798 77.46 43.1798Z" fill="#003A70"/>
<path d="M84.2999 31.4504C84.9461 31.4504 85.4699 30.9265 85.4699 30.2804C85.4699 29.6342 84.9461 29.1104 84.2999 29.1104C83.6537 29.1104 83.1299 29.6342 83.1299 30.2804C83.1299 30.9265 83.6537 31.4504 84.2999 31.4504Z" fill="#003A70"/>
<path d="M84.2999 39.2199C84.9461 39.2199 85.4699 38.6961 85.4699 38.0499C85.4699 37.4037 84.9461 36.8799 84.2999 36.8799C83.6537 36.8799 83.1299 37.4037 83.1299 38.0499C83.1299 38.6961 83.6537 39.2199 84.2999 39.2199Z" fill="#003A70"/>
<path d="M84.2995 46.6C84.7303 46.6 85.0795 46.2508 85.0795 45.82C85.0795 45.3893 84.7303 45.04 84.2995 45.04C83.8688 45.04 83.5195 45.3893 83.5195 45.82C83.5195 46.2508 83.8688 46.6 84.2995 46.6Z" fill="#003A70"/>
</g>
<defs>
<linearGradient id="paint0_linear_2482:306" x1="84.3129" y1="14.7531" x2="14.545" y2="84.521" gradientUnits="userSpaceOnUse">
<stop/>
<stop offset="1" stop-color="#515151"/>
</linearGradient>
</defs>
</svg>
