<svg width="18" height="18" viewBox="0 0 18 18" fill="none" xmlns="http://www.w3.org/2000/svg">
<path d="M15.1721 5.42994L8.99965 8.99995L2.82715 5.42994C2.95388 5.21058 3.13461 5.02728 3.35215 4.89744L8.24965 2.06994C8.71519 1.80741 9.28411 1.80741 9.74965 2.06994L14.6471 4.89744C14.8647 5.02728 15.0454 5.21058 15.1721 5.42994Z" fill="#EAFAF3"/>
<path opacity="0.2" d="M9 8.99993V16.1249C8.76353 16.1246 8.5302 16.0708 8.3175 15.9674L3.375 13.1099C2.91171 12.8419 2.62601 12.3477 2.625 11.8124V6.18743C2.62624 5.92172 2.69599 5.66082 2.8275 5.42993L9 8.99993Z" fill="#2DCA8C"/>
<path d="M15.375 6.18743V11.8124C15.374 12.3477 15.0883 12.8419 14.625 13.1099L9.66 15.9749C9.45352 16.0723 9.22828 16.1235 9 16.1249V8.99993L15.1725 5.42993C15.304 5.66082 15.3738 5.92172 15.375 6.18743Z" fill="#2DCA8C"/>
</svg>
