<svg width="48" height="32" viewBox="0 0 48 32" fill="none" xmlns="http://www.w3.org/2000/svg">
<path d="M0 4C0 1.79086 1.79086 0 4 0H44C46.2091 0 48 1.79086 48 4V28C48 30.2091 46.2091 32 44 32H4C1.79086 32 0 30.2091 0 28V4Z" fill="#3F51B5"/>
<path d="M23.5262 4.14729C23.7209 3.75819 24.279 3.75715 24.4739 4.14618C24.5507 4.29949 24.7006 4.40627 24.8704 4.43016C25.2967 4.49014 25.4758 5.01637 25.1653 5.31449C25.0418 5.43312 24.9853 5.60614 25.0143 5.77494C25.0877 6.20116 24.6423 6.53042 24.2583 6.33138L24.2439 6.3239C24.091 6.24467 23.9092 6.2448 23.7565 6.32424L23.7417 6.33193C23.3591 6.53097 22.9146 6.20306 22.9891 5.77823C23.0189 5.60864 22.9621 5.43487 22.8377 5.31584C22.5264 5.01796 22.7038 4.49116 23.1305 4.43112C23.3001 4.40726 23.4496 4.30042 23.5262 4.14729ZM17.7944 5.83416C17.9894 5.44476 18.5472 5.44427 18.7422 5.83367C18.8191 5.98714 18.9692 6.0941 19.1391 6.11855C19.5658 6.17995 19.7453 6.70703 19.4344 7.00555C19.3104 7.12459 19.2537 7.29798 19.2829 7.46737C19.3563 7.89268 18.912 8.22064 18.5285 8.02255L18.5116 8.01382C18.3591 7.93502 18.1778 7.93502 18.0253 8.01382L18.0085 8.02247C17.6259 8.22015 17.1827 7.89257 17.2573 7.46839C17.2872 7.29838 17.2303 7.12429 17.1056 7.00496C16.7942 6.70701 16.9722 6.17988 17.3988 6.11844C17.5682 6.09404 17.7177 5.98725 17.7944 5.83416ZM13.7253 9.52935C13.9188 9.14151 14.4739 9.14279 14.6685 9.53006C14.7455 9.68312 14.8954 9.79006 15.065 9.81448C15.4916 9.87594 15.6708 10.403 15.3599 10.7015C15.2359 10.8206 15.1791 10.9939 15.2084 11.1633C15.2817 11.5882 14.8372 11.915 14.4545 11.7162L14.4414 11.7094C14.289 11.6302 14.1075 11.6301 13.9549 11.709L13.9385 11.7175C13.5555 11.9155 13.1115 11.5882 13.1849 11.1633C13.2141 10.9939 13.1574 10.8206 13.0334 10.7015C12.7225 10.403 12.9017 9.87599 13.3284 9.8146C13.4985 9.79012 13.6485 9.68313 13.7253 9.52935ZM30.2058 5.83416C30.0107 5.44476 29.453 5.44427 29.2579 5.83367C29.1811 5.98714 29.0309 6.0941 28.8611 6.11855C28.4344 6.17995 28.2549 6.70703 28.5658 7.00555C28.6898 7.12459 28.7465 7.29798 28.7173 7.46737C28.6439 7.89268 29.0882 8.22064 29.4716 8.02255L29.4885 8.01382C29.6411 7.93502 29.8224 7.93502 29.9749 8.01382L29.9916 8.02247C30.3743 8.22015 30.8175 7.89257 30.7429 7.46839C30.713 7.29838 30.7699 7.12429 30.8946 7.00496C31.206 6.70701 31.028 6.17988 30.6014 6.11844C30.432 6.09404 30.2824 5.98725 30.2058 5.83416ZM17.7946 23.8209C17.9895 23.4319 18.5471 23.4313 18.742 23.8204C18.819 23.974 18.9687 24.0809 19.1389 24.1048C19.5667 24.165 19.7448 24.6925 19.4338 24.9925C19.3101 25.1117 19.2537 25.285 19.2829 25.4543C19.3563 25.8798 18.9117 26.2077 18.528 26.0095L18.5116 26.001C18.3591 25.9222 18.1778 25.9222 18.0253 26.001L18.0089 26.0095C17.6261 26.2072 17.1827 25.8797 17.2573 25.4554C17.2872 25.2854 17.2305 25.1114 17.106 24.9919C16.7946 24.6929 16.9715 24.1655 17.399 24.105C17.5687 24.0809 17.7179 23.9742 17.7946 23.8209ZM30.2056 23.8209C30.0107 23.4319 29.453 23.4313 29.2582 23.8204C29.1812 23.974 29.0315 24.0809 28.8613 24.1048C28.4335 24.165 28.2554 24.6925 28.5664 24.9925C28.6901 25.1117 28.7465 25.285 28.7173 25.4543C28.6439 25.8798 29.0885 26.2077 29.4722 26.0095L29.4885 26.001C29.6411 25.9222 29.8224 25.9222 29.9749 26.001L29.9912 26.0095C30.3741 26.2072 30.8175 25.8797 30.7429 25.4554C30.713 25.2854 30.7697 25.1114 30.8941 24.9919C31.2056 24.6929 31.0287 24.1655 30.6012 24.105C30.4315 24.0809 30.2823 23.9742 30.2056 23.8209ZM34.2749 9.52935C34.0814 9.14151 33.5263 9.14279 33.3316 9.53006C33.2547 9.68312 33.1048 9.79006 32.9352 9.81448C32.5085 9.87594 32.3294 10.403 32.6403 10.7015C32.7643 10.8206 32.821 10.9939 32.7918 11.1633C32.7185 11.5882 33.163 11.915 33.5457 11.7162L33.5588 11.7094C33.7112 11.6302 33.8927 11.6301 34.0453 11.709L34.0617 11.7175C34.4447 11.9155 34.8887 11.5882 34.8153 11.1633C34.7861 10.9939 34.8428 10.8206 34.9668 10.7015C35.2777 10.403 35.0984 9.87599 34.6718 9.8146C34.5017 9.79012 34.3516 9.68313 34.2749 9.52935ZM13.7253 20.0669C13.9188 19.6791 14.4739 19.6804 14.6685 20.0677C14.7455 20.2207 14.8954 20.3277 15.065 20.3521C15.4916 20.4135 15.6708 20.9406 15.3599 21.2391C15.2359 21.3582 15.1791 21.5315 15.2084 21.7009C15.2817 22.1255 14.8377 22.4522 14.4551 22.2539L14.4414 22.2468C14.2889 22.1677 14.1076 22.1676 13.955 22.2465L13.9385 22.2551C13.5555 22.4531 13.1115 22.1258 13.1849 21.7009C13.2141 21.5315 13.1574 21.3582 13.0334 21.2391C12.7225 20.9406 12.9017 20.4136 13.3284 20.3522C13.4985 20.3277 13.6485 20.2207 13.7253 20.0669ZM34.2749 20.0669C34.0814 19.6791 33.5263 19.6804 33.3316 20.0677C33.2547 20.2207 33.1048 20.3277 32.9352 20.3521C32.5085 20.4135 32.3293 20.9406 32.6403 21.2391C32.7643 21.3582 32.821 21.5315 32.7918 21.7009C32.7185 22.1255 33.1625 22.4522 33.5451 22.2539L33.5588 22.2468C33.7113 22.1677 33.8926 22.1676 34.0452 22.2465L34.0617 22.2551C34.4447 22.4531 34.8887 22.1258 34.8153 21.7009C34.7861 21.5315 34.8428 21.3582 34.9668 21.2391C35.2777 20.9406 35.0984 20.4136 34.6718 20.3522C34.5017 20.3277 34.3516 20.2207 34.2749 20.0669ZM34.687 15.1384C34.8816 14.7492 35.439 14.7491 35.6338 15.1381C35.7107 15.2916 35.8581 15.3982 36.028 15.4227L36.0414 15.4246C36.468 15.486 36.637 16.0115 36.326 16.3101C36.202 16.4291 36.1453 16.6025 36.1746 16.7719C36.248 17.1968 35.804 17.5243 35.4209 17.3264L35.4031 17.3172C35.2507 17.2385 35.0695 17.2386 34.9173 17.3176L34.9029 17.325C34.5207 17.5232 34.0771 17.1967 34.1507 16.7725C34.1802 16.6027 34.1232 16.429 33.9986 16.3099C33.6868 16.012 33.8644 15.4844 34.2913 15.423C34.4609 15.3986 34.6104 15.2917 34.687 15.1384ZM12.3662 15.1385C12.561 14.7494 13.1186 14.7492 13.3131 15.1384C13.3898 15.2917 13.5394 15.3986 13.709 15.423C14.1356 15.4844 14.3137 16.0117 14.0021 16.3095C13.8772 16.4288 13.8203 16.6029 13.8502 16.773C13.9248 17.1967 13.482 17.5236 13.0999 17.326L13.083 17.3173C12.9306 17.2385 12.7495 17.2384 12.5971 17.3172L12.5793 17.3264C12.1968 17.524 11.7537 17.1968 11.828 16.7727C11.8578 16.6028 11.8009 16.4289 11.6763 16.3096C11.3649 16.0117 11.5434 15.4844 11.97 15.423C12.1396 15.3986 12.2894 15.2917 12.3662 15.1385ZM23.5261 26.1296C23.7211 25.7403 24.2791 25.7406 24.4739 26.13C24.5507 26.2835 24.6981 26.3902 24.868 26.4147L24.8819 26.4167C25.3082 26.478 25.4768 27.0032 25.166 27.3012C25.042 27.4201 24.9853 27.5935 25.0145 27.7627C25.0879 28.188 24.6437 28.5162 24.2603 28.3181L24.2433 28.3093C24.0907 28.2305 23.9095 28.2305 23.7569 28.3093L23.74 28.318C23.3574 28.5157 22.9143 28.1881 22.9889 27.764C23.0188 27.5939 22.9619 27.4198 22.837 27.3005C22.5254 27.0026 22.7036 26.4753 23.1303 26.4139C23.2998 26.3895 23.4494 26.2827 23.5261 26.1296Z" fill="#FFEB3B"/>
</svg>
