<svg width="168" height="60" viewBox="0 0 168 60" fill="none" xmlns="http://www.w3.org/2000/svg">
<path d="M25.7322 29.6331L25.3309 29.2193C25.0229 28.909 24.5002 29.1253 24.5002 29.5673V35.4262C24.5002 35.6989 24.7242 35.9152 24.9856 35.9152H30.8002C31.2296 35.9152 31.4536 35.3886 31.1456 35.0782C30.9589 34.8902 30.9589 34.5798 31.1456 34.3823L37.3242 28.1378C37.5109 27.9497 37.5109 27.6394 37.3242 27.4419L36.7642 26.8776C36.4562 26.5673 36.6802 26.0406 37.1096 26.0406H42.9149C43.1856 26.0406 43.4002 26.2569 43.4002 26.5296V32.3886C43.4002 32.8212 42.8776 33.0469 42.5696 32.7365L42.1776 32.3416C41.9816 32.1441 41.6829 32.1441 41.4869 32.3416L31.0616 42.8369C30.8749 43.0249 30.5669 43.0249 30.3709 42.8369L17.6216 29.9811C17.4349 29.793 17.4256 29.4826 17.6216 29.2851L35.2709 11.5014C35.4576 11.3133 35.4576 10.9936 35.2709 10.8055L31.1176 6.62056C30.9309 6.43247 30.6229 6.43247 30.4269 6.62056L7.58824 29.6519C7.40158 29.84 7.40158 30.1597 7.58824 30.3478L30.4362 53.3698C30.6229 53.5579 30.9402 53.5579 31.1269 53.3698L53.9749 30.3478C54.1616 30.1597 54.1616 29.8494 53.9749 29.6519L40.5349 16.1096C40.3482 15.9215 40.0402 15.9215 39.8442 16.1096L26.4229 29.6331C26.2362 29.8212 25.9282 29.8212 25.7322 29.6331ZM131.199 35.4544C130.611 35.4544 130.098 35.6707 129.678 36.0939C129.258 36.5265 129.043 37.0249 129.043 37.608C129.043 38.5014 129.491 39.1974 130.387 39.6864C131.367 39.9591 132.151 39.7804 132.739 39.1691C133.168 38.7365 133.374 38.2193 133.374 37.6174C133.374 37.0061 133.159 36.4983 132.739 36.0845C132.31 35.6707 131.806 35.4544 131.199 35.4544ZM96.4789 18.9027H94.8643C94.1643 18.9027 93.6043 19.467 93.6043 20.1723V21.0751C91.8869 19.2789 89.9549 18.3854 87.7803 18.3854C85.2789 18.3854 83.1882 19.3259 81.5269 21.1974C79.8562 23.0688 79.0256 25.4105 79.0256 28.213C79.0256 31.072 79.8563 33.4513 81.5176 35.3698C83.1976 37.2412 85.3256 38.1817 87.8923 38.1817C89.9269 38.1817 91.8309 37.3447 93.5949 35.6801V37.467C93.5949 38.3322 94.2949 39.0469 95.1536 39.0469H97.9069V20.3604C97.9163 19.561 97.2722 18.9027 96.4789 18.9027ZM92.4096 32.6519C91.4296 33.7522 90.1416 34.3071 88.5549 34.3071C87.0616 34.3071 85.8296 33.7334 84.8496 32.5955C83.8976 31.467 83.4123 29.9999 83.4123 28.213C83.4123 26.5391 83.9069 25.119 84.8869 23.9811C85.8763 22.8525 87.1176 22.2883 88.5923 22.2883C90.1602 22.2883 91.4296 22.8431 92.4096 23.9622C93.3896 25.1002 93.8843 26.5485 93.8843 28.3071C93.8749 30.0657 93.3802 31.514 92.4096 32.6519ZM79.0256 22.0626V20.2099C79.0256 19.4858 78.4469 18.9027 77.7282 18.9027H76.0296C75.3109 18.9027 74.7322 19.4858 74.7322 20.2099V21.0187C73.1829 19.2601 71.2322 18.376 68.8896 18.376C66.2202 18.376 64.0642 19.3917 62.4402 21.4137C60.9282 23.3228 60.1722 25.6456 60.1722 28.3729C60.1722 31.1848 60.9842 33.5265 62.6176 35.3886C64.2323 37.2412 66.3042 38.1535 68.8429 38.1535C71.0642 38.1535 73.0336 37.2789 74.7416 35.5202V38.1347C74.7416 42.0187 73.1736 43.9654 70.0282 43.9654C68.3202 43.9654 67.0229 43.3823 66.1362 42.2162C65.9122 41.9246 65.7162 41.5485 65.5669 41.1065C65.3522 40.4858 64.7736 40.0814 64.1296 40.0814H62.5056C61.6842 40.0814 61.0776 40.8713 61.2829 41.6707C61.7309 43.3729 62.5896 44.7554 63.8682 45.8275C65.4736 47.1723 67.5176 47.8494 69.9909 47.8494C72.9309 47.8494 75.2362 46.8713 76.9162 44.9246C77.8029 43.909 78.4002 42.6958 78.7083 41.2851C78.8109 40.7773 78.8949 40.1754 78.9509 39.5077C79.0069 38.84 79.0349 38.0594 79.0349 37.1754V34.4575C77.8309 32.7083 77.2243 30.63 77.2243 28.1942C77.2149 25.8243 77.8216 23.7836 79.0256 22.0626ZM73.5843 32.5014C72.6322 33.7052 71.3349 34.3071 69.6922 34.3071C68.0496 34.3071 66.7616 33.7146 65.8376 32.5202C64.9883 31.4293 64.5589 30.0375 64.5589 28.3259C64.5589 26.5955 64.9883 25.1848 65.8376 24.0939C66.7803 22.8807 68.0682 22.2695 69.6922 22.2695C71.2229 22.2695 72.4736 22.8243 73.4536 23.9434C74.4242 25.0344 74.9096 26.492 74.9096 28.3071C74.9002 30.0093 74.4616 31.4105 73.5843 32.5014ZM114.726 18.9215V18.9027H105.822V13.4105C105.822 12.7052 105.252 12.1315 104.552 12.1315H102.816C102.107 12.1315 101.528 12.7146 101.528 13.4293V18.9027H99.6989V22.9372H101.528V39.0281H103.974C104.991 39.0281 105.812 38.2005 105.822 37.1754V37.166V22.9466H110.227C110.572 22.2789 111.002 21.6582 111.496 21.0939C112.402 20.0876 113.484 19.3635 114.726 18.9215ZM136.64 12.1315C135.875 12.1315 135.222 12.4043 134.68 12.9591C134.139 13.514 133.859 14.1629 133.859 14.9246C133.859 15.724 134.13 16.3917 134.68 16.9466C135.231 17.5014 135.894 17.7742 136.668 17.7742C137.443 17.7742 138.096 17.5014 138.628 16.9466C139.179 16.3917 139.45 15.7334 139.45 14.9434C139.45 14.1629 139.179 13.5046 138.628 12.9685C138.078 12.4043 137.415 12.1315 136.64 12.1315ZM137.508 21.0281H135.95C135.147 21.0281 134.503 21.677 134.503 22.4858V36.2256C134.83 36.6112 134.988 37.072 134.988 37.5986C134.988 38.1253 134.83 38.5955 134.503 38.9811V39.7522H137.266C138.115 39.7522 138.796 39.0563 138.796 38.2099V22.3165C138.796 21.6017 138.218 21.0281 137.508 21.0281ZM157.696 23.6801C155.764 21.771 153.403 20.8118 150.631 20.8118C147.868 20.8118 145.526 21.7616 143.603 23.6613C141.68 25.561 140.719 27.8557 140.719 30.5641C140.719 33.4325 141.662 35.8212 143.547 37.7209C145.432 39.6394 147.766 40.608 150.547 40.608C153.356 40.608 155.736 39.6676 157.668 37.7773C159.582 35.8776 160.552 33.5265 160.552 30.7146C160.552 27.9309 159.6 25.5892 157.696 23.6801ZM154.654 35.1065C153.655 36.1974 152.311 36.7334 150.631 36.7334C148.96 36.7334 147.616 36.188 146.599 35.0782C145.61 33.9873 145.106 32.5014 145.106 30.6394C145.106 28.8996 145.619 27.4701 146.636 26.3698C147.654 25.2695 148.979 24.7146 150.622 24.7146C152.283 24.7146 153.627 25.2695 154.644 26.3698C155.652 27.4607 156.156 28.9184 156.156 30.7334C156.166 32.5579 155.662 34.0061 154.654 35.1065Z" fill="#DE5959"/>
<path d="M116.321 34.3447C115.434 33.4419 114.94 32.2099 114.828 30.677H127.138C127.698 30.677 128.165 30.2256 128.174 29.6614C128.174 26.5673 127.381 24.1504 125.813 22.4106C124.217 20.652 122.052 19.7773 119.317 19.7773C116.61 19.7773 114.436 20.6802 112.793 22.4858C111.16 24.3197 110.348 26.7178 110.348 29.6802C110.348 32.6708 111.188 35.0689 112.868 36.8745C114.044 38.1347 115.481 38.9435 117.18 39.3197C117.898 39.4889 118.636 39.5736 119.382 39.5642C122.444 39.63 125.104 39.6958 128.156 39.7523V39.3009C127.782 38.8871 127.596 38.398 127.596 37.8244C127.596 37.2601 127.792 36.7805 128.174 36.3667V35.8212C125.757 35.7648 119.914 35.699 119.681 35.699C118.328 35.699 117.198 35.2476 116.321 34.3447ZM115.724 25.6927C115.994 25.2695 116.312 24.9121 116.685 24.6112C117.058 24.3103 117.478 24.0752 117.936 23.9153C118.393 23.7554 118.888 23.6708 119.41 23.6708C121.697 23.6708 123.144 24.8275 123.741 27.1316H115.108C115.257 26.5955 115.462 26.1159 115.724 25.6927Z" fill="#DE5959"/>
</svg>
