<svg width="18" height="18" viewBox="0 0 18 18" fill="none" xmlns="http://www.w3.org/2000/svg">
<path d="M1.5 4C1.49999 4.92048 2.24618 5.66667 3.16666 5.66667H3.16666H14.8333C15.7538 5.66667 16.5 6.41286 16.5 7.33334V14C16.5 14.9205 15.7538 15.6667 14.8333 15.6667H3.16666C2.24619 15.6667 1.5 14.9205 1.5 14V4Z" fill="#7BAEFF"/>
<path d="M3.16667 5.66684H13.1667V3.8335C13.1667 3.00508 12.4951 2.3335 11.6667 2.3335H3C2.17159 2.3335 1.5 3.00508 1.5 3.8335V4.00017C1.5 4.92064 2.2462 5.66684 3.16667 5.66684Z" fill="#C0D8FF"/>
<path d="M16.5002 12.75H14.339C13.2435 12.7699 12.2847 12.0173 12.0438 10.9484C11.7981 9.72826 12.5881 8.53998 13.8083 8.29433C13.9538 8.26504 14.1018 8.2502 14.2502 8.25H16.5002V12.75Z" fill="url(#paint0_radial)"/>
<defs>
<radialGradient id="paint0_radial" cx="0" cy="0" r="1" gradientUnits="userSpaceOnUse" gradientTransform="translate(14.2496 10.5002) rotate(89.6287) scale(1.81519 1.80373)">
<stop stop-color="#1161F4"/>
<stop offset="1" stop-color="#277DFE"/>
</radialGradient>
</defs>
</svg>
