<svg width="18" height="18" viewBox="0 0 18 18" fill="none" xmlns="http://www.w3.org/2000/svg">
<path d="M16.5 6.75H1.5V8.25H16.5V6.75Z" fill="#2DCA8C"/>
<path opacity="0.2" d="M14.25 3.75H3.75C2.50886 3.75361 1.50361 4.75886 1.5 6V6.75H16.5V6C16.4964 4.75886 15.4911 3.75361 14.25 3.75Z" fill="#2DCA8C"/>
<path opacity="0.2" d="M1.5 12.75C1.50366 13.9911 2.50886 14.9963 3.75 15H14.25C15.4911 14.9963 16.4963 13.9911 16.5 12.75V8.25H1.5V12.75Z" fill="#2DCA8C"/>
<path d="M7.5 11.25H5.25C4.83579 11.25 4.5 10.9142 4.5 10.5C4.5 10.0858 4.83579 9.75 5.25 9.75H7.5C7.91422 9.75 8.25 10.0858 8.25 10.5C8.25 10.9142 7.91422 11.25 7.5 11.25Z" fill="#2DCA8C"/>
</svg>
