<svg width="18" height="18" viewBox="0 0 18 18" fill="none" xmlns="http://www.w3.org/2000/svg">
<path d="M3 8.62523V11.6252C3 12.2477 3.5025 12.7502 4.125 12.7502C4.7475 12.7502 5.25 12.2477 5.25 11.6252V8.62523C5.25 8.00273 4.7475 7.50023 4.125 7.50023C3.5025 7.50023 3 8.00273 3 8.62523ZM7.5 8.62523V11.6252C7.5 12.2477 8.0025 12.7502 8.625 12.7502C9.2475 12.7502 9.75 12.2477 9.75 11.6252V8.62523C9.75 8.00273 9.2475 7.50023 8.625 7.50023C8.0025 7.50023 7.5 8.00273 7.5 8.62523ZM2.625 16.5002H14.625C15.2475 16.5002 15.75 15.9977 15.75 15.3752C15.75 14.7527 15.2475 14.2502 14.625 14.2502H2.625C2.0025 14.2502 1.5 14.7527 1.5 15.3752C1.5 15.9977 2.0025 16.5002 2.625 16.5002ZM12 8.62523V11.6252C12 12.2477 12.5025 12.7502 13.125 12.7502C13.7475 12.7502 14.25 12.2477 14.25 11.6252V8.62523C14.25 8.00273 13.7475 7.50023 13.125 7.50023C12.5025 7.50023 12 8.00273 12 8.62523ZM7.9275 1.11773L2.0025 4.23773C1.695 4.39523 1.5 4.71773 1.5 5.06273C1.5 5.58023 1.92 6.00023 2.4375 6.00023H14.82C15.33 6.00023 15.75 5.58023 15.75 5.06273C15.75 4.71773 15.555 4.39523 15.2475 4.23773L9.3225 1.11773C8.8875 0.885234 8.3625 0.885234 7.9275 1.11773Z" fill="#2277FC"/>
</svg>
