<svg width="18" height="18" viewBox="0 0 18 18" fill="none" xmlns="http://www.w3.org/2000/svg">
<g clip-path="url(#clip0)">
<path opacity="0.2" d="M3 12L15 12C16.2421 11.9986 17.2486 10.9921 17.25 9.75L17.25 3.75C17.2486 2.5079 16.2421 1.50137 15 1.5L3 1.5C1.7579 1.50137 0.751372 2.5079 0.749999 3.75L0.75 9.75C0.751373 10.9921 1.7579 11.9986 3 12ZM9 4.5C10.2426 4.5 11.25 5.50736 11.25 6.75C11.25 7.99265 10.2426 9 9 9C7.75735 9 6.75 7.99265 6.75 6.75C6.75137 5.5079 7.7579 4.50137 9 4.5Z" fill="#2DCA8C"/>
<path d="M9 10.5C9.4141 10.4999 9.74989 10.8355 9.75 11.2496C9.75 11.2497 9.75 11.2499 9.75 11.25L9.75 15.75C9.75 16.1642 9.41422 16.5 9 16.5C8.58578 16.5 8.25 16.1642 8.25 15.75L8.25 11.25C8.24989 10.8359 8.5855 10.5001 8.99961 10.5C8.99974 10.5 8.99987 10.5 9 10.5Z" fill="#2DCA8C"/>
<path d="M7.31252 13.3125C7.51147 13.3123 7.7023 13.3914 7.84277 13.5323L9.00002 14.6895L10.1573 13.5323C10.4528 13.2421 10.9276 13.2464 11.2178 13.5419C11.5042 13.8336 11.5042 14.3011 11.2178 14.5928L9.53027 16.2803C9.23757 16.5731 8.76288 16.5733 8.47001 16.2806C8.46991 16.2805 8.46982 16.2804 8.46973 16.2803L6.78223 14.5928C6.48938 14.2998 6.48945 13.825 6.78238 13.5321C6.923 13.3915 7.11369 13.3126 7.31252 13.3125Z" fill="#2DCA8C"/>
<path d="M9 4.5C10.2426 4.5 11.25 5.50736 11.25 6.75C11.25 7.99264 10.2426 9 9 9C7.75736 9 6.75 7.99264 6.75 6.75C6.75136 5.50792 7.75792 4.50136 9 4.5Z" fill="#EAFAF3"/>
<path d="M13.5 6C13.0858 6 12.75 6.33579 12.75 6.75C12.75 7.16421 13.0858 7.5 13.5 7.5C13.9142 7.5 14.25 7.16421 14.25 6.75C14.25 6.33579 13.9142 6 13.5 6Z" fill="#2ECA8C"/>
<path d="M4.5 6C4.08579 6 3.75 6.33579 3.75 6.75C3.75 7.16421 4.08579 7.5 4.5 7.5C4.91421 7.5 5.25 7.16421 5.25 6.75C5.25 6.33579 4.91421 6 4.5 6Z" fill="#2ECA8C"/>
</g>
<defs>
<clipPath id="clip0">
<rect width="18" height="18" fill="white" transform="translate(18 18) rotate(180)"/>
</clipPath>
</defs>
</svg>
