<svg width="18" height="18" viewBox="0 0 18 18" fill="none" xmlns="http://www.w3.org/2000/svg">
<path d="M9 16.4999C8.84371 16.4998 8.69135 16.4509 8.56425 16.36L5.82645 14.4044C4.95296 13.7792 4.24098 12.9549 3.74946 11.9998C3.25794 11.0446 3.00103 9.98614 3 8.91196V3.31921C3.00006 3.20763 3.025 3.09746 3.07302 2.99673C3.12104 2.89601 3.19092 2.80726 3.27757 2.73695C3.36423 2.66665 3.46547 2.61656 3.57393 2.59033C3.68239 2.5641 3.79533 2.56239 3.90454 2.58533C4.70603 2.75369 5.53351 2.75619 6.33601 2.5927C7.13851 2.4292 7.89905 2.10316 8.5708 1.63465C8.69664 1.54669 8.84647 1.49951 9 1.49951C9.15353 1.49951 9.30336 1.54669 9.4292 1.63465C10.1009 2.10329 10.8614 2.42941 11.664 2.59291C12.4665 2.75641 13.294 2.75382 14.0955 2.58531C14.2047 2.56238 14.3176 2.56409 14.4261 2.59032C14.5346 2.61655 14.6358 2.66664 14.7224 2.73695C14.8091 2.80725 14.879 2.896 14.927 2.99672C14.975 3.09744 14.9999 3.20761 15 3.31919V8.91194C14.999 9.98612 14.7421 11.0446 14.2506 11.9997C13.759 12.9549 13.0471 13.7792 12.1736 14.4044L9.43579 16.3599C9.30868 16.4509 9.1563 16.4998 9 16.4999Z" fill="#7BAEFF"/>
<path d="M8.13769 11.0249C8.03921 11.0249 7.94168 11.0055 7.8507 10.9678C7.75971 10.9301 7.67705 10.8748 7.60744 10.8052L6.40774 9.60475C6.26856 9.46381 6.19079 9.27354 6.19141 9.07547C6.19203 8.8774 6.27098 8.68761 6.41104 8.54755C6.5511 8.40749 6.74088 8.32853 6.93895 8.3279C7.13702 8.32727 7.3273 8.40503 7.46824 8.5442L8.13767 9.21437L10.1577 7.19434C10.2272 7.12406 10.3099 7.0682 10.4011 7.02999C10.4922 6.99178 10.5901 6.97196 10.6889 6.97168C10.7877 6.9714 10.8857 6.99067 10.977 7.02836C11.0684 7.06606 11.1514 7.12145 11.2213 7.19134C11.2912 7.26123 11.3466 7.34425 11.3843 7.43562C11.422 7.52699 11.4412 7.62491 11.4409 7.72375C11.4406 7.82259 11.4208 7.9204 11.3826 8.01156C11.3444 8.10271 11.2885 8.18541 11.2182 8.2549L8.66794 10.8052C8.59833 10.8749 8.51567 10.9301 8.42469 10.9678C8.3337 11.0055 8.23618 11.0249 8.13769 11.0249Z" fill="#1768F7"/>
</svg>
