<svg width="24" height="25" viewBox="0 0 24 25" fill="none" xmlns="http://www.w3.org/2000/svg">
<path d="M12.0001 7.06836C10.9845 7.06836 9.99176 7.36952 9.14733 7.93374C8.30291 8.49797 7.64475 9.29993 7.25611 10.2382C6.86746 11.1765 6.76577 12.2089 6.9639 13.205C7.16203 14.2011 7.65108 15.116 8.36921 15.8342C9.08734 16.5523 10.0023 17.0413 10.9984 17.2395C11.9944 17.4376 13.0269 17.3359 13.9652 16.9473C14.9034 16.5586 15.7054 15.9005 16.2696 15.056C16.8339 14.2116 17.135 13.2188 17.135 12.2032C17.135 11.5289 17.0022 10.8612 16.7442 10.2382C16.4861 9.6152 16.1079 9.04913 15.6311 8.5723C15.1543 8.09548 14.5882 7.71725 13.9652 7.4592C13.3422 7.20116 12.6745 7.06835 12.0001 7.06836ZM12.0001 15.5368C11.3408 15.5368 10.6963 15.3413 10.1481 14.975C9.59987 14.6087 9.1726 14.0881 8.92029 13.4789C8.66798 12.8698 8.60196 12.1995 8.73059 11.5528C8.85923 10.9062 9.17672 10.3122 9.64294 9.84599C10.1092 9.37978 10.7031 9.06229 11.3498 8.93367C11.9965 8.80505 12.6667 8.87107 13.2759 9.12338C13.885 9.3757 14.4056 9.80298 14.7719 10.3512C15.1382 10.8994 15.3337 11.5439 15.3337 12.2032C15.3338 12.641 15.2476 13.0745 15.0801 13.479C14.9126 13.8835 14.667 14.251 14.3575 14.5606C14.0479 14.8701 13.6804 15.1157 13.2759 15.2832C12.8714 15.4507 12.4379 15.5369 12.0001 15.5368Z" fill="#AAB0B7"/>
<path d="M21.9395 8.08032C21.9231 7.25078 21.766 6.43004 21.475 5.65306C21.2235 4.98594 20.8299 4.38149 20.3215 3.88159C19.8224 3.37274 19.2181 2.97907 18.5509 2.72813C17.774 2.43691 16.9532 2.27985 16.1236 2.26366C15.0574 2.21512 14.7165 2.20312 12.0008 2.20312C9.28515 2.20312 8.94402 2.21438 7.87718 2.26366C7.04765 2.28006 6.22691 2.43711 5.44993 2.72813C4.78263 2.9793 4.17811 3.37293 3.67847 3.88159C3.16933 4.38083 2.77565 4.98547 2.52507 5.65306C2.23406 6.43004 2.07701 7.25078 2.06061 8.08032C2.01132 9.14653 2 9.48744 2 12.2031C2 14.9188 2.01132 15.2597 2.06059 16.3259C2.07699 17.1554 2.23405 17.9762 2.52507 18.7532C2.77573 19.4207 3.1694 20.0254 3.67847 20.5247C4.17835 21.033 4.7828 21.4266 5.44993 21.6781C6.22694 21.969 7.04766 22.126 7.87718 22.1425C8.94402 22.191 9.28432 22.2031 12 22.2031C14.7157 22.2031 15.0566 22.1918 16.1228 22.1425C16.9523 22.1261 17.7731 21.9691 18.5501 21.6781C19.2145 21.4212 19.8179 21.0283 20.3215 20.5246C20.8252 20.021 21.2181 19.4176 21.475 18.7532C21.7663 17.9763 21.9234 17.1555 21.9395 16.3259C21.988 15.2589 21.9992 14.9188 21.9992 12.2031C21.9992 9.48744 21.988 9.14653 21.9395 8.08032ZM20.1405 16.2444C20.1328 16.8785 20.0164 17.5066 19.7965 18.1015C19.63 18.5327 19.3751 18.9243 19.0482 19.2511C18.7213 19.5779 18.3295 19.8326 17.8982 19.9989C17.3035 20.2193 16.6753 20.3357 16.0411 20.3429C14.987 20.3913 14.6705 20.401 11.9999 20.401C9.32943 20.401 9.01371 20.3913 7.95994 20.3429C7.32576 20.3356 6.69756 20.2192 6.10286 19.9989C5.66851 19.8383 5.27552 19.5828 4.95262 19.2509C4.62021 18.9287 4.36456 18.5359 4.20462 18.1015C3.98414 17.5068 3.86778 16.8786 3.86062 16.2444C3.81212 15.1903 3.80247 14.8737 3.80247 12.2032C3.80247 9.53268 3.81296 9.21696 3.86062 8.16199C3.86861 7.52791 3.98495 6.89986 4.20462 6.305C4.36513 5.87064 4.6207 5.47765 4.95262 5.15476C5.27495 4.82215 5.66811 4.56648 6.10286 4.40675C6.69754 4.18631 7.32575 4.06994 7.95994 4.06276C9.01401 4.01427 9.33062 4.00461 11.9999 4.00461C14.6693 4.00461 14.9862 4.0151 16.0411 4.06276C16.6752 4.07074 17.3033 4.18709 17.8982 4.40675C18.3297 4.57301 18.7215 4.82782 19.0484 5.15477C19.3754 5.48172 19.6302 5.87355 19.7965 6.30501C20.0169 6.89966 20.1333 7.52784 20.1405 8.162C20.189 9.217 20.1986 9.53275 20.1986 12.2032C20.1986 14.8737 20.189 15.1894 20.1405 16.2444H20.1405Z" fill="#AAB0B7"/>
<path d="M17.3387 5.66504H17.3382C17.0201 5.6651 16.7149 5.79154 16.49 6.01657C16.265 6.24159 16.1386 6.54675 16.1387 6.86494C16.1387 7.18312 16.2651 7.48827 16.4901 7.71325C16.7151 7.93823 17.0203 8.06462 17.3385 8.06462C17.6566 8.06462 17.9618 7.93823 18.1868 7.71325C18.4118 7.48827 18.5382 7.18312 18.5383 6.86494C18.5383 6.54675 18.4119 6.24159 18.187 6.01657C17.962 5.79154 17.6569 5.6651 17.3387 5.66504Z" fill="#AAB0B7"/>
</svg>
