<svg width="192" height="52" viewBox="0 0 192 52" fill="none" xmlns="http://www.w3.org/2000/svg">
<path d="M57.9443 39.5132V2.44505H60.5085V37.0681H78.0667V39.5132H57.9443ZM90.7471 40.0263C86.7707 40.0263 83.6957 38.7384 81.392 36.2933C79.2185 33.8483 78.0567 30.3769 78.0567 25.8692C78.0567 21.4923 79.0783 17.8901 81.2618 15.3142C83.4353 12.6076 86.2599 11.3197 89.9758 11.3197C93.181 11.3197 95.7451 12.4768 97.6682 14.6703C99.5913 16.9845 100.483 20.0735 100.483 23.9373V26H80.6208C80.6208 29.733 81.5222 32.6912 83.3151 34.6231C84.9778 36.6858 87.5419 37.5813 90.7471 37.5813C92.2795 37.5813 93.6918 37.4505 94.8437 37.1989C95.9955 36.9373 97.538 36.555 99.3309 35.7802V38.2252C97.7984 38.8692 96.3861 39.3824 95.1041 39.644C93.6718 39.9056 92.2094 40.0364 90.7471 40.0263ZM89.9758 13.644C87.2815 13.644 85.2382 14.5495 83.5655 16.2198C82.0331 18.0209 81.0014 20.4659 80.751 23.8166H97.6682C97.6682 20.5967 97.0272 18.1517 95.6149 16.3506C94.3328 14.5395 92.4098 13.644 89.9758 13.644ZM113.814 11.4505C115.737 11.4505 117.53 11.8328 118.942 12.4768C120.355 13.2515 121.637 14.4087 122.789 16.2098H122.919C122.789 14.0263 122.789 11.9636 122.789 9.90093V0H125.223V39.5132H123.56L122.919 35.267C120.866 38.356 117.791 40.0263 113.944 40.0263C110.098 40.0263 107.284 38.8692 105.23 36.4241C103.177 34.1099 102.286 30.6285 102.286 26.1308C102.286 21.3715 103.307 17.7593 105.23 15.1935C107.153 12.6176 110.098 11.4505 113.814 11.4505ZM113.814 13.644C110.869 13.644 108.566 14.6703 107.023 16.8638C105.491 18.9265 104.72 22.0155 104.72 26.1308C104.72 33.9791 107.794 37.8429 113.814 37.8429C116.889 37.8429 119.193 36.9373 120.605 35.1362C122.017 33.3351 122.779 30.3769 122.779 26.1207V25.7384C122.779 21.4923 122.007 18.4032 120.605 16.6022C119.323 14.5395 117.019 13.644 113.814 13.644ZM151.865 11.9737V13.7748L146.226 14.1571C147.759 16.089 148.53 18.1517 148.53 20.3351C148.53 23.0418 147.629 25.0944 145.836 26.7748C144.043 28.445 141.739 29.2198 138.784 29.2198C137.502 29.2198 136.611 29.2198 136.22 29.089C135.199 29.6022 134.427 30.2461 133.916 30.8901C133.406 31.6649 133.145 32.3088 133.145 33.2043C133.145 34.0998 133.526 34.7438 134.167 35.1362C134.808 35.5186 135.96 35.7802 137.502 35.7802H142.24C145.185 35.7802 147.488 36.4241 149.031 37.5813C150.573 38.7384 151.465 40.5395 151.465 42.9845C151.465 45.9427 150.313 48.1362 148.009 49.6757C145.705 51.2152 142.37 51.9899 138.013 51.9899C134.558 51.9899 131.863 51.346 129.94 49.9272C128.017 48.6393 127.126 46.7074 127.126 44.3932C127.126 42.4613 127.767 40.9218 128.918 39.6339C130.07 38.346 131.733 37.5712 133.656 37.058C132.885 36.6757 132.124 36.1525 131.733 35.5186C131.232 34.8947 130.962 34.13 130.962 33.3351C130.962 31.5341 132.114 29.8638 134.417 28.445C132.885 27.8011 131.603 26.7748 130.701 25.356C129.8 23.9373 129.419 22.267 129.419 20.4659C129.419 17.7593 130.321 15.445 131.983 13.7748C133.776 12.1045 136.08 11.3297 139.035 11.3297C140.828 11.3297 142.24 11.4605 143.262 11.8429H151.845V11.9737H151.865ZM129.57 44.1517C129.57 47.8847 132.384 49.8166 138.023 49.8166C145.195 49.8166 148.79 47.5023 148.79 42.8638C148.79 41.1935 148.28 40.0364 147.128 39.2616C145.976 38.4868 144.183 38.1045 141.619 38.1045H137.132C132.134 38.2252 129.57 40.1571 129.57 44.1517ZM131.753 20.4659C131.753 22.6494 132.394 24.1989 133.676 25.4868C134.958 26.644 136.621 27.2879 138.804 27.2879C141.108 27.2879 142.901 26.644 144.053 25.4868C145.335 24.3297 145.846 22.6594 145.846 20.4659C145.846 18.1517 145.205 16.3506 143.923 15.1935C142.641 14.0364 140.978 13.3924 138.674 13.3924C136.501 13.3924 134.698 14.0364 133.546 15.3243C132.264 16.4714 131.753 18.2724 131.753 20.4659Z" fill="#333745"/>
<path d="M164.295 40.0265C160.319 40.0265 157.244 38.7386 154.94 36.2935C152.767 33.8485 151.605 30.3771 151.605 25.8694C151.605 21.4924 152.627 17.8903 154.81 15.3144C156.984 12.6077 159.808 11.3198 163.524 11.3198C166.729 11.3198 169.293 12.4769 171.216 14.6704C173.139 16.9847 174.031 20.0737 174.031 23.9375V26.0002H154.299C154.299 29.7331 155.201 32.6913 156.994 34.6232C158.656 36.6859 161.22 37.5814 164.425 37.5814C165.958 37.5814 167.37 37.4506 168.522 37.1991C169.674 36.9375 171.216 36.5551 173.009 35.7803V38.2254C171.477 38.8694 170.065 39.3825 168.782 39.6441C167.37 39.9057 165.958 40.0265 164.295 40.0265ZM163.654 13.6441C160.96 13.6441 158.917 14.5497 157.244 16.22C155.711 18.0211 154.68 20.4661 154.429 23.8167H171.347C171.347 20.5969 170.706 18.1519 169.293 16.3508C168.011 14.5396 166.088 13.6441 163.654 13.6441ZM188.254 11.4506C189.406 11.4506 190.688 11.5814 191.97 11.833L191.459 14.278C190.277 14.0164 189.075 13.8856 187.873 13.8957C185.569 13.8957 183.646 14.922 182.104 16.8539C180.571 18.9166 179.8 21.3616 179.8 24.4506V39.5133H177.236V11.9738H179.41L179.67 16.9947H179.8C180.952 14.932 182.104 13.5234 183.386 12.7486C184.928 11.843 186.461 11.4506 188.254 11.4506ZM33.475 1.28809H15.1455V26.0002H39.7451V7.71765C39.7551 4.24629 36.9306 1.28809 33.475 1.28809ZM9.51649 1.28809H6.44155C2.986 1.28809 0.03125 4.11548 0.03125 7.72771V10.8167H9.51649V1.28809ZM0.03125 16.6023H9.51649V26.131H0.03125V16.6023ZM30.2699 41.3144H33.3448C36.8004 41.3144 39.7551 38.487 39.7551 34.8748V31.7958H30.2699V41.3144ZM15.1455 31.7958H24.6308V41.3245H15.1455V31.7958ZM0.03125 31.7958V34.8848C0.03125 38.3562 2.84577 41.3245 6.44155 41.3245H9.51649V31.7958H0.03125Z" fill="#333745"/>
</svg>
