<svg width="100" height="100" viewBox="0 0 100 100" fill="none" xmlns="http://www.w3.org/2000/svg">
<g clip-path="url(#clip0)">
<path d="M49.9989 -1.20234e-05C63.3535 -1.08498e-05 75.9102 5.20104 85.3535 14.6443C94.799 24.0875 100 36.6442 100 49.9989C100 63.3535 94.799 75.9125 85.3557 85.3557C75.9125 94.799 63.3557 100 49.9989 100C36.642 100 24.0875 94.7989 14.6443 85.3557C5.20101 75.9125 -2.73306e-05 63.3557 -2.61692e-05 50.0011C-2.50077e-05 36.6465 5.20102 24.0897 14.6443 14.6465C24.0875 5.20104 36.6442 -1.3197e-05 49.9989 -1.20234e-05ZM49.9989 96.6027C62.4461 96.6027 74.1512 91.7548 82.953 82.953C91.7548 74.1512 96.6027 62.4483 96.6027 49.9989C96.6027 37.5494 91.7548 25.8465 82.953 17.0448C74.1512 8.24299 62.4483 3.39508 49.9989 3.39508C37.5494 3.39508 25.8465 8.24299 17.0448 17.0448C8.24297 25.8465 3.39507 37.5494 3.39507 49.9989C3.39507 62.4483 8.24297 74.149 17.0447 82.953C25.8487 91.7548 37.5517 96.6027 49.9989 96.6027Z" fill="url(#paint0_linear)"/>
<ellipse cx="50" cy="49.999" rx="46.5517" ry="46.5517" fill="#171717"/>
<path d="M83.9058 44.9391L68.3735 24.7622C67.2174 23.2583 65.4282 22.3965 63.4664 22.3965C61.5046 22.3965 59.7167 23.2583 58.5592 24.7622L56.8711 26.9567L55.1817 24.7622C54.0243 23.2583 52.2363 22.3965 50.2745 22.3965C48.3127 22.3965 46.5248 23.2583 45.3674 24.7622L43.6984 26.93L42.0294 24.761C40.872 23.2583 39.0828 22.3965 37.121 22.3965C35.1592 22.3965 33.3713 23.2583 32.2138 24.7622L16.6828 44.9391C14.4729 47.8109 14.4729 51.6683 16.6828 54.5402L32.2138 74.7183C33.3713 76.221 35.1592 77.084 37.121 77.084C39.0828 77.084 40.8707 76.2222 42.0281 74.7183L50.2937 63.9799L51.9998 66.1962H51.9985C52.0049 66.2035 52.0113 66.2108 52.0177 66.2193L58.5592 74.7183C59.7167 76.221 61.5046 77.084 63.4664 77.084C65.4282 77.084 67.2161 76.2222 68.3735 74.7183L83.9045 54.5414C86.1158 51.6696 86.1158 47.8109 83.9058 44.9391ZM47.8459 26.4797C48.4188 25.7356 49.3038 25.3096 50.2745 25.3096C51.2452 25.3096 52.1302 25.7368 52.7031 26.4797L54.9706 29.4256L50.295 35.5006L45.5988 29.4001L47.8459 26.4797ZM39.5496 72.9996C38.9767 73.7436 38.0917 74.1697 37.121 74.1697C36.1503 74.1697 35.2653 73.7424 34.6924 72.9996L19.1614 52.8214C17.7418 50.9777 17.7418 48.5003 19.1614 46.6566L34.6924 26.4797C35.2653 25.7356 36.1503 25.3096 37.121 25.3096C38.0917 25.3096 38.9767 25.7368 39.5496 26.4797L41.7967 29.3989L29.8351 44.9391C27.6251 47.8109 27.6251 51.6683 29.8402 54.5462L30.7508 55.7176L30.7521 55.7163L38.7695 66.1962C39.7901 67.5229 41.3043 68.3495 42.9937 68.5255L39.5496 72.9996ZM46.1091 64.4787L46.1066 64.4775C45.5336 65.2216 44.6486 65.6476 43.6779 65.6476C42.7072 65.6476 41.8222 65.2204 41.2519 64.4799L33.008 53.7039L33.0042 53.7063L32.3149 52.8202C30.8953 50.9765 30.8953 48.4991 32.3149 46.6554L43.6984 31.8689L48.3945 37.9695L43.0295 44.9391C40.8196 47.8109 40.8196 51.6683 43.0295 54.5402L48.3945 61.5098L46.1091 64.4787ZM50.2937 40.4383L55.0806 46.6578C56.5002 48.5016 56.5002 50.9789 55.0806 52.8227L50.2937 59.0421L45.5068 52.8227C44.0872 50.9789 44.0872 48.5016 45.5068 46.6578L50.2937 40.4383ZM57.5604 54.5402C59.7704 51.6683 59.7704 47.8109 57.5604 44.9391L52.1954 37.9695L56.8711 31.8944L68.2354 46.6578C69.655 48.5016 69.655 50.9789 68.229 52.8312L66.4091 55.232L59.3355 64.4775C58.7626 65.2216 57.8776 65.6476 56.9069 65.6476C55.9464 65.6476 55.0704 65.2301 54.4975 64.5006L52.1954 61.5098L57.5604 54.5402ZM81.4273 52.8227L65.895 72.9996C65.3221 73.7436 64.4371 74.1697 63.4664 74.1697C62.4957 74.1697 61.6107 73.7424 61.0378 72.9996L57.5937 68.5243C59.2818 68.3471 60.7935 67.5205 61.8153 66.1926L67.8927 58.2483L67.8991 58.2532L68.8953 56.9374L70.0591 55.4165L70.0515 55.4117L70.7114 54.5402C72.9213 51.6683 72.9213 47.8109 70.7114 44.9391L58.7715 29.4256L61.039 26.4797C61.612 25.7356 62.497 25.3096 63.4677 25.3096C64.4384 25.3096 65.3234 25.7368 65.8963 26.4797L81.4273 46.6578C82.8456 48.5016 82.8456 50.9789 81.4273 52.8227Z" fill="url(#paint1_linear)"/>
<path opacity="0.6" d="M43.6779 68.562C43.4426 68.562 43.2098 68.5486 42.9809 68.5243L39.6455 72.8867L42.1598 74.5715L48.2577 66.626C47.1066 67.8592 45.4415 68.562 43.6779 68.562Z" fill="url(#paint2_linear)"/>
<path opacity="0.6" d="M56.8918 68.5623C57.1271 68.5623 57.3599 68.5489 57.5888 68.5246L60.9242 72.887L58.4099 74.5718L52.3428 66.6348C53.4938 67.868 55.1282 68.5623 56.8918 68.5623Z" fill="url(#paint3_linear)"/>
<path opacity="0.6" d="M48.3707 61.4922L50.3108 64.0047L47.3617 67.759L45.4229 65.3193L48.3707 61.4922Z" fill="url(#paint4_linear)"/>
<path d="M41.797 29.3975L43.7051 31.887L36.8003 40.886L34.3857 39.0763L41.797 29.3975Z" fill="url(#paint5_linear)"/>
<path d="M48.3967 37.9639L50.2843 40.4521L45.8823 46.2274L43.4678 44.4176L48.3967 37.9639Z" fill="url(#paint6_linear)"/>
<path d="M54.971 29.4219L56.8701 31.898L52.2009 37.9621L50.2979 35.4896L54.971 29.4219Z" fill="url(#paint7_linear)"/>
</g>
<defs>
<linearGradient id="paint0_linear" x1="85.3553" y1="14.6446" x2="14.6445" y2="85.3554" gradientUnits="userSpaceOnUse">
<stop/>
<stop offset="1" stop-color="#515151"/>
</linearGradient>
<linearGradient id="paint1_linear" x1="28.0427" y1="70.8586" x2="70.2226" y2="26.4161" gradientUnits="userSpaceOnUse">
<stop stop-color="#FF8506"/>
<stop offset="0.5805" stop-color="#FD3947"/>
<stop offset="1" stop-color="#FB0078"/>
</linearGradient>
<linearGradient id="paint2_linear" x1="46.3263" y1="66.5653" x2="41.4835" y2="73.7865" gradientUnits="userSpaceOnUse">
<stop stop-color="#78005B"/>
<stop offset="0.3483" stop-color="#7A025A" stop-opacity="0.6517"/>
<stop offset="0.51" stop-color="#820955" stop-opacity="0.49"/>
<stop offset="0.6332" stop-color="#8E154E" stop-opacity="0.3668"/>
<stop offset="0.7369" stop-color="#A12643" stop-opacity="0.2631"/>
<stop offset="0.8283" stop-color="#B83C36" stop-opacity="0.1717"/>
<stop offset="0.9111" stop-color="#D65725" stop-opacity="0.0889"/>
<stop offset="0.9857" stop-color="#F87711" stop-opacity="0.0143"/>
<stop offset="1" stop-color="#FF7E0D" stop-opacity="0"/>
</linearGradient>
<linearGradient id="paint3_linear" x1="59.0275" y1="73.0285" x2="54.4726" y2="66.1258" gradientUnits="userSpaceOnUse">
<stop stop-color="#FF7E0D" stop-opacity="0"/>
<stop offset="0.00928743" stop-color="#F97811" stop-opacity="0.0127"/>
<stop offset="0.0651" stop-color="#D65825" stop-opacity="0.0888"/>
<stop offset="0.1269" stop-color="#B93D36" stop-opacity="0.1729"/>
<stop offset="0.1949" stop-color="#A12643" stop-opacity="0.2657"/>
<stop offset="0.272" stop-color="#8F154E" stop-opacity="0.3707"/>
<stop offset="0.3632" stop-color="#820955" stop-opacity="0.495"/>
<stop offset="0.4822" stop-color="#7A025A" stop-opacity="0.6573"/>
<stop offset="0.7336" stop-color="#78005B"/>
</linearGradient>
<linearGradient id="paint4_linear" x1="46.498" y1="66.5302" x2="50.1812" y2="60.9486" gradientUnits="userSpaceOnUse">
<stop stop-color="#FF7E0D" stop-opacity="0"/>
<stop offset="0.0133" stop-color="#F97910" stop-opacity="0.0192"/>
<stop offset="0.1144" stop-color="#D25427" stop-opacity="0.1659"/>
<stop offset="0.219" stop-color="#B1363A" stop-opacity="0.3175"/>
<stop offset="0.3263" stop-color="#981E48" stop-opacity="0.4731"/>
<stop offset="0.4375" stop-color="#860D53" stop-opacity="0.6344"/>
<stop offset="0.5551" stop-color="#7B0359" stop-opacity="0.8048"/>
<stop offset="0.6897" stop-color="#78005B"/>
</linearGradient>
<linearGradient id="paint5_linear" x1="34.7698" y1="39.4399" x2="43.1145" y2="30.6476" gradientUnits="userSpaceOnUse">
<stop stop-color="#FF4630" stop-opacity="0"/>
<stop offset="0.5722" stop-color="#B31F48" stop-opacity="0.5722"/>
<stop offset="1" stop-color="#78005B"/>
</linearGradient>
<linearGradient id="paint6_linear" x1="44.0808" y1="44.999" x2="49.6391" y2="39.1426" gradientUnits="userSpaceOnUse">
<stop stop-color="#FF4630" stop-opacity="0"/>
<stop offset="0.5722" stop-color="#B31F48" stop-opacity="0.5722"/>
<stop offset="1" stop-color="#78005B"/>
</linearGradient>
<linearGradient id="paint7_linear" x1="50.6443" y1="36.4844" x2="56.2209" y2="30.6086" gradientUnits="userSpaceOnUse">
<stop stop-color="#FF4630" stop-opacity="0"/>
<stop offset="0.5722" stop-color="#B31F48" stop-opacity="0.5722"/>
<stop offset="1" stop-color="#78005B"/>
</linearGradient>
<clipPath id="clip0">
<rect width="100" height="100" fill="white"/>
</clipPath>
</defs>
</svg>
