<svg width="327" height="41" viewBox="0 0 327 41" fill="none" xmlns="http://www.w3.org/2000/svg">
<g clip-path="url(#clip0_3629:454)">
<path d="M63.5856 28.0733L49.6108 3.75826C46.5471 -1.3096 39.076 -1.36351 36.1197 3.9739L21.4464 29.2593C18.7051 33.8959 22.0912 39.7184 27.5737 39.7184H56.9743C62.5106 39.7184 66.6493 33.734 63.5856 28.0733Z" fill="#00B897"/>
<path d="M43.4295 29.9596L42.5696 28.45C41.7633 27.0482 39.9896 24.029 39.9896 24.029L28.1648 3.43418C25.1011 -1.14846 17.8451 -1.52585 14.7814 4.24288L1.02163 28.1265C-1.82706 33.1404 1.55912 39.6639 7.74026 39.7179H36.9796H49.4494H56.8669C49.2882 39.7718 46.8696 35.836 43.4295 29.9596Z" fill="#76FCB2"/>
<path d="M43.4296 29.9595L42.5697 28.4501C41.7635 27.0483 39.9897 24.0291 39.9897 24.0291L32.3574 10.5508L21.3926 29.3127C18.6514 33.9492 22.0376 39.7718 27.5201 39.7718H36.926H49.3958H56.867C49.2347 39.7179 46.8696 35.8362 43.4296 29.9595Z" fill="url(#paint0_linear_3629:454)"/>
<path d="M322.743 37.8319C320.754 37.8319 319.195 37.4006 318.013 36.6458C316.775 35.8371 316.131 34.6509 316.131 33.0335V9.52734H319.249C320.378 9.52734 321.345 10.4439 321.345 11.63V32.3326C321.345 32.3867 321.345 33.357 322.151 34.1657C322.634 34.6509 323.226 34.9205 324.031 34.9205H324.623C324.839 34.9205 325.053 35.1362 325.053 35.3518V37.8858L322.743 37.8319Z" fill="#00B897"/>
<path d="M255.557 37.8295C252.332 37.8295 249.698 36.9669 247.709 35.2416C246.689 34.379 245.99 33.4085 245.56 32.3302C245.13 31.2521 244.914 29.6884 244.914 27.5859C244.914 25.5373 245.13 23.9197 245.56 22.8414C245.936 21.8172 246.635 20.9006 247.657 20.038C249.644 18.3128 252.277 17.4502 255.503 17.4502C258.728 17.4502 261.361 18.3128 263.351 20.038C264.372 20.9006 265.071 21.8711 265.447 22.8414C265.877 23.9736 266.091 25.5373 266.091 27.5859C266.091 29.6884 265.877 31.2521 265.447 32.3302C265.017 33.4085 264.318 34.379 263.296 35.2416C261.416 36.9669 258.782 37.8295 255.557 37.8295ZM255.557 20.4154C252.009 20.4154 250.236 22.8414 250.236 27.6398C250.236 32.4921 252.009 34.9181 255.557 34.9181C259.104 34.9181 260.879 32.4921 260.879 27.6937C260.879 22.8414 259.051 20.4154 255.557 20.4154Z" fill="#00B897"/>
<path d="M277.808 37.8319C275.013 37.8319 272.434 37.0771 270.231 35.6214C270.014 35.4057 269.584 35.1362 269.047 34.8127C268.94 34.7588 268.833 34.597 268.833 34.4353V9.52734H272.004C273.133 9.52734 274.1 10.4978 274.1 11.63V18.9083L275.067 18.3691C276.196 17.7761 277.701 17.5065 279.636 17.5065C283.023 17.5065 285.602 18.5309 287.322 20.5256C288.827 22.3048 289.58 24.6769 289.58 27.5883C289.58 30.4997 288.72 32.8719 286.999 34.597C285.01 36.7536 281.894 37.8319 277.808 37.8319ZM278.345 20.4178C277.164 20.4178 275.819 20.8491 274.314 21.7657L274.1 21.8735V33.5728L274.314 33.7344C275.498 34.4892 276.895 34.8666 278.345 34.8666C280.28 34.8666 281.787 34.0579 282.806 32.4406C283.667 31.1465 284.151 29.4753 284.151 27.5883C284.151 22.8439 282.162 20.4178 278.345 20.4178Z" fill="#00B897"/>
<path d="M301.996 37.7756C296.083 37.7756 292.375 33.8939 292.375 27.5859C292.375 21.3321 296.028 17.4502 301.887 17.4502C304.145 17.4502 306.08 18.0433 307.639 19.1754L307.962 19.3911V17.8276H312.1C312.369 17.8276 312.53 18.0433 312.53 18.2589V37.3982H307.907V35.6729L307.584 35.9425C306.296 37.1286 304.252 37.7756 301.996 37.7756ZM303.071 20.9006C299.361 20.9006 297.157 23.7581 297.157 27.5859C297.157 31.4138 299.361 34.379 303.071 34.379C304.252 34.379 306.296 34.2713 307.907 32.6537L307.962 32.5998V22.7876L307.907 22.7337C306.779 21.4398 305.112 20.9006 303.071 20.9006Z" fill="#00B897"/>
<path d="M111.024 37.5605V9.47168H134.298V11.2508C134.298 12.6526 133.169 13.7847 131.772 13.7847H116.829V21.3326H131.772V25.6458H116.829V33.1935H131.772C133.169 33.1935 134.298 34.3256 134.298 35.7275V37.5067L111.024 37.5605Z" fill="#030319" fill-opacity="0.6"/>
<path d="M167.73 9.47168H162.247C161.226 9.47168 160.312 9.90298 159.667 10.7117L153.056 19.0683L146.445 10.7656C145.8 9.95691 144.886 9.52559 143.865 9.52559H138.383L149.509 23.543L138.383 37.5605H143.865C144.886 37.5605 145.8 37.1293 146.445 36.3206L153.056 28.0179L159.721 36.3745C160.366 37.1293 161.28 37.6144 162.301 37.6144H167.784L156.657 23.5969L167.73 9.47168Z" fill="#030319" fill-opacity="0.6"/>
<path d="M92.8044 34.5974L100.437 21.2269V37.5088H106.242V9.41992H102.64C101.512 9.41992 100.437 10.013 99.8993 11.0373L90.762 27.7504L81.6247 11.0373C81.0871 10.013 80.012 9.41992 78.8833 9.41992H75.2822V37.5088H81.0871V21.2269L88.7194 34.5974H92.8044Z" fill="#030319" fill-opacity="0.6"/>
<path d="M182.887 37.8845C174.825 37.9923 168.268 31.6305 168.214 23.5435C168.214 19.1226 169.557 15.4565 172.084 12.9226C174.61 10.4426 178.265 9.09473 182.619 9.09473C187.725 9.09473 191.756 10.8739 194.658 14.3243L192.831 15.8878C191.702 16.8583 190.036 16.9122 188.8 15.9957C187.187 14.7556 185.145 14.1626 182.834 14.1626C177.136 14.1626 173.75 17.613 173.75 23.4357C173.75 29.3122 177.244 32.9245 182.834 32.9245C185.198 32.9245 187.187 32.2775 188.8 31.0914C189.982 30.1748 191.648 30.2289 192.831 31.1992L194.658 32.7627C191.756 36.1592 187.886 37.8845 182.887 37.8845Z" fill="#030319" fill-opacity="0.6"/>
<path d="M218.632 37.884C209.603 37.884 204.013 32.385 204.013 23.543C204.013 14.7013 209.603 9.20215 218.525 9.20215C222.825 9.20215 226.426 10.4421 229.221 12.9761L227.878 14.4857C227.286 15.1326 226.426 15.51 225.565 15.51C225.083 15.51 224.598 15.4022 224.168 15.1865C222.502 14.3239 220.567 13.8926 218.525 13.8926C212.719 13.8926 209.118 17.6126 209.118 23.5971C209.118 29.6352 212.881 33.3553 218.901 33.3553C221.803 33.3553 224.061 32.8162 225.727 31.6302L225.834 31.5763V25.8074H219.438V23.9204C219.438 22.5188 220.567 21.3866 221.965 21.3866H229.865C230.081 21.3866 230.295 21.6022 230.295 21.8179V34.2719C227.555 36.6441 223.631 37.884 218.632 37.884Z" fill="#00B897"/>
<path d="M240.669 37.8319C238.679 37.8319 237.12 37.4006 235.939 36.6458C234.703 35.8371 234.057 34.6509 234.057 33.0335V9.52734H237.175C238.304 9.52734 239.271 10.4439 239.271 11.63V32.3326C239.271 32.3867 239.271 33.357 240.077 34.1657C240.562 34.6509 241.151 34.9205 241.957 34.9205H242.549C242.765 34.9205 242.979 35.1362 242.979 35.3518V37.8858L240.669 37.8319Z" fill="#00B897"/>
</g>
<defs>
<linearGradient id="paint0_linear_3629:454" x1="17.4903" y1="20.788" x2="51.4835" y2="33.3112" gradientUnits="userSpaceOnUse">
<stop stop-color="#53E57A" stop-opacity="0"/>
<stop offset="1" stop-color="#00A977"/>
</linearGradient>
<clipPath id="clip0_3629:454">
<rect width="327" height="41" fill="white"/>
</clipPath>
</defs>
</svg>
