<svg width="129" height="36" viewBox="0 0 129 36" fill="none" xmlns="http://www.w3.org/2000/svg">
<g clip-path="url(#clip0)">
<path d="M95.1252 27.2684C90.72 27.2684 87.9827 24.7598 87.9827 20.7164C87.9827 16.5199 90.5086 13.9091 94.5759 13.9091H94.9171C95.4273 13.9091 96.1297 13.9255 97.0893 14.0433V8.97791H99.9623V26.8118C99.9623 26.8118 97.2325 27.2684 95.1252 27.2684ZM95.0994 16.1329C92.3163 16.1329 90.9631 17.6097 90.9631 20.646C90.9631 23.3722 92.5959 25.0666 95.2192 25.0666C95.7236 25.0666 96.3012 25.0339 97.0885 24.9676V16.3145C96.302 16.1902 95.6678 16.1329 95.0994 16.1329ZM55.7719 26.8593L48.011 13.545L48.0085 26.8593H45.3037V10.0039H49.0905L56.8513 23.1995L56.848 10.0039H59.5886V26.8593H55.7719ZM80.4924 27.1186C79.1858 27.1186 77.8234 26.9746 76.2013 26.6678L76.0257 26.6351V24.2804L76.282 24.3344C77.7127 24.6346 78.9477 24.8907 80.1836 24.8907C81.1815 24.8907 83.506 24.7369 83.506 23.2928C83.506 22.0819 81.8998 21.7775 80.6098 21.5345L80.5282 21.5182C80.2868 21.474 80.0596 21.429 79.8682 21.3815C77.9757 20.8988 75.9566 20.1731 75.9566 17.6801C75.9566 15.2485 77.9141 13.8551 81.328 13.8551C82.9667 13.8551 84.156 14.0269 85.1123 14.1676L85.5767 14.2347V16.5199L85.3295 16.4757C84.2476 16.2802 82.9792 16.0789 81.7599 16.0789C80.4042 16.0789 78.7954 16.3285 78.7954 17.514C78.7954 18.4983 80.1121 18.7797 81.6368 19.1062C83.769 19.5595 86.4123 20.1289 86.4123 22.9893C86.4123 25.6132 84.2567 27.1186 80.4924 27.1186ZM108.028 27.1186C105.054 27.1186 102.3 26.6032 102.3 22.8706C102.3 18.8084 106.559 18.8084 109.105 18.8084C109.358 18.8084 110.554 18.8632 110.921 18.8787C110.918 16.6001 110.889 16.0568 107.527 16.0568C106.195 16.0568 104.715 16.3154 103.409 16.5461L103.159 16.5903V14.3403L103.327 14.3051C104.842 14.0024 106.302 13.8551 107.791 13.8551C111.049 13.8551 113.809 14.1775 113.809 18.1505V26.8151L113.61 26.8372C111.354 27.0859 109.563 27.1186 108.028 27.1186H108.028ZM109.033 20.8186C106.578 20.8186 105.057 21.1737 105.057 22.941C105.057 24.9865 106.997 25.1558 108.818 25.1558C109.497 25.1558 110.72 25.0699 111.094 25.0437V20.889C110.568 20.8669 109.199 20.8186 109.033 20.8186ZM67.7156 27.1186C64.7378 27.1186 61.9847 26.6032 61.9847 22.8706C61.9847 18.8084 66.2433 18.8084 68.7884 18.8084C69.0422 18.8084 70.2415 18.8632 70.6093 18.8787C70.606 16.6001 70.5736 16.0568 67.2121 16.0568C65.8788 16.0568 64.399 16.3154 63.0924 16.5461L62.8427 16.5903V14.3403L63.015 14.3051C64.4826 14.0068 65.9773 13.856 67.4759 13.8551C70.7325 13.8551 73.4931 14.1775 73.4931 18.1505V26.8151L73.2942 26.8372C71.0388 27.0859 69.2469 27.1186 67.7156 27.1186ZM68.7168 20.8186C66.2625 20.8186 64.7444 21.1737 64.7444 22.941C64.7444 24.9865 66.6819 25.1558 68.5029 25.1558C69.1854 25.1558 70.4079 25.0699 70.7816 25.0437V20.889C70.2515 20.8669 68.8832 20.8186 68.7176 20.8186" fill="#231F20"/>
<path d="M125.248 32.5865V27.0573C124.127 27.2111 123.532 27.2111 123.051 27.2111C121.913 27.2111 120.649 26.9681 119.67 26.5623C117.479 25.6664 116.172 23.3918 116.172 20.4734C116.172 19.017 116.533 16.3538 118.948 14.9187C120.161 14.2069 121.592 13.9025 123.744 13.9025C124.514 13.9025 125.554 13.9598 126.558 14.0171L128.191 14.1005V31.3053L125.248 32.5865ZM123.529 16.1272C120.609 16.1264 119.13 17.5909 119.13 20.4734C119.13 24.1846 121.337 24.9644 123.193 24.9644C123.645 24.9644 124.152 24.9644 125.277 24.8236V16.2074C124.396 16.1501 123.989 16.1272 123.528 16.1272H123.529Z" fill="#231F20"/>
<path d="M32.4682 0.0130901L22.9655 25.6795C22.848 25.9955 22.6424 26.2726 22.3722 26.4791C22.1019 26.6856 21.778 26.8131 21.4375 26.847V26.8593H31.4829C32.2693 26.8593 32.9426 26.3675 33.1931 25.6803L42.6992 0.0130901H32.4682Z" fill="#0996C7"/>
<path d="M20.618 26.4698C21.2006 26.4698 21.7108 26.1851 22.0229 25.7539C22.0554 25.7089 22.1694 25.5518 22.2501 25.3383L25.7356 15.9194L23.6966 10.4187C23.5778 10.1402 23.3854 9.89793 23.1394 9.71707C22.8933 9.5362 22.6026 9.42332 22.2972 9.3901C21.9918 9.35689 21.683 9.40455 21.4027 9.52815C21.1224 9.65176 20.8808 9.84681 20.7029 10.0931C20.6696 10.1381 20.534 10.3385 20.4757 10.5087L16.9902 19.9244L19.0384 25.4471C19.1713 25.7506 19.3917 26.0093 19.6724 26.191C19.9532 26.3728 20.2819 26.4697 20.618 26.4698Z" fill="#0996C7"/>
<path d="M21.3626 8.98691H11.2066C10.4201 8.98691 9.7468 9.47618 9.49296 10.1667L-0.00976562 35.8331H10.2212L19.7247 10.1675C19.848 9.83363 20.0696 9.54336 20.3613 9.33368C20.653 9.12401 21.0016 9.00443 21.3626 8.99018V8.98691Z" fill="#0996C7"/>
</g>
<defs>
<clipPath id="clip0">
<rect width="129" height="36" fill="white"/>
</clipPath>
</defs>
</svg>
