<svg width="100" height="100" viewBox="0 0 100 100" fill="none" xmlns="http://www.w3.org/2000/svg">
<path d="M49.4279 0.303711C62.6045 0.303712 74.9938 5.43541 84.3111 14.7527C93.6307 24.07 98.7623 36.4594 98.7623 49.6359C98.7623 62.8126 93.6306 75.204 84.3134 84.5214C74.9961 93.8387 62.6067 98.9703 49.4279 98.9703C36.2491 98.9703 23.8621 93.8387 14.5447 84.5214C5.22739 75.204 0.0957021 62.8147 0.0957031 49.6382C0.0957043 36.4615 5.22739 24.0723 14.5447 14.755C23.8621 5.4354 36.2514 0.30371 49.4279 0.303711ZM49.4279 95.6183C61.7091 95.6183 73.2582 90.8351 81.9426 82.1507C90.6271 73.4663 95.4103 61.9194 95.4103 49.6359C95.4103 37.3524 90.6271 25.8056 81.9426 17.1212C73.2582 8.43682 61.7114 3.65354 49.4279 3.65354C37.1445 3.65354 25.5977 8.4368 16.9133 17.1212C8.22879 25.8056 3.44553 37.3524 3.44553 49.6359C3.44553 61.9194 8.22879 73.464 16.9133 82.1507C25.5998 90.8351 37.1467 95.6183 49.4279 95.6183Z" fill="url(#paint0_linear_3551:698)"/>
<path d="M49.4289 95.7874C74.9171 95.7874 95.5794 75.1251 95.5794 49.6369C95.5794 24.1486 74.9171 3.48633 49.4289 3.48633C23.9406 3.48633 3.27832 24.1486 3.27832 49.6369C3.27832 75.1251 23.9406 95.7874 49.4289 95.7874Z" fill="#333333"/>
<mask id="mask0_3551:698" style="mask-type:alpha" maskUnits="userSpaceOnUse" x="3" y="3" width="93" height="93">
<path d="M49.4796 95.8372C74.9679 95.8372 95.6302 75.1749 95.6302 49.6867C95.6302 24.1984 74.9679 3.53613 49.4796 3.53613C23.9914 3.53613 3.3291 24.1984 3.3291 49.6867C3.3291 75.1749 23.9914 95.8372 49.4796 95.8372Z" fill="black"/>
</mask>
<g mask="url(#mask0_3551:698)">
<path d="M49.4806 95.8362C74.9688 95.8362 95.6311 75.1739 95.6311 49.6857C95.6311 24.1975 74.9688 3.53516 49.4806 3.53516C23.9924 3.53516 3.33008 24.1975 3.33008 49.6857C3.33008 75.1739 23.9924 95.8362 49.4806 95.8362Z" fill="white"/>
<g clip-path="url(#clip0_3551:698)">
<path d="M27.9453 51.7477V42.0635H29.8523C30.1966 42.6011 30.8962 43.6852 31.9512 45.3158C33.0062 46.9463 33.6485 47.9378 33.878 48.2904C33.9443 48.3918 34.0568 48.5636 34.2157 48.806C34.3791 49.044 34.4938 49.2137 34.56 49.315C34.5291 47.8034 34.5137 47.019 34.5137 46.9618V42.0635H36.1491V51.7477H34.2157L29.839 44.939L29.5212 44.4168C29.5565 45.5802 29.5742 46.3977 29.5742 46.8692V51.7477H27.9453Z" fill="#050607"/>
<path d="M42.8212 51.8867C41.6514 51.8867 40.7399 51.5518 40.0866 50.8819C39.4377 50.2077 39.1133 49.2778 39.1133 48.0924C39.1133 46.9378 39.4201 46.0189 40.0336 45.3358C40.6472 44.6528 41.4837 44.3091 42.5431 44.3047C43.5452 44.3047 44.322 44.6175 44.8738 45.2433C45.43 45.8691 45.7081 46.6998 45.7081 47.7354C45.7081 47.8103 45.7059 47.9316 45.7015 48.099C45.7015 48.2665 45.7015 48.3898 45.7015 48.4692H40.8613C40.879 49.1478 41.0644 49.6744 41.4175 50.0491C41.775 50.4192 42.265 50.6043 42.8874 50.6043C43.6819 50.6043 44.4456 50.3972 45.1784 49.983L45.4234 51.2125C44.695 51.662 43.8277 51.8867 42.8212 51.8867ZM40.8944 47.3784H44.0726C44.0726 46.7879 43.938 46.334 43.6687 46.0167C43.3994 45.6994 43.0265 45.5408 42.5497 45.5408C42.1039 45.5408 41.7265 45.6951 41.4175 46.0035C41.1129 46.312 40.9385 46.7703 40.8944 47.3784Z" fill="#050607"/>
<path d="M51.9696 51.8473C51.4752 51.8473 51.0625 51.79 50.7314 51.6754C50.4048 51.5564 50.1488 51.3713 49.9634 51.1201C49.778 50.8689 49.6456 50.5737 49.5661 50.2344C49.491 49.8906 49.4535 49.4675 49.4535 48.9651V45.5344H48.2617L48.3279 44.5957L49.5727 44.4833L50.1289 42.5134L51.1883 42.5068V44.4833H52.9959V45.5344H51.1883V48.9982C51.1883 49.5491 51.2678 49.9413 51.4267 50.1749C51.5856 50.4084 51.8791 50.5252 52.3073 50.5252C52.559 50.5252 52.8282 50.5032 53.1151 50.4591L53.1615 51.7018C53.1527 51.7018 53.0975 51.7129 52.9959 51.7349C52.8988 51.7525 52.804 51.7679 52.7112 51.7812C52.623 51.7988 52.5082 51.8142 52.3669 51.8274C52.2256 51.8406 52.0932 51.8473 51.9696 51.8473Z" fill="#050607"/>
<path d="M56.5029 51.7477V50.5974L61.6212 43.4913H56.6817V42.0635H63.7401V43.3657L58.7145 50.3198H63.7731L63.7665 51.7477H56.5029Z" fill="#050607"/>
<path d="M70.695 51.8867C69.5254 51.8867 68.6136 51.5518 67.9603 50.8819C67.3116 50.2077 66.9873 49.2778 66.9873 48.0924C66.9873 46.9378 67.2936 46.0189 67.9072 45.3358C68.5209 44.6528 69.3574 44.3091 70.4167 44.3047C71.4189 44.3047 72.1959 44.6175 72.7477 45.2433C73.3036 45.8691 73.5819 46.6998 73.5819 47.7354C73.5819 47.8103 73.5796 47.9316 73.5755 48.099C73.5755 48.2665 73.5755 48.3898 73.5755 48.4692H68.735C68.7525 49.1478 68.938 49.6744 69.2915 50.0491C69.6491 50.4192 70.1391 50.6043 70.7615 50.6043C71.556 50.6043 72.3196 50.3972 73.0522 49.983L73.2972 51.2125C72.5686 51.662 71.7012 51.8867 70.695 51.8867ZM68.7682 47.3784H71.9462C71.9462 46.7879 71.8121 46.334 71.5426 46.0167C71.2731 45.6994 70.9003 45.5408 70.4237 45.5408C69.9775 45.5408 69.6001 45.6951 69.2915 46.0035C68.9864 46.312 68.8126 46.7703 68.7682 47.3784Z" fill="#050607"/>
<path d="M76.9434 51.748V44.4832H78.4005L78.6257 45.5938C79.1023 44.8313 79.7929 44.4502 80.6977 44.4502C80.8879 44.4502 81.0424 44.459 81.1614 44.4766L81.1346 45.9243C80.9584 45.8979 80.7753 45.8846 80.5851 45.8846C79.9452 45.8846 79.4663 46.0543 79.1484 46.3936C78.8351 46.733 78.6782 47.2045 78.6782 47.8082V51.748H76.9434Z" fill="#050607"/>
<path d="M87.4533 50.5713C88.0401 50.5713 88.4817 50.3575 88.7774 49.9301C89.0732 49.5026 89.2213 48.89 89.2213 48.0924C89.2213 47.2859 89.0732 46.6712 88.7774 46.2481C88.4817 45.825 88.036 45.6135 87.4398 45.6135C86.853 45.6135 86.4091 45.8272 86.1093 46.2547C85.8135 46.6777 85.6653 47.2925 85.6653 48.099C85.6653 48.8923 85.8158 49.5026 86.1157 49.9301C86.4161 50.3575 86.8618 50.5713 87.4533 50.5713ZM87.4066 51.8867C86.3298 51.8867 85.4822 51.5386 84.8644 50.8423C84.2461 50.146 83.9375 49.2294 83.9375 48.0924C83.9375 46.9202 84.2461 45.9969 84.8644 45.3227C85.4822 44.644 86.3543 44.3047 87.4795 44.3047C88.5657 44.3047 89.4156 44.6506 90.0287 45.3425C90.647 46.03 90.9562 46.9466 90.9562 48.0924C90.9562 49.2514 90.6447 50.1747 90.0222 50.8621C89.3998 51.5452 88.5283 51.8867 87.4066 51.8867Z" fill="#050607"/>
<path fill-rule="evenodd" clip-rule="evenodd" d="M88.7696 50.6221L85.1914 45.9214L85.941 45.3525L89.5192 50.0533L88.7696 50.6221Z" fill="#050607"/>
<path d="M29.3474 59.3262C28.8839 59.3262 28.5225 59.1885 28.2632 58.913C28.0057 58.6376 27.877 58.2437 27.877 57.7314C27.877 57.2357 28.0121 56.851 28.2825 56.5774C28.5547 56.3038 28.9124 56.167 29.3557 56.167C29.7107 56.167 30.0105 56.2432 30.2551 56.3956L30.0841 56.9106C29.8339 56.7802 29.6012 56.7151 29.386 56.7151C29.1414 56.7151 28.9483 56.8023 28.8067 56.9768C28.6669 57.1512 28.597 57.4055 28.597 57.7397C28.597 58.0776 28.666 58.3346 28.8039 58.5109C28.9437 58.6872 29.1405 58.7753 29.3943 58.7753C29.6592 58.7753 29.9139 58.6973 30.1585 58.5412L30.2275 59.0893C30.1006 59.1738 29.9691 59.2344 29.833 59.2711C29.6969 59.3078 29.535 59.3262 29.3474 59.3262Z" fill="#5C6097"/>
<path d="M36.1642 59.3262C35.8828 59.3262 35.6548 59.249 35.48 59.0948C35.3072 58.9388 35.2207 58.7147 35.2207 58.4227C35.2207 58.1088 35.3237 57.8765 35.5297 57.7259C35.7357 57.5735 36.0465 57.4771 36.4622 57.4367C36.5192 57.4294 36.5808 57.422 36.647 57.4147C36.7132 57.4073 36.7877 57.4 36.8705 57.3926C36.9533 57.3853 37.0185 57.3789 37.0664 57.3734V57.2136C37.0664 57.03 37.0241 56.8969 36.9395 56.8143C36.8549 56.7298 36.7261 56.6876 36.5532 56.6876C36.3068 56.6876 36.0024 56.7564 35.64 56.8941C35.6382 56.8886 35.6079 56.805 35.549 56.6435C35.4901 56.4819 35.4598 56.3993 35.4579 56.3956C35.8148 56.2432 36.201 56.167 36.6167 56.167C37.025 56.167 37.322 56.2561 37.5078 56.4342C37.6936 56.6104 37.7864 56.8969 37.7864 57.2935V59.2683H37.2512C37.2494 59.261 37.2292 59.1995 37.1905 59.0838C37.1519 58.9681 37.1326 58.9066 37.1326 58.8993C36.9818 59.0462 36.8337 59.1545 36.6884 59.2242C36.5449 59.2922 36.3702 59.3262 36.1642 59.3262ZM36.3601 58.8139C36.5275 58.8139 36.6728 58.7744 36.796 58.6954C36.9211 58.6147 37.0103 58.5174 37.0636 58.4035V57.8196C37.0581 57.8196 37.0094 57.8233 36.9174 57.8306C36.8273 57.838 36.7786 57.8416 36.7712 57.8416C36.4787 57.8673 36.2645 57.9224 36.1284 58.0069C35.9922 58.0914 35.9242 58.2272 35.9242 58.4145C35.9242 58.543 35.9619 58.6422 36.0373 58.712C36.1127 58.7799 36.2203 58.8139 36.3601 58.8139Z" fill="#5C6097"/>
<path d="M43.0869 60.5269V56.2412H43.7076L43.7849 56.6654C43.8842 56.5056 44.0157 56.3826 44.1794 56.2963C44.3449 56.2082 44.5289 56.1641 44.7312 56.1641C44.9795 56.1641 45.1974 56.233 45.385 56.3707C45.5745 56.5083 45.7179 56.6966 45.8155 56.9353C45.9129 57.1722 45.9616 57.4402 45.9616 57.7395C45.9616 58.2078 45.8476 58.5897 45.6196 58.8853C45.3933 59.1791 45.0862 59.326 44.6981 59.326C44.5068 59.326 44.333 59.2884 44.1766 59.2131C44.0222 59.136 43.8925 59.0323 43.7877 58.9019C43.8024 59.1663 43.8097 59.315 43.8097 59.3481V60.4911L43.0869 60.5269ZM44.5436 58.7752C44.7587 58.7752 44.928 58.6852 45.0512 58.5053C45.1763 58.3253 45.2388 58.0682 45.2388 57.734C45.2388 57.3943 45.1763 57.1391 45.0512 56.9684C44.9262 56.7976 44.7523 56.7122 44.5298 56.7122C44.0516 56.7122 43.8097 57.0372 43.8042 57.6872C43.8042 58.0618 43.8658 58.3372 43.989 58.5135C44.1141 58.688 44.299 58.7752 44.5436 58.7752Z" fill="#5C6097"/>
<path d="M51.0137 59.2683V56.2413H51.7365V59.2683H51.0137ZM51.0137 55.8006V55.1836H51.7393V55.8006H51.0137Z" fill="#5C6097"/>
<path d="M58.2354 59.3089C58.0294 59.3089 57.8574 59.285 57.7195 59.2372C57.5834 59.1877 57.4767 59.1105 57.3995 59.0059C57.3222 58.9012 57.267 58.7782 57.2339 58.6368C57.2027 58.4936 57.187 58.3173 57.187 58.108V56.6785H56.6904L56.718 56.2874L57.2367 56.2405L57.4684 55.4198L57.9098 55.417V56.2405H58.663V56.6785H57.9098V58.1217C57.9098 58.3513 57.943 58.5147 58.0092 58.612C58.0754 58.7093 58.1977 58.758 58.3761 58.758C58.4809 58.758 58.5931 58.7488 58.7127 58.7304L58.732 59.2483C58.7283 59.2483 58.7053 59.2529 58.663 59.262C58.6225 59.2694 58.583 59.2758 58.5444 59.2813C58.5076 59.2886 58.4598 59.2951 58.4009 59.3006C58.3421 59.3061 58.2869 59.3089 58.2354 59.3089Z" fill="#5C6097"/>
<path d="M64.6047 59.3262C64.3233 59.3262 64.0952 59.249 63.9205 59.0948C63.7476 58.9388 63.6611 58.7147 63.6611 58.4227C63.6611 58.1088 63.7641 57.8765 63.9701 57.7259C64.1761 57.5735 64.487 57.4771 64.9026 57.4367C64.9596 57.4294 65.0212 57.422 65.0874 57.4147C65.1536 57.4073 65.2281 57.4 65.3109 57.3926C65.3937 57.3853 65.459 57.3789 65.5068 57.3734V57.2136C65.5068 57.03 65.4645 56.8969 65.3799 56.8143C65.2953 56.7298 65.1665 56.6876 64.9936 56.6876C64.7472 56.6876 64.4428 56.7564 64.0805 56.8941C64.0786 56.8886 64.0483 56.805 63.9894 56.6435C63.9306 56.4819 63.9002 56.3993 63.8984 56.3956C64.2552 56.2432 64.6414 56.167 65.0571 56.167C65.4654 56.167 65.7625 56.2561 65.9484 56.4342C66.1339 56.6104 66.2267 56.8969 66.2267 57.2935V59.2683H65.6917C65.6898 59.261 65.6696 59.1995 65.6309 59.0838C65.5923 58.9681 65.573 58.9066 65.573 58.8993C65.4222 59.0462 65.2742 59.1545 65.1289 59.2242C64.9854 59.2922 64.8106 59.3262 64.6047 59.3262ZM64.8006 58.8139C64.9679 58.8139 65.1132 58.7744 65.2364 58.6954C65.3615 58.6147 65.4507 58.5174 65.5041 58.4035V57.8196C65.4985 57.8196 65.4498 57.8233 65.3578 57.8306C65.2677 57.838 65.219 57.8416 65.2116 57.8416C64.9191 57.8673 64.7049 57.9224 64.5688 58.0069C64.4327 58.0914 64.3646 58.2272 64.3646 58.4145C64.3646 58.543 64.4023 58.6422 64.4777 58.712C64.5532 58.7799 64.6607 58.8139 64.8006 58.8139Z" fill="#5C6097"/>
<path d="M72.5883 59.3097C72.3806 59.3097 72.2073 59.2858 72.0697 59.2381C71.9338 59.1885 71.8258 59.1105 71.7471 59.0039C71.6678 58.8975 71.6123 58.7708 71.5814 58.6239C71.5499 58.477 71.5342 58.2943 71.5342 58.0757V55.1259L72.2575 55.0791V58.062C72.2575 58.3338 72.2896 58.5183 72.3538 58.6156C72.4179 58.7111 72.5433 58.7588 72.7288 58.7588C72.821 58.7588 72.9377 58.7487 73.0794 58.7286L73.0987 59.2436C73.0969 59.2436 73.0742 59.2482 73.0298 59.2573C72.9873 59.2666 72.9458 59.2739 72.9056 59.2794C72.8671 59.2867 72.8175 59.2932 72.7568 59.2987C72.6962 59.3061 72.6396 59.3097 72.5883 59.3097Z" fill="#5C6097"/>
<path d="M22.1908 42.083H18.4291V43.2451H21.472V57.7413L17.3001 52.2365H13.5948C13.2733 52.2365 13.0127 52.4966 13.0127 52.8175C13.0127 53.1384 13.2733 53.3986 13.5948 53.3986H16.6876L20.8745 58.9299C21.4191 59.6494 22.5675 59.2649 22.5675 58.3632V42.4591C22.5675 42.2514 22.3988 42.083 22.1908 42.083Z" fill="#EC1879"/>
<path d="M7.87668 59.3061H11.6649V58.1439H8.60248V43.6477L12.7674 49.1526H16.534C16.8554 49.1526 17.1161 48.8924 17.1161 48.5716C17.1161 48.2507 16.8554 47.9905 16.534 47.9905H13.3799L9.193 42.4591C8.64843 41.7397 7.5 42.1242 7.5 43.026V58.93C7.5 59.1377 7.66864 59.3061 7.87668 59.3061Z" fill="#EC1879"/>
</g>
</g>
<defs>
<linearGradient id="paint0_linear_3551:698" x1="84.3129" y1="14.7531" x2="14.545" y2="84.521" gradientUnits="userSpaceOnUse">
<stop/>
<stop offset="1" stop-color="#515151"/>
</linearGradient>
<clipPath id="clip0_3551:698">
<rect width="84" height="23.3333" fill="white" transform="translate(7.5 37.833)"/>
</clipPath>
</defs>
</svg>
