<svg width="100" height="100" viewBox="0 0 100 100" fill="none" xmlns="http://www.w3.org/2000/svg">
<path d="M49.4299 0.302734C62.6064 0.302736 74.9958 5.43444 84.3131 14.7517C93.6327 24.0691 98.7643 36.4584 98.7643 49.6349C98.7643 62.8115 93.6326 75.2031 84.3154 84.5204C74.998 93.8377 62.6087 98.9693 49.4299 98.9693C36.2511 98.9693 23.864 93.8377 14.5467 84.5204C5.22935 75.2031 0.0976552 62.8137 0.0976563 49.6372C0.0976575 36.4605 5.22935 24.0713 14.5467 14.754C23.864 5.43444 36.2534 0.302734 49.4299 0.302734ZM49.4299 95.6173C61.7111 95.6173 73.2602 90.8341 81.9446 82.1497C90.6291 73.4652 95.4123 61.9184 95.4123 49.6349C95.4123 37.3515 90.6291 25.8047 81.9446 17.1203C73.2602 8.43584 61.7134 3.65257 49.4299 3.65257C37.1464 3.65257 25.5996 8.43582 16.9152 17.1203C8.23075 25.8047 3.44748 37.3515 3.44748 49.6349C3.44748 61.9184 8.23075 73.4631 16.9152 82.1497C25.6018 90.8341 37.1487 95.6173 49.4299 95.6173Z" fill="url(#paint0_linear)"/>
<path d="M49.4279 95.7864C74.9161 95.7864 95.5784 75.1241 95.5784 49.6359C95.5784 24.1477 74.9161 3.48535 49.4279 3.48535C23.9396 3.48535 3.27734 24.1477 3.27734 49.6359C3.27734 75.1241 23.9396 95.7864 49.4279 95.7864Z" fill="white"/>
<g clip-path="url(#clip0)">
<path d="M22.8272 58.1655C22.1204 59.1241 21.5084 60.003 20.8361 60.8303C20.6529 61.0565 20.2844 61.1275 20 61.2719C20.0646 60.9574 20.0453 60.5912 20.2155 60.3413C20.821 59.4128 21.879 58.5791 22.0126 57.6054C22.1355 56.7157 21.2369 55.7076 20.8727 54.7209C18.5562 48.4436 21.7347 41.3649 27.8545 39.383C31.8302 38.0905 35.5538 38.6958 38.8679 41.3498C39.0339 41.4834 39.2127 41.5997 39.4885 41.8L41.415 38.9198L39.6092 39.1202L39.551 38.8035L42.5398 38L42.9708 41.0159L42.6454 41.0999C42.4946 40.6023 42.3437 40.1047 42.1347 39.4089C41.4732 40.3976 40.8418 41.2442 40.3397 42.1684C40.2104 42.4118 40.4496 42.9482 40.6565 43.2627C43.5354 47.6573 43.5892 52.2371 41.0314 56.6597C37.4974 62.7712 28.9146 63.7901 23.6482 58.9389C23.4025 58.7213 23.1741 58.4973 22.8272 58.1655ZM38.4693 45.3652L38.118 45.3825C36.8704 47.2523 35.6033 49.1092 34.3837 50.9963C33.9915 51.6017 33.5993 51.7912 32.8904 51.5198C31.7591 51.089 30.576 50.7852 29.4426 50.3694C28.8306 50.154 28.4686 50.2854 28.1109 50.8261C27.4817 51.7804 26.7792 52.6852 26.1004 53.6051C24.5618 55.6946 24.564 55.8217 26.2232 57.8747C26.29 57.9587 26.3504 58.0492 26.4193 58.1289C30.0826 62.3899 36.7476 61.2611 38.5943 56.0458C39.4713 53.5706 39.5618 51.0028 39.1869 48.4264C39.0295 47.3945 38.7106 46.3863 38.4693 45.3652ZM24.4433 54.3138C24.6179 54.143 24.7826 53.9625 24.9368 53.7731C25.7987 52.5883 26.6951 51.425 27.4946 50.1971C28.0182 49.3914 28.5548 49.12 29.5029 49.497C30.6004 49.9236 31.7248 50.2777 32.8688 50.5569C33.1511 50.6279 33.6618 50.4879 33.8148 50.2704C35.0833 48.4522 36.3137 46.6082 37.5061 44.7384C37.5872 44.5966 37.6359 44.4387 37.6486 44.2759C37.6612 44.1131 37.6376 43.9495 37.5793 43.797C35.2995 39.732 29.6279 38.5105 26.2491 41.9551C23.6115 44.6393 22.7367 50.4793 24.4433 54.3138Z" fill="black"/>
<path d="M70.5637 51.2439H78.9095C79.0732 52.041 79.0818 52.1056 78.3664 52.2025C77.233 52.349 76.8753 53.0082 76.8839 54.0465C76.9011 56.2244 76.8839 58.4045 76.8839 60.7439C73.574 61.625 70.109 62.2648 66.4889 61.7198C61.871 61.024 58.253 57.7259 57.2467 53.1719C55.6758 46.063 60.1644 39.8158 67.3874 38.9218C70.2793 38.5686 73.0957 38.9606 75.9142 39.4604C76.2073 39.5121 76.6404 39.8632 76.6749 40.1196C76.871 41.5715 76.983 43.0385 77.0778 44.5012C77.0908 44.7059 76.8473 44.9321 76.7223 45.1475C76.5283 44.9946 76.2202 44.8782 76.1556 44.6822C75.5091 42.7434 74.5329 41.0696 72.4104 40.4556C69.8612 39.7189 67.3314 39.6694 64.89 40.8865C61.8882 42.3794 60.8194 45.085 60.5156 48.1634C60.1493 51.8255 60.6126 55.3735 63.3169 58.1611C65.8058 60.7461 68.9346 61.2545 72.3264 60.3928C73.4038 60.1171 74.0373 59.3782 74.0503 58.2171C74.0632 56.9245 74.0998 55.632 74.0503 54.3524C73.9835 52.8854 73.49 52.4266 72.0053 52.2499C71.6835 52.2451 71.3641 52.1936 71.0572 52.097C70.7986 51.9785 70.6133 51.7049 70.3935 51.4981C70.4409 51.4119 70.5012 51.3279 70.5637 51.2439Z" fill="black"/>
<path d="M54.504 39.5515C54.2605 39.7669 54.045 40.1266 53.7692 40.1805C51.5045 40.635 51.3084 40.8267 51.3041 43.1274C51.2954 48.0677 51.2954 53.0073 51.3041 57.9462C51.3041 59.704 51.7652 60.1909 53.5236 60.4688C53.8317 60.5183 54.0989 60.8135 54.3855 60.9966C54.0774 61.143 53.7692 61.4123 53.4589 61.4274C51.0268 61.4619 48.594 61.4619 46.1604 61.4274C45.8889 61.4274 45.6238 61.1624 45.3545 61.0203C45.6001 60.8372 45.8242 60.5334 46.0914 60.4882C48.0761 60.1478 48.4079 59.8807 48.423 57.8557C48.4618 52.774 48.4467 47.6922 48.4079 42.6104C48.3928 40.8871 47.9576 40.5101 46.2897 40.2128C45.9535 40.1546 45.6648 39.8444 45.3545 39.6484C45.7036 39.5127 46.0484 39.2628 46.3996 39.2563C48.8324 39.2197 51.2653 39.2305 53.7003 39.2326C53.907 39.2443 54.1128 39.2687 54.3165 39.3059L54.504 39.5515Z" fill="black"/>
<path d="M38.4686 45.3652C38.71 46.3863 39.0289 47.3945 39.1798 48.4264C39.5547 51.0114 39.4642 53.5706 38.5872 56.0458C36.7405 61.2611 30.0798 62.3899 26.4122 58.1289C26.3433 58.0492 26.2829 57.9587 26.2161 57.8747C24.5569 55.8217 24.5547 55.6946 26.0933 53.6051C26.7721 52.6852 27.4746 51.7805 28.1038 50.8261C28.4615 50.2854 28.8235 50.1476 29.4355 50.3695C30.5754 50.7852 31.7584 51.0868 32.8833 51.5198C33.5922 51.7912 33.9844 51.6017 34.3766 50.9963C35.5962 49.1092 36.8633 47.2523 38.1109 45.3825L38.4686 45.3652Z" fill="white"/>
<path d="M24.4428 54.3134C22.7362 50.4811 23.6111 44.641 26.2486 41.9547C29.6274 38.508 35.299 39.7316 37.5788 43.7966C37.6371 43.9491 37.6607 44.1127 37.6481 44.2755C37.6354 44.4383 37.5867 44.5963 37.5056 44.738C36.3089 46.6049 35.0785 48.4489 33.8143 50.27C33.6613 50.4854 33.1506 50.6276 32.8683 50.5565C31.7243 50.2773 30.6 49.9232 29.5024 49.4966C28.5543 49.111 28.0177 49.3911 27.4941 50.1967C26.6947 51.4246 25.7982 52.5879 24.9363 53.7727C24.7822 53.9621 24.6174 54.1426 24.4428 54.3134Z" fill="white"/>
</g>
<defs>
<linearGradient id="paint0_linear" x1="84.3148" y1="14.752" x2="14.547" y2="84.52" gradientUnits="userSpaceOnUse">
<stop/>
<stop offset="1" stop-color="#515151"/>
</linearGradient>
<clipPath id="clip0">
<rect width="59" height="24" fill="white" transform="translate(20 38)"/>
</clipPath>
</defs>
</svg>
