<svg width="26" height="27" viewBox="0 0 26 27" fill="none" xmlns="http://www.w3.org/2000/svg">
<path d="M2.30207 13.6456C4.34813 12.557 6.63208 11.6483 8.76609 10.7351C12.4374 9.23926 16.1233 7.76936 19.8464 6.4009C20.5708 6.16774 21.8724 5.93975 22 6.97666C21.9301 8.44445 21.6426 9.90364 21.4454 11.3628C20.945 14.5717 20.3665 17.7696 19.8024 20.968C19.608 22.0334 18.2264 22.5848 17.3424 21.903C15.2178 20.5169 13.077 19.1441 10.9796 17.7258C10.2925 17.0515 10.9296 16.083 11.5432 15.6015C13.2931 13.9357 15.1488 12.5205 16.8072 10.7687C17.2545 9.72524 15.9327 10.6046 15.4968 10.8741C13.1012 12.4687 10.7643 14.1606 8.23871 15.5621C6.94862 16.248 5.44499 15.6618 4.15548 15.279C2.9993 14.8166 1.30503 14.3508 2.30195 13.6457L2.30207 13.6456Z" fill="#AAB0B7"/>
</svg>
