<svg width="87" height="223" viewBox="0 0 87 223" fill="none" xmlns="http://www.w3.org/2000/svg">
<g filter="url(#filter0_f)">
<path d="M13.1187 32.2973C16.1051 44.0862 41.4956 52.2061 37.4206 55.9005C-2.27189 65.1571 -32.2995 48.7682 -33.7549 38.3567C-11.7619 41.4325 -18.4834 17.0261 -10.8191 21.2557C-3.15492 25.4854 10.1323 20.5084 13.1187 32.2973Z" fill="url(#paint0_linear)" fill-opacity="0.8"/>
</g>
<g filter="url(#filter1_d)">
<path d="M14.4802 29.1542C14.4802 43.355 2.96824 44.3352 -11.2325 44.3352C-25.4333 44.3352 -36.9453 43.355 -36.9453 29.1542C-36.9453 14.9534 -25.4333 3.44141 -11.2325 3.44141C2.96824 3.44141 14.4802 14.9534 14.4802 29.1542Z" fill="url(#paint1_linear)"/>
<path d="M14.3275 30.8201C14.3275 45.0209 2.96837 34.6441 -11.2324 34.6441C-25.4332 34.6441 -37 43.7269 -37 29.5261C-37 15.3253 -25.4332 3 -11.2324 3C2.96837 3 14.3275 16.6193 14.3275 30.8201Z" fill="url(#paint2_radial)"/>
</g>
<rect opacity="0.5" y="0.499967" width="114.579" height="188.308" rx="7.5" transform="matrix(0.866044 0.499967 -0.866044 0.499967 -13.6178 70.25)" stroke="#1164F4"/>
<defs>
<filter id="filter0_f" x="-53.7549" y="0.761719" width="111.617" height="77.871" filterUnits="userSpaceOnUse" color-interpolation-filters="sRGB">
<feFlood flood-opacity="0" result="BackgroundImageFix"/>
<feBlend mode="normal" in="SourceGraphic" in2="BackgroundImageFix" result="shape"/>
<feGaussianBlur stdDeviation="10" result="effect1_foregroundBlur"/>
</filter>
<filter id="filter1_d" x="-42" y="2" width="63.4802" height="53.3352" filterUnits="userSpaceOnUse" color-interpolation-filters="sRGB">
<feFlood flood-opacity="0" result="BackgroundImageFix"/>
<feColorMatrix in="SourceAlpha" type="matrix" values="0 0 0 0 0 0 0 0 0 0 0 0 0 0 0 0 0 0 127 0"/>
<feOffset dx="1" dy="5"/>
<feGaussianBlur stdDeviation="3"/>
<feColorMatrix type="matrix" values="0 0 0 0 0 0 0 0 0 0 0 0 0 0 0 0 0 0 0.09 0"/>
<feBlend mode="normal" in2="BackgroundImageFix" result="effect1_dropShadow"/>
<feBlend mode="normal" in="SourceGraphic" in2="effect1_dropShadow" result="shape"/>
</filter>
<linearGradient id="paint0_linear" x1="-3.64833" y1="35.9431" x2="64.2541" y2="62.765" gradientUnits="userSpaceOnUse">
<stop stop-color="#005DFF"/>
<stop offset="1" stop-color="white" stop-opacity="0"/>
</linearGradient>
<linearGradient id="paint1_linear" x1="-11.2325" y1="14.793" x2="-11.2325" y2="44.3352" gradientUnits="userSpaceOnUse">
<stop stop-color="#005BF9"/>
<stop offset="1" stop-color="#5899FB"/>
</linearGradient>
<radialGradient id="paint2_radial" cx="0" cy="0" r="1" gradientUnits="userSpaceOnUse" gradientTransform="translate(-11.2323 14.1975) rotate(90) scale(11.8449 24.218)">
<stop stop-color="white" stop-opacity="0.78"/>
<stop offset="1" stop-color="#1164F4" stop-opacity="0"/>
</radialGradient>
</defs>
</svg>
