<svg width="20" height="20" viewBox="0 0 20 20" fill="none" xmlns="http://www.w3.org/2000/svg">
<path fill-rule="evenodd" clip-rule="evenodd" d="M13.4504 5.19911L5.41966 13.2177C4.92261 13.7149 4.92261 14.5208 5.41966 15.0179V15.0179C5.9168 15.515 6.72273 15.515 7.21987 15.0179L15.2385 6.98549C15.7316 6.4918 15.7316 5.69193 15.2385 5.19825L15.2385 5.19825C14.7444 4.70474 13.9439 4.70513 13.4504 5.19911V5.19911Z" fill="#377DFF"/>
<path opacity="0.3" fill-rule="evenodd" clip-rule="evenodd" d="M8.62358 6.16955C8.62358 7.09576 8.06549 7.93071 7.20966 8.28487C6.35384 8.63903 5.36893 8.44262 4.71444 7.78725C4.05994 7.13189 3.86483 6.14673 4.22012 5.29137C4.57541 4.43602 5.4111 3.87903 6.33731 3.88025C6.94409 3.88059 7.52587 4.12199 7.95464 4.55133C8.38341 4.98067 8.62404 5.56277 8.62358 6.16955ZM16.5517 14.0977C16.5522 15.0231 15.9946 15.8583 15.1392 16.2129C14.2837 16.5676 13.2988 16.3719 12.6438 15.7171C11.9889 15.0624 11.793 14.0775 12.1475 13.2219C12.5019 12.3664 13.337 11.8086 14.2631 11.8089C14.8702 11.8086 15.4525 12.0496 15.8818 12.479C16.3111 12.9083 16.5521 13.4906 16.5517 14.0977Z" fill="#377DFF"/>
</svg>
