<svg width="191" height="123" viewBox="0 0 191 123" fill="none" xmlns="http://www.w3.org/2000/svg">
<g opacity="0.5" filter="url(#filter0_f)">
<path d="M124.56 68.5917C181.787 96.9594 179.804 58.6191 148.288 84.2424C113.92 112.185 82.5199 101.065 28.1729 65.8474C46.3498 68.3895 55.9798 48.2179 62.3142 51.7137C68.6486 55.2094 67.333 40.2241 124.56 68.5917Z" fill="url(#paint0_linear)"/>
</g>
<g filter="url(#filter1_bd)">
<path d="M100.316 58.3154L61.3112 35.7821L22.3184 58.3446L61.3225 80.8779L100.316 58.3154Z" fill="url(#paint1_radial)" fill-opacity="0.3"/>
</g>
<g filter="url(#filter2_bd)">
<path fill-rule="evenodd" clip-rule="evenodd" d="M61.3114 36.5186L23.5923 58.3442L61.3223 80.1414L99.0418 58.3159L61.3114 36.5186ZM61.3112 35.7821L22.3184 58.3446L61.3225 80.8779L100.316 58.3154L61.3112 35.7821Z" fill="url(#paint2_radial)"/>
</g>
<path d="M61.3225 80.8776L22.3184 58.3442V64.6757L61.3225 87.1719V80.8776Z" fill="url(#paint3_linear)"/>
<path d="M100.314 58.3154L61.3213 80.8779V87.1722L100.314 64.3296V58.3154Z" fill="url(#paint4_linear)"/>
<g filter="url(#filter3_bd)">
<path d="M97.5085 54.3052L61.1332 33.3077L24.7578 54.3052L61.1332 75.3021L97.5085 54.3052Z" fill="url(#paint5_radial)" fill-opacity="0.3"/>
</g>
<g filter="url(#filter4_bd)">
<path fill-rule="evenodd" clip-rule="evenodd" d="M61.1332 34.044L26.0333 54.3052L61.1332 74.5658L96.2331 54.3052L61.1332 34.044ZM61.1332 33.3077L24.7578 54.3052L61.1332 75.3021L97.5085 54.3052L61.1332 33.3077Z" fill="url(#paint6_radial)"/>
</g>
<path d="M24.7578 54.3051V56.9666L61.1332 77.6681V75.302L24.7578 54.3051Z" fill="#D6D6D6"/>
<path d="M97.5082 54.3051L61.1328 75.302V77.6681L97.5082 56.6708V54.3051Z" fill="#88ABBF"/>
<path d="M61.2689 26.8466L38.2842 30.4034V54.2889L61.2659 67.566L61.2689 67.5644V26.8466Z" fill="#519EFB"/>
<path d="M85.997 53.2639V22.9874L61.2695 26.8468V67.5646L85.997 53.2639Z" fill="#1553B0"/>
<g opacity="0.5" filter="url(#filter5_b)">
<path d="M28.173 54.1536L33.3031 57.158L33.3008 27.4106L28.1729 24.4503L28.173 54.1536Z" fill="url(#paint7_radial)" fill-opacity="0.5"/>
</g>
<g opacity="0.5" filter="url(#filter6_b)">
<path fill-rule="evenodd" clip-rule="evenodd" d="M33.3031 57.158L33.3008 27.4106L28.1729 24.4503L28.173 54.1536L33.3031 57.158ZM32.6654 56.0456L32.6631 27.7788L28.8105 25.5547L28.8107 53.7881L32.6654 56.0456Z" fill="white" fill-opacity="0.5"/>
</g>
<g opacity="0.5" filter="url(#filter7_b)">
<path d="M38.2864 54.2715L33.3041 57.1579L33.3018 27.4105L38.3264 24.5581L38.2864 54.2715Z" fill="url(#paint8_radial)" fill-opacity="0.5"/>
</g>
<g opacity="0.5" filter="url(#filter8_b)">
<path fill-rule="evenodd" clip-rule="evenodd" d="M37.6493 53.9037L37.6873 25.6541L33.9394 27.7817L33.9416 56.0516L37.6493 53.9037ZM38.2864 54.2715L38.3264 24.5581L33.3018 27.4105L33.3041 57.1579L38.2864 54.2715Z" fill="white" fill-opacity="0.5"/>
</g>
<g opacity="0.5" filter="url(#filter9_b)">
<path d="M56.5059 40.2523V70.3027L61.2173 73.0121L61.2147 42.9674L56.5059 40.2523Z" fill="url(#paint9_radial)" fill-opacity="0.5"/>
</g>
<g opacity="0.5" filter="url(#filter10_b)">
<path fill-rule="evenodd" clip-rule="evenodd" d="M57.1435 69.9339L60.5795 71.9098L60.5771 43.3358L57.1435 41.356V69.9339ZM56.5059 40.2523V70.3027L61.2173 73.0121L61.2147 42.9674L56.5059 40.2523Z" fill="white" fill-opacity="0.5"/>
</g>
<g opacity="0.5" filter="url(#filter11_b)">
<path d="M61.2139 42.9674L61.2164 73.012L66.178 70.1422V40.1017L61.2139 42.9674Z" fill="url(#paint10_radial)" fill-opacity="0.5"/>
</g>
<g opacity="0.5" filter="url(#filter12_b)">
<path fill-rule="evenodd" clip-rule="evenodd" d="M61.2164 73.012L66.178 70.1422V40.1017L61.2139 42.9674L61.2164 73.012ZM65.5404 41.206L61.8515 43.3355L61.8539 71.9067L65.5404 69.7744V41.206Z" fill="white" fill-opacity="0.5"/>
</g>
<g opacity="0.5" filter="url(#filter13_b)">
<path d="M71.5098 61.7399L76.118 64.402L76.1153 34.3571L71.5098 31.6626V61.7399Z" fill="url(#paint11_radial)" fill-opacity="0.5"/>
</g>
<g opacity="0.5" filter="url(#filter14_b)">
<path fill-rule="evenodd" clip-rule="evenodd" d="M76.118 64.402L76.1153 34.3571L71.5098 31.6626V61.7399L76.118 64.402ZM75.4802 63.2972L75.4777 34.7229L72.1474 32.7744V61.3718L75.4802 63.2972Z" fill="white" fill-opacity="0.5"/>
</g>
<g opacity="0.5" filter="url(#filter15_b)">
<path d="M81.079 61.5391L76.1179 64.402L76.1152 34.3572L81.079 31.4913V61.5391Z" fill="url(#paint12_radial)" fill-opacity="0.5"/>
</g>
<g opacity="0.5" filter="url(#filter16_b)">
<path fill-rule="evenodd" clip-rule="evenodd" d="M80.4414 61.1708V32.5957L76.7529 34.7253L76.7555 63.2979L80.4414 61.1708ZM81.079 61.5391V31.4913L76.1152 34.3572L76.1179 64.402L81.079 61.5391Z" fill="white" fill-opacity="0.5"/>
</g>
<g opacity="0.5" filter="url(#filter17_b)">
<path d="M84.0459 54.4978L88.6543 57.1599L88.6521 27.1147L84.0459 24.4205V54.4978Z" fill="url(#paint13_radial)" fill-opacity="0.5"/>
</g>
<g opacity="0.5" filter="url(#filter18_b)">
<path fill-rule="evenodd" clip-rule="evenodd" d="M88.6543 57.1599L88.6521 27.1147L84.0459 24.4205V54.4978L88.6543 57.1599ZM88.0166 56.0552L88.0145 27.4805L84.6835 25.5322V54.1298L88.0166 56.0552Z" fill="white" fill-opacity="0.5"/>
</g>
<g opacity="0.5" filter="url(#filter19_b)">
<path d="M93.6167 54.2968L88.6555 57.1598L88.6533 27.1146L93.6167 24.2489V54.2968Z" fill="url(#paint14_radial)" fill-opacity="0.5"/>
</g>
<g opacity="0.5" filter="url(#filter20_b)">
<path fill-rule="evenodd" clip-rule="evenodd" d="M92.9791 53.9286V25.3533L89.291 27.4827L89.293 56.0557L92.9791 53.9286ZM93.6167 54.2968V24.2489L88.6533 27.1146L88.6555 57.1598L93.6167 54.2968Z" fill="white" fill-opacity="0.5"/>
</g>
<path d="M97.5085 24.4954L61.1332 3.49854L24.7578 24.4954L61.1332 45.493L97.5085 24.4954Z" fill="white"/>
<path d="M24.7578 24.4955V27.1572L61.1332 47.8589V45.4931L24.7578 24.4955Z" fill="#D6D6D6"/>
<path d="M61.1328 45.4931V47.8589L97.5082 26.8615V24.4955L61.1328 45.4931Z" fill="#5A87A1"/>
<path d="M26.4268 21.4417L26.4588 23.5073L61.1227 43.4933L61.0393 40.1877L42.2828 21.4952L26.4268 21.4417Z" fill="#277DFE"/>
<g filter="url(#filter21_b)">
<path d="M63.2086 42.3984L99.4766 21.4653L77.5197 1.05383L42.2715 21.4838L63.2086 42.3984Z" fill="url(#paint15_linear)"/>
</g>
<g filter="url(#filter22_b)">
<path fill-rule="evenodd" clip-rule="evenodd" d="M99.4766 21.4653L77.5197 1.05383L42.2715 21.4838L63.2086 42.3984L99.4766 21.4653ZM98.4102 21.3445L77.4312 1.84213L43.3093 21.6193L63.3133 41.6017L98.4102 21.3445Z" fill="url(#paint16_linear)"/>
</g>
<g opacity="0.7" filter="url(#filter23_b)">
<path d="M77.5199 1.05401L56.7889 0L20.001 21.484H42.2716L77.5199 1.05401Z" fill="url(#paint17_linear)"/>
</g>
<g opacity="0.7" filter="url(#filter24_b)">
<path fill-rule="evenodd" clip-rule="evenodd" d="M56.9463 0.646461L22.3572 20.8464H42.1002L75.3382 1.58154L56.9463 0.646461ZM56.7889 0L20.001 21.484H42.2716L77.5199 1.05401L56.7889 0Z" fill="url(#paint18_linear)"/>
</g>
<path d="M42.2935 21.484L42.2824 21.4954L42.271 21.5065V21.484H20.0004L20 23.9745L41.29 24.0038L63.2164 45.9726L63.2081 42.3986L42.2935 21.484Z" fill="#629AEE"/>
<path d="M63.208 42.3988L63.2163 45.9728L99.476 25.0305V21.4657L63.208 42.3988Z" fill="#1553B0"/>
<path d="M43.79 57.4692L50.9555 61.6092V53.3243L43.79 57.4692Z" fill="#83BBFF"/>
<path d="M50.9555 48.9026L43.79 44.7583V57.4694L50.9555 53.3246V48.9026Z" fill="#1553B0"/>
<defs>
<filter id="filter0_f" x="8.17285" y="30.8118" width="182.036" height="89.1883" filterUnits="userSpaceOnUse" color-interpolation-filters="sRGB">
<feFlood flood-opacity="0" result="BackgroundImageFix"/>
<feBlend mode="normal" in="SourceGraphic" in2="BackgroundImageFix" result="shape"/>
<feGaussianBlur stdDeviation="10" result="effect1_foregroundBlur"/>
</filter>
<filter id="filter1_bd" x="-77.6816" y="-64.2179" width="277.997" height="245.096" filterUnits="userSpaceOnUse" color-interpolation-filters="sRGB">
<feFlood flood-opacity="0" result="BackgroundImageFix"/>
<feGaussianBlur in="BackgroundImage" stdDeviation="50"/>
<feComposite in2="SourceAlpha" operator="in" result="effect1_backgroundBlur"/>
<feColorMatrix in="SourceAlpha" type="matrix" values="0 0 0 0 0 0 0 0 0 0 0 0 0 0 0 0 0 0 127 0"/>
<feOffset dy="20"/>
<feGaussianBlur stdDeviation="11"/>
<feColorMatrix type="matrix" values="0 0 0 0 0 0 0 0 0 0 0 0 0 0 0 0 0 0 0.05 0"/>
<feBlend mode="normal" in2="effect1_backgroundBlur" result="effect2_dropShadow"/>
<feBlend mode="normal" in="SourceGraphic" in2="effect2_dropShadow" result="shape"/>
</filter>
<filter id="filter2_bd" x="-77.6816" y="-64.2179" width="277.997" height="245.096" filterUnits="userSpaceOnUse" color-interpolation-filters="sRGB">
<feFlood flood-opacity="0" result="BackgroundImageFix"/>
<feGaussianBlur in="BackgroundImage" stdDeviation="50"/>
<feComposite in2="SourceAlpha" operator="in" result="effect1_backgroundBlur"/>
<feColorMatrix in="SourceAlpha" type="matrix" values="0 0 0 0 0 0 0 0 0 0 0 0 0 0 0 0 0 0 127 0"/>
<feOffset dy="20"/>
<feGaussianBlur stdDeviation="11"/>
<feColorMatrix type="matrix" values="0 0 0 0 0 0 0 0 0 0 0 0 0 0 0 0 0 0 0.05 0"/>
<feBlend mode="normal" in2="effect1_backgroundBlur" result="effect2_dropShadow"/>
<feBlend mode="normal" in="SourceGraphic" in2="effect2_dropShadow" result="shape"/>
</filter>
<filter id="filter3_bd" x="-75.2422" y="-66.6923" width="272.751" height="241.994" filterUnits="userSpaceOnUse" color-interpolation-filters="sRGB">
<feFlood flood-opacity="0" result="BackgroundImageFix"/>
<feGaussianBlur in="BackgroundImage" stdDeviation="50"/>
<feComposite in2="SourceAlpha" operator="in" result="effect1_backgroundBlur"/>
<feColorMatrix in="SourceAlpha" type="matrix" values="0 0 0 0 0 0 0 0 0 0 0 0 0 0 0 0 0 0 127 0"/>
<feOffset dy="20"/>
<feGaussianBlur stdDeviation="11"/>
<feColorMatrix type="matrix" values="0 0 0 0 0 0 0 0 0 0 0 0 0 0 0 0 0 0 0.05 0"/>
<feBlend mode="normal" in2="effect1_backgroundBlur" result="effect2_dropShadow"/>
<feBlend mode="normal" in="SourceGraphic" in2="effect2_dropShadow" result="shape"/>
</filter>
<filter id="filter4_bd" x="-75.2422" y="-66.6923" width="272.751" height="241.994" filterUnits="userSpaceOnUse" color-interpolation-filters="sRGB">
<feFlood flood-opacity="0" result="BackgroundImageFix"/>
<feGaussianBlur in="BackgroundImage" stdDeviation="50"/>
<feComposite in2="SourceAlpha" operator="in" result="effect1_backgroundBlur"/>
<feColorMatrix in="SourceAlpha" type="matrix" values="0 0 0 0 0 0 0 0 0 0 0 0 0 0 0 0 0 0 127 0"/>
<feOffset dy="20"/>
<feGaussianBlur stdDeviation="11"/>
<feColorMatrix type="matrix" values="0 0 0 0 0 0 0 0 0 0 0 0 0 0 0 0 0 0 0.05 0"/>
<feBlend mode="normal" in2="effect1_backgroundBlur" result="effect2_dropShadow"/>
<feBlend mode="normal" in="SourceGraphic" in2="effect2_dropShadow" result="shape"/>
</filter>
<filter id="filter5_b" x="-103.484" y="-107.207" width="268.445" height="296.022" filterUnits="userSpaceOnUse" color-interpolation-filters="sRGB">
<feFlood flood-opacity="0" result="BackgroundImageFix"/>
<feGaussianBlur in="BackgroundImage" stdDeviation="65.8286"/>
<feComposite in2="SourceAlpha" operator="in" result="effect1_backgroundBlur"/>
<feBlend mode="normal" in="SourceGraphic" in2="effect1_backgroundBlur" result="shape"/>
</filter>
<filter id="filter6_b" x="-103.484" y="-107.207" width="268.445" height="296.022" filterUnits="userSpaceOnUse" color-interpolation-filters="sRGB">
<feFlood flood-opacity="0" result="BackgroundImageFix"/>
<feGaussianBlur in="BackgroundImage" stdDeviation="65.8286"/>
<feComposite in2="SourceAlpha" operator="in" result="effect1_backgroundBlur"/>
<feBlend mode="normal" in="SourceGraphic" in2="effect1_backgroundBlur" result="shape"/>
</filter>
<filter id="filter7_b" x="-98.3554" y="-107.099" width="268.339" height="295.914" filterUnits="userSpaceOnUse" color-interpolation-filters="sRGB">
<feFlood flood-opacity="0" result="BackgroundImageFix"/>
<feGaussianBlur in="BackgroundImage" stdDeviation="65.8286"/>
<feComposite in2="SourceAlpha" operator="in" result="effect1_backgroundBlur"/>
<feBlend mode="normal" in="SourceGraphic" in2="effect1_backgroundBlur" result="shape"/>
</filter>
<filter id="filter8_b" x="-98.3554" y="-107.099" width="268.339" height="295.914" filterUnits="userSpaceOnUse" color-interpolation-filters="sRGB">
<feFlood flood-opacity="0" result="BackgroundImageFix"/>
<feGaussianBlur in="BackgroundImage" stdDeviation="65.8286"/>
<feComposite in2="SourceAlpha" operator="in" result="effect1_backgroundBlur"/>
<feBlend mode="normal" in="SourceGraphic" in2="effect1_backgroundBlur" result="shape"/>
</filter>
<filter id="filter9_b" x="-75.1513" y="-91.4048" width="268.026" height="296.074" filterUnits="userSpaceOnUse" color-interpolation-filters="sRGB">
<feFlood flood-opacity="0" result="BackgroundImageFix"/>
<feGaussianBlur in="BackgroundImage" stdDeviation="65.8286"/>
<feComposite in2="SourceAlpha" operator="in" result="effect1_backgroundBlur"/>
<feBlend mode="normal" in="SourceGraphic" in2="effect1_backgroundBlur" result="shape"/>
</filter>
<filter id="filter10_b" x="-75.1513" y="-91.4048" width="268.026" height="296.074" filterUnits="userSpaceOnUse" color-interpolation-filters="sRGB">
<feFlood flood-opacity="0" result="BackgroundImageFix"/>
<feGaussianBlur in="BackgroundImage" stdDeviation="65.8286"/>
<feComposite in2="SourceAlpha" operator="in" result="effect1_backgroundBlur"/>
<feBlend mode="normal" in="SourceGraphic" in2="effect1_backgroundBlur" result="shape"/>
</filter>
<filter id="filter11_b" x="-70.4433" y="-91.5555" width="268.278" height="296.225" filterUnits="userSpaceOnUse" color-interpolation-filters="sRGB">
<feFlood flood-opacity="0" result="BackgroundImageFix"/>
<feGaussianBlur in="BackgroundImage" stdDeviation="65.8286"/>
<feComposite in2="SourceAlpha" operator="in" result="effect1_backgroundBlur"/>
<feBlend mode="normal" in="SourceGraphic" in2="effect1_backgroundBlur" result="shape"/>
</filter>
<filter id="filter12_b" x="-70.4433" y="-91.5555" width="268.278" height="296.225" filterUnits="userSpaceOnUse" color-interpolation-filters="sRGB">
<feFlood flood-opacity="0" result="BackgroundImageFix"/>
<feGaussianBlur in="BackgroundImage" stdDeviation="65.8286"/>
<feComposite in2="SourceAlpha" operator="in" result="effect1_backgroundBlur"/>
<feBlend mode="normal" in="SourceGraphic" in2="effect1_backgroundBlur" result="shape"/>
</filter>
<filter id="filter13_b" x="-60.1474" y="-99.9946" width="267.922" height="296.054" filterUnits="userSpaceOnUse" color-interpolation-filters="sRGB">
<feFlood flood-opacity="0" result="BackgroundImageFix"/>
<feGaussianBlur in="BackgroundImage" stdDeviation="65.8286"/>
<feComposite in2="SourceAlpha" operator="in" result="effect1_backgroundBlur"/>
<feBlend mode="normal" in="SourceGraphic" in2="effect1_backgroundBlur" result="shape"/>
</filter>
<filter id="filter14_b" x="-60.1474" y="-99.9946" width="267.922" height="296.054" filterUnits="userSpaceOnUse" color-interpolation-filters="sRGB">
<feFlood flood-opacity="0" result="BackgroundImageFix"/>
<feGaussianBlur in="BackgroundImage" stdDeviation="65.8286"/>
<feComposite in2="SourceAlpha" operator="in" result="effect1_backgroundBlur"/>
<feBlend mode="normal" in="SourceGraphic" in2="effect1_backgroundBlur" result="shape"/>
</filter>
<filter id="filter15_b" x="-55.5419" y="-100.166" width="268.278" height="296.225" filterUnits="userSpaceOnUse" color-interpolation-filters="sRGB">
<feFlood flood-opacity="0" result="BackgroundImageFix"/>
<feGaussianBlur in="BackgroundImage" stdDeviation="65.8286"/>
<feComposite in2="SourceAlpha" operator="in" result="effect1_backgroundBlur"/>
<feBlend mode="normal" in="SourceGraphic" in2="effect1_backgroundBlur" result="shape"/>
</filter>
<filter id="filter16_b" x="-55.5419" y="-100.166" width="268.278" height="296.225" filterUnits="userSpaceOnUse" color-interpolation-filters="sRGB">
<feFlood flood-opacity="0" result="BackgroundImageFix"/>
<feGaussianBlur in="BackgroundImage" stdDeviation="65.8286"/>
<feComposite in2="SourceAlpha" operator="in" result="effect1_backgroundBlur"/>
<feBlend mode="normal" in="SourceGraphic" in2="effect1_backgroundBlur" result="shape"/>
</filter>
<filter id="filter17_b" x="-47.6113" y="-107.237" width="267.923" height="296.054" filterUnits="userSpaceOnUse" color-interpolation-filters="sRGB">
<feFlood flood-opacity="0" result="BackgroundImageFix"/>
<feGaussianBlur in="BackgroundImage" stdDeviation="65.8286"/>
<feComposite in2="SourceAlpha" operator="in" result="effect1_backgroundBlur"/>
<feBlend mode="normal" in="SourceGraphic" in2="effect1_backgroundBlur" result="shape"/>
</filter>
<filter id="filter18_b" x="-47.6113" y="-107.237" width="267.923" height="296.054" filterUnits="userSpaceOnUse" color-interpolation-filters="sRGB">
<feFlood flood-opacity="0" result="BackgroundImageFix"/>
<feGaussianBlur in="BackgroundImage" stdDeviation="65.8286"/>
<feComposite in2="SourceAlpha" operator="in" result="effect1_backgroundBlur"/>
<feBlend mode="normal" in="SourceGraphic" in2="effect1_backgroundBlur" result="shape"/>
</filter>
<filter id="filter19_b" x="-43.0038" y="-107.408" width="268.278" height="296.225" filterUnits="userSpaceOnUse" color-interpolation-filters="sRGB">
<feFlood flood-opacity="0" result="BackgroundImageFix"/>
<feGaussianBlur in="BackgroundImage" stdDeviation="65.8286"/>
<feComposite in2="SourceAlpha" operator="in" result="effect1_backgroundBlur"/>
<feBlend mode="normal" in="SourceGraphic" in2="effect1_backgroundBlur" result="shape"/>
</filter>
<filter id="filter20_b" x="-43.0038" y="-107.408" width="268.278" height="296.225" filterUnits="userSpaceOnUse" color-interpolation-filters="sRGB">
<feFlood flood-opacity="0" result="BackgroundImageFix"/>
<feGaussianBlur in="BackgroundImage" stdDeviation="65.8286"/>
<feComposite in2="SourceAlpha" operator="in" result="effect1_backgroundBlur"/>
<feBlend mode="normal" in="SourceGraphic" in2="effect1_backgroundBlur" result="shape"/>
</filter>
<filter id="filter21_b" x="38.2715" y="-2.94617" width="65.2051" height="49.3446" filterUnits="userSpaceOnUse" color-interpolation-filters="sRGB">
<feFlood flood-opacity="0" result="BackgroundImageFix"/>
<feGaussianBlur in="BackgroundImage" stdDeviation="2"/>
<feComposite in2="SourceAlpha" operator="in" result="effect1_backgroundBlur"/>
<feBlend mode="normal" in="SourceGraphic" in2="effect1_backgroundBlur" result="shape"/>
</filter>
<filter id="filter22_b" x="38.2715" y="-2.94617" width="65.2051" height="49.3446" filterUnits="userSpaceOnUse" color-interpolation-filters="sRGB">
<feFlood flood-opacity="0" result="BackgroundImageFix"/>
<feGaussianBlur in="BackgroundImage" stdDeviation="2"/>
<feComposite in2="SourceAlpha" operator="in" result="effect1_backgroundBlur"/>
<feBlend mode="normal" in="SourceGraphic" in2="effect1_backgroundBlur" result="shape"/>
</filter>
<filter id="filter23_b" x="16.001" y="-4" width="65.5189" height="29.484" filterUnits="userSpaceOnUse" color-interpolation-filters="sRGB">
<feFlood flood-opacity="0" result="BackgroundImageFix"/>
<feGaussianBlur in="BackgroundImage" stdDeviation="2"/>
<feComposite in2="SourceAlpha" operator="in" result="effect1_backgroundBlur"/>
<feBlend mode="normal" in="SourceGraphic" in2="effect1_backgroundBlur" result="shape"/>
</filter>
<filter id="filter24_b" x="16.001" y="-4" width="65.5189" height="29.484" filterUnits="userSpaceOnUse" color-interpolation-filters="sRGB">
<feFlood flood-opacity="0" result="BackgroundImageFix"/>
<feGaussianBlur in="BackgroundImage" stdDeviation="2"/>
<feComposite in2="SourceAlpha" operator="in" result="effect1_backgroundBlur"/>
<feBlend mode="normal" in="SourceGraphic" in2="effect1_backgroundBlur" result="shape"/>
</filter>
<linearGradient id="paint0_linear" x1="82.4218" y1="62.6166" x2="144.247" y2="93.5354" gradientUnits="userSpaceOnUse">
<stop stop-color="#005DFF"/>
<stop offset="1" stop-color="white" stop-opacity="0"/>
</linearGradient>
<radialGradient id="paint1_radial" cx="0" cy="0" r="1" gradientUnits="userSpaceOnUse" gradientTransform="translate(27.2162 38.5036) rotate(27.8847) scale(67.9459 92.9428)">
<stop stop-color="white" stop-opacity="0.65"/>
<stop offset="0.0001" stop-color="white"/>
<stop offset="1" stop-color="#2577FF"/>
</radialGradient>
<radialGradient id="paint2_radial" cx="0" cy="0" r="1" gradientUnits="userSpaceOnUse" gradientTransform="translate(94.0335 74.7014) rotate(-149.476) scale(45.3851 64.6023)">
<stop stop-color="white"/>
<stop offset="1" stop-color="white" stop-opacity="0.4"/>
</radialGradient>
<linearGradient id="paint3_linear" x1="35.5025" y1="80.7338" x2="26.3264" y2="64.3148" gradientUnits="userSpaceOnUse">
<stop stop-color="#0E71E8"/>
<stop offset="1" stop-color="#0E72EA" stop-opacity="0.79"/>
</linearGradient>
<linearGradient id="paint4_linear" x1="74.5017" y1="80.7276" x2="65.3101" y2="64.3021" gradientUnits="userSpaceOnUse">
<stop stop-color="#0E71E8"/>
<stop offset="1" stop-color="#0E72EA" stop-opacity="0"/>
</linearGradient>
<radialGradient id="paint5_radial" cx="0" cy="0" r="1" gradientUnits="userSpaceOnUse" gradientTransform="translate(29.3262 35.8421) rotate(27.8464) scale(63.353 86.5812)">
<stop stop-color="white" stop-opacity="0.65"/>
<stop offset="0.0001" stop-color="white"/>
<stop offset="1" stop-color="#2577FF"/>
</radialGradient>
<radialGradient id="paint6_radial" cx="0" cy="0" r="1" gradientUnits="userSpaceOnUse" gradientTransform="translate(91.6489 69.5503) rotate(-149.516) scale(42.3145 60.1843)">
<stop stop-color="white"/>
<stop offset="1" stop-color="white" stop-opacity="0.4"/>
</radialGradient>
<radialGradient id="paint7_radial" cx="0" cy="0" r="1" gradientUnits="userSpaceOnUse" gradientTransform="translate(28.5095 30.4412) rotate(81.8926) scale(29.2722 13.5237)">
<stop stop-color="#277DFE" stop-opacity="0.65"/>
<stop offset="0.0001" stop-color="white"/>
<stop offset="1" stop-color="#1F73FB"/>
</radialGradient>
<radialGradient id="paint8_radial" cx="0" cy="0" r="1" gradientUnits="userSpaceOnUse" gradientTransform="translate(33.6315 30.5293) rotate(82.0313) scale(29.1657 13.2499)">
<stop stop-color="#277DFE" stop-opacity="0.65"/>
<stop offset="0.0001" stop-color="white"/>
<stop offset="1" stop-color="#1F73FB"/>
</radialGradient>
<radialGradient id="paint9_radial" cx="0" cy="0" r="1" gradientUnits="userSpaceOnUse" gradientTransform="translate(56.815 46.2528) rotate(82.5584) scale(29.2723 12.4393)">
<stop stop-color="#277DFE" stop-opacity="0.65"/>
<stop offset="0.0001" stop-color="white"/>
<stop offset="1" stop-color="#1F73FB"/>
</radialGradient>
<radialGradient id="paint10_radial" cx="0" cy="0" r="1" gradientUnits="userSpaceOnUse" gradientTransform="translate(61.5396 46.1297) rotate(82.1995) scale(29.4316 13.0956)">
<stop stop-color="#277DFE" stop-opacity="0.65"/>
<stop offset="0.0001" stop-color="white"/>
<stop offset="1" stop-color="#1F73FB"/>
</radialGradient>
<radialGradient id="paint11_radial" cx="0" cy="0" r="1" gradientUnits="userSpaceOnUse" gradientTransform="translate(71.8122 37.6593) rotate(82.7152) scale(29.2438 12.1711)">
<stop stop-color="#277DFE" stop-opacity="0.65"/>
<stop offset="0.0001" stop-color="white"/>
<stop offset="1" stop-color="#1F73FB"/>
</radialGradient>
<radialGradient id="paint12_radial" cx="0" cy="0" r="1" gradientUnits="userSpaceOnUse" gradientTransform="translate(76.441 37.5194) rotate(82.2001) scale(29.4319 13.0947)">
<stop stop-color="#277DFE" stop-opacity="0.65"/>
<stop offset="0.0001" stop-color="white"/>
<stop offset="1" stop-color="#1F73FB"/>
</radialGradient>
<radialGradient id="paint13_radial" cx="0" cy="0" r="1" gradientUnits="userSpaceOnUse" gradientTransform="translate(84.3483 30.4173) rotate(82.7149) scale(29.2438 12.1716)">
<stop stop-color="#277DFE" stop-opacity="0.65"/>
<stop offset="0.0001" stop-color="white"/>
<stop offset="1" stop-color="#1F73FB"/>
</radialGradient>
<radialGradient id="paint14_radial" cx="0" cy="0" r="1" gradientUnits="userSpaceOnUse" gradientTransform="translate(88.979 30.277) rotate(82.2007) scale(29.432 13.0938)">
<stop stop-color="#277DFE" stop-opacity="0.65"/>
<stop offset="0.0001" stop-color="white"/>
<stop offset="1" stop-color="#1F73FB"/>
</radialGradient>
<linearGradient id="paint15_linear" x1="71.1913" y1="-28.2215" x2="77.2723" y2="73.4233" gradientUnits="userSpaceOnUse">
<stop stop-color="#00DECA"/>
<stop offset="0.583107" stop-color="#1566F6"/>
<stop offset="1" stop-color="#277DFE"/>
</linearGradient>
<linearGradient id="paint16_linear" x1="83.6268" y1="32.3856" x2="76.8443" y2="20.8864" gradientUnits="userSpaceOnUse">
<stop stop-color="#519EFB"/>
<stop offset="1" stop-color="#1164F4" stop-opacity="0"/>
</linearGradient>
<linearGradient id="paint17_linear" x1="49.0795" y1="-15.2124" x2="49.6084" y2="42.8022" gradientUnits="userSpaceOnUse">
<stop stop-color="#00DECA"/>
<stop offset="0.583107" stop-color="#1768F7"/>
<stop offset="1" stop-color="#277DFE"/>
</linearGradient>
<linearGradient id="paint18_linear" x1="61.5831" y1="16.281" x2="59.3368" y2="8.91162" gradientUnits="userSpaceOnUse">
<stop stop-color="#519EFB"/>
<stop offset="1" stop-color="#1164F4" stop-opacity="0"/>
</linearGradient>
</defs>
</svg>
