<svg width="49" height="48" viewBox="0 0 49 48" fill="none" xmlns="http://www.w3.org/2000/svg">
<path d="M8.34913 18.2317C6.71485 18.2667 5.29592 19.4699 5.30566 21.3911C5.3113 22.5066 6.17285 23.3884 7.0158 24.3187C8.31701 25.7544 8.69888 25.5011 8.63899 26.9563C8.61698 27.4889 7.73336 28.3209 6.78392 28.3186C5.37726 28.3161 4.39405 26.9657 4.78392 25.3331H4.37813L3.30566 29.2172H3.71146C3.83005 28.8184 4.63167 28.8542 4.95784 28.8404C5.57221 28.8144 5.92283 29.3089 7.18972 29.3042C8.9231 29.2977 10.6265 28.164 10.61 26.0578C10.6015 24.9649 9.93084 24.2223 9.04479 23.3621C7.68176 22.0394 7.15044 21.407 7.39261 20.3476C7.59296 19.4711 8.21919 19.2254 8.84189 19.2172C10.0084 19.2023 10.5104 20.4321 10.668 21.71H11.0448L12.0013 18.4636H11.5955C11.5065 18.8471 11.0375 18.8664 10.668 18.8404C10.5015 18.8285 10.4075 18.862 10.0013 18.7245C9.56825 18.5776 8.88542 18.2204 8.34913 18.2317ZM12.4361 18.6665L12.3201 19.3042C12.9605 19.307 13.1916 19.2926 13.1897 20.4926V29.2172C13.1897 29.2172 13.3586 29.6001 13.5955 29.2172C13.8326 28.834 17.6825 22.4636 17.6825 22.4636V22.6665L17.6535 29.2172C17.6535 29.2172 17.8986 29.6001 18.1462 29.2172C18.3939 28.834 23.7114 20.0578 23.7114 20.0578C23.9539 19.6223 24.1381 19.3191 24.7549 19.3042L24.8998 18.6665H21.6245L21.5085 19.3042C22.2256 19.3056 22.703 19.1926 22.7259 19.623C22.7355 19.8035 22.7029 19.9484 22.581 20.1737L19.8853 24.5795L19.8274 24.4926V20.4926C19.8299 20.3127 19.8309 20.1354 19.8274 19.9998C19.8096 19.3206 19.9962 19.3056 20.523 19.3042L20.639 18.6665H16.9868L16.8709 19.3042C17.4208 19.3191 17.6612 19.4786 17.6535 19.9708V20.8694L15.3056 24.6665L15.2187 24.7244V20.4636C15.2188 20.3137 15.2201 20.0784 15.2187 19.9129C15.2164 19.6807 15.1657 19.3056 15.8274 19.3042L16.0013 18.6665H12.4361ZM25.3926 18.6665L25.2766 19.3042C25.576 19.2886 25.8816 19.4018 25.9143 19.739C25.9284 19.8858 25.8417 20.1013 25.7694 20.3766L23.7694 27.8259C23.6513 28.3207 23.0561 28.5857 22.2622 28.5795L22.1462 29.2172H26.4071L26.552 28.5795C25.7994 28.5643 25.8468 28.3559 25.8564 28.0868C25.8623 27.9184 25.9437 27.7638 26.0013 27.565L28.0303 20.0868C28.239 19.3873 28.7421 19.3197 29.5085 19.3042L29.6534 18.6665H25.3926ZM30.2332 18.6665L30.0882 19.3042C30.7231 19.3522 31.6242 19.3452 31.3926 20.0868C31.342 20.2489 31.3976 20.1745 31.3346 20.4346L29.3926 27.681C29.2415 28.3536 28.7709 28.5642 28.2042 28.5795L28.0303 29.2172H32.552L32.7259 28.5795C31.7369 28.577 31.337 28.4446 31.5375 27.681C31.5802 27.5183 31.6611 27.2302 31.7114 26.9853L32.6389 23.7969H32.8418C33.7258 23.7935 33.9753 23.9036 34.0013 24.3766C34.0176 24.6805 34.0094 24.927 34.0303 25.1013H34.523L35.2766 21.9998L34.8708 21.9418C34.4528 23.0102 33.5614 23.0253 33.2476 23.0143H32.8418L33.4795 20.4636C33.7568 19.5212 33.8468 19.5735 34.552 19.565C35.7804 19.5503 36.5096 19.7517 36.4071 21.4781H36.8129L37.5665 18.6665H30.2332ZM38.1462 18.6665L37.3636 21.4781H37.8273C38.0538 20.6927 38.0599 20.5607 38.523 20.1447C38.9986 19.729 39.5096 19.565 40.3201 19.565L38.2042 27.3042C38.0576 28.5682 37.3302 28.564 36.4071 28.5795L36.2621 29.2172H41.0447L41.1607 28.6375C40.5487 28.6942 40.1719 28.2919 40.2911 27.8259C40.3369 27.6466 40.4211 27.3804 40.494 27.0723L42.465 19.565C43.9663 19.5641 44.2672 20.1669 44.1752 21.4781H44.6099L45.3636 18.6665H38.1462ZM20.0303 28.0288C19.7791 28.0279 19.5149 28.3415 19.4506 28.7244C19.386 29.1074 19.5472 29.4192 19.7984 29.4201C20.0493 29.4212 20.3136 29.1074 20.3781 28.7244C20.4426 28.3418 20.2812 28.0299 20.0303 28.0288ZM27.4506 28.0288C27.1995 28.0279 26.9352 28.3415 26.8708 28.7244C26.8062 29.1074 26.9676 29.4192 27.2187 29.4201C27.4697 29.4212 27.734 29.1074 27.7984 28.7244C27.863 28.3418 27.7016 28.0299 27.4506 28.0288ZM33.8274 28.0288C33.5763 28.0279 33.312 28.3415 33.2476 28.7244C33.183 29.1074 33.3154 29.4192 33.5665 29.4201C33.8175 29.4212 34.0818 29.1074 34.1462 28.7244C34.2108 28.3418 34.0784 28.0299 33.8274 28.0288ZM10.9868 28.0578C10.7359 28.0566 10.5005 28.3705 10.4361 28.7534C10.3716 29.1364 10.504 29.448 10.7549 29.4491C11.006 29.4502 11.2703 29.1364 11.3346 28.7534C11.3992 28.3705 11.2379 28.0589 10.9868 28.0578ZM42.3491 28.0578C42.098 28.0569 41.8337 28.3705 41.7694 28.7534C41.7047 29.1364 41.8661 29.4482 42.1172 29.4491C42.3682 29.4502 42.6325 29.1364 42.6969 28.7534C42.7616 28.3708 42.6001 28.0589 42.3491 28.0578Z" fill="#939191"/>
<path fill-rule="evenodd" clip-rule="evenodd" d="M9.66324 18.5179C9.79697 18.5721 9.91884 18.6211 10.0248 18.657C10.2246 18.7246 10.3443 18.7491 10.4326 18.7587C10.4769 18.7635 10.5144 18.7647 10.5522 18.7653C10.5581 18.7654 10.564 18.7655 10.57 18.7656C10.6021 18.7661 10.6361 18.7666 10.6733 18.7693M9.66324 18.5179L9.64513 18.5106L9.66324 18.5179ZM9.64513 18.5106C9.51721 18.4588 9.37961 18.4031 9.2389 18.3519L9.64513 18.5106ZM9.2389 18.3519C8.94574 18.2451 8.63025 18.1545 8.34785 18.1604L9.2389 18.3519ZM9.18944 18.4877C8.89886 18.382 8.60478 18.2997 8.35089 18.305C6.75274 18.3392 5.36867 19.5133 5.37819 21.3918C5.38091 21.93 5.58989 22.4154 5.9069 22.8849C6.18959 23.3037 6.55439 23.7046 6.92942 24.1168C6.97604 24.1681 7.02281 24.2195 7.06961 24.2711C7.39288 24.6278 7.65899 24.8795 7.87604 25.0797C7.90674 25.108 7.93658 25.1354 7.96554 25.162C8.13988 25.3219 8.28265 25.453 8.39338 25.5846C8.52505 25.7412 8.61362 25.9009 8.66424 26.1166C8.71422 26.3297 8.72651 26.5945 8.71146 26.9603C8.70522 27.1113 8.6388 27.276 8.53396 27.435C8.4285 27.595 8.28092 27.7543 8.10468 27.8955C7.75296 28.1773 7.27917 28.3931 6.78398 28.3919C5.34702 28.3893 4.35157 27.035 4.69384 25.4064H4.4334L3.40086 29.1459H3.66172C3.70549 29.0497 3.78381 28.9799 3.87595 28.9296C3.983 28.8711 4.11349 28.8361 4.24517 28.8141C4.44691 28.7806 4.66625 28.776 4.82791 28.7726C4.87605 28.7716 4.91908 28.7707 4.955 28.7692C5.23048 28.7575 5.45849 28.8455 5.71241 28.9435C5.75875 28.9613 5.80596 28.9796 5.85447 28.9976C6.17178 29.1153 6.56733 29.2352 7.18968 29.2329C8.04147 29.2297 8.88349 28.9494 9.50933 28.4144C10.1337 27.8806 10.546 27.0909 10.5379 26.0593C10.5297 25 9.88237 24.2768 8.99466 23.415C8.31452 22.755 7.83362 22.2597 7.55496 21.7942C7.27261 21.3227 7.19706 20.8807 7.32237 20.3325C7.42616 19.8784 7.64242 19.581 7.91915 19.3976C8.19406 19.2153 8.5215 19.1501 8.84117 19.1459C9.45573 19.1381 9.89397 19.4604 10.1948 19.9415C10.484 20.4039 10.6495 21.0166 10.7318 21.6387H10.991L11.9049 18.5369H11.6501C11.5849 18.7262 11.4308 18.8268 11.2569 18.8761C11.0696 18.9292 10.8493 18.9266 10.6631 18.9135L10.6631 18.9135C10.6303 18.9112 10.6007 18.9107 10.5686 18.9102C10.5624 18.9101 10.5561 18.91 10.5497 18.9099C10.5103 18.9092 10.4678 18.9079 10.417 18.9024C10.3151 18.8914 10.1847 18.8638 9.97836 18.7939C9.86776 18.7564 9.74184 18.7057 9.60898 18.652L9.59152 18.6449C9.4631 18.5929 9.32766 18.538 9.18944 18.4877ZM8.34785 18.1604C6.67747 18.1962 5.22364 19.4286 5.2336 21.3925L8.34785 18.1604ZM11.5383 18.3923L11.5253 18.4483L11.5383 18.3923ZM11.5253 18.4483C11.4887 18.6059 11.3763 18.6919 11.2175 18.737L11.5253 18.4483ZM11.2175 18.737C11.0557 18.7829 10.8566 18.7822 10.6733 18.7693L11.2175 18.737ZM12.376 18.5952H16.0962L15.8829 19.3774L15.8278 19.3775C15.5092 19.3781 15.3885 19.4681 15.3372 19.5587C15.3095 19.6074 15.2969 19.6644 15.2921 19.7266C15.2884 19.7741 15.2894 19.82 15.2904 19.8661C15.2907 19.8817 15.2911 19.8974 15.2912 19.9132V19.9133C15.2923 20.0356 15.2918 20.1961 15.2915 20.3318C15.2914 20.3802 15.2913 20.4254 15.2912 20.4647V24.5537L17.5814 20.8498V19.9713L17.5814 19.9707C17.5851 19.7355 17.5295 19.5992 17.4261 19.5158C17.3179 19.4283 17.1413 19.3848 16.8691 19.3774L16.7849 19.3752L16.9267 18.5952H20.7258L20.5836 19.3773L20.5235 19.3775C20.3907 19.3778 20.2852 19.3791 20.1994 19.3906C20.114 19.402 20.057 19.4226 20.0166 19.4551C19.9774 19.4867 19.9457 19.5362 19.925 19.6226C19.904 19.7104 19.8955 19.8314 19.8999 19.9989C19.9035 20.1359 19.9025 20.3142 19.8999 20.4941V24.4186L22.5185 20.1387C22.6348 19.9234 22.6627 19.7919 22.654 19.6279C22.649 19.5347 22.6207 19.482 22.5805 19.4481C22.5373 19.4116 22.4698 19.3877 22.3691 19.3755C22.269 19.3633 22.1463 19.3637 22.0001 19.3673C21.9636 19.3682 21.9256 19.3694 21.8864 19.3705C21.7706 19.374 21.6436 19.3777 21.5086 19.3775L21.4222 19.3773L21.5644 18.5952H24.9906L24.8132 19.3761L24.7569 19.3774C24.4616 19.3846 24.2785 19.46 24.1402 19.5791C23.9981 19.7014 23.8971 19.8743 23.7748 20.094L23.7542 20.1311H23.7524L23.5445 20.4741C23.3986 20.7148 23.1899 21.0592 22.9387 21.4735C22.4363 22.3023 21.7639 23.4113 21.0837 24.5323C19.724 26.7733 18.3317 29.0647 18.2072 29.2574C18.1398 29.3616 18.0659 29.4241 17.9864 29.4488C17.9056 29.4739 17.8318 29.456 17.7739 29.426C17.717 29.3964 17.6719 29.3536 17.6421 29.3203C17.6268 29.3034 17.6149 29.2881 17.6066 29.2769C17.6024 29.2713 17.5992 29.2666 17.5969 29.2632C17.596 29.2621 17.5953 29.261 17.5948 29.2602L17.5941 29.2592L17.5933 29.2579L17.5929 29.2573L17.5928 29.2572C17.5928 29.2572 17.5928 29.2572 17.6537 29.2182L17.5928 29.2572L17.5813 29.2392L17.6101 22.7244L17.5787 22.7765C17.4729 22.9514 17.3216 23.2017 17.1393 23.5034C16.7747 24.1066 16.286 24.9148 15.79 25.7351C14.7981 27.3753 13.776 29.0642 13.6572 29.2562C13.5943 29.3579 13.5284 29.4216 13.4572 29.4477C13.3812 29.4754 13.3139 29.4553 13.2639 29.422C13.2162 29.3902 13.1813 29.345 13.1595 29.3116C13.1482 29.2943 13.1395 29.2787 13.1336 29.2674C13.1306 29.2617 13.1283 29.257 13.1267 29.2536C13.1258 29.2519 13.1252 29.2505 13.1247 29.2494L13.1241 29.2481L13.1239 29.2477L13.1239 29.2475L13.1238 29.2474C13.1238 29.2474 13.1238 29.2474 13.1899 29.2182L13.1238 29.2474L13.1176 29.2334V20.4935C13.1181 20.1949 13.104 19.9762 13.0738 19.8154C13.0436 19.6543 12.9986 19.559 12.9432 19.4999C12.8893 19.4423 12.8177 19.411 12.7153 19.3947C12.6149 19.3787 12.4935 19.3782 12.3408 19.3776L12.2338 19.3771L12.376 18.5952ZM13.2622 29.2014C13.2665 29.2094 13.2726 29.2204 13.2806 29.2325C13.2978 29.2589 13.3199 29.2856 13.3441 29.3016C13.3659 29.3162 13.3852 29.32 13.4076 29.3118C13.4346 29.302 13.4787 29.27 13.5343 29.1802C13.6525 28.989 14.674 27.3011 15.6663 25.6603C16.1623 24.84 16.6509 24.0318 17.0156 23.4286C17.1979 23.1269 17.3492 22.8766 17.4549 22.7017L17.6208 22.4273C17.6208 22.4273 17.6208 22.4272 17.6827 22.4646L17.6208 22.4272L17.755 22.2052V22.6675L17.755 22.6678L17.7261 29.1953C17.732 29.203 17.74 29.2129 17.7497 29.2238C17.7735 29.2504 17.8052 29.2793 17.8405 29.2976C17.8748 29.3154 17.9087 29.3215 17.9435 29.3107C17.9796 29.2995 18.0293 29.2662 18.0858 29.1789C18.2089 28.9883 19.5992 26.7001 20.9601 24.4573C21.6403 23.3363 22.3127 22.2273 22.8151 21.3986C23.0663 20.9842 23.275 20.6399 23.4209 20.3992L23.6492 20.0225C23.7691 19.8071 23.8813 19.6111 24.0459 19.4695C24.2044 19.333 24.4062 19.2509 24.6969 19.2351L24.8095 18.7398H21.685L21.5955 19.2325C21.6956 19.2315 21.7905 19.2287 21.8804 19.2261C21.9201 19.2249 21.9587 19.2237 21.9965 19.2228C22.1422 19.2191 22.2747 19.2184 22.3865 19.232C22.4976 19.2455 22.5986 19.2741 22.6738 19.3376C22.7519 19.4036 22.7919 19.4981 22.7984 19.6202C22.8088 19.8167 22.7716 19.9747 22.6448 20.2091L22.6439 20.2108L19.8882 24.7148L19.7553 24.5155V20.4931L19.7553 20.4926C19.7579 20.3128 19.7589 20.1367 19.7553 20.0027C19.7508 19.8307 19.759 19.695 19.7844 19.5889C19.8102 19.4815 19.8547 19.3998 19.9259 19.3425C19.9958 19.2862 20.083 19.2603 20.1802 19.2473C20.2619 19.2364 20.3568 19.2339 20.4629 19.2331L20.5526 18.7398H17.0474L16.9571 19.2364C17.1952 19.2503 17.3847 19.2965 17.517 19.4033C17.6693 19.5263 17.73 19.7156 17.726 19.9724V20.8909L15.3591 24.7189L15.1466 24.8605V20.4645C15.1467 20.4248 15.1468 20.3792 15.1469 20.3306C15.1473 20.1951 15.1477 20.036 15.1466 19.9145L15.2189 19.9139L15.1466 19.9146L15.1466 19.9145C15.1465 19.9021 15.1462 19.8886 15.1459 19.8744C15.1449 19.8269 15.1437 19.7708 15.148 19.7154C15.1537 19.642 15.1693 19.5616 15.2114 19.4873C15.2947 19.3405 15.4643 19.2446 15.7721 19.2339L15.7579 19.2862L15.8276 19.3052L15.8275 19.2329C15.8085 19.2329 15.7901 19.2333 15.7721 19.2339L15.9069 18.7398H12.4967L12.4069 19.2333C12.5301 19.234 12.6416 19.2365 12.738 19.2519C12.8589 19.2712 12.9651 19.3118 13.0487 19.401C13.1309 19.4887 13.1834 19.6149 13.216 19.7887C13.2486 19.9628 13.2627 20.1922 13.2622 20.4937V29.2014ZM25.3325 18.5952H29.7443L29.5667 19.3763L29.5102 19.3775C29.1254 19.3853 28.8218 19.4065 28.589 19.5064C28.3638 19.6031 28.1991 19.7761 28.1 20.1076C28.0999 20.1079 28.0999 20.1082 28.0998 20.1085L26.0711 27.5856L26.071 27.5862C26.0514 27.6535 26.0285 27.7182 26.0074 27.7774C25.997 27.8068 25.9871 27.8349 25.9782 27.8613C25.9506 27.9439 25.9314 28.0167 25.9288 28.0903C25.9283 28.1049 25.9277 28.1189 25.9272 28.1322C25.9249 28.1845 25.9231 28.228 25.9273 28.2687C25.9323 28.3166 25.9451 28.3516 25.9717 28.3803C25.9993 28.4102 26.0489 28.441 26.1426 28.4649C26.2362 28.4888 26.3682 28.5045 26.5537 28.5082L26.6424 28.51L26.465 29.2905H22.0598L22.2021 28.5078L22.263 28.5082C22.6527 28.5113 22.9882 28.4476 23.238 28.3265C23.4869 28.2059 23.6466 28.031 23.6993 27.8101L23.6996 27.8091L25.6997 20.3593L25.6997 20.3591C25.7181 20.2892 25.7373 20.2233 25.7554 20.162C25.758 20.1532 25.7606 20.1445 25.7631 20.1359C25.7784 20.0843 25.7925 20.0365 25.8047 19.9917C25.8337 19.8849 25.8483 19.8058 25.8426 19.7469C25.8286 19.6026 25.7581 19.5101 25.6594 19.4528C25.5574 19.3936 25.4214 19.3701 25.2806 19.3774L25.1894 19.3821L25.3325 18.5952ZM25.4532 18.7398L25.3637 19.232C25.4935 19.2362 25.6235 19.2647 25.732 19.3278C25.8691 19.4074 25.9678 19.5401 25.9865 19.733L25.9865 19.733C25.995 19.821 25.9732 19.9231 25.9443 20.0296C25.9316 20.0762 25.9169 20.1258 25.9017 20.1773C25.8992 20.1858 25.8966 20.1944 25.8941 20.203C25.876 20.2641 25.8573 20.3283 25.8396 20.396L25.8395 20.3964L23.84 27.8437C23.8399 27.844 23.8398 27.8444 23.8397 27.8447C23.7741 28.1181 23.5774 28.3227 23.301 28.4566C23.0391 28.5835 22.7021 28.6492 22.3227 28.6528L22.2331 29.1459H26.3496L26.4623 28.65C26.3145 28.6435 26.1981 28.6283 26.1068 28.605C25.9979 28.5772 25.9189 28.5362 25.8655 28.4784C25.811 28.4195 25.7905 28.351 25.7835 28.2836C25.7781 28.2313 25.7806 28.1743 25.7829 28.121C25.7834 28.1088 25.7839 28.0969 25.7843 28.0852C25.7877 27.9905 25.8122 27.9018 25.8411 27.8154C25.8516 27.784 25.8624 27.7535 25.8733 27.723C25.8934 27.6666 25.9135 27.6099 25.9319 27.5464C25.932 27.5463 25.932 27.5461 25.9321 27.5459L27.961 20.068L27.9612 20.0671C28.0709 19.6997 28.262 19.4894 28.532 19.3736C28.7814 19.2665 29.0929 19.2429 29.4508 19.2342L29.5631 18.7398H25.4532ZM30.1757 18.5952H37.6609L36.8686 21.5514H36.3306L36.3351 21.4748C36.386 20.6176 36.2281 20.167 35.9331 19.9256C35.6329 19.68 35.1697 19.631 34.5531 19.6383C34.5142 19.6388 34.4776 19.6391 34.4429 19.6394C34.3174 19.6404 34.2177 19.6411 34.1332 19.6494C34.0274 19.6599 33.956 19.6814 33.8981 19.7236C33.8397 19.7661 33.7869 19.8355 33.7309 19.9579C33.6749 20.0803 33.6186 20.2489 33.5495 20.4836L32.9347 22.943H33.2491L33.2504 22.9431C33.4037 22.9484 33.6922 22.947 33.9917 22.8175C34.2887 22.689 34.6019 22.4324 34.8037 21.9165L34.8246 21.8632L35.3659 21.9405L34.5801 25.1746H33.9663L33.9587 25.1109C33.9478 25.0197 33.9446 24.911 33.942 24.7901C33.9417 24.7739 33.9413 24.7574 33.941 24.7407C33.9388 24.6317 33.9363 24.512 33.9293 24.3816C33.9231 24.2687 33.9038 24.1848 33.8699 24.121C33.8368 24.0589 33.7875 24.0112 33.7117 23.9741C33.553 23.8964 33.2866 23.8685 32.8424 23.8702L32.8421 23.8702H32.6934L31.7819 27.0037C31.7411 27.2018 31.6806 27.4275 31.6366 27.5917C31.6258 27.6321 31.616 27.6687 31.6077 27.7003C31.5588 27.8864 31.5491 28.0254 31.5706 28.1295C31.5913 28.2301 31.6419 28.3019 31.7252 28.356C31.8117 28.4121 31.936 28.4508 32.1052 28.4749C32.2736 28.4988 32.4801 28.5076 32.7263 28.5082L32.8207 28.5085L32.6075 29.2905H27.9358L28.1488 28.5097L28.2025 28.5083C28.4785 28.5008 28.7225 28.4459 28.9143 28.3177C29.1041 28.1908 29.2502 27.9871 29.3223 27.6661L29.3226 27.6647L31.2646 20.4186C31.2646 20.4183 31.2647 20.418 31.2648 20.4177C31.2951 20.2923 31.296 20.2516 31.2962 20.2243C31.2962 20.2226 31.2962 20.2209 31.2962 20.2191C31.2963 20.2043 31.2964 20.1865 31.2997 20.1636C31.3034 20.1384 31.3106 20.1086 31.3238 20.0663C31.3777 19.8936 31.362 19.7776 31.3138 19.6962C31.2643 19.6127 31.1719 19.5504 31.0416 19.5046C30.9118 19.459 30.7536 19.4328 30.5852 19.4153C30.4715 19.4035 30.3566 19.3959 30.2444 19.3885C30.1898 19.3848 30.1359 19.3813 30.083 19.3773L29.9994 19.3709L30.1757 18.5952ZM30.2911 18.7398L30.1776 19.2391C30.2015 19.2407 30.2258 19.2423 30.2503 19.2439C30.3641 19.2515 30.4839 19.2594 30.6001 19.2715C30.772 19.2894 30.9436 19.3169 31.0895 19.3682C31.2349 19.4193 31.364 19.4973 31.4382 19.6226C31.5136 19.7499 31.5237 19.9113 31.4618 20.1093C31.4497 20.1481 31.445 20.1697 31.4428 20.1843C31.441 20.197 31.4409 20.2053 31.4408 20.2202L31.4408 20.2256C31.4404 20.2666 31.4376 20.3186 31.4051 20.4526L31.4049 20.4535L29.463 27.6992C29.4631 27.6988 29.4632 27.6983 29.4634 27.6978L29.3928 27.682L29.4626 27.7007L29.463 27.6992C29.3839 28.0501 29.2194 28.2876 28.9947 28.4379C28.7855 28.5777 28.5309 28.6374 28.2602 28.6507L28.2742 28.5995L28.2044 28.5805L28.2064 28.6528C28.2244 28.6523 28.2423 28.6516 28.2602 28.6507L28.1252 29.1459H28.0305V29.2182L28.1002 29.2372L28.1252 29.1459H32.497L32.4825 29.1992L32.5522 29.2182V29.1459H32.497L32.6317 28.6521C32.6625 28.6525 32.694 28.6527 32.726 28.6528L32.7261 28.5805L32.6564 28.5615L32.6317 28.6521C32.4231 28.6496 32.2403 28.6401 32.0848 28.618C31.9071 28.5927 31.7586 28.5501 31.6465 28.4773C31.5313 28.4025 31.4577 28.2979 31.429 28.1588C31.401 28.0233 31.4164 27.8593 31.4678 27.6636C31.4764 27.6308 31.4865 27.5932 31.4975 27.5521C31.5417 27.3871 31.601 27.1658 31.6408 26.9718L31.6414 26.9689L32.5849 23.7256L32.8418 23.7256L32.8421 23.7979V23.7256H32.8419C33.2815 23.724 33.5818 23.7494 33.7753 23.8442C33.8756 23.8933 33.9488 23.9615 33.9975 24.0531C34.0452 24.1428 34.0669 24.2501 34.0737 24.3737L34.0737 24.3737C34.0809 24.5068 34.0833 24.629 34.0856 24.7379C34.0859 24.7546 34.0862 24.771 34.0866 24.787C34.0885 24.8794 34.0908 24.9602 34.0961 25.03H34.0305V25.1023L34.1023 25.0937C34.0999 25.0735 34.0978 25.0523 34.0961 25.03H34.4664L34.453 25.0852L34.5232 25.1023V25.03H34.4664L35.1878 22.0611L35.2666 22.0724L35.2769 22.0008L35.2066 21.9838L35.1878 22.0611L34.9168 22.0224C34.9242 22.005 34.9313 21.9872 34.9384 21.9692L34.8711 21.9429L34.8608 22.0144L34.9168 22.0224C34.7 22.5401 34.3699 22.8114 34.0491 22.9502C33.7208 23.0922 33.4074 23.0932 33.2466 23.0876H33.2479V23.0153L33.2453 23.0876C33.2458 23.0876 33.2462 23.0876 33.2466 23.0876H32.7495L33.4096 20.4471L33.41 20.4456L33.4104 20.4442C33.4798 20.2084 33.5386 20.0306 33.5994 19.8977C33.6603 19.7646 33.7261 19.6699 33.813 19.6067C33.9004 19.543 34.0011 19.5172 34.1191 19.5056C34.2107 19.4965 34.3192 19.4957 34.446 19.4947C34.4798 19.4945 34.5149 19.4942 34.5514 19.4938C35.1632 19.4864 35.6788 19.5307 36.0247 19.8137C36.3653 20.0924 36.5217 20.5839 36.4835 21.4068H36.4073V21.4791L36.4795 21.4834C36.481 21.4575 36.4824 21.432 36.4835 21.4068H36.7576L36.7433 21.4604L36.8131 21.4791V21.4068H36.7576L37.4725 18.7398H30.2911ZM38.0915 18.5952H45.458L44.6657 21.5514H44.0979L44.1033 21.474C44.1493 20.8191 44.0939 20.3666 43.8614 20.0757C43.6372 19.7953 43.2315 19.6455 42.521 19.6386L40.5646 27.0899C40.5645 27.0902 40.5645 27.0904 40.5644 27.0907C40.5187 27.284 40.467 27.4663 40.4241 27.6173C40.3993 27.705 40.3774 27.7821 40.3614 27.8448C40.3081 28.0534 40.3656 28.2437 40.5024 28.3769C40.6401 28.5111 40.865 28.5933 41.1542 28.5665L41.2508 28.5576L41.1042 29.2905H36.1718L36.3494 28.5092L36.4296 28.5078C36.8871 28.5002 37.2721 28.4937 37.5646 28.3464C37.8509 28.2023 38.061 27.9144 38.1326 27.2968L38.1332 27.2914L40.2254 19.6391C39.4828 19.6517 39.0116 19.8151 38.5712 20.1998C38.3427 20.4051 38.2335 20.5346 38.1519 20.7051C38.0818 20.8516 38.0313 21.0287 37.9504 21.3128C37.934 21.3703 37.9164 21.4322 37.8971 21.4991L37.882 21.5514H37.2687L38.0915 18.5952ZM38.2013 18.7398L37.459 21.4068H37.7731C37.7862 21.3613 37.7985 21.318 37.8103 21.2767C37.891 20.9929 37.9456 20.8011 38.0215 20.6427C38.1152 20.447 38.2406 20.3025 38.4749 20.092L38.4753 20.0916L38.4757 20.0913C38.9679 19.6611 39.4975 19.4937 40.3203 19.4937L40.4151 19.4937L38.2756 27.319C38.2 27.9618 37.9734 28.3025 37.6296 28.4756C37.3098 28.6366 36.8996 28.6447 36.4652 28.6519L36.3529 29.1459H40.9857L41.0717 28.7159C40.7915 28.7213 40.5578 28.6328 40.4015 28.4805C40.2267 28.3103 40.1555 28.0664 40.2213 27.809C40.2394 27.7381 40.2622 27.6578 40.2876 27.5686C40.3294 27.4214 40.3782 27.25 40.4239 27.0566L40.4241 27.0558L42.4095 19.4938L42.4652 19.4937C43.2214 19.4933 43.7014 19.6441 43.9743 19.9854C44.2338 20.31 44.2894 20.7881 44.2525 21.4068H44.5547L45.2696 18.7398H38.2013ZM5.2336 21.3925C5.23652 21.9698 5.46114 22.4831 5.78706 22.9658L5.2336 21.3925ZM5.78706 22.9658C6.07602 23.3939 6.44837 23.803 6.82231 24.214L5.78706 22.9658ZM6.82231 24.214C6.86906 24.2653 6.91583 24.3167 6.96247 24.3682L6.82231 24.214ZM6.96247 24.3682C7.2898 24.7294 7.55938 24.9844 7.77802 25.186L6.96247 24.3682ZM7.77802 25.186C7.80938 25.2149 7.83957 25.2426 7.86866 25.2693L7.77802 25.186ZM7.86866 25.2693C8.04379 25.4301 8.17851 25.5538 8.28271 25.6777L7.86866 25.2693ZM8.28271 25.6777C8.40167 25.8192 8.47867 25.9587 8.52347 26.1497L8.28271 25.6777ZM8.52347 26.1497C8.5689 26.3433 8.58188 26.5925 8.56699 26.9544L8.52347 26.1497ZM19.6151 28.1873C19.7278 28.0525 19.8752 27.957 20.0308 27.9575H20.0308C20.1907 27.9582 20.315 28.059 20.3872 28.2019C20.4592 28.3443 20.4839 28.5342 20.4496 28.7375C20.4153 28.941 20.3279 29.1272 20.2138 29.2637C20.1011 29.3985 19.9538 29.4941 19.7983 29.4934C19.6383 29.4928 19.514 29.3922 19.4418 29.2492C19.3698 29.1068 19.3452 28.9169 19.3795 28.7135M19.7261 28.2801C19.6292 28.3959 19.5523 28.5581 19.5221 28.7374C19.4918 28.917 19.5155 29.0745 19.5708 29.184C19.6258 29.2928 19.7077 29.3485 19.7989 29.3488H19.799C19.8944 29.3492 20.0046 29.2885 20.1029 29.1709C20.1998 29.055 20.2768 28.8928 20.307 28.7134C20.3373 28.5341 20.3135 28.3767 20.2582 28.2672C20.2031 28.1583 20.1213 28.1025 20.0303 28.1021C19.9346 28.1018 19.8243 28.1626 19.7261 28.2801ZM27.0355 28.1873C27.1482 28.0525 27.2955 27.957 27.451 27.9575H27.4511C27.611 27.9582 27.7353 28.0589 27.8076 28.2019C27.8796 28.3443 27.9043 28.5341 27.8699 28.7374C27.8357 28.941 27.7483 29.1272 27.6342 29.2637C27.5215 29.3985 27.3742 29.4941 27.2186 29.4934C27.0587 29.4928 26.9344 29.3922 26.8621 29.2492C26.7901 29.1068 26.7654 28.9169 26.7998 28.7134C26.834 28.5099 26.9214 28.3237 27.0355 28.1873ZM27.1464 28.2801C27.0495 28.3959 26.9725 28.5581 26.9424 28.7374C26.9121 28.9169 26.9358 29.0745 26.9911 29.184C27.0462 29.2928 27.128 29.3485 27.2192 29.3488H27.2192C27.3147 29.3492 27.425 29.2885 27.5233 29.1709C27.6202 29.055 27.6972 28.8929 27.7273 28.7135C27.7576 28.5341 27.7339 28.3767 27.6786 28.2672C27.6235 28.1583 27.5417 28.1025 27.4505 28.1021C27.355 28.1018 27.2447 28.1626 27.1464 28.2801ZM33.4123 28.1873C33.525 28.0525 33.6723 27.957 33.8278 27.9575H33.8279C33.9895 27.9582 34.1069 28.061 34.1714 28.205C34.2352 28.3474 34.2517 28.5363 34.2177 28.7374M33.4123 28.1873C33.2982 28.3237 33.2108 28.5099 33.1766 28.7134L33.4123 28.1873ZM33.5232 28.2801C33.4263 28.3959 33.3493 28.5581 33.3192 28.7374C33.2885 28.9191 33.3058 29.0775 33.3549 29.187C33.4032 29.2949 33.4775 29.3485 33.567 29.3488H33.567C33.6625 29.3492 33.7728 29.2885 33.8711 29.1709C33.968 29.055 34.045 28.8929 34.0751 28.7135C34.1058 28.532 34.0885 28.3736 34.0394 28.2641C33.9911 28.1562 33.9168 28.1025 33.8273 28.1021C33.7318 28.1018 33.6215 28.1626 33.5232 28.2801ZM10.5847 28.2182C10.6902 28.0827 10.8307 27.9858 10.9874 27.9865C11.1472 27.9872 11.2716 28.0878 11.3438 28.2308C11.4158 28.3732 11.4405 28.563 11.4062 28.7664C11.3719 28.97 11.2846 29.1562 11.1705 29.2927C11.0578 29.4275 10.9104 29.5231 10.7548 29.5224C10.5933 29.5217 10.476 29.419 10.4115 29.275C10.3477 29.1327 10.3311 28.9438 10.365 28.7424C10.399 28.5407 10.4782 28.355 10.5847 28.2182ZM10.6988 28.307C10.6088 28.4225 10.5381 28.5852 10.5076 28.7664C10.477 28.9481 10.4944 29.1064 10.5434 29.2159C10.5918 29.3237 10.6661 29.3774 10.7555 29.3778C10.851 29.3782 10.9613 29.3175 11.0596 29.1999C11.1565 29.084 11.2334 28.9218 11.2636 28.7424C11.2938 28.5629 11.2701 28.4055 11.2148 28.296C11.1598 28.1872 11.0779 28.1315 10.9867 28.1311C10.8925 28.1307 10.7898 28.1901 10.6988 28.307ZM41.934 28.2163C42.0467 28.0815 42.1941 27.986 42.3496 27.9865H42.3496C42.5095 27.9872 42.6339 28.0879 42.7061 28.2309C42.7781 28.3733 42.8028 28.5631 42.7684 28.7664M41.934 28.2163C41.8199 28.3527 41.7325 28.5388 41.6983 28.7424L41.934 28.2163ZM42.0449 28.3091C41.948 28.4249 41.8711 28.5871 41.8409 28.7664C41.8106 28.9459 41.8343 29.1035 41.8896 29.2129C41.9447 29.3218 42.0265 29.3775 42.1177 29.3778H42.1178C42.2132 29.3782 42.3235 29.3175 42.4218 29.1999C42.5187 29.084 42.5957 28.9218 42.6258 28.7424C42.6562 28.5631 42.6324 28.4056 42.5771 28.2962C42.5221 28.1873 42.4402 28.1315 42.3491 28.1311C42.2535 28.1308 42.1432 28.1916 42.0449 28.3091Z" fill="#939191"/>
<path fill-rule="evenodd" clip-rule="evenodd" d="M2.963 31.0309C2.24253 28.8172 1.85308 26.4541 1.85308 24.0001C1.85308 21.5595 2.23829 19.2088 2.95122 17.0055H46.1525C46.8655 19.2088 47.2507 21.5595 47.2507 24.0001C47.2507 26.4541 46.8612 28.8172 46.1407 31.0309H2.963ZM3.43118 32.3322H11.8863C12.4083 34.8668 13.3639 37.0823 14.5099 38.9834H7.50073C5.78621 37.0338 4.40075 34.7878 3.43118 32.3322ZM8.73925 40.2847H15.3554C16.3288 41.6794 17.3863 42.8755 18.4054 43.8755C19.5348 44.9837 20.6218 45.8559 21.5045 46.4959C16.5711 45.8339 12.1397 43.5872 8.73925 40.2847ZM23.8649 46.5005C23.8458 46.4891 23.8259 46.4772 23.8052 46.4648C23.5503 46.3119 23.1805 46.0799 22.7292 45.7684C21.8259 45.1451 20.6 44.2057 19.3169 42.9466C18.5322 42.1767 17.7286 41.2897 16.965 40.2847H23.8649V46.5005ZM23.8649 38.9834H16.0463C14.8216 37.1101 13.7822 34.8947 13.2169 32.3322H23.8649V38.9834ZM25.1662 32.3322V38.9834H33.1179C34.3454 37.1121 35.3894 34.8975 35.9636 32.3322H25.1662ZM37.295 32.3322H45.6726C44.703 34.7878 43.3175 37.0338 41.6029 38.9834H34.6558C35.8046 37.0839 36.7646 34.869 37.295 32.3322ZM33.8076 40.2847H40.3644C36.9737 43.5776 32.558 45.8209 27.6419 46.4901C28.5175 45.8584 29.5911 45.0014 30.7078 43.9142C31.7424 42.907 32.818 41.6983 33.8076 40.2847ZM25.1662 46.5563V40.2847H32.1963C31.4179 41.3058 30.5987 42.2043 29.8 42.9818C28.5162 44.2316 27.292 45.1622 26.3908 45.779C25.9405 46.0872 25.5717 46.3165 25.3176 46.4676C25.2614 46.501 25.2108 46.5306 25.1662 46.5563ZM45.6869 15.7042H37.0903C36.5735 13.1737 35.6286 10.9577 34.4946 9.05304H41.6349C43.3431 11.0038 44.7226 13.2497 45.6869 15.7042ZM40.4018 7.75172H33.6601C32.6857 6.33664 31.6255 5.12288 30.6042 4.10872C29.4983 3.0104 28.4335 2.14151 27.5639 1.49943C32.5294 2.15782 36.9883 4.42146 40.4018 7.75172ZM25.1662 1.45095C25.1868 1.46335 25.2083 1.47638 25.2307 1.49004C25.4837 1.6444 25.8508 1.87836 26.2988 2.19226C27.1955 2.82048 28.4127 3.76637 29.6873 5.03208C30.4784 5.81778 31.2891 6.72409 32.0583 7.75172H25.1662V1.45095ZM25.1662 9.05304H32.9638C34.1745 10.9306 35.2012 13.1466 35.7603 15.7042H25.1662V9.05304ZM23.8649 15.7042V9.05304H15.9063C14.6689 10.9285 13.6199 13.1438 13.048 15.7042H23.8649ZM11.7168 15.7042H3.41688C4.3811 13.2497 5.76057 11.0038 7.46879 9.05304H14.366C13.2088 10.9557 12.2447 13.1711 11.7168 15.7042ZM15.2188 7.75172H8.70185C12.0953 4.44096 16.5219 2.18436 21.4524 1.51115C20.5716 2.14444 19.498 2.99769 18.3824 4.07449C17.3257 5.09444 16.2271 6.31927 15.2188 7.75172ZM23.8649 1.48239V7.75172H16.8333C17.6287 6.71395 18.4678 5.8007 19.2862 5.01079C20.5881 3.75413 21.8304 2.8168 22.7453 2.19479C23.2025 1.884 23.577 1.65257 23.8352 1.49992C23.8453 1.49396 23.8552 1.48811 23.8649 1.48239ZM0.551758 24.0001C0.551758 37.2546 11.2971 48 24.5517 48C37.8064 48 48.552 37.2547 48.552 24.0001C48.552 10.7453 37.8064 3.8147e-06 24.5517 3.8147e-06C11.2971 3.8147e-06 0.551758 10.7453 0.551758 24.0001Z" fill="#939191"/>
</svg>
