<svg width="1132" height="467" viewBox="0 0 1132 467" fill="none" xmlns="http://www.w3.org/2000/svg">
<path d="M156.5 1H1117C1121.42 1 1125 4.58172 1125 9V86" stroke="#1164F4"/>
<path d="M1131 110L1125 116L1119 110" stroke="#1164F4" stroke-width="2" stroke-linecap="round" stroke-linejoin="round"/>
<path d="M1073 237L1067 231L1073 225" stroke="#1164F4" stroke-width="2" stroke-linecap="round" stroke-linejoin="round"/>
<path d="M1125 82L1125 223C1125 227.418 1121.42 231 1117 231L683 231" stroke="#1164F4"/>
<path opacity="0.5" d="M946 231L15 231C10.5817 231 7 234.582 7 239L7.00001 342L7.00001 453C7.00001 457.418 10.5817 461 15 461L946 461" stroke="#1164F4"/>
<path opacity="0.5" d="M13 346L7 352L1 346" stroke="#1164F4" stroke-width="2" stroke-linecap="round" stroke-linejoin="round"/>
<path opacity="0.5" d="M54 454L60 460L54 466" stroke="#1164F4" stroke-width="2" stroke-linecap="round" stroke-linejoin="round"/>
</svg>
