<svg width="24" height="25" viewBox="0 0 24 25" fill="none" xmlns="http://www.w3.org/2000/svg">
<path d="M20.4752 8.0073C20.4855 8.19238 20.4855 8.37747 20.4855 8.5523C20.4828 9.69097 20.3166 10.8233 19.9918 11.9147C19.3075 14.4298 17.8049 16.6453 15.7212 18.2113C13.6375 19.7773 11.0916 20.6046 8.48542 20.5626C6.19117 20.5652 3.94509 19.9045 2.01758 18.6602C2.35188 18.7016 2.68843 18.7222 3.02528 18.7219C4.92371 18.7238 6.76744 18.0862 8.25928 16.9122C7.38059 16.8957 6.52893 16.6055 5.82299 16.082C5.11705 15.5585 4.59198 14.8279 4.32096 13.9919C4.58258 14.0367 4.84734 14.0608 5.11276 14.0639C5.49174 14.0653 5.86903 14.0134 6.23354 13.9096C5.33111 13.7309 4.51233 13.2609 3.90299 12.5717C3.29366 11.8824 2.9275 11.0122 2.86078 10.0947C2.84368 9.98935 2.83679 9.8826 2.84019 9.77593V9.72451C3.42622 10.0507 4.08233 10.2306 4.75277 10.2489C4.17571 9.8643 3.70283 9.34281 3.37629 8.73099C3.04976 8.11917 2.87972 7.43604 2.88136 6.74254C2.88062 5.9958 3.07561 5.2619 3.4469 4.614C4.50591 5.91886 5.82787 6.98605 7.3267 7.74609C8.82553 8.50614 10.4676 8.942 12.1461 9.02529C11.9337 8.12048 12.0261 7.17085 12.4088 6.32392C12.7916 5.477 13.4434 4.78018 14.2628 4.34172C15.0823 3.90326 16.0237 3.7477 16.9406 3.8992C17.8576 4.05071 18.6989 4.50079 19.3338 5.17954C20.2806 4.99269 21.1883 4.64489 22.0176 4.15126C22.0533 4.86715 21.9339 5.5823 21.6677 6.24782C21.4015 6.91333 20.9947 7.5135 20.4752 8.0073Z" fill="#AAB0B7"/>
</svg>
