<svg width="48" height="32" viewBox="0 0 48 32" fill="none" xmlns="http://www.w3.org/2000/svg">
<mask id="mask0" mask-type="alpha" maskUnits="userSpaceOnUse" x="0" y="0" width="48" height="32">
<rect width="48" height="32" rx="4" fill="#C4C4C4"/>
</mask>
<g mask="url(#mask0)">
<path d="M47.6771 0H-1V32H47.6771V0Z" fill="#012169"/>
<path d="M47.6771 10.5602H36.9039L47.6771 3.49976V0H42.534L27.485 9.8602V0H19.2073V9.87541L4.12791 0H-1V3.51498L9.75796 10.5602H-1V21.4398H9.80361L-1 28.5155V32H4.17356L19.2073 22.155V32H27.485V22.1702L42.5036 32H47.6771V28.5307L36.8583 21.4398H47.6771V10.5602Z" fill="white"/>
<path d="M25.8263 0H20.8506V32H25.8263V0Z" fill="#D21034"/>
<path d="M47.6787 19.2779V12.7349L-0.998413 12.7349V19.2779L47.6787 19.2779Z" fill="#D21034"/>
<path d="M15.0533 10.5599H11.2187L-1 2.55611V0.0454102L15.0533 10.5599Z" fill="#D21034"/>
<path d="M47.6766 29.4889V31.9996L31.5625 21.4395H35.397L47.6766 29.4889Z" fill="#D21034"/>
<path d="M18.8421 21.4395L2.71279 31.9996H-1V31.9235L15.0076 21.4395H18.8421Z" fill="#D21034"/>
<path d="M47.6773 0V0.0912988L31.7002 10.5602H27.8809L43.995 0H47.6773Z" fill="#D21034"/>
</g>
</svg>
