<svg width="233" height="48" viewBox="0 0 233 48" fill="none" xmlns="http://www.w3.org/2000/svg">
<g clip-path="url(#clip0)">
<path d="M89.3647 39.8492C85.404 39.8492 82.2738 38.7617 79.9741 36.5868C77.6743 34.4118 76.5244 31.3254 76.5244 27.3274V9.91211H84.1902V26.6557C84.1902 28.7027 84.6374 30.2699 85.5318 31.3574C86.4581 32.4448 87.7357 32.9886 89.3647 32.9886C90.9617 32.9886 92.2075 32.4448 93.1018 31.3574C94.0281 30.2699 94.4912 28.7027 94.4912 26.6557V9.91211H102.157V27.3754C102.157 31.3414 101.007 34.4118 98.7074 36.5868C96.4077 38.7617 93.2935 39.8492 89.3647 39.8492Z" fill="#030319"/>
<path d="M105.572 39.3688V17.7796H113.094V19.6507C114.5 18.0835 116.433 17.2998 118.892 17.2998C121.255 17.2998 123.107 18.0195 124.449 19.4588C125.823 20.8661 126.51 22.7851 126.51 25.2159V39.3688H119.036V27.039C119.036 26.1115 118.796 25.3758 118.317 24.832C117.837 24.2564 117.135 23.9685 116.209 23.9685C115.442 23.9685 114.771 24.1764 114.196 24.5921C113.653 25.0079 113.286 25.5837 113.094 26.3193V39.3688H105.572Z" fill="#030319"/>
<path d="M137.46 17.7797V39.3689H129.938V17.7797H137.46ZM137.987 11.9266C137.987 13.1101 137.572 14.0855 136.741 14.8531C135.911 15.5888 134.905 15.9566 133.723 15.9566C132.542 15.9566 131.535 15.5888 130.705 14.8531C129.874 14.0855 129.459 13.1101 129.459 11.9266C129.459 10.7112 129.874 9.7357 130.705 9.00006C131.535 8.23245 132.542 7.84863 133.723 7.84863C134.905 7.84863 135.911 8.23245 136.741 9.00006C137.572 9.7357 137.987 10.7112 137.987 11.9266Z" fill="#030319"/>
<path d="M141.254 39.3694V9.91211H148.968V32.7007H162.143V39.3694H141.254Z" fill="#030319"/>
<path d="M177.898 31.8366H184.844C184.462 34.3313 183.376 36.2983 181.587 37.7376C179.798 39.1449 177.514 39.8486 174.735 39.8486C171.446 39.8486 168.794 38.8091 166.782 36.7301C164.77 34.6511 163.764 31.9325 163.764 28.5742C163.764 25.2478 164.786 22.5452 166.83 20.4662C168.874 18.3553 171.462 17.2998 174.591 17.2998C177.85 17.2998 180.389 18.2913 182.21 20.2743C184.03 22.2573 184.94 24.88 184.94 28.1424V30.0135H170.998C171.254 32.6681 172.499 33.9955 174.735 33.9955C176.428 33.9955 177.482 33.2758 177.898 31.8366ZM174.591 23.1529C172.771 23.1529 171.621 24.1924 171.142 26.2713H177.658C177.594 25.3438 177.29 24.5921 176.748 24.0165C176.204 23.4407 175.486 23.1529 174.591 23.1529Z" fill="#030319"/>
<path d="M187.313 39.3688V17.7796H194.836V19.6507C196.241 18.0835 198.173 17.2998 200.633 17.2998C202.996 17.2998 204.849 18.0195 206.191 19.4588C207.564 20.8661 208.25 22.7851 208.25 25.2159V39.3688H200.777V27.039C200.777 26.1115 200.537 25.3758 200.058 24.832C199.579 24.2564 198.877 23.9685 197.95 23.9685C197.183 23.9685 196.512 24.1764 195.938 24.5921C195.394 25.0079 195.028 25.5837 194.836 26.3193V39.3688H187.313Z" fill="#030319"/>
<path d="M225.478 39.369V37.6418C224.935 38.2496 224.169 38.7772 223.179 39.225C222.22 39.6408 221.214 39.8488 220.16 39.8488C217.157 39.8488 214.794 38.7932 213.069 36.6823C211.376 34.5394 210.529 31.8368 210.529 28.5744C210.529 25.312 211.376 22.6254 213.069 20.5144C214.794 18.3715 217.157 17.3 220.16 17.3C221.214 17.3 222.22 17.5239 223.179 17.9716C224.169 18.3874 224.935 18.8992 225.478 19.507V8.18457H233V39.369H225.478ZM225.478 31.4049V25.6958C225.19 25.1201 224.743 24.6403 224.137 24.2566C223.529 23.8727 222.875 23.6808 222.172 23.6808C220.894 23.6808 219.888 24.1446 219.154 25.0721C218.419 25.9676 218.052 27.1351 218.052 28.5744C218.052 29.9817 218.419 31.1491 219.154 32.0767C219.888 32.9722 220.894 33.42 222.172 33.42C223.737 33.42 224.839 32.7483 225.478 31.4049Z" fill="#030319"/>
<path fill-rule="evenodd" clip-rule="evenodd" d="M48.6051 13.457L48.6049 13.459L51.9971 13.4773C52.383 13.4486 52.7723 13.4503 53.1612 13.4832L61.4465 13.5277C62.7066 13.6005 63.7056 14.6544 63.7056 15.9442C63.7056 16.5538 63.4824 17.1107 63.1143 17.5359L59.0826 24.5819C59.0507 24.6414 59.0181 24.7006 58.9844 24.7594L49.0083 42.2408C47.657 44.6088 45.2268 45.9538 42.7086 46.0074L42.7088 46.0091L42.5917 46.009C42.5268 46.0094 42.4618 46.0088 42.3969 46.0074L12.8766 45.8551H9.58691L9.58709 45.7961C12.0863 45.4456 14.189 43.8403 15.2537 41.6293L15.2774 41.6298L29.74 16.1827C30.5518 14.5654 32.2117 13.457 34.1275 13.457L33.9941 13.4599L33.9985 13.457H48.6051Z" fill="#2BBDF7"/>
<path fill-rule="evenodd" clip-rule="evenodd" d="M25.497 0.969834L51.5537 0.970253C52.8134 1.04318 53.8122 2.09701 53.8122 3.38685C53.8122 3.90388 53.6517 4.38298 53.3784 4.77595L46.3463 17.1271L38.8707 30.2538L38.875 30.2525H38.9358L36.5452 34.4451C34.5299 37.9765 35.6616 42.4724 39.06 44.609L39.2709 44.7368C40.2283 45.296 41.2573 45.6157 42.2904 45.7143L42.2906 45.8906L29.9715 45.8903L29.9665 45.9013H8.60308C7.39005 45.8791 6.15834 45.5683 5.01875 44.9292C1.35373 42.8739 0.0295476 38.2018 2.0611 34.4939L18.2735 4.9034C19.7594 2.19147 22.6288 0.746368 25.497 0.969834Z" fill="#2B6DEF"/>
<path fill-rule="evenodd" clip-rule="evenodd" d="M34.0433 13.4569L48.392 13.4718L46.3164 17.1183L38.8409 30.2449L38.8452 30.2436H38.906L36.5154 34.4361C34.5001 37.9675 35.6318 42.4635 39.0302 44.6001L39.2412 44.7279C40.1984 45.2871 41.2275 45.6068 42.2605 45.7054L42.2608 45.8817L29.9416 45.8815L29.9367 45.8924L9.5332 45.893C11.7952 45.6556 13.9187 44.3958 15.1984 42.3126L15.3423 42.0686L30.4331 15.3811C31.289 14.2619 32.606 13.522 34.0962 13.4531L34.0433 13.4569Z" fill="white"/>
<path fill-rule="evenodd" clip-rule="evenodd" d="M34.0433 13.4569L48.392 13.4718L46.3164 17.1183L38.8409 30.2449L38.8452 30.2436H38.906L36.5154 34.4361C34.5001 37.9675 35.6318 42.4635 39.0302 44.6001L39.2412 44.7279C40.1984 45.2871 41.2275 45.6068 42.2605 45.7054L42.2608 45.8817L29.9416 45.8815L29.9367 45.8924L9.5332 45.893C11.7952 45.6556 13.9187 44.3958 15.1984 42.3126L15.3423 42.0686L30.4331 15.3811C31.289 14.2619 32.606 13.522 34.0962 13.4531L34.0433 13.4569Z" fill="#0CC19B" fill-opacity="0.5"/>
<path fill-rule="evenodd" clip-rule="evenodd" d="M34.0433 13.4569L48.392 13.4718L46.3164 17.1183L38.8409 30.2449L38.8452 30.2436H38.906L36.5154 34.4361C34.5001 37.9675 35.6318 42.4635 39.0302 44.6001L39.2412 44.7279C40.1984 45.2871 41.2275 45.6068 42.2605 45.7054L42.2608 45.8817L29.9416 45.8815L29.9367 45.8924L9.5332 45.893C11.7952 45.6556 13.9187 44.3958 15.1984 42.3126L15.3423 42.0686L30.4331 15.3811C31.289 14.2619 32.606 13.522 34.0962 13.4531L34.0433 13.4569Z" fill="#003CB2"/>
</g>
<defs>
<clipPath id="clip0">
<rect width="233" height="48" fill="white"/>
</clipPath>
</defs>
</svg>
