<svg width="98" height="99" viewBox="0 0 98 99" fill="none" xmlns="http://www.w3.org/2000/svg">
<g clip-path="url(#clip0)">
<path d="M98 0.5H0V98.5H98V0.5Z" fill="#E5E5E5"/>
<path d="M915.552 -324.562H-822.315C-862.006 -324.562 -894.182 -292.386 -894.182 -252.695V840.696C-894.182 880.387 -862.006 912.563 -822.315 912.563H915.552C955.242 912.563 987.418 880.387 987.418 840.696V-252.695C987.418 -292.386 955.242 -324.562 915.552 -324.562Z" fill="#171717"/>
<path d="M567.186 -42.3223H-26.0408C-33.2573 -42.3223 -39.1074 -36.4721 -39.1074 -29.2556V127.544C-39.1074 134.761 -33.2573 140.611 -26.0408 140.611H567.186C574.403 140.611 580.253 134.761 580.253 127.544V-29.2556C580.253 -36.4721 574.403 -42.3223 567.186 -42.3223Z" fill="url(#paint0_linear)"/>
<path d="M48.4413 0.796875C61.3543 0.796876 73.4959 5.82594 82.6268 14.9569C91.7601 24.0879 96.789 36.2294 96.789 49.1424C96.789 62.0554 91.7599 74.1992 82.6291 83.3302C73.4981 92.4612 61.3565 97.4901 48.4413 97.4901C35.5261 97.4901 23.3867 92.4612 14.2558 83.3302C5.12476 74.1992 0.0957021 62.0577 0.0957031 49.1447C0.0957043 36.2315 5.12476 24.0901 14.2558 14.9591C23.3867 5.82594 35.5283 0.796875 48.4413 0.796875ZM48.4413 94.2052C60.4769 94.2052 71.795 89.5177 80.3057 81.0069C88.8165 72.4961 93.5041 61.1802 93.5041 49.1424C93.5041 37.1046 88.8165 25.7888 80.3057 17.2781C71.795 8.76732 60.4791 4.07971 48.4413 4.07971C36.4035 4.07971 25.0876 8.7673 16.5769 17.2781C8.06613 25.7888 3.37853 37.1046 3.37853 49.1424C3.37853 61.1802 8.06613 72.494 16.5769 81.0069C25.0897 89.5177 36.4057 94.2052 48.4413 94.2052Z" fill="url(#paint1_linear)"/>
<path d="M48.4394 94.3711C73.4179 94.3711 93.6669 74.122 93.6669 49.1435C93.6669 24.1651 73.4179 3.91602 48.4394 3.91602C23.461 3.91602 3.21191 24.1651 3.21191 49.1435C3.21191 74.122 23.461 94.3711 48.4394 94.3711Z" fill="white"/>
<mask id="mask0" mask-type="alpha" maskUnits="userSpaceOnUse" x="3" y="3" width="91" height="92">
<path d="M48.4246 94.359C73.4046 94.359 93.6549 74.1087 93.6549 49.1287C93.6549 24.1487 73.4046 3.89844 48.4246 3.89844C23.4446 3.89844 3.19434 24.1487 3.19434 49.1287C3.19434 74.1087 23.4446 94.359 48.4246 94.359Z" fill="white"/>
</mask>
<g mask="url(#mask0)">
<path fill-rule="evenodd" clip-rule="evenodd" d="M62.9175 40.1807L62.9172 40.1823L66.0419 40.1992C66.3976 40.173 66.7563 40.1746 67.1146 40.2046L74.7464 40.2455C75.9073 40.3124 76.8275 41.2789 76.8275 42.4625C76.8275 43.0215 76.622 43.5326 76.2828 43.9226L72.569 50.3864C72.5396 50.4411 72.5096 50.4954 72.4786 50.5494L63.2889 66.5865C62.0443 68.7587 59.8056 69.9928 57.486 70.0417V70.0433H57.378C57.3182 70.0436 57.2585 70.043 57.1987 70.042L30.006 69.9021H26.9756L26.9757 69.848C29.2779 69.5265 31.2147 68.0536 32.1957 66.0253L32.2174 66.0259L45.5396 42.6811C46.2875 41.1974 47.8166 40.1807 49.5813 40.1807L49.4582 40.1832L49.4627 40.1807H62.9175Z" fill="#2BBDF7"/>
<path fill-rule="evenodd" clip-rule="evenodd" d="M41.63 28.7248L65.6322 28.7252C66.7925 28.7921 67.7127 29.7588 67.7127 30.9421C67.7127 31.4165 67.5647 31.856 67.3132 32.2165L60.8352 43.5474L53.9491 55.5894L53.953 55.5884H54.0092L51.807 59.4346C49.9506 62.674 50.9932 66.7985 54.1236 68.7588L54.3177 68.8761C55.1995 69.3891 56.1475 69.6822 57.0991 69.7726L57.0994 69.9344L45.7516 69.9341L45.7471 69.9443H26.0678C24.9505 69.9238 23.8159 69.6387 22.7661 69.0525C19.39 67.167 18.1703 62.8808 20.0416 59.4793L34.9759 32.3335C36.3446 29.8455 38.9879 28.5198 41.63 28.7248Z" fill="#2B6DEF"/>
<path fill-rule="evenodd" clip-rule="evenodd" d="M49.5014 40.1803L62.719 40.1937L60.807 43.5389L53.9209 55.581L53.9248 55.58H53.9807L51.7788 59.4261C49.9224 62.6659 50.9647 66.7904 54.0951 68.7503L54.2894 68.8677C55.1713 69.3807 56.1193 69.6741 57.0709 69.7645L57.0712 69.9259H45.7234L45.7186 69.9359L26.9238 69.9365C29.0075 69.7188 30.9636 68.563 32.1423 66.652L32.275 66.4279L46.176 41.9453C46.9642 40.9186 48.1775 40.24 49.5503 40.1768L49.5014 40.1803Z" fill="white"/>
<path fill-rule="evenodd" clip-rule="evenodd" d="M49.5014 40.1803L62.719 40.1937L60.807 43.5389L53.9209 55.581L53.9248 55.58H53.9807L51.7788 59.4261C49.9224 62.6659 50.9647 66.7904 54.0951 68.7503L54.2894 68.8677C55.1713 69.3807 56.1193 69.6741 57.0709 69.7645L57.0712 69.9259H45.7234L45.7186 69.9359L26.9238 69.9365C29.0075 69.7188 30.9636 68.563 32.1423 66.652L32.275 66.4279L46.176 41.9453C46.9642 40.9186 48.1775 40.24 49.5503 40.1768L49.5014 40.1803Z" fill="#0CC19B" fill-opacity="0.5"/>
<path fill-rule="evenodd" clip-rule="evenodd" d="M49.5014 40.1803L62.719 40.1937L60.807 43.5389L53.9209 55.581L53.9248 55.58H53.9807L51.7788 59.4261C49.9224 62.6659 50.9647 66.7904 54.0951 68.7503L54.2894 68.8677C55.1713 69.3807 56.1193 69.6741 57.0709 69.7645L57.0712 69.9259H45.7234L45.7186 69.9359L26.9238 69.9365C29.0075 69.7188 30.9636 68.563 32.1423 66.652L32.275 66.4279L46.176 41.9453C46.9642 40.9186 48.1775 40.24 49.5503 40.1768L49.5014 40.1803Z" fill="#003CB2"/>
</g>
</g>
<defs>
<linearGradient id="paint0_linear" x1="270.573" y1="-42.3223" x2="270.573" y2="140.612" gradientUnits="userSpaceOnUse">
<stop stop-color="#2D2D2D"/>
<stop offset="1" stop-color="#212121"/>
</linearGradient>
<linearGradient id="paint1_linear" x1="82.6285" y1="14.9572" x2="14.256" y2="83.3298" gradientUnits="userSpaceOnUse">
<stop/>
<stop offset="1" stop-color="#515151"/>
</linearGradient>
<clipPath id="clip0">
<rect y="0.5" width="98" height="98" rx="49" fill="white"/>
</clipPath>
</defs>
</svg>
