<svg width="339" height="686" viewBox="0 0 339 686" fill="none" xmlns="http://www.w3.org/2000/svg">
<g style="mix-blend-mode:screen">
<mask id="mask0_3712_944" style="mask-type:alpha" maskUnits="userSpaceOnUse" x="2" y="0" width="335" height="686">
<path d="M2.3382 77.7887C2.3382 50.5601 2.3382 36.9458 7.63723 26.5458C12.2984 17.3978 19.736 9.9602 28.884 5.29904C39.284 0 52.8983 0 80.1269 0H258.798C286.026 0 299.641 0 310.04 5.29904C319.189 9.9602 326.626 17.3978 331.287 26.5458C336.586 36.9458 336.586 50.5601 336.586 77.7887V608.004C336.586 635.233 336.586 648.847 331.287 659.247C326.626 668.395 319.189 675.833 310.04 680.494C299.641 685.793 286.026 685.793 258.798 685.793H80.1269C52.8983 685.793 39.284 685.793 28.884 680.494C19.736 675.833 12.2984 668.395 7.63723 659.247C2.3382 648.847 2.3382 635.233 2.3382 608.004V77.7887Z" fill="black"/>
</mask>
<g mask="url(#mask0_3712_944)">
<g filter="url(#filter0_ii_3712_944)">
<path d="M2.3382 77.7887C2.3382 50.5601 2.3382 36.9458 7.63723 26.5458C12.2984 17.3978 19.736 9.9602 28.884 5.29904C39.284 0 52.8983 0 80.1269 0H258.798C286.026 0 299.641 0 310.04 5.29904C319.189 9.9602 326.626 17.3978 331.287 26.5458C336.586 36.9458 336.586 50.5601 336.586 77.7887V608.004C336.586 635.233 336.586 648.847 331.287 659.247C326.626 668.395 319.189 675.833 310.04 680.494C299.641 685.793 286.026 685.793 258.798 685.793H80.1269C52.8983 685.793 39.284 685.793 28.884 680.494C19.736 675.833 12.2984 668.395 7.63723 659.247C2.3382 648.847 2.3382 635.233 2.3382 608.004V77.7887Z" fill="#8C9BB6"/>
</g>
<path d="M2.80568 77.7887C2.80568 64.1667 2.80604 53.9783 3.4665 45.8946C4.12652 37.8163 5.44342 31.8812 8.05376 26.7581C12.6701 17.698 20.0362 10.3319 29.0963 5.71556C34.2194 3.10522 40.1545 1.78832 48.2328 1.12831C56.3165 0.467843 66.5049 0.46748 80.1269 0.46748H258.798C272.42 0.46748 282.608 0.467843 290.692 1.12831C298.77 1.78832 304.705 3.10522 309.828 5.71556C318.888 10.3319 326.254 17.698 330.871 26.7581C333.481 31.8812 334.798 37.8163 335.458 45.8946C336.118 53.9783 336.119 64.1667 336.119 77.7887V608.004C336.119 621.626 336.118 631.815 335.458 639.898C334.798 647.977 333.481 653.912 330.871 659.035C326.254 668.095 318.888 675.461 309.828 680.078C304.705 682.688 298.77 684.005 290.692 684.665C282.608 685.325 272.42 685.326 258.798 685.326H80.1269C66.5049 685.326 56.3165 685.325 48.2328 684.665C40.1545 684.005 34.2194 682.688 29.0963 680.078C20.0362 675.461 12.6701 668.095 8.05376 659.035C5.44342 653.912 4.12652 647.977 3.4665 639.898C2.80604 631.815 2.80568 621.626 2.80568 608.004V77.7887Z" stroke="url(#paint0_linear_3712_944)" stroke-width="0.93496"/>
<rect x="0.466736" y="58.4348" width="7.94716" height="6.54472" fill="url(#paint1_linear_3712_944)"/>
<rect x="0.466736" y="623.618" width="7.94716" height="6.54472" fill="url(#paint2_linear_3712_944)"/>
<rect x="330.508" y="58.4348" width="7.94716" height="6.54472" fill="url(#paint3_linear_3712_944)"/>
<rect x="330.508" y="623.618" width="7.94716" height="6.54472" fill="url(#paint4_linear_3712_944)"/>
<rect x="265.526" y="-3.27246" width="7.94716" height="6.54472" transform="rotate(90 265.526 -3.27246)" fill="url(#paint5_linear_3712_944)"/>
<rect x="68.7185" y="679.716" width="7.94716" height="6.54472" transform="rotate(90 68.7185 679.716)" fill="url(#paint6_linear_3712_944)"/>
</g>
<path d="M6.1942 76.2926C6.1942 63.5927 6.19429 54.0749 6.81161 46.5193C7.42882 38.965 8.66244 33.3827 11.1238 28.5519C15.4601 20.0416 22.3792 13.1225 30.8895 8.78625C35.7202 6.32486 41.3026 5.09123 48.8569 4.47402C56.4125 3.85671 65.9303 3.85662 78.6302 3.85662H260.293C272.993 3.85662 282.511 3.85671 290.066 4.47402C297.621 5.09123 303.203 6.32486 308.034 8.78625C316.544 13.1225 323.463 20.0416 327.799 28.5519C330.261 33.3827 331.494 38.965 332.112 46.5193C332.729 54.0749 332.729 63.5928 332.729 76.2926V609.5C332.729 622.2 332.729 631.718 332.112 639.274C331.494 646.828 330.261 652.41 327.799 657.241C323.463 665.751 316.544 672.67 308.034 677.007C303.203 679.468 297.621 680.702 290.066 681.319C282.511 681.936 272.993 681.936 260.293 681.936H78.6302C65.9303 681.936 56.4125 681.936 48.8569 681.319C41.3026 680.702 35.7202 679.468 30.8895 677.007C22.3792 672.67 15.4601 665.751 11.1238 657.241C8.66244 652.41 7.42882 646.828 6.81161 639.274C6.19429 631.718 6.1942 622.2 6.1942 609.5V76.2926Z" fill="#E8E8E9" stroke="url(#paint7_linear_3712_944)" stroke-width="0.23374"/>
<path d="M22.1647 34.1862C18.7 40.9862 18.7 49.8879 18.7 67.6912V618.102C18.7 635.905 18.7 644.807 22.1647 651.607C25.2124 657.588 30.0754 662.451 36.0568 665.499C42.8568 668.964 51.7585 668.964 69.5618 668.964H269.363C287.166 668.964 296.068 668.964 302.868 665.499C308.849 662.451 313.712 657.588 316.76 651.607C320.224 644.807 320.224 635.905 320.224 618.102V67.6912C320.224 49.8879 320.224 40.9862 316.76 34.1862C313.712 28.2048 308.849 23.3418 302.868 20.2941C296.068 16.8293 287.166 16.8293 269.363 16.8293H253.738C252.965 16.8293 252.578 16.8293 252.268 16.9421C251.748 17.1312 251.339 17.5403 251.15 18.0597C251.037 18.3695 251.037 18.7565 251.037 19.5303C251.037 25.7212 251.037 28.8167 250.135 31.2953C248.623 35.4506 245.35 38.7238 241.195 40.2361C238.716 41.1383 235.62 41.1383 229.43 41.1383H109.495C103.304 41.1383 100.209 41.1383 97.7299 40.2361C93.5747 38.7238 90.3015 35.4506 88.7891 31.2953C87.887 28.8167 87.887 25.7212 87.887 19.5303C87.887 18.7565 87.887 18.3695 87.7742 18.0597C87.5852 17.5403 87.176 17.1312 86.6566 16.9421C86.3468 16.8293 85.9598 16.8293 85.186 16.8293H69.5618C51.7585 16.8293 42.8568 16.8293 36.0568 20.2941C30.0754 23.3418 25.2124 28.2048 22.1647 34.1862Z" fill="#E8E8E9"/>
<g filter="url(#filter1_iiii_3712_944)">
<path d="M0.000549316 109.39C0.000549316 108.874 0.419145 108.455 0.935509 108.455H2.33795V135.569H0.935509C0.419145 135.569 0.000549316 135.151 0.000549316 134.634V109.39Z" fill="url(#paint8_linear_3712_944)"/>
</g>
<g filter="url(#filter2_iiii_3712_944)">
<path d="M0 158.476C0 157.959 0.418596 157.541 0.93496 157.541H2.3374V209.899H0.93496C0.418596 209.899 0 209.48 0 208.964V158.476Z" fill="url(#paint9_linear_3712_944)"/>
</g>
<g filter="url(#filter3_iiii_3712_944)">
<path d="M336.583 176.24H337.986C338.502 176.24 338.921 176.659 338.921 177.175V256.647C338.921 257.163 338.502 257.581 337.986 257.581H336.583V176.24Z" fill="url(#paint10_linear_3712_944)"/>
</g>
<g filter="url(#filter4_iiii_3712_944)">
<path d="M0 222.52C0 222.004 0.418596 221.585 0.93496 221.585H2.3374V273.943H0.93496C0.418596 273.943 0 273.525 0 273.008V222.52Z" fill="url(#paint11_linear_3712_944)"/>
</g>
</g>
<defs>
<filter id="filter0_ii_3712_944" x="2.3382" y="0" width="334.248" height="685.793" filterUnits="userSpaceOnUse" color-interpolation-filters="sRGB">
<feFlood flood-opacity="0" result="BackgroundImageFix"/>
<feBlend mode="normal" in="SourceGraphic" in2="BackgroundImageFix" result="shape"/>
<feColorMatrix in="SourceAlpha" type="matrix" values="0 0 0 0 0 0 0 0 0 0 0 0 0 0 0 0 0 0 127 0" result="hardAlpha"/>
<feOffset/>
<feGaussianBlur stdDeviation="2.3374"/>
<feComposite in2="hardAlpha" operator="arithmetic" k2="-1" k3="1"/>
<feColorMatrix type="matrix" values="0 0 0 0 0.91 0 0 0 0 0.955 0 0 0 0 1 0 0 0 1 0"/>
<feBlend mode="normal" in2="shape" result="effect1_innerShadow_3712_944"/>
<feColorMatrix in="SourceAlpha" type="matrix" values="0 0 0 0 0 0 0 0 0 0 0 0 0 0 0 0 0 0 127 0" result="hardAlpha"/>
<feOffset/>
<feGaussianBlur stdDeviation="1.1687"/>
<feComposite in2="hardAlpha" operator="arithmetic" k2="-1" k3="1"/>
<feColorMatrix type="matrix" values="0 0 0 0 0 0 0 0 0 0 0 0 0 0 0 0 0 0 1 0"/>
<feBlend mode="normal" in2="effect1_innerShadow_3712_944" result="effect2_innerShadow_3712_944"/>
</filter>
<filter id="filter1_iiii_3712_944" x="0.000549316" y="107.52" width="2.3374" height="28.9837" filterUnits="userSpaceOnUse" color-interpolation-filters="sRGB">
<feFlood flood-opacity="0" result="BackgroundImageFix"/>
<feBlend mode="normal" in="SourceGraphic" in2="BackgroundImageFix" result="shape"/>
<feColorMatrix in="SourceAlpha" type="matrix" values="0 0 0 0 0 0 0 0 0 0 0 0 0 0 0 0 0 0 127 0" result="hardAlpha"/>
<feOffset dy="1.86992"/>
<feGaussianBlur stdDeviation="0.46748"/>
<feComposite in2="hardAlpha" operator="arithmetic" k2="-1" k3="1"/>
<feColorMatrix type="matrix" values="0 0 0 0 1 0 0 0 0 1 0 0 0 0 1 0 0 0 0.08 0"/>
<feBlend mode="normal" in2="shape" result="effect1_innerShadow_3712_944"/>
<feColorMatrix in="SourceAlpha" type="matrix" values="0 0 0 0 0 0 0 0 0 0 0 0 0 0 0 0 0 0 127 0" result="hardAlpha"/>
<feOffset dy="-1.86992"/>
<feGaussianBlur stdDeviation="0.46748"/>
<feComposite in2="hardAlpha" operator="arithmetic" k2="-1" k3="1"/>
<feColorMatrix type="matrix" values="0 0 0 0 1 0 0 0 0 1 0 0 0 0 1 0 0 0 0.08 0"/>
<feBlend mode="normal" in2="effect1_innerShadow_3712_944" result="effect2_innerShadow_3712_944"/>
<feColorMatrix in="SourceAlpha" type="matrix" values="0 0 0 0 0 0 0 0 0 0 0 0 0 0 0 0 0 0 127 0" result="hardAlpha"/>
<feOffset dy="0.46748"/>
<feGaussianBlur stdDeviation="0.23374"/>
<feComposite in2="hardAlpha" operator="arithmetic" k2="-1" k3="1"/>
<feColorMatrix type="matrix" values="0 0 0 0 1 0 0 0 0 1 0 0 0 0 1 0 0 0 0.32 0"/>
<feBlend mode="normal" in2="effect2_innerShadow_3712_944" result="effect3_innerShadow_3712_944"/>
<feColorMatrix in="SourceAlpha" type="matrix" values="0 0 0 0 0 0 0 0 0 0 0 0 0 0 0 0 0 0 127 0" result="hardAlpha"/>
<feOffset dy="-0.46748"/>
<feGaussianBlur stdDeviation="0.23374"/>
<feComposite in2="hardAlpha" operator="arithmetic" k2="-1" k3="1"/>
<feColorMatrix type="matrix" values="0 0 0 0 1 0 0 0 0 1 0 0 0 0 1 0 0 0 0.32 0"/>
<feBlend mode="normal" in2="effect3_innerShadow_3712_944" result="effect4_innerShadow_3712_944"/>
</filter>
<filter id="filter2_iiii_3712_944" x="0" y="156.606" width="2.3374" height="54.2276" filterUnits="userSpaceOnUse" color-interpolation-filters="sRGB">
<feFlood flood-opacity="0" result="BackgroundImageFix"/>
<feBlend mode="normal" in="SourceGraphic" in2="BackgroundImageFix" result="shape"/>
<feColorMatrix in="SourceAlpha" type="matrix" values="0 0 0 0 0 0 0 0 0 0 0 0 0 0 0 0 0 0 127 0" result="hardAlpha"/>
<feOffset dy="1.86992"/>
<feGaussianBlur stdDeviation="0.46748"/>
<feComposite in2="hardAlpha" operator="arithmetic" k2="-1" k3="1"/>
<feColorMatrix type="matrix" values="0 0 0 0 1 0 0 0 0 1 0 0 0 0 1 0 0 0 0.08 0"/>
<feBlend mode="normal" in2="shape" result="effect1_innerShadow_3712_944"/>
<feColorMatrix in="SourceAlpha" type="matrix" values="0 0 0 0 0 0 0 0 0 0 0 0 0 0 0 0 0 0 127 0" result="hardAlpha"/>
<feOffset dy="-1.86992"/>
<feGaussianBlur stdDeviation="0.46748"/>
<feComposite in2="hardAlpha" operator="arithmetic" k2="-1" k3="1"/>
<feColorMatrix type="matrix" values="0 0 0 0 1 0 0 0 0 1 0 0 0 0 1 0 0 0 0.08 0"/>
<feBlend mode="normal" in2="effect1_innerShadow_3712_944" result="effect2_innerShadow_3712_944"/>
<feColorMatrix in="SourceAlpha" type="matrix" values="0 0 0 0 0 0 0 0 0 0 0 0 0 0 0 0 0 0 127 0" result="hardAlpha"/>
<feOffset dy="0.46748"/>
<feGaussianBlur stdDeviation="0.23374"/>
<feComposite in2="hardAlpha" operator="arithmetic" k2="-1" k3="1"/>
<feColorMatrix type="matrix" values="0 0 0 0 1 0 0 0 0 1 0 0 0 0 1 0 0 0 0.32 0"/>
<feBlend mode="normal" in2="effect2_innerShadow_3712_944" result="effect3_innerShadow_3712_944"/>
<feColorMatrix in="SourceAlpha" type="matrix" values="0 0 0 0 0 0 0 0 0 0 0 0 0 0 0 0 0 0 127 0" result="hardAlpha"/>
<feOffset dy="-0.46748"/>
<feGaussianBlur stdDeviation="0.23374"/>
<feComposite in2="hardAlpha" operator="arithmetic" k2="-1" k3="1"/>
<feColorMatrix type="matrix" values="0 0 0 0 1 0 0 0 0 1 0 0 0 0 1 0 0 0 0.32 0"/>
<feBlend mode="normal" in2="effect3_innerShadow_3712_944" result="effect4_innerShadow_3712_944"/>
</filter>
<filter id="filter3_iiii_3712_944" x="336.583" y="175.305" width="2.3374" height="83.2115" filterUnits="userSpaceOnUse" color-interpolation-filters="sRGB">
<feFlood flood-opacity="0" result="BackgroundImageFix"/>
<feBlend mode="normal" in="SourceGraphic" in2="BackgroundImageFix" result="shape"/>
<feColorMatrix in="SourceAlpha" type="matrix" values="0 0 0 0 0 0 0 0 0 0 0 0 0 0 0 0 0 0 127 0" result="hardAlpha"/>
<feOffset dy="1.86992"/>
<feGaussianBlur stdDeviation="0.46748"/>
<feComposite in2="hardAlpha" operator="arithmetic" k2="-1" k3="1"/>
<feColorMatrix type="matrix" values="0 0 0 0 1 0 0 0 0 1 0 0 0 0 1 0 0 0 0.08 0"/>
<feBlend mode="normal" in2="shape" result="effect1_innerShadow_3712_944"/>
<feColorMatrix in="SourceAlpha" type="matrix" values="0 0 0 0 0 0 0 0 0 0 0 0 0 0 0 0 0 0 127 0" result="hardAlpha"/>
<feOffset dy="-1.86992"/>
<feGaussianBlur stdDeviation="0.46748"/>
<feComposite in2="hardAlpha" operator="arithmetic" k2="-1" k3="1"/>
<feColorMatrix type="matrix" values="0 0 0 0 1 0 0 0 0 1 0 0 0 0 1 0 0 0 0.08 0"/>
<feBlend mode="normal" in2="effect1_innerShadow_3712_944" result="effect2_innerShadow_3712_944"/>
<feColorMatrix in="SourceAlpha" type="matrix" values="0 0 0 0 0 0 0 0 0 0 0 0 0 0 0 0 0 0 127 0" result="hardAlpha"/>
<feOffset dy="0.46748"/>
<feGaussianBlur stdDeviation="0.23374"/>
<feComposite in2="hardAlpha" operator="arithmetic" k2="-1" k3="1"/>
<feColorMatrix type="matrix" values="0 0 0 0 1 0 0 0 0 1 0 0 0 0 1 0 0 0 0.32 0"/>
<feBlend mode="normal" in2="effect2_innerShadow_3712_944" result="effect3_innerShadow_3712_944"/>
<feColorMatrix in="SourceAlpha" type="matrix" values="0 0 0 0 0 0 0 0 0 0 0 0 0 0 0 0 0 0 127 0" result="hardAlpha"/>
<feOffset dy="-0.46748"/>
<feGaussianBlur stdDeviation="0.23374"/>
<feComposite in2="hardAlpha" operator="arithmetic" k2="-1" k3="1"/>
<feColorMatrix type="matrix" values="0 0 0 0 1 0 0 0 0 1 0 0 0 0 1 0 0 0 0.32 0"/>
<feBlend mode="normal" in2="effect3_innerShadow_3712_944" result="effect4_innerShadow_3712_944"/>
</filter>
<filter id="filter4_iiii_3712_944" x="0" y="220.65" width="2.3374" height="54.2276" filterUnits="userSpaceOnUse" color-interpolation-filters="sRGB">
<feFlood flood-opacity="0" result="BackgroundImageFix"/>
<feBlend mode="normal" in="SourceGraphic" in2="BackgroundImageFix" result="shape"/>
<feColorMatrix in="SourceAlpha" type="matrix" values="0 0 0 0 0 0 0 0 0 0 0 0 0 0 0 0 0 0 127 0" result="hardAlpha"/>
<feOffset dy="1.86992"/>
<feGaussianBlur stdDeviation="0.46748"/>
<feComposite in2="hardAlpha" operator="arithmetic" k2="-1" k3="1"/>
<feColorMatrix type="matrix" values="0 0 0 0 1 0 0 0 0 1 0 0 0 0 1 0 0 0 0.08 0"/>
<feBlend mode="normal" in2="shape" result="effect1_innerShadow_3712_944"/>
<feColorMatrix in="SourceAlpha" type="matrix" values="0 0 0 0 0 0 0 0 0 0 0 0 0 0 0 0 0 0 127 0" result="hardAlpha"/>
<feOffset dy="-1.86992"/>
<feGaussianBlur stdDeviation="0.46748"/>
<feComposite in2="hardAlpha" operator="arithmetic" k2="-1" k3="1"/>
<feColorMatrix type="matrix" values="0 0 0 0 1 0 0 0 0 1 0 0 0 0 1 0 0 0 0.08 0"/>
<feBlend mode="normal" in2="effect1_innerShadow_3712_944" result="effect2_innerShadow_3712_944"/>
<feColorMatrix in="SourceAlpha" type="matrix" values="0 0 0 0 0 0 0 0 0 0 0 0 0 0 0 0 0 0 127 0" result="hardAlpha"/>
<feOffset dy="0.46748"/>
<feGaussianBlur stdDeviation="0.23374"/>
<feComposite in2="hardAlpha" operator="arithmetic" k2="-1" k3="1"/>
<feColorMatrix type="matrix" values="0 0 0 0 1 0 0 0 0 1 0 0 0 0 1 0 0 0 0.32 0"/>
<feBlend mode="normal" in2="effect2_innerShadow_3712_944" result="effect3_innerShadow_3712_944"/>
<feColorMatrix in="SourceAlpha" type="matrix" values="0 0 0 0 0 0 0 0 0 0 0 0 0 0 0 0 0 0 127 0" result="hardAlpha"/>
<feOffset dy="-0.46748"/>
<feGaussianBlur stdDeviation="0.23374"/>
<feComposite in2="hardAlpha" operator="arithmetic" k2="-1" k3="1"/>
<feColorMatrix type="matrix" values="0 0 0 0 1 0 0 0 0 1 0 0 0 0 1 0 0 0 0.32 0"/>
<feBlend mode="normal" in2="effect3_innerShadow_3712_944" result="effect4_innerShadow_3712_944"/>
</filter>
<linearGradient id="paint0_linear_3712_944" x1="169.462" y1="0" x2="169.462" y2="685.793" gradientUnits="userSpaceOnUse">
<stop stop-color="white" stop-opacity="0.64"/>
<stop offset="1" stop-color="white" stop-opacity="0.32"/>
</linearGradient>
<linearGradient id="paint1_linear_3712_944" x1="0.466736" y1="61.9409" x2="8.4139" y2="61.9409" gradientUnits="userSpaceOnUse">
<stop offset="0.357292" stop-color="#D8E7FF"/>
<stop offset="0.610413" stop-color="white"/>
<stop offset="1" stop-color="#ACC2E7"/>
</linearGradient>
<linearGradient id="paint2_linear_3712_944" x1="0.466736" y1="627.124" x2="8.4139" y2="627.124" gradientUnits="userSpaceOnUse">
<stop offset="0.357292" stop-color="#D8E7FF"/>
<stop offset="0.610413" stop-color="white"/>
<stop offset="1" stop-color="#ACC2E7"/>
</linearGradient>
<linearGradient id="paint3_linear_3712_944" x1="330.508" y1="61.9409" x2="338.455" y2="61.9409" gradientUnits="userSpaceOnUse">
<stop offset="0.357292" stop-color="#D8E7FF"/>
<stop offset="0.610413" stop-color="white"/>
<stop offset="1" stop-color="#ACC2E7"/>
</linearGradient>
<linearGradient id="paint4_linear_3712_944" x1="330.508" y1="627.124" x2="338.455" y2="627.124" gradientUnits="userSpaceOnUse">
<stop offset="0.357292" stop-color="#D8E7FF"/>
<stop offset="0.610413" stop-color="white"/>
<stop offset="1" stop-color="#ACC2E7"/>
</linearGradient>
<linearGradient id="paint5_linear_3712_944" x1="265.526" y1="0.233638" x2="273.474" y2="0.233638" gradientUnits="userSpaceOnUse">
<stop offset="0.357292" stop-color="#D8E7FF"/>
<stop offset="0.610413" stop-color="white"/>
<stop offset="1" stop-color="#ACC2E7"/>
</linearGradient>
<linearGradient id="paint6_linear_3712_944" x1="68.7185" y1="683.222" x2="76.6657" y2="683.222" gradientUnits="userSpaceOnUse">
<stop offset="0.357292" stop-color="#D8E7FF"/>
<stop offset="0.610413" stop-color="white"/>
<stop offset="1" stop-color="#ACC2E7"/>
</linearGradient>
<linearGradient id="paint7_linear_3712_944" x1="26.963" y1="12.4091" x2="307.366" y2="664.956" gradientUnits="userSpaceOnUse">
<stop stop-color="white" stop-opacity="0.16"/>
<stop offset="1" stop-color="white" stop-opacity="0.05"/>
</linearGradient>
<linearGradient id="paint8_linear_3712_944" x1="0.000549316" y1="121.778" x2="2.33795" y2="121.778" gradientUnits="userSpaceOnUse">
<stop stop-color="white" stop-opacity="0.08"/>
<stop offset="0.276042" stop-color="white" stop-opacity="0.24"/>
<stop offset="1" stop-color="white" stop-opacity="0"/>
</linearGradient>
<linearGradient id="paint9_linear_3712_944" x1="0" y1="183.268" x2="2.3374" y2="183.268" gradientUnits="userSpaceOnUse">
<stop stop-color="white" stop-opacity="0.08"/>
<stop offset="0.276042" stop-color="white" stop-opacity="0.24"/>
<stop offset="1" stop-color="white" stop-opacity="0"/>
</linearGradient>
<linearGradient id="paint10_linear_3712_944" x1="336.583" y1="216.21" x2="338.921" y2="216.21" gradientUnits="userSpaceOnUse">
<stop stop-color="white" stop-opacity="0"/>
<stop offset="0.630208" stop-color="white" stop-opacity="0.24"/>
<stop offset="1" stop-color="white" stop-opacity="0.08"/>
</linearGradient>
<linearGradient id="paint11_linear_3712_944" x1="0" y1="247.313" x2="2.3374" y2="247.313" gradientUnits="userSpaceOnUse">
<stop stop-color="white" stop-opacity="0.08"/>
<stop offset="0.276042" stop-color="white" stop-opacity="0.24"/>
<stop offset="1" stop-color="white" stop-opacity="0"/>
</linearGradient>
</defs>
</svg>
