<svg width="1268" height="1268" viewBox="0 0 1268 1268" fill="none" xmlns="http://www.w3.org/2000/svg">
<g opacity="0.5">
<path opacity="0.0344828" d="M203.371 611.824C181.067 602.845 184.492 570.259 208.175 566.114L451.345 523.552C465.112 521.142 474.484 508.243 472.521 494.405L437.857 249.984C434.481 226.179 464.414 212.852 479.845 231.289L638.29 420.599C647.261 431.318 663.117 432.984 674.12 424.365L868.463 272.135C887.39 257.309 913.898 276.568 905.647 299.15L820.922 531.023C816.125 544.151 822.61 558.716 835.576 563.936L1064.58 656.126C1086.89 665.105 1083.46 697.691 1059.78 701.836L816.608 744.398C802.841 746.808 793.469 759.707 795.432 773.545L830.096 1017.97C833.472 1041.77 803.539 1055.1 788.108 1036.66L629.663 847.35C620.692 836.632 604.836 834.966 593.833 843.584L399.49 995.815C380.563 1010.64 354.055 991.382 362.306 968.8L447.031 736.927C451.828 723.799 445.343 709.234 432.377 704.014L203.371 611.824Z" stroke="url(#paint0_linear_3712_865)" stroke-width="2"/>
<path opacity="0.0689655" d="M211.367 590.308C189.564 580.174 194.689 547.813 218.557 544.912L459.249 515.666C473.123 513.98 483.157 501.589 481.922 487.667L460.486 246.154C458.361 222.206 488.95 210.463 503.395 229.683L649.069 423.505C657.466 434.678 673.214 437.172 684.653 429.141L883.092 289.821C902.769 276.006 928.233 296.626 918.811 318.746L823.793 541.814C818.316 554.673 824.029 569.558 836.704 575.449L1056.58 677.642C1078.38 687.776 1073.26 720.137 1049.39 723.037L808.696 752.284C794.822 753.97 784.788 766.361 786.023 780.283L807.459 1021.8C809.584 1045.74 778.995 1057.49 764.55 1038.27L618.876 844.445C610.478 833.272 594.731 830.778 583.292 838.809L384.853 978.129C365.175 991.944 339.712 971.324 349.134 949.204L444.152 726.136C449.629 713.277 443.915 698.392 431.241 692.501L211.367 590.308Z" stroke="url(#paint1_linear_3712_865)" stroke-width="2"/>
<path opacity="0.103448" d="M220.419 569.566C199.176 558.305 205.988 526.256 229.975 524.609L467.474 508.301C481.417 507.344 492.086 495.495 491.581 481.527L482.974 243.625C482.104 219.598 513.266 209.473 526.686 229.422L659.558 426.948C667.359 438.545 682.955 441.86 694.798 434.439L896.525 308.034C916.898 295.267 941.247 317.192 930.681 338.788L826.054 552.622C819.911 565.176 824.838 580.34 837.187 586.886L1047.52 698.384C1068.76 709.645 1061.95 741.694 1037.96 743.341L800.466 759.649C786.522 760.606 775.853 772.455 776.358 786.422L784.965 1024.32C785.834 1048.35 754.673 1058.48 741.253 1038.53L608.381 841.002C600.58 829.405 584.984 826.09 573.141 833.511L371.414 959.916C351.041 972.682 326.692 950.758 337.258 929.162L441.885 715.328C448.028 702.773 443.101 687.61 430.752 681.064L220.419 569.566Z" stroke="url(#paint2_linear_3712_865)" stroke-width="2"/>
<path opacity="0.137931" d="M230.474 549.649C209.85 537.292 218.33 505.643 242.37 505.253L475.993 501.469C489.968 501.243 501.242 489.968 501.469 475.994L505.253 242.37C505.642 218.331 537.291 209.85 549.648 230.475L669.737 430.906C676.921 442.895 692.322 447.022 704.537 440.231L908.753 326.697C929.767 315.014 952.935 338.182 941.253 359.196L827.719 563.412C820.927 575.628 825.054 591.029 837.043 598.212L1037.47 718.301C1058.1 730.658 1049.62 762.307 1025.58 762.696L791.956 766.481C777.981 766.707 766.707 777.981 766.48 791.956L762.696 1025.58C762.307 1049.62 730.658 1058.1 718.301 1037.47L598.212 837.044C591.028 825.054 575.627 820.928 563.412 827.719L359.196 941.253C338.182 952.936 315.014 929.767 326.696 908.753L440.23 704.538C447.022 692.322 442.895 676.921 430.906 669.738L230.474 549.649Z" stroke="url(#paint3_linear_3712_865)" stroke-width="2"/>
<path opacity="0.172414" d="M241.456 530.603C221.507 517.183 231.632 486.022 255.659 486.891L484.758 495.179C498.726 495.685 510.575 485.016 511.532 471.072L527.237 242.361C528.884 218.375 560.933 211.562 572.194 232.805L679.566 435.355C686.112 447.704 701.275 452.631 713.83 446.489L919.752 345.734C941.348 335.167 963.272 359.516 950.506 379.889L828.778 574.151C821.357 585.995 824.672 601.591 836.269 609.392L1026.49 737.348C1046.44 750.767 1036.31 781.929 1012.28 781.06L783.183 772.771C769.216 772.266 757.367 782.935 756.41 796.878L740.705 1025.59C739.058 1049.58 707.009 1056.39 695.748 1035.15L588.376 832.595C581.83 820.246 566.666 815.319 554.112 821.462L348.19 922.217C326.594 932.784 304.67 908.434 317.436 888.061L439.164 693.799C446.585 681.955 443.27 666.36 431.673 658.559L241.456 530.603Z" stroke="url(#paint4_linear_3712_865)" stroke-width="2"/>
<path opacity="0.206897" d="M253.319 512.47C234.099 498.024 245.841 467.435 269.79 469.561L493.755 489.439C507.677 490.674 520.068 480.641 521.754 466.766L548.875 243.562C551.775 219.695 584.137 214.569 594.271 236.372L689.038 440.271C694.929 452.945 709.814 458.659 722.673 453.182L929.534 365.068C951.653 355.646 972.273 381.109 958.458 400.787L829.261 584.807C821.23 596.246 823.724 611.994 834.897 620.391L1014.64 755.481C1033.86 769.926 1022.11 800.515 998.165 798.389L774.2 778.511C760.278 777.276 747.887 787.31 746.202 801.184L719.08 1024.39C716.18 1048.26 683.818 1053.38 673.685 1031.58L578.917 827.68C573.026 815.005 558.141 809.291 545.282 814.769L338.421 902.882C316.302 912.305 295.682 886.841 309.497 867.164L438.694 683.143C446.725 671.704 444.231 655.957 433.058 647.559L253.319 512.47Z" stroke="url(#paint5_linear_3712_865)" stroke-width="2"/>
<path opacity="0.241379" d="M265.978 495.288C247.541 479.857 260.868 449.924 284.672 453.3L502.929 484.254C516.767 486.216 529.666 476.844 532.076 463.077L570.083 245.937C574.228 222.254 606.814 218.829 615.792 241.133L698.114 445.626C703.334 458.591 717.899 465.076 731.027 460.28L938.079 384.624C960.662 376.373 979.92 402.88 965.094 421.808L829.159 595.347C820.541 606.35 822.207 622.207 832.925 631.177L1001.97 772.662C1020.41 788.093 1007.08 818.026 983.277 814.65L765.02 783.696C751.181 781.734 738.282 791.105 735.873 804.873L697.866 1022.01C693.721 1045.7 661.135 1049.12 652.156 1026.82L569.835 822.324C564.615 809.358 550.049 802.873 536.922 807.67L329.87 883.326C307.287 891.577 288.028 865.069 302.854 846.142L438.789 672.603C447.408 661.6 445.742 645.743 435.024 636.772L265.978 495.288Z" stroke="url(#paint6_linear_3712_865)" stroke-width="2"/>
<path opacity="0.275862" d="M279.385 479.093C261.781 462.718 276.656 433.524 300.251 438.141L512.267 479.629C525.983 482.313 539.355 473.63 542.482 460.007L590.815 249.447C596.194 226.013 628.915 224.298 636.714 247.041L706.792 451.396C711.325 464.617 725.532 471.856 738.893 467.752L945.41 404.33C968.394 397.272 986.239 424.751 970.443 442.876L828.505 605.743C819.322 616.28 820.157 632.202 830.391 641.721L988.575 788.86C1006.18 805.235 991.304 834.429 967.709 829.811L755.693 788.323C741.977 785.639 728.605 794.323 725.478 807.945L677.145 1018.51C671.765 1041.94 639.045 1043.65 631.246 1020.91L561.168 816.557C556.634 803.336 542.428 796.097 529.067 800.2L322.55 863.623C299.566 870.681 281.721 843.202 297.517 825.076L439.455 662.21C448.638 651.673 447.803 635.75 437.569 626.231L279.385 479.093Z" stroke="url(#paint7_linear_3712_865)" stroke-width="2"/>
<path opacity="0.310345" d="M293.453 463.91C276.73 446.636 293.112 418.261 316.433 424.106L521.715 475.563C535.272 478.961 549.08 470.989 552.916 457.549L610.994 254.042C617.592 230.922 650.357 230.922 656.956 254.042L715.034 457.549C718.869 470.989 732.677 478.961 746.235 475.563L951.516 424.106C974.838 418.261 991.22 446.636 974.497 463.91L827.294 615.961C817.572 626.003 817.572 641.947 827.294 651.989L974.497 804.04C991.22 821.314 974.838 849.689 951.516 843.843L746.235 792.387C732.677 788.989 718.869 796.961 715.034 810.401L656.956 1013.91C650.358 1037.03 617.592 1037.03 610.994 1013.91L552.916 810.401C549.08 796.961 535.272 788.989 521.715 792.387L316.434 843.843C293.112 849.689 276.729 821.314 293.453 804.04L440.656 651.989C450.378 641.947 450.378 626.003 440.656 615.961L293.453 463.91Z" stroke="url(#paint8_linear_3712_865)" stroke-width="2"/>
<path opacity="0.344828" d="M308.126 449.769C292.329 431.643 310.175 404.164 333.158 411.222L531.255 472.059C544.616 476.162 558.822 468.923 563.356 455.702L630.577 259.68C638.376 236.937 671.096 238.652 676.475 262.085L722.838 464.061C725.964 477.683 739.336 486.367 753.053 483.683L956.424 443.886C980.019 439.269 994.894 468.463 977.29 484.838L825.555 625.977C815.322 635.496 814.487 651.418 823.67 661.955L959.82 818.181C975.616 836.307 957.771 863.786 934.788 856.728L736.691 795.891C723.33 791.788 709.124 799.027 704.59 812.247L637.369 1008.27C629.57 1031.01 596.85 1029.3 591.471 1005.86L545.108 803.889C541.981 790.267 528.609 781.583 514.893 784.267L311.522 824.064C287.927 828.681 273.051 799.487 290.656 783.112L442.39 641.973C452.624 632.454 453.459 616.532 444.276 605.995L308.126 449.769Z" stroke="url(#paint9_linear_3712_865)" stroke-width="2"/>
<path opacity="0.37931" d="M323.333 436.688C308.507 417.761 327.766 391.253 350.348 399.505L540.853 469.114C553.981 473.911 568.547 467.426 573.766 454.46L649.509 266.31C658.488 244.006 691.073 247.431 695.219 271.114L730.188 470.901C732.597 484.668 745.496 494.04 759.335 492.077L960.149 463.597C983.954 460.221 997.281 490.154 978.843 505.585L823.308 635.763C812.59 644.733 810.923 660.59 819.542 671.593L944.613 831.263C959.439 850.191 940.18 876.698 917.598 868.447L727.093 798.838C713.965 794.041 699.399 800.526 694.18 813.491L618.437 1001.64C609.459 1023.95 576.873 1020.52 572.727 996.837L537.758 797.051C535.349 783.284 522.45 773.912 508.611 775.874L307.797 804.354C283.992 807.73 270.666 777.798 289.103 762.366L444.639 632.189C455.357 623.218 457.023 607.362 448.404 596.359L323.333 436.688Z" stroke="url(#paint10_linear_3712_865)" stroke-width="2"/>
<path opacity="0.413793" d="M339.01 424.684C325.195 405.006 345.815 379.543 367.934 388.965L550.483 466.723C563.342 472.2 578.227 466.487 584.118 453.812L667.748 273.878C677.881 252.075 710.243 257.2 713.143 281.067L737.077 478.038C738.763 491.913 751.154 501.947 765.076 500.711L962.719 483.17C986.667 481.044 998.409 511.633 979.19 526.078L820.575 645.291C809.402 653.688 806.908 669.436 814.939 680.875L928.952 843.268C942.767 862.945 922.147 888.409 900.027 878.987L717.479 801.229C704.62 795.751 689.735 801.465 683.844 814.14L600.214 994.074C590.081 1015.88 557.719 1010.75 554.819 986.884L530.885 789.913C529.199 776.039 516.808 766.005 502.886 767.24L305.243 784.782C281.295 786.908 269.552 756.319 288.772 741.873L447.387 622.661C458.56 614.263 461.054 598.516 453.023 587.077L339.01 424.684Z" stroke="url(#paint11_linear_3712_865)" stroke-width="2"/>
<path opacity="0.448276" d="M355.063 413.767C342.296 393.394 364.221 369.045 385.817 379.611L560.09 464.881C572.644 471.024 587.808 466.097 594.354 453.748L685.224 282.328C696.484 261.086 728.534 267.898 730.181 291.884L743.471 485.444C744.429 499.388 756.278 510.056 770.245 509.551L964.134 502.536C988.161 501.667 998.286 532.829 978.336 546.248L817.354 654.538C805.757 662.339 802.442 677.935 809.864 689.778L912.883 854.184C925.649 874.557 903.725 898.906 882.129 888.34L707.856 803.07C695.301 796.927 680.138 801.854 673.591 814.203L582.722 985.623C571.461 1006.87 539.412 1000.05 537.765 976.067L524.474 782.507C523.517 768.563 511.668 757.895 497.7 758.4L303.812 765.414C279.785 766.284 269.66 735.122 289.609 721.703L450.591 613.413C462.188 605.612 465.503 590.016 458.082 578.172L355.063 413.767Z" stroke="url(#paint12_linear_3712_865)" stroke-width="2"/>
<path opacity="0.482759" d="M371.449 403.947C359.766 382.933 382.935 359.765 403.948 371.447L569.67 463.581C581.886 470.372 597.287 466.246 604.47 454.256L701.923 291.605C714.28 270.981 745.929 279.461 746.318 303.501L749.39 493.087C749.616 507.062 760.89 518.336 774.865 518.563L964.451 521.634C988.491 522.023 996.971 553.672 976.347 566.029L813.696 663.482C801.706 670.665 797.58 686.066 804.371 698.282L896.505 864.004C908.187 885.017 885.019 908.186 864.005 896.503L698.283 804.37C686.067 797.578 670.667 801.705 663.483 813.694L566.03 976.345C553.673 996.97 522.024 988.489 521.635 964.45L518.564 774.864C518.338 760.889 507.063 749.614 493.089 749.388L303.502 746.317C279.463 745.928 270.982 714.279 291.607 701.922L454.258 604.469C466.247 597.286 470.374 581.885 463.582 569.669L371.449 403.947Z" stroke="url(#paint13_linear_3712_865)" stroke-width="2"/>
<path opacity="0.517241" d="M388.081 395.226C377.514 373.63 401.863 351.706 422.237 364.472L579.177 462.814C591.021 470.235 606.617 466.92 614.418 455.323L717.791 301.65C731.211 281.701 762.372 291.826 761.503 315.853L754.807 500.938C754.302 514.906 764.97 526.755 778.914 527.712L963.686 540.399C987.672 542.046 994.485 574.096 973.242 585.356L809.605 672.1C797.256 678.646 792.329 693.81 798.472 706.365L879.87 872.725C890.437 894.322 866.088 916.246 845.714 903.479L688.773 805.138C676.93 797.716 661.334 801.031 653.533 812.628L550.159 966.302C536.74 986.251 505.578 976.126 506.448 952.099L513.144 767.013C513.649 753.046 502.98 741.197 489.036 740.239L304.265 727.552C280.278 725.905 273.466 693.856 294.709 682.595L458.346 595.851C470.695 589.305 475.622 574.141 469.479 561.587L388.081 395.226Z" stroke="url(#paint14_linear_3712_865)" stroke-width="2"/>
<path opacity="0.551724" d="M404.892 387.602C395.47 365.482 420.933 344.862 440.611 358.677L588.585 462.567C600.024 470.598 615.772 468.104 624.169 456.931L732.798 312.399C747.243 293.18 777.832 304.922 775.706 328.87L759.722 508.965C758.486 522.887 768.52 535.278 782.395 536.964L961.877 558.773C985.745 561.673 990.87 594.035 969.067 604.168L805.109 680.373C792.434 686.264 786.72 701.149 792.198 714.007L863.052 880.348C872.474 902.468 847.01 923.088 827.333 909.273L679.359 805.383C667.92 797.352 652.172 799.846 643.775 811.019L535.146 955.55C520.701 974.77 490.112 963.028 492.238 939.079L508.222 758.985C509.457 745.063 499.424 732.672 485.549 730.986L306.067 709.177C282.199 706.277 277.074 673.915 298.877 663.782L462.835 587.577C475.51 581.686 481.224 566.801 475.746 553.942L404.892 387.602Z" stroke="url(#paint15_linear_3712_865)" stroke-width="2"/>
<path opacity="0.586207" d="M421.827 381.071C413.575 358.488 440.083 339.229 459.01 354.055L597.877 462.831C608.88 471.45 624.737 469.783 633.708 459.065L746.924 323.794C762.356 305.357 792.288 318.684 788.912 342.488L764.143 517.139C762.18 530.977 771.552 543.876 785.319 546.286L959.076 576.699C982.759 580.844 986.184 613.43 963.88 622.409L800.244 688.283C787.279 693.503 780.793 708.068 785.59 721.196L846.13 886.88C854.382 909.463 827.874 928.722 808.947 913.896L670.079 805.12C659.076 796.501 643.22 798.167 634.249 808.885L521.032 944.157C505.601 962.594 475.668 949.267 479.044 925.462L503.814 750.812C505.776 736.974 496.405 724.075 482.637 721.665L308.881 691.252C285.198 687.107 281.773 654.521 304.076 645.542L467.713 579.668C480.678 574.448 487.163 559.883 482.366 546.755L421.827 381.071Z" stroke="url(#paint16_linear_3712_865)" stroke-width="2"/>
<path opacity="0.62069" d="M438.795 375.622C431.737 352.638 459.216 334.793 477.342 350.589L607.006 463.59C617.542 472.773 633.465 471.939 642.984 461.705L760.125 335.769C776.5 318.165 805.694 333.04 801.077 356.635L768.047 525.428C765.363 539.144 774.047 552.516 787.669 555.643L955.303 594.123C978.737 599.502 980.452 632.222 957.709 640.021L795.015 695.813C781.794 700.347 774.556 714.553 778.659 727.914L829.152 892.329C836.21 915.312 808.731 933.158 790.605 917.361L660.942 804.36C650.405 795.177 634.483 796.012 624.963 806.246L507.822 932.181C491.447 949.786 462.253 934.911 466.87 911.315L499.9 742.523C502.584 728.806 493.9 715.434 480.278 712.307L312.644 673.828C289.21 668.449 287.496 635.728 310.238 627.929L472.932 572.138C486.153 567.604 493.391 553.398 489.288 540.037L438.795 375.622Z" stroke="url(#paint17_linear_3712_865)" stroke-width="2"/>
<path opacity="0.655172" d="M455.75 371.242C449.904 347.92 478.28 331.538 495.554 348.261L615.961 464.83C626.003 474.551 641.947 474.551 651.989 464.83L772.396 348.261C789.67 331.538 818.046 347.92 812.2 371.242L771.452 533.802C768.054 547.359 776.026 561.167 789.466 565.003L950.622 610.994C973.741 617.592 973.741 650.358 950.622 656.956L789.466 702.947C776.026 706.783 768.054 720.591 771.452 734.148L812.2 896.709C818.046 920.03 789.67 936.413 772.396 919.689L651.989 803.121C641.947 793.399 626.003 793.399 615.961 803.121L495.554 919.689C478.28 936.413 449.904 920.03 455.75 896.709L496.498 734.148C499.896 720.591 491.924 706.783 478.484 702.947L317.328 656.956C294.209 650.358 294.209 617.593 317.328 610.994L478.484 565.003C491.924 561.167 499.896 547.359 496.498 533.802L455.75 371.242Z" stroke="url(#paint18_linear_3712_865)" stroke-width="2"/>
<path opacity="0.689655" d="M472.619 367.896C468.002 344.301 497.196 329.426 513.571 347.03L624.713 466.516C634.232 476.75 650.155 477.584 660.691 468.402L783.714 361.188C801.84 345.392 829.319 363.237 822.261 386.22L774.354 542.215C770.251 555.576 777.489 569.782 790.71 574.316L945.072 627.25C967.814 635.049 966.1 667.769 942.666 673.148L783.617 709.657C769.995 712.784 761.311 726.156 763.995 739.873L795.334 900.021C799.951 923.616 770.757 938.491 754.382 920.887L643.24 801.401C633.72 791.167 617.798 790.333 607.261 799.515L484.238 906.729C466.113 922.525 438.634 904.68 445.692 881.697L493.599 725.702C497.702 712.341 490.463 698.135 477.242 693.601L322.881 640.667C300.138 632.868 301.853 600.148 325.287 594.768L484.335 558.26C497.958 555.133 506.642 541.761 503.957 528.044L472.619 367.896Z" stroke="url(#paint19_linear_3712_865)" stroke-width="2"/>
<path opacity="0.724138" d="M489.335 365.598C485.959 341.793 515.892 328.466 531.323 346.904L633.233 468.665C642.203 479.383 658.06 481.05 669.063 472.431L794.061 374.518C812.989 359.692 839.496 378.951 831.245 401.534L776.751 550.671C771.954 563.799 778.439 578.364 791.405 583.584L938.699 642.879C961.002 651.858 957.577 684.444 933.895 688.589L777.491 715.965C763.724 718.374 754.352 731.273 756.315 745.112L778.61 902.32C781.986 926.124 752.054 939.451 736.622 921.014L634.713 799.252C625.742 788.534 609.885 786.868 598.882 795.486L473.884 893.399C454.957 908.225 428.449 888.966 436.701 866.383L491.194 717.246C495.991 704.119 489.506 689.553 476.54 684.333L329.247 625.038C306.943 616.059 310.368 583.474 334.051 579.328L490.454 551.953C504.222 549.543 513.593 536.644 511.631 522.806L489.335 365.598Z" stroke="url(#paint20_linear_3712_865)" stroke-width="2"/>
<path opacity="0.758621" d="M505.849 364.305C503.723 340.356 534.312 328.614 548.757 347.833L641.509 471.241C649.906 482.414 665.654 484.908 677.093 476.877L803.44 388.171C823.117 374.356 848.581 394.976 839.158 417.096L778.66 559.124C773.183 571.983 778.897 586.868 791.571 592.759L931.566 657.826C953.369 667.959 948.243 700.321 924.376 703.221L771.126 721.843C757.252 723.528 747.218 735.919 748.454 749.841L762.102 903.614C764.227 927.562 733.638 939.304 719.193 920.085L626.441 796.677C618.044 785.505 602.296 783.01 590.857 791.041L464.511 879.747C444.833 893.562 419.37 872.942 428.792 850.823L489.29 708.794C494.767 695.935 489.054 681.05 476.379 675.159L336.384 610.093C314.581 599.959 319.707 567.597 343.574 564.697L496.824 546.076C510.698 544.39 520.732 531.999 519.497 518.077L505.849 364.305Z" stroke="url(#paint21_linear_3712_865)" stroke-width="2"/>
<path opacity="0.793103" d="M522.093 363.987C521.223 339.96 552.385 329.835 565.804 349.784L649.512 474.222C657.313 485.819 672.909 489.134 684.752 481.713L811.836 402.08C832.21 389.313 856.559 411.237 845.992 432.834L780.079 567.546C773.936 580.1 778.863 595.264 791.212 601.81L923.719 672.051C944.961 683.312 938.149 715.361 914.163 717.008L764.542 727.282C750.599 728.239 739.93 740.088 740.435 754.056L745.857 903.93C746.727 927.957 715.565 938.082 702.146 918.133L618.438 793.695C610.637 782.098 595.041 778.783 583.198 786.204L456.114 865.837C435.74 878.604 411.391 856.68 421.958 835.083L487.871 700.372C494.013 687.817 489.087 672.653 476.738 666.107L344.231 595.866C322.989 584.605 329.801 552.556 353.787 550.909L503.408 540.635C517.351 539.678 528.02 527.829 527.515 513.861L522.093 363.987Z" stroke="url(#paint22_linear_3712_865)" stroke-width="2"/>
<path opacity="0.827586" d="M538.011 364.615C538.4 340.575 570.049 332.095 582.406 352.719L657.223 477.59C664.406 489.579 679.807 493.706 692.023 486.914L819.251 416.181C840.265 404.499 863.433 427.667 851.751 448.681L781.018 575.909C774.226 588.125 778.353 603.526 790.342 610.709L915.213 685.526C935.837 697.883 927.357 729.532 903.317 729.921L757.768 732.279C743.793 732.505 732.519 743.779 732.293 757.754L729.935 903.303C729.545 927.343 697.897 935.823 685.54 915.199L610.723 790.328C603.54 778.339 588.139 774.212 575.923 781.004L448.695 851.737C427.681 863.419 404.513 840.251 416.195 819.237L486.928 692.009C493.719 679.793 489.593 664.392 477.603 657.209L352.733 582.392C332.109 570.035 340.589 538.386 364.629 537.997L510.178 535.639C524.153 535.413 535.427 524.139 535.653 510.164L538.011 364.615Z" stroke="url(#paint23_linear_3712_865)" stroke-width="2"/>
<path opacity="0.862069" d="M553.557 366.152C555.204 342.166 587.253 335.354 598.514 356.596L664.63 481.32C671.176 493.669 686.34 498.596 698.894 492.453L825.694 430.412C847.29 419.845 869.214 444.194 856.448 464.568L781.492 584.187C774.071 596.031 777.386 611.627 788.982 619.428L906.112 698.218C926.061 711.638 915.936 742.8 891.909 741.93L750.837 736.827C736.87 736.321 725.021 746.99 724.063 760.934L714.393 901.766C712.746 925.753 680.697 932.565 669.436 911.322L603.32 786.599C596.774 774.25 581.61 769.323 569.056 775.465L442.257 837.507C420.66 848.074 398.736 823.724 411.502 803.351L486.458 683.731C493.88 671.888 490.565 656.292 478.968 648.491L361.838 569.7C341.889 556.28 352.014 525.119 376.041 525.988L517.113 531.092C531.08 531.597 542.929 520.929 543.887 506.985L553.557 366.152Z" stroke="url(#paint24_linear_3712_865)" stroke-width="2"/>
<path opacity="0.896552" d="M568.674 368.561C571.574 344.693 603.936 339.568 614.07 361.371L671.711 485.39C677.602 498.064 692.487 503.778 705.346 498.301L831.167 444.706C853.286 435.284 873.906 460.748 860.091 480.425L781.508 592.354C773.477 603.792 775.971 619.54 787.144 627.938L896.469 710.104C915.688 724.55 903.946 755.139 879.998 753.013L743.773 740.923C729.851 739.687 717.461 749.721 715.775 763.595L699.278 899.357C696.378 923.224 664.016 928.349 653.883 906.547L596.241 782.528C590.351 769.853 575.465 764.139 562.607 769.616L436.786 823.211C414.666 832.633 394.046 807.17 407.862 787.492L486.444 675.564C494.475 664.125 491.981 648.377 480.808 639.98L371.484 557.813C352.264 543.368 364.006 512.779 387.955 514.904L524.179 526.995C538.101 528.23 550.492 518.196 552.178 504.322L568.674 368.561Z" stroke="url(#paint25_linear_3712_865)" stroke-width="2"/>
<path opacity="0.931035" d="M583.313 371.801C587.458 348.118 620.044 344.693 629.022 366.997L678.449 489.777C683.669 502.742 698.235 509.227 711.362 504.431L835.679 459.006C858.261 450.755 877.52 477.262 862.694 496.19L781.077 600.385C772.458 611.388 774.125 627.245 784.843 636.215L886.34 721.164C904.777 736.595 891.45 766.528 867.646 763.152L736.602 744.567C722.764 742.605 709.864 751.976 707.455 765.744L684.635 896.117C680.49 919.8 647.904 923.225 638.926 900.921L589.499 778.141C584.279 765.176 569.713 758.691 556.586 763.488L432.269 808.912C409.687 817.163 390.428 790.656 405.254 771.728L486.871 667.533C495.49 656.53 493.823 640.674 483.105 631.703L381.608 546.754C363.171 531.323 376.498 501.39 400.302 504.766L531.346 523.351C545.184 525.314 558.083 515.942 560.493 502.175L583.313 371.801Z" stroke="url(#paint26_linear_3712_865)" stroke-width="2"/>
<path opacity="0.965517" d="M597.431 375.829C602.81 352.396 635.53 350.681 643.329 373.424L684.834 494.456C689.368 507.677 703.574 514.916 716.935 510.812L839.248 473.249C862.232 466.191 880.077 493.67 864.281 511.796L780.216 608.256C771.033 618.793 771.868 634.715 782.101 644.235L875.789 731.379C893.393 747.755 878.518 776.949 854.923 772.331L729.353 747.759C715.636 745.075 702.265 753.759 699.138 767.381L670.512 892.089C665.133 915.523 632.412 917.237 624.613 894.495L583.108 773.462C578.575 760.241 564.368 753.003 551.007 757.106L428.694 794.669C405.711 801.727 387.866 774.248 403.662 756.123L487.727 659.662C496.909 649.125 496.075 633.203 485.841 623.684L392.154 536.539C374.55 520.164 389.425 490.97 413.02 495.587L538.59 520.159C552.306 522.843 565.678 514.159 568.805 500.537L597.431 375.829Z" stroke="url(#paint27_linear_3712_865)" stroke-width="2"/>
<path d="M610.995 380.599C617.593 357.479 650.358 357.479 656.956 380.599L690.861 499.403C694.697 512.843 708.505 520.815 722.062 517.416L841.901 487.377C865.223 481.531 881.605 509.907 864.882 527.181L778.948 615.945C769.226 625.987 769.226 641.931 778.948 651.973L864.882 740.737C881.605 758.011 865.223 786.387 841.901 780.541L722.062 750.502C708.505 747.103 694.697 755.075 690.861 768.515L656.956 887.319C650.358 910.439 617.593 910.439 610.995 887.319L577.09 768.515C573.254 755.075 559.446 747.103 545.889 750.502L426.05 780.541C402.728 786.387 386.346 758.011 403.069 740.737L489.003 651.973C498.725 641.931 498.725 625.987 489.003 615.945L403.069 527.181C386.346 509.907 402.728 481.531 426.05 487.377L545.889 517.416C559.446 520.815 573.254 512.843 577.09 499.403L610.995 380.599Z" stroke="url(#paint28_linear_3712_865)" stroke-width="2"/>
</g>
<defs>
<linearGradient id="paint0_linear_3712_865" x1="154.732" y1="269.367" x2="4187.64" y2="2152.48" gradientUnits="userSpaceOnUse">
<stop stop-color="#00DECA"/>
<stop offset="0.37798" stop-color="#3A8AFA"/>
<stop offset="1" stop-color="#1A6AF4"/>
</linearGradient>
<linearGradient id="paint1_linear_3712_865" x1="180.116" y1="249.571" x2="4060.63" y2="2315.46" gradientUnits="userSpaceOnUse">
<stop stop-color="#00DECA"/>
<stop offset="0.37798" stop-color="#3A8AFA"/>
<stop offset="1" stop-color="#1A6AF4"/>
</linearGradient>
<linearGradient id="paint2_linear_3712_865" x1="206.245" y1="231.419" x2="3926.43" y2="2469.35" gradientUnits="userSpaceOnUse">
<stop stop-color="#00DECA"/>
<stop offset="0.37798" stop-color="#3A8AFA"/>
<stop offset="1" stop-color="#1A6AF4"/>
</linearGradient>
<linearGradient id="paint3_linear_3712_865" x1="233.023" y1="214.934" x2="3785.63" y2="2613.88" gradientUnits="userSpaceOnUse">
<stop stop-color="#00DECA"/>
<stop offset="0.37798" stop-color="#3A8AFA"/>
<stop offset="1" stop-color="#1A6AF4"/>
</linearGradient>
<linearGradient id="paint4_linear_3712_865" x1="260.331" y1="200.135" x2="3638.84" y2="2748.76" gradientUnits="userSpaceOnUse">
<stop stop-color="#00DECA"/>
<stop offset="0.37798" stop-color="#3A8AFA"/>
<stop offset="1" stop-color="#1A6AF4"/>
</linearGradient>
<linearGradient id="paint5_linear_3712_865" x1="288.087" y1="187.03" x2="3486.67" y2="2873.78" gradientUnits="userSpaceOnUse">
<stop stop-color="#00DECA"/>
<stop offset="0.37798" stop-color="#3A8AFA"/>
<stop offset="1" stop-color="#1A6AF4"/>
</linearGradient>
<linearGradient id="paint6_linear_3712_865" x1="316.168" y1="175.624" x2="3329.75" y2="2988.75" gradientUnits="userSpaceOnUse">
<stop stop-color="#00DECA"/>
<stop offset="0.37798" stop-color="#3A8AFA"/>
<stop offset="1" stop-color="#1A6AF4"/>
</linearGradient>
<linearGradient id="paint7_linear_3712_865" x1="344.491" y1="165.917" x2="3168.72" y2="3093.53" gradientUnits="userSpaceOnUse">
<stop stop-color="#00DECA"/>
<stop offset="0.37798" stop-color="#3A8AFA"/>
<stop offset="1" stop-color="#1A6AF4"/>
</linearGradient>
<linearGradient id="paint8_linear_3712_865" x1="372.939" y1="157.899" x2="3004.2" y2="3187.99" gradientUnits="userSpaceOnUse">
<stop stop-color="#00DECA"/>
<stop offset="0.37798" stop-color="#3A8AFA"/>
<stop offset="1" stop-color="#1A6AF4"/>
</linearGradient>
<linearGradient id="paint9_linear_3712_865" x1="401.426" y1="151.559" x2="2836.83" y2="3272.06" gradientUnits="userSpaceOnUse">
<stop stop-color="#00DECA"/>
<stop offset="0.37798" stop-color="#3A8AFA"/>
<stop offset="1" stop-color="#1A6AF4"/>
</linearGradient>
<linearGradient id="paint10_linear_3712_865" x1="429.854" y1="146.879" x2="2667.24" y2="3345.72" gradientUnits="userSpaceOnUse">
<stop stop-color="#00DECA"/>
<stop offset="0.37798" stop-color="#3A8AFA"/>
<stop offset="1" stop-color="#1A6AF4"/>
</linearGradient>
<linearGradient id="paint11_linear_3712_865" x1="458.134" y1="143.833" x2="2496.07" y2="3408.96" gradientUnits="userSpaceOnUse">
<stop stop-color="#00DECA"/>
<stop offset="0.37798" stop-color="#3A8AFA"/>
<stop offset="1" stop-color="#1A6AF4"/>
</linearGradient>
<linearGradient id="paint12_linear_3712_865" x1="486.151" y1="142.391" x2="2323.9" y2="3461.83" gradientUnits="userSpaceOnUse">
<stop stop-color="#00DECA"/>
<stop offset="0.37798" stop-color="#3A8AFA"/>
<stop offset="1" stop-color="#1A6AF4"/>
</linearGradient>
<linearGradient id="paint13_linear_3712_865" x1="513.843" y1="142.52" x2="2151.38" y2="3504.39" gradientUnits="userSpaceOnUse">
<stop stop-color="#00DECA"/>
<stop offset="0.37798" stop-color="#3A8AFA"/>
<stop offset="1" stop-color="#1A6AF4"/>
</linearGradient>
<linearGradient id="paint14_linear_3712_865" x1="541.107" y1="144.181" x2="1979.1" y2="3536.76" gradientUnits="userSpaceOnUse">
<stop stop-color="#00DECA"/>
<stop offset="0.37798" stop-color="#3A8AFA"/>
<stop offset="1" stop-color="#1A6AF4"/>
</linearGradient>
<linearGradient id="paint15_linear_3712_865" x1="567.861" y1="147.327" x2="1807.64" y2="3559.08" gradientUnits="userSpaceOnUse">
<stop stop-color="#00DECA"/>
<stop offset="0.37798" stop-color="#3A8AFA"/>
<stop offset="1" stop-color="#1A6AF4"/>
</linearGradient>
<linearGradient id="paint16_linear_3712_865" x1="594.038" y1="151.913" x2="1637.59" y2="3571.54" gradientUnits="userSpaceOnUse">
<stop stop-color="#00DECA"/>
<stop offset="0.37798" stop-color="#3A8AFA"/>
<stop offset="1" stop-color="#1A6AF4"/>
</linearGradient>
<linearGradient id="paint17_linear_3712_865" x1="619.542" y1="157.884" x2="1469.48" y2="3574.33" gradientUnits="userSpaceOnUse">
<stop stop-color="#00DECA"/>
<stop offset="0.37798" stop-color="#3A8AFA"/>
<stop offset="1" stop-color="#1A6AF4"/>
</linearGradient>
<linearGradient id="paint18_linear_3712_865" x1="644.317" y1="165.183" x2="1303.87" y2="3567.71" gradientUnits="userSpaceOnUse">
<stop stop-color="#00DECA"/>
<stop offset="0.37798" stop-color="#3A8AFA"/>
<stop offset="1" stop-color="#1A6AF4"/>
</linearGradient>
<linearGradient id="paint19_linear_3712_865" x1="668.288" y1="173.733" x2="1141.28" y2="3551.92" gradientUnits="userSpaceOnUse">
<stop stop-color="#00DECA"/>
<stop offset="0.37798" stop-color="#3A8AFA"/>
<stop offset="1" stop-color="#1A6AF4"/>
</linearGradient>
<linearGradient id="paint20_linear_3712_865" x1="691.387" y1="183.504" x2="982.188" y2="3527.29" gradientUnits="userSpaceOnUse">
<stop stop-color="#00DECA"/>
<stop offset="0.37798" stop-color="#3A8AFA"/>
<stop offset="1" stop-color="#1A6AF4"/>
</linearGradient>
<linearGradient id="paint21_linear_3712_865" x1="713.567" y1="194.412" x2="827.087" y2="3494.15" gradientUnits="userSpaceOnUse">
<stop stop-color="#00DECA"/>
<stop offset="0.37798" stop-color="#3A8AFA"/>
<stop offset="1" stop-color="#1A6AF4"/>
</linearGradient>
<linearGradient id="paint22_linear_3712_865" x1="734.763" y1="206.386" x2="676.416" y2="3452.82" gradientUnits="userSpaceOnUse">
<stop stop-color="#00DECA"/>
<stop offset="0.37798" stop-color="#3A8AFA"/>
<stop offset="1" stop-color="#1A6AF4"/>
</linearGradient>
<linearGradient id="paint23_linear_3712_865" x1="754.927" y1="219.355" x2="530.6" y2="3403.7" gradientUnits="userSpaceOnUse">
<stop stop-color="#00DECA"/>
<stop offset="0.37798" stop-color="#3A8AFA"/>
<stop offset="1" stop-color="#1A6AF4"/>
</linearGradient>
<linearGradient id="paint24_linear_3712_865" x1="774.019" y1="233.243" x2="390.041" y2="3347.17" gradientUnits="userSpaceOnUse">
<stop stop-color="#00DECA"/>
<stop offset="0.37798" stop-color="#3A8AFA"/>
<stop offset="1" stop-color="#1A6AF4"/>
</linearGradient>
<linearGradient id="paint25_linear_3712_865" x1="791.996" y1="247.972" x2="255.103" y2="3283.65" gradientUnits="userSpaceOnUse">
<stop stop-color="#00DECA"/>
<stop offset="0.37798" stop-color="#3A8AFA"/>
<stop offset="1" stop-color="#1A6AF4"/>
</linearGradient>
<linearGradient id="paint26_linear_3712_865" x1="808.818" y1="263.467" x2="126.124" y2="3213.57" gradientUnits="userSpaceOnUse">
<stop stop-color="#00DECA"/>
<stop offset="0.37798" stop-color="#3A8AFA"/>
<stop offset="1" stop-color="#1A6AF4"/>
</linearGradient>
<linearGradient id="paint27_linear_3712_865" x1="824.46" y1="279.647" x2="3.41629" y2="3137.38" gradientUnits="userSpaceOnUse">
<stop stop-color="#00DECA"/>
<stop offset="0.37798" stop-color="#3A8AFA"/>
<stop offset="1" stop-color="#1A6AF4"/>
</linearGradient>
<linearGradient id="paint28_linear_3712_865" x1="838.904" y1="296.43" x2="-112.734" y2="3055.55" gradientUnits="userSpaceOnUse">
<stop stop-color="#00DECA"/>
<stop offset="0.37798" stop-color="#3A8AFA"/>
<stop offset="1" stop-color="#1A6AF4"/>
</linearGradient>
</defs>
</svg>
