<svg width="303" height="653" viewBox="0 0 303 653" fill="none" xmlns="http://www.w3.org/2000/svg">
<path d="M4.16471 18.1862C0.699951 24.9862 0.699951 33.8879 0.699951 51.6912V602.102C0.699951 619.905 0.699951 628.807 4.16471 635.607C7.21239 641.588 12.0754 646.451 18.0568 649.499C24.8568 652.964 33.7585 652.964 51.5618 652.964H251.363C269.166 652.964 278.068 652.964 284.868 649.499C290.849 646.451 295.712 641.588 298.76 635.607C302.224 628.807 302.224 619.905 302.224 602.102V51.6912C302.224 33.8879 302.224 24.9862 298.76 18.1862C295.712 12.2048 290.849 7.34178 284.868 4.2941C278.068 0.829346 269.166 0.829346 251.363 0.829346H235.738C234.965 0.829346 234.578 0.829346 234.268 0.942116C233.748 1.13116 233.339 1.54031 233.15 2.05972C233.037 2.36955 233.037 2.75648 233.037 3.53034C233.037 9.72123 233.037 12.8167 232.135 15.2953C230.623 19.4506 227.35 22.7238 223.195 24.2361C220.716 25.1383 217.62 25.1383 211.43 25.1383H91.4949C85.304 25.1383 82.2086 25.1383 79.7299 24.2361C75.5747 22.7238 72.3015 19.4506 70.7891 15.2953C69.887 12.8167 69.887 9.72123 69.887 3.53034C69.887 2.75648 69.887 2.36955 69.7742 2.05972C69.5852 1.54031 69.176 1.13116 68.6566 0.942116C68.3468 0.829346 67.9598 0.829346 67.186 0.829346H51.5618C33.7585 0.829346 24.8568 0.829346 18.0568 4.2941C12.0754 7.34178 7.21239 12.2048 4.16471 18.1862Z" fill="#E8E8E9"/>
</svg>
