<svg width="159" height="56" viewBox="0 0 159 56" fill="none" xmlns="http://www.w3.org/2000/svg">
<rect width="159" height="56" rx="12" fill="#030319"/>
<path d="M44.044 28.8756C44.0853 33.1127 47.9573 34.5229 48 34.541C47.9673 34.6401 47.3815 36.5505 45.9603 38.5232C44.7318 40.2289 43.4566 41.9283 41.4483 41.9639C39.4748 41.9981 38.8401 40.8519 36.5836 40.8519C34.3278 40.8519 33.6229 41.9283 31.7546 41.9981C29.8157 42.068 28.3393 40.1534 27.1006 38.4543C24.5696 34.978 22.6353 28.631 25.2325 24.3468C26.5227 22.2192 28.8288 20.8721 31.3315 20.8374C33.2353 20.8029 35.0322 22.054 36.1959 22.054C37.359 22.054 39.5426 20.5493 41.8383 20.7702C42.7994 20.8083 45.497 21.1389 47.2292 23.5478C47.0899 23.6301 44.0106 25.333 44.044 28.8756ZM40.3351 18.4707C41.3643 17.2872 42.057 15.6392 41.8682 14C40.3844 14.0566 38.5903 14.9392 37.5262 16.1222C36.5725 17.1695 35.7373 18.8464 35.9625 20.4531C37.6164 20.5748 39.3056 19.6548 40.3351 18.4707Z" fill="white"/>
<path d="M69.4746 34L68.2002 30.3701H63.1553L61.8809 34H60.2197L64.8955 21.3174H66.46L71.1357 34H69.4746ZM65.6514 23.2422L63.6211 29.0254H67.7344L65.7041 23.2422H65.6514ZM76.7871 24.7012C77.959 24.7012 78.9023 25.1318 79.6172 25.9932C80.3379 26.8545 80.6982 28 80.6982 29.4297C80.6982 30.8535 80.3408 31.999 79.626 32.8662C78.9111 33.7275 77.9766 34.1582 76.8223 34.1582C76.1777 34.1582 75.6006 34.0117 75.0908 33.7188C74.5811 33.4258 74.1885 33.0244 73.9131 32.5146H73.8779V37.0498H72.3486V24.8594H73.7988V26.4062H73.834C74.1211 25.8789 74.5225 25.4629 75.0381 25.1582C75.5537 24.8535 76.1367 24.7012 76.7871 24.7012ZM76.4883 32.8135C77.3027 32.8135 77.9473 32.5088 78.4219 31.8994C78.8965 31.29 79.1338 30.4668 79.1338 29.4297C79.1338 28.3926 78.8965 27.5693 78.4219 26.96C77.9473 26.3506 77.3027 26.0459 76.4883 26.0459C75.7031 26.0459 75.0703 26.3564 74.5898 26.9775C74.1094 27.5986 73.8691 28.416 73.8691 29.4297C73.8691 30.4492 74.1094 31.2695 74.5898 31.8906C75.0703 32.5059 75.7031 32.8135 76.4883 32.8135ZM86.6836 24.7012C87.8555 24.7012 88.7988 25.1318 89.5137 25.9932C90.2344 26.8545 90.5947 28 90.5947 29.4297C90.5947 30.8535 90.2373 31.999 89.5225 32.8662C88.8076 33.7275 87.873 34.1582 86.7188 34.1582C86.0742 34.1582 85.4971 34.0117 84.9873 33.7188C84.4775 33.4258 84.085 33.0244 83.8096 32.5146H83.7744V37.0498H82.2451V24.8594H83.6953V26.4062H83.7305C84.0176 25.8789 84.4189 25.4629 84.9346 25.1582C85.4502 24.8535 86.0332 24.7012 86.6836 24.7012ZM86.3848 32.8135C87.1992 32.8135 87.8438 32.5088 88.3184 31.8994C88.793 31.29 89.0303 30.4668 89.0303 29.4297C89.0303 28.3926 88.793 27.5693 88.3184 26.96C87.8438 26.3506 87.1992 26.0459 86.3848 26.0459C85.5996 26.0459 84.9668 26.3564 84.4863 26.9775C84.0059 27.5986 83.7656 28.416 83.7656 29.4297C83.7656 30.4492 84.0059 31.2695 84.4863 31.8906C84.9668 32.5059 85.5996 32.8135 86.3848 32.8135ZM95.4639 30.5107H97.0547C97.1309 31.1963 97.4648 31.7471 98.0566 32.1631C98.6543 32.5791 99.4072 32.7871 100.315 32.7871C101.171 32.7871 101.877 32.585 102.434 32.1807C102.996 31.7705 103.277 31.2549 103.277 30.6338C103.277 30.1006 103.081 29.6611 102.688 29.3154C102.302 28.9697 101.681 28.6855 100.825 28.4629L99.1992 28.041C98.0273 27.7422 97.1719 27.3262 96.6328 26.793C96.0938 26.2539 95.8242 25.5537 95.8242 24.6924C95.8242 23.6377 96.2402 22.7764 97.0723 22.1084C97.9102 21.4404 98.9883 21.1064 100.307 21.1064C101.566 21.1064 102.609 21.4463 103.436 22.126C104.262 22.7998 104.692 23.667 104.728 24.7275H103.146C103.075 24.0479 102.782 23.5117 102.267 23.1191C101.751 22.7266 101.08 22.5303 100.254 22.5303C99.4336 22.5303 98.7627 22.7236 98.2412 23.1104C97.7256 23.4971 97.4678 24.001 97.4678 24.6221C97.4678 25.1025 97.6553 25.498 98.0303 25.8086C98.4111 26.1133 99.0322 26.377 99.8936 26.5996L101.221 26.9512C102.533 27.2793 103.477 27.7158 104.051 28.2607C104.625 28.8057 104.912 29.5322 104.912 30.4404C104.912 31.6006 104.484 32.5205 103.629 33.2002C102.779 33.874 101.625 34.2109 100.166 34.2109C98.8184 34.2109 97.7168 33.874 96.8613 33.2002C96.0059 32.5264 95.54 31.6299 95.4639 30.5107ZM107.013 22.6533H108.542V24.8594H110.317V26.1162H108.542V31.5479C108.542 31.9639 108.633 32.2715 108.814 32.4707C108.996 32.6641 109.283 32.7607 109.676 32.7607C109.922 32.7607 110.133 32.7461 110.309 32.7168V34C110.109 34.0469 109.787 34.0703 109.342 34.0703C108.504 34.0703 107.906 33.8828 107.549 33.5078C107.191 33.1328 107.013 32.5059 107.013 31.627V26.1162H105.65V24.8594H107.013V22.6533ZM115.477 34.1582C114.199 34.1582 113.174 33.7334 112.4 32.8838C111.627 32.0283 111.24 30.877 111.24 29.4297C111.24 27.9824 111.627 26.834 112.4 25.9844C113.174 25.1289 114.199 24.7012 115.477 24.7012C116.748 24.7012 117.771 25.1289 118.544 25.9844C119.317 26.834 119.704 27.9824 119.704 29.4297C119.704 30.8711 119.317 32.0195 118.544 32.875C117.771 33.7305 116.748 34.1582 115.477 34.1582ZM113.517 31.917C114.003 32.5146 114.656 32.8135 115.477 32.8135C116.297 32.8135 116.947 32.5176 117.428 31.9258C117.908 31.3281 118.148 30.4961 118.148 29.4297C118.148 28.3633 117.908 27.5342 117.428 26.9424C116.947 26.3447 116.297 26.0459 115.477 26.0459C114.656 26.0459 114.003 26.3447 113.517 26.9424C113.036 27.54 112.796 28.3691 112.796 29.4297C112.796 30.4902 113.036 31.3193 113.517 31.917ZM121.251 34V24.8594H122.692V26.3535H122.728C122.88 25.8438 123.152 25.4424 123.545 25.1494C123.943 24.8506 124.409 24.7012 124.942 24.7012C125.065 24.7012 125.271 24.7217 125.558 24.7627V26.248C125.394 26.1895 125.121 26.1602 124.74 26.1602C124.148 26.1602 123.674 26.3564 123.316 26.749C122.959 27.1416 122.78 27.6602 122.78 28.3047V34H121.251ZM130.031 26.0283C129.322 26.0283 128.733 26.2744 128.265 26.7666C127.802 27.2529 127.547 27.8799 127.5 28.6475H132.466C132.448 27.874 132.217 27.2441 131.771 26.7578C131.326 26.2715 130.746 26.0283 130.031 26.0283ZM132.431 31.3809H133.934C133.799 32.1895 133.377 32.8545 132.668 33.376C131.965 33.8975 131.118 34.1582 130.128 34.1582C128.821 34.1582 127.793 33.7363 127.043 32.8926C126.293 32.0488 125.918 30.9062 125.918 29.4648C125.918 28.0352 126.293 26.8838 127.043 26.0107C127.799 25.1377 128.804 24.7012 130.058 24.7012C131.288 24.7012 132.261 25.1143 132.976 25.9404C133.69 26.7666 134.048 27.874 134.048 29.2627V29.8428H127.491V29.9307C127.491 30.8096 127.731 31.5127 128.212 32.04C128.692 32.5674 129.343 32.8311 130.163 32.8311C130.737 32.8311 131.227 32.6992 131.631 32.4355C132.035 32.1719 132.302 31.8203 132.431 31.3809Z" fill="white"/>
<rect x="0.3" y="0.3" width="158.4" height="55.4" rx="11.7" stroke="#8F92A1" stroke-opacity="0.4" stroke-width="0.6"/>
</svg>
