<svg width="168" height="50" viewBox="0 0 168 50" fill="none" xmlns="http://www.w3.org/2000/svg">
<path d="M166.63 44.0974C166.63 45.3683 166.125 46.5871 165.226 47.4853C164.326 48.3836 163.107 48.8875 161.835 48.8862L4.91438 48.8862C2.26592 48.8889 0.116488 46.7451 0.113037 44.0974V5.90811C0.116487 3.25934 2.26491 1.11372 4.91438 1.11304H161.834C164.483 1.11304 166.63 3.26007 166.629 5.90811L166.63 44.0974L166.63 44.0974Z" fill="white"/>
<path d="M166.63 44.0974C166.63 45.3683 166.125 46.5871 165.226 47.4853C164.326 48.3836 163.107 48.8875 161.835 48.8862L4.91438 48.8862C2.26592 48.8889 0.116488 46.7451 0.113037 44.0974V5.90811C0.116487 3.25934 2.26491 1.11372 4.91438 1.11304H161.834C164.483 1.11304 166.63 3.26007 166.629 5.90811L166.63 44.0974L166.63 44.0974Z" fill="black"/>
<path fill-rule="evenodd" clip-rule="evenodd" d="M34.3121 7.77295C34.5197 9.65972 33.7718 11.519 32.6787 12.8856C31.5381 14.231 29.7133 15.26 27.9361 15.1275C27.7035 13.312 28.604 11.3814 29.612 10.2036C30.7514 8.867 32.73 7.84297 34.3121 7.77295ZM40.13 18.6571C39.9318 18.7753 36.6449 20.7366 36.6809 24.7364H36.6808C36.7234 29.5652 40.9081 31.1631 40.9582 31.1806C40.9331 31.2932 40.3028 33.4863 38.7332 35.7106C37.4225 37.6699 36.0493 39.5867 33.8681 39.6205C32.8311 39.6443 32.1309 39.3465 31.4013 39.0362C30.6402 38.7124 29.8472 38.3751 28.6065 38.3751C27.2916 38.3751 26.4635 38.7234 25.6649 39.0592C24.974 39.3497 24.3052 39.6309 23.3624 39.6692C21.285 39.7455 19.6979 37.5786 18.3397 35.6356C15.6245 31.6708 13.5108 24.4625 16.3449 19.5574C17.7181 17.1518 20.222 15.6026 22.8984 15.5613C24.077 15.5373 25.2074 15.9913 26.1984 16.3894C26.9561 16.6938 27.6324 16.9655 28.1863 16.9655C28.6728 16.9655 29.33 16.7047 30.0961 16.4007C31.3033 15.9217 32.7808 15.3355 34.2858 15.4938C35.3151 15.5238 38.2442 15.9002 40.134 18.6547L40.13 18.6571Z" fill="white"/>
<path fill-rule="evenodd" clip-rule="evenodd" d="M107.63 38.1804C108.614 37.2914 109.109 36.1399 109.109 34.7232C109.109 33.5742 108.772 32.6102 108.093 31.8374C107.418 31.0647 106.365 30.392 104.932 29.8144C103.764 29.3542 102.956 28.9254 102.513 28.5315C102.003 28.1039 101.747 27.5588 101.747 26.9023C101.747 26.3072 101.972 25.8058 102.416 25.3944C102.944 24.9343 103.681 24.703 104.622 24.703C105.813 24.703 106.877 24.9581 107.82 25.4682L108.489 23.2951C107.487 22.7687 106.225 22.5049 104.711 22.5049C103.015 22.5049 101.652 22.9412 100.624 23.814C99.5955 24.688 99.0802 25.8058 99.0802 27.1712C99.0802 29.2617 100.538 30.8509 103.453 31.9375C104.524 32.3313 105.287 32.7602 105.749 33.2203C106.208 33.6817 106.442 34.2481 106.442 34.9246C106.442 35.6797 106.159 36.2849 105.6 36.7375C105.042 37.1889 104.26 37.4165 103.255 37.4165C101.857 37.4165 100.572 37.0714 99.4029 36.3787L98.7863 38.6005C99.8694 39.292 101.305 39.6371 103.096 39.6371C105.035 39.6371 106.547 39.1507 107.63 38.1804ZM66.1174 39.3908H63.2771L61.7213 34.5032H56.3133L54.8313 39.3908H52.066L57.4252 22.7512H60.7345L66.1174 39.3908ZM61.2523 32.4526L59.8453 28.1077C59.6964 27.6638 59.4163 26.6185 59.006 24.973H58.956C58.7909 25.6807 58.527 26.726 58.1656 28.1077L56.7823 32.4526H61.2523ZM78.2089 38.0817C79.3183 36.8976 79.8723 35.2846 79.8723 33.2441C79.8723 31.4173 79.3983 29.9444 78.454 28.8229C77.5085 27.7038 76.3267 27.1449 74.9109 27.1449C73.0999 27.1449 71.7504 27.8614 70.8612 29.2942H70.8112L70.6623 27.3925H68.3173C68.3824 28.7403 68.4161 30.0545 68.4161 31.3361V44.2559H71.0826V37.9604C71.7767 39.0957 72.9198 39.6621 74.5094 39.6621C75.9814 39.6621 77.2159 39.1357 78.2089 38.0817ZM77.1559 33.3416C77.1559 32.1738 76.8932 31.211 76.3654 30.4521C75.7889 29.6631 75.0147 29.268 74.0442 29.268C73.3863 29.268 72.7885 29.4881 72.2545 29.9219C71.7192 30.3595 71.369 30.9309 71.2051 31.6386C71.132 31.9033 71.0905 32.1757 71.0813 32.4501V34.4519C71.0813 35.3234 71.349 36.0598 71.8843 36.6625C72.4195 37.2627 73.1149 37.564 73.9704 37.564C74.9747 37.564 75.7563 37.1752 76.3154 36.4037C76.8757 35.6297 77.1559 34.6095 77.1559 33.3416ZM92.0126 38.0817C93.1219 36.8976 93.676 35.2846 93.676 33.2441C93.676 31.4173 93.2008 29.9444 92.2578 28.8229C91.3097 27.7038 90.1278 27.1449 88.7133 27.1449C86.9011 27.1449 85.5516 27.8614 84.6637 29.2942H84.6136L84.4648 27.3925H82.1198C82.1848 28.7403 82.2186 30.0545 82.2186 31.3361V44.2559H84.885V37.9604C85.5791 39.0957 86.7223 39.6621 88.3119 39.6621C89.7852 39.6621 91.0183 39.1357 92.0126 38.0817ZM90.9583 33.3416C90.9583 32.1738 90.6944 31.211 90.1666 30.4521C89.5901 29.6631 88.8184 29.268 87.8479 29.268C87.19 29.268 86.5922 29.4881 86.0557 29.9219C85.5204 30.3595 85.1714 30.9309 85.0076 31.6386C84.9263 31.9687 84.8825 32.2375 84.8825 32.4501V34.4519C84.8825 35.3234 85.1514 36.0598 85.6842 36.6625C86.2195 37.2614 86.9149 37.564 87.7728 37.564C88.7784 37.564 89.56 37.1752 90.1179 36.4037C90.6782 35.6297 90.9583 34.6095 90.9583 33.3416ZM117.948 29.393H115.009V35.2184C115.009 36.7 115.527 37.439 116.565 37.439C117.041 37.439 117.436 37.399 117.749 37.3152L117.823 39.3395C117.298 39.5358 116.606 39.6346 115.749 39.6346C114.696 39.6346 113.873 39.3132 113.279 38.6706C112.688 38.0279 112.39 36.9513 112.39 35.4359V29.388H110.639V27.3875H112.39V25.1906L115.009 24.4004V27.3875H117.948L117.948 29.393ZM129.602 37.8353C130.655 36.6513 131.183 35.1371 131.183 33.2928C131.183 31.4973 130.674 30.0344 129.65 28.9016C128.58 27.7338 127.165 27.1486 125.404 27.1486C123.577 27.1486 122.124 27.7413 121.045 28.9266C119.968 30.1107 119.427 31.6336 119.427 33.4929C119.427 35.2696 119.95 36.7426 120.996 37.9116C122.041 39.0782 123.443 39.6621 125.207 39.6621C127.034 39.6621 128.5 39.0544 129.602 37.8353ZM128.419 33.3541C128.419 32.2551 128.181 31.3123 127.704 30.5233C127.145 29.5706 126.345 29.0942 125.308 29.0942C124.24 29.0942 123.421 29.5706 122.863 30.5233C122.385 31.3123 122.148 32.2713 122.148 33.4041C122.148 34.5044 122.385 35.4497 122.863 36.2362C123.44 37.1889 124.244 37.6653 125.286 37.6653C126.305 37.6653 127.104 37.1789 127.682 36.2124C128.172 35.4047 128.419 34.4557 128.419 33.3541ZM139.013 29.6631C139.295 29.6621 139.576 29.6868 139.854 29.7369L139.851 27.1937C139.653 27.1624 139.431 27.1449 139.184 27.1449C138.489 27.1459 137.813 27.3713 137.257 27.7876C136.649 28.264 136.207 28.9004 135.924 29.6894H135.85L135.752 27.3937H133.43C133.484 28.6521 133.51 29.9115 133.508 31.171V39.3908H136.174V33.0953C136.174 32.1413 136.397 31.3511 136.839 30.7259C137.35 30.0157 138.075 29.6631 139.013 29.6631ZM151.779 32.824C151.785 33.2292 151.753 33.6341 151.681 34.0331H143.682C143.712 35.2184 144.099 36.1261 144.842 36.7513C145.517 37.3089 146.388 37.589 147.459 37.589C148.643 37.589 149.724 37.4015 150.696 37.0226L151.113 38.8719C149.978 39.367 148.637 39.6133 147.09 39.6133C145.229 39.6133 143.768 39.0657 142.705 37.9729C141.644 36.8788 141.113 35.4084 141.113 33.5667C141.113 31.7587 141.607 30.252 142.596 29.0504C143.632 27.7676 145.031 27.1262 146.792 27.1262C148.522 27.1262 149.831 27.7676 150.721 29.0504C151.425 30.0669 151.779 31.3273 151.779 32.824ZM148.718 30.0832C149.08 30.6596 149.255 31.341 149.236 32.1325L143.683 32.13C143.764 31.326 144.028 30.6333 144.472 30.057C145.013 29.3317 145.723 28.9704 146.595 28.9704C147.546 28.9704 148.257 29.3405 148.718 30.0832Z" fill="white"/>
<path fill-rule="evenodd" clip-rule="evenodd" d="M87.9105 16.7955H86.5986V8.19312H87.9105V16.7955ZM53.627 16.7705C54.1611 16.8317 54.8027 16.868 55.5443 16.868C58.6873 16.868 60.3507 15.3401 60.3507 12.5118C60.3507 10.0599 58.9424 8.55571 55.8845 8.55571C55.1287 8.55355 54.3739 8.61041 53.627 8.72576V16.7705ZM54.9365 9.67227C55.2279 9.61226 55.5793 9.58725 55.9921 9.58725C57.9344 9.58725 58.9662 10.6438 58.9662 12.5481C58.9662 14.6837 57.8256 15.824 55.822 15.824C55.3967 15.824 55.0941 15.8127 54.9365 15.7877V9.67227ZM64.7393 16.9293C63.0158 16.9293 61.899 15.6427 61.899 13.8959C61.899 12.0754 63.0396 10.7776 64.8368 10.7776C66.5352 10.7776 67.6771 12.0029 67.6771 13.7997C67.6771 15.6427 66.5002 16.9293 64.7393 16.9293ZM63.236 13.8584C63.236 12.6206 63.8425 11.7353 64.7893 11.7353C65.7111 11.7353 66.3176 12.6331 66.3176 13.8334C66.3176 15.0112 65.6985 15.9577 64.7768 15.9577C63.855 15.9577 63.236 15.0725 63.236 13.8584ZM77.5049 10.8989L75.6602 16.7955H74.4583L73.6941 14.2348C73.5041 13.6084 73.3459 12.9729 73.2201 12.3305L73.1951 12.3305C73.0988 12.9732 72.9162 13.6171 72.7224 14.2348L71.9094 16.7955H70.695L68.9591 10.8989H70.306L70.9739 13.7021C71.1315 14.3698 71.2641 15 71.3741 15.5951H71.3991C71.4954 15.0988 71.653 14.4786 71.8844 13.7146L72.7224 10.9001H73.7904L74.5921 13.6546C74.7859 14.3223 74.9435 14.9775 75.0661 15.5964H75.1011C75.1862 14.99 75.32 14.3461 75.5013 13.6546L76.218 10.9001L77.5049 10.8989ZM82.9854 16.7955H84.2961H84.2961L84.2974 13.2645C84.2974 11.7241 83.4844 10.7776 82.2462 10.7776C81.4445 10.7776 80.7292 11.1777 80.3765 11.8079H80.3402L80.2789 10.8976H79.1258C79.1621 11.504 79.1746 12.0629 79.1746 12.5843V16.7955H80.4853V13.2883C80.4853 12.5118 81.0193 11.8441 81.796 11.8441C82.5852 11.8441 82.9854 12.3668 82.9854 13.4095V16.7955ZM89.8491 13.8959C89.8491 15.6427 90.9672 16.9293 92.6894 16.9293C94.4491 16.9293 95.6272 15.6427 95.6259 13.7997C95.6259 12.0029 94.4854 10.7776 92.7857 10.7776C90.9897 10.7776 89.8491 12.0754 89.8491 13.8959ZM92.7382 11.7353C91.7914 11.7353 91.1848 12.6206 91.1848 13.8584C91.1848 15.0725 91.8051 15.9577 92.7244 15.9577C93.6474 15.9577 94.2652 15.0112 94.2652 13.8334C94.2665 12.6331 93.6612 11.7353 92.7382 11.7353ZM100.699 16.1165L100.794 16.7955H100.794L101.976 16.7967C101.917 16.4454 101.891 15.984 101.891 15.3888V13.217C101.891 11.5903 101.113 10.7776 99.5719 10.7776C98.7727 10.7776 98.0923 10.9476 97.547 11.2877L97.8134 12.1492C98.2624 11.8579 98.7727 11.7116 99.3542 11.7116C100.167 11.7116 100.579 12.1004 100.579 12.8769V12.9857C98.3937 12.9857 97.1318 13.7384 97.1318 15.1938C97.1318 16.1891 97.8822 16.9293 98.939 16.9293C99.6794 16.9293 100.263 16.6629 100.664 16.1165H100.699ZM100.614 13.8584C99.1579 13.8584 98.4275 14.211 98.4275 15.0475C98.4275 15.6664 98.8039 15.969 99.3267 15.969C99.9933 15.969 100.614 15.4601 100.614 14.7687V13.8584ZM108.194 15.849L108.255 16.7955H109.422C109.387 16.3104 109.373 15.7765 109.373 15.2063V8.19312H108.061V11.5778H108.035C107.72 11.0426 107.161 10.7763 106.372 10.7763C104.881 10.7763 103.789 12.0754 103.789 13.9197C103.789 15.6789 104.842 16.9293 106.264 16.9293C107.148 16.9293 107.781 16.5642 108.158 15.849H108.194ZM108.061 13.3258C108.061 12.5005 107.515 11.7966 106.681 11.7966C105.709 11.7966 105.115 12.6581 105.115 13.8709C105.115 15.06 105.731 15.874 106.654 15.874C107.479 15.874 108.061 15.1575 108.061 14.3085V13.3258ZM114.853 13.8959C114.853 15.6427 115.969 16.9293 117.692 16.9293C119.454 16.9293 120.631 15.6427 120.629 13.7997C120.629 12.0029 119.489 10.7776 117.789 10.7776C115.993 10.7776 114.853 12.0754 114.853 13.8959ZM117.74 11.7353C116.795 11.7353 116.188 12.6206 116.188 13.8584C116.188 15.0725 116.807 15.9577 117.728 15.9577C118.651 15.9577 119.269 15.0112 119.269 13.8334C119.271 12.6331 118.665 11.7353 117.74 11.7353ZM126.366 16.7955H127.678V13.2633C127.678 11.7228 126.864 10.7763 125.626 10.7763C124.825 10.7763 124.109 11.1777 123.757 11.8079H123.721L123.66 10.8976H122.507C122.543 11.504 122.556 12.0629 122.556 12.5843V16.7955H123.867V13.2883C123.867 12.5118 124.4 11.8441 125.177 11.8441C125.966 11.8441 126.366 12.3668 126.366 13.4095V16.7955ZM136.497 11.8816H135.055V14.7449C135.055 15.4739 135.307 15.8377 135.818 15.8377C136.049 15.8377 136.243 15.8127 136.399 15.7765L136.435 16.7717C136.182 16.8693 135.841 16.918 135.419 16.918C134.386 16.918 133.768 16.3479 133.768 14.8549V11.8816H132.907V10.8989H133.768V9.81856L135.055 9.42971V10.8976H136.497V11.8816ZM142.126 16.7955H143.436V13.2883C143.436 11.7466 142.673 10.7763 141.424 10.7763C140.662 10.7763 140.064 11.0927 139.651 11.7353H139.625V8.19312H138.315V16.7955H139.625V13.2408C139.625 12.3067 140.258 11.8454 140.937 11.8454C141.727 11.8454 142.126 12.3793 142.126 13.4346V16.7955ZM150.544 14.1623H146.611C146.636 15.2788 147.375 15.909 148.47 15.909C149.051 15.909 149.586 15.8115 150.059 15.6302L150.263 16.5404C149.705 16.783 149.049 16.9043 148.284 16.9043C146.44 16.9043 145.348 15.7389 145.348 13.9322C145.348 12.1242 146.466 10.7651 148.137 10.7651C149.644 10.7651 150.589 11.8816 150.589 13.5683C150.598 13.7674 150.583 13.9668 150.544 14.1623ZM148.046 11.6753C147.293 11.6753 146.697 12.3305 146.612 13.2282L148.046 11.6753ZM146.612 13.2282H149.342H146.612Z" fill="white"/>
</svg>
