<svg width="170" height="50" viewBox="0 0 170 50" fill="none" xmlns="http://www.w3.org/2000/svg">
<path d="M163.125 50H6.875C3.375 50 0.625 47.25 0.625 43.75V6.25C0.625 2.75 3.375 0 6.875 0H163.125C166.625 0 169.375 2.75 169.375 6.25V43.75C169.375 47.25 166.625 50 163.125 50Z" fill="black"/>
<path fill-rule="evenodd" clip-rule="evenodd" d="M59 15.25C59.625 14.625 59.875 13.75 59.875 12.75L59.875 12.75V12.25H56.25V13.25H59C59 13.875 58.75 14.375 58.375 14.75C57.75 15.375 57.125 15.625 56.25 15.625C55.5 15.625 54.875 15.25 54.25 14.75C53.625 14.25 53.375 13.5 53.375 12.625C53.375 11.75 53.625 11 54.25 10.5C54.75 9.875 55.5 9.625 56.25 9.625C57.125 9.625 57.75 9.875 58.25 10.5L58.875 9.875C58.625 9.5 58.25 9.25 57.75 9C57.25 8.75 56.75 8.625 56.25 8.625C55.125 8.625 54.25 9 53.5 9.75C52.75 10.5 52.375 11.375 52.375 12.5C52.375 13.625 52.75 14.5 53.5 15.25C54.25 16 55.125 16.375 56.25 16.375C57.375 16.375 58.25 16 59 15.25ZM62.25 9.625H65.625V8.75H61.25V16.25H65.625V15.25H62.25V12.875H65.375V12H62.25V9.625ZM69.75 16.25H68.75V9.625H66.625V8.75H71.875V9.625H69.75V16.25ZM75.5 8.75V16.25H76.5V8.75H75.5ZM80.625 16.25H79.75V9.625H77.625V8.75H82.75V9.625H80.625V16.25ZM89.875 16.375C91 16.375 91.875 16 92.625 15.25C93.375 14.5 93.75 13.625 93.75 12.5C93.75 11.375 93.375 10.5 92.625 9.75C91.875 9 91 8.625 89.875 8.625C88.75 8.625 87.875 9 87.125 9.75C86.375 10.5 86 11.375 86 12.5C86 13.625 86.375 14.5 87.125 15.25C87.875 16 88.75 16.375 89.875 16.375ZM87.875 14.625C88.375 15.125 89.125 15.5 89.875 15.5C90.625 15.5 91.375 15.25 91.875 14.625C92.375 14.125 92.75 13.375 92.75 12.5C92.75 11.625 92.5 10.875 91.875 10.375C91.375 9.875 90.625 9.5 89.875 9.5C89.125 9.5 88.375 9.75 87.875 10.375C87.375 10.875 87 11.625 87 12.5C87 13.375 87.25 14.125 87.875 14.625ZM95.125 8.75V16.25H96V10.125L99.875 16.25H100.875V8.75H99.875V14.625L96.25 8.75H95.125Z" fill="white"/>
<path d="M59.875 12.75L59.8303 12.6606L59.775 12.6882V12.75H59.875ZM59 15.25L59.0707 15.3207L59 15.25ZM59.875 12.75L59.9197 12.8394L59.975 12.8118V12.75H59.875ZM59.875 12.25H59.975V12.15H59.875V12.25ZM56.25 12.25V12.15H56.15V12.25H56.25ZM56.25 13.25H56.15V13.35H56.25V13.25ZM59 13.25H59.1V13.15H59V13.25ZM58.375 14.75L58.4457 14.8207L58.4457 14.8207L58.375 14.75ZM54.25 14.75L54.1875 14.8281H54.1875L54.25 14.75ZM54.25 10.5L54.3125 10.5781L54.3212 10.5711L54.3281 10.5625L54.25 10.5ZM58.25 10.5L58.1719 10.5625L58.2417 10.6497L58.3207 10.5707L58.25 10.5ZM58.875 9.875L58.9457 9.94571L59.0037 9.88774L58.9582 9.81953L58.875 9.875ZM57.75 9L57.7947 8.91056L57.7947 8.91056L57.75 9ZM53.5 9.75L53.5707 9.82071L53.5707 9.82071L53.5 9.75ZM53.5 15.25L53.4293 15.3207H53.4293L53.5 15.25ZM65.625 9.625V9.725H65.725V9.625H65.625ZM62.25 9.625V9.525H62.15V9.625H62.25ZM65.625 8.75H65.725V8.65H65.625V8.75ZM61.25 8.75V8.65H61.15V8.75H61.25ZM61.25 16.25H61.15V16.35H61.25V16.25ZM65.625 16.25V16.35H65.725V16.25H65.625ZM65.625 15.25H65.725V15.15H65.625V15.25ZM62.25 15.25H62.15V15.35H62.25V15.25ZM62.25 12.875V12.775H62.15V12.875H62.25ZM65.375 12.875V12.975H65.475V12.875H65.375ZM65.375 12H65.475V11.9H65.375V12ZM62.25 12H62.15V12.1H62.25V12ZM68.75 16.25H68.65V16.35H68.75V16.25ZM69.75 16.25V16.35H69.85V16.25H69.75ZM68.75 9.625H68.85V9.525H68.75V9.625ZM66.625 9.625H66.525V9.725H66.625V9.625ZM66.625 8.75V8.65H66.525V8.75H66.625ZM71.875 8.75H71.975V8.65H71.875V8.75ZM71.875 9.625V9.725H71.975V9.625H71.875ZM69.75 9.625V9.525H69.65V9.625H69.75ZM75.5 16.25H75.4V16.35H75.5V16.25ZM75.5 8.75V8.65H75.4V8.75H75.5ZM76.5 16.25V16.35H76.6V16.25H76.5ZM76.5 8.75H76.6V8.65H76.5V8.75ZM79.75 16.25H79.65V16.35H79.75V16.25ZM80.625 16.25V16.35H80.725V16.25H80.625ZM79.75 9.625H79.85V9.525H79.75V9.625ZM77.625 9.625H77.525V9.725H77.625V9.625ZM77.625 8.75V8.65H77.525V8.75H77.625ZM82.75 8.75H82.85V8.65H82.75V8.75ZM82.75 9.625V9.725H82.85V9.625H82.75ZM80.625 9.625V9.525H80.525V9.625H80.625ZM92.625 15.25L92.5543 15.1793L92.5543 15.1793L92.625 15.25ZM92.625 9.75L92.5543 9.82071L92.5543 9.82071L92.625 9.75ZM87.125 9.75L87.1957 9.82071V9.82071L87.125 9.75ZM87.125 15.25L87.1957 15.1793V15.1793L87.125 15.25ZM87.875 14.625L87.9461 14.5539L87.9375 14.5469L87.875 14.625ZM91.875 14.625L91.8039 14.5539L91.7969 14.5625L91.875 14.625ZM91.875 10.375L91.8039 10.4461L91.8125 10.4531L91.875 10.375ZM87.875 10.375L87.9461 10.4461L87.9531 10.4375L87.875 10.375ZM95.125 16.25H95.025V16.35H95.125V16.25ZM95.125 8.75V8.65H95.025V8.75H95.125ZM96 16.25V16.35H96.1V16.25H96ZM96 10.125L96.0845 10.0715L95.9 9.7799V10.125H96ZM99.875 16.25L99.7905 16.3035L99.82 16.35H99.875V16.25ZM100.875 16.25V16.35H100.975V16.25H100.875ZM100.875 8.75H100.975V8.65H100.875V8.75ZM99.875 8.75V8.65H99.775V8.75H99.875ZM99.875 14.625L99.7899 14.6775L99.975 14.9775V14.625H99.875ZM96.25 8.75L96.3351 8.69749L96.3058 8.65H96.25V8.75ZM59.775 12.75C59.775 13.7346 59.5289 14.5797 58.9293 15.1793L59.0707 15.3207C59.7211 14.6703 59.975 13.7654 59.975 12.75H59.775ZM59.8303 12.6606L59.8303 12.6606L59.9197 12.8394L59.9197 12.8394L59.8303 12.6606ZM59.775 12.25V12.75H59.975V12.25H59.775ZM56.25 12.35H59.875V12.15H56.25V12.35ZM56.35 13.25V12.25H56.15V13.25H56.35ZM59 13.15H56.25V13.35H59V13.15ZM58.4457 14.8207C58.8374 14.429 59.1 13.9043 59.1 13.25H58.9C58.9 13.8457 58.6626 14.321 58.3043 14.6793L58.4457 14.8207ZM56.25 15.725C56.6973 15.725 57.0857 15.6611 57.4441 15.5144C57.8026 15.3678 58.1259 15.1405 58.4457 14.8207L58.3043 14.6793C57.9991 14.9845 57.6974 15.1947 57.3684 15.3293C57.0393 15.4639 56.6777 15.525 56.25 15.525V15.725ZM54.1875 14.8281C54.8167 15.3314 55.4645 15.725 56.25 15.725V15.525C55.5355 15.525 54.9333 15.1686 54.3125 14.6719L54.1875 14.8281ZM53.275 12.625C53.275 13.5184 53.5308 14.3027 54.1875 14.8281L54.3125 14.6719C53.7192 14.1973 53.475 13.4816 53.475 12.625H53.275ZM54.1875 10.4219C53.5308 10.9473 53.275 11.7316 53.275 12.625H53.475C53.475 11.7684 53.7192 11.0527 54.3125 10.5781L54.1875 10.4219ZM56.25 9.525C55.479 9.525 54.6961 9.78235 54.1719 10.4375L54.3281 10.5625C54.8039 9.96766 55.521 9.725 56.25 9.725V9.525ZM58.3281 10.4375C57.8053 9.78405 57.1487 9.525 56.25 9.525V9.725C57.1013 9.725 57.6947 9.96595 58.1719 10.5625L58.3281 10.4375ZM58.8043 9.80429L58.1793 10.4293L58.3207 10.5707L58.9457 9.94571L58.8043 9.80429ZM57.7053 9.08944C58.201 9.33731 58.5566 9.57772 58.7918 9.93047L58.9582 9.81953C58.6934 9.42228 58.299 9.16269 57.7947 8.91056L57.7053 9.08944ZM56.25 8.725C56.7327 8.725 57.2175 8.84556 57.7053 9.08944L57.7947 8.91056C57.2825 8.65444 56.7673 8.525 56.25 8.525V8.725ZM53.5707 9.82071C54.3019 9.0895 55.1515 8.725 56.25 8.725V8.525C55.0985 8.525 54.1981 8.9105 53.4293 9.67929L53.5707 9.82071ZM52.475 12.5C52.475 11.4015 52.8395 10.5519 53.5707 9.82071L53.4293 9.67929C52.6605 10.4481 52.275 11.3485 52.275 12.5H52.475ZM53.5707 15.1793C52.8395 14.4481 52.475 13.5985 52.475 12.5H52.275C52.275 13.6515 52.6605 14.5519 53.4293 15.3207L53.5707 15.1793ZM56.25 16.275C55.1515 16.275 54.3019 15.9105 53.5707 15.1793L53.4293 15.3207C54.1981 16.0895 55.0985 16.475 56.25 16.475V16.275ZM58.9293 15.1793C58.1981 15.9105 57.3485 16.275 56.25 16.275V16.475C57.4015 16.475 58.3019 16.0895 59.0707 15.3207L58.9293 15.1793ZM65.625 9.525H62.25V9.725H65.625V9.525ZM65.525 8.75V9.625H65.725V8.75H65.525ZM61.25 8.85H65.625V8.65H61.25V8.85ZM61.35 16.25V8.75H61.15V16.25H61.35ZM65.625 16.15H61.25V16.35H65.625V16.15ZM65.525 15.25V16.25H65.725V15.25H65.525ZM62.25 15.35H65.625V15.15H62.25V15.35ZM62.15 12.875V15.25H62.35V12.875H62.15ZM65.375 12.775H62.25V12.975H65.375V12.775ZM65.275 12V12.875H65.475V12H65.275ZM62.25 12.1H65.375V11.9H62.25V12.1ZM62.15 9.625V12H62.35V9.625H62.15ZM68.75 16.35H69.75V16.15H68.75V16.35ZM68.65 9.625V16.25H68.85V9.625H68.65ZM66.625 9.725H68.75V9.525H66.625V9.725ZM66.525 8.75V9.625H66.725V8.75H66.525ZM71.875 8.65H66.625V8.85H71.875V8.65ZM71.975 9.625V8.75H71.775V9.625H71.975ZM69.75 9.725H71.875V9.525H69.75V9.725ZM69.85 16.25V9.625H69.65V16.25H69.85ZM75.6 16.25V8.75H75.4V16.25H75.6ZM76.5 16.15H75.5V16.35H76.5V16.15ZM76.4 8.75V16.25H76.6V8.75H76.4ZM75.5 8.85H76.5V8.65H75.5V8.85ZM79.75 16.35H80.625V16.15H79.75V16.35ZM79.65 9.625V16.25H79.85V9.625H79.65ZM77.625 9.725H79.75V9.525H77.625V9.725ZM77.525 8.75V9.625H77.725V8.75H77.525ZM82.75 8.65H77.625V8.85H82.75V8.65ZM82.85 9.625V8.75H82.65V9.625H82.85ZM80.625 9.725H82.75V9.525H80.625V9.725ZM80.725 16.25V9.625H80.525V16.25H80.725ZM92.5543 15.1793C91.8231 15.9105 90.9735 16.275 89.875 16.275V16.475C91.0265 16.475 91.9269 16.0895 92.6957 15.3207L92.5543 15.1793ZM93.65 12.5C93.65 13.5985 93.2855 14.4481 92.5543 15.1793L92.6957 15.3207C93.4645 14.5519 93.85 13.6515 93.85 12.5H93.65ZM92.5543 9.82071C93.2855 10.5519 93.65 11.4015 93.65 12.5H93.85C93.85 11.3485 93.4645 10.4481 92.6957 9.67929L92.5543 9.82071ZM89.875 8.725C90.9735 8.725 91.8231 9.0895 92.5543 9.82071L92.6957 9.67929C91.9269 8.9105 91.0265 8.525 89.875 8.525V8.725ZM87.1957 9.82071C87.9269 9.0895 88.7765 8.725 89.875 8.725V8.525C88.7235 8.525 87.8231 8.9105 87.0543 9.67929L87.1957 9.82071ZM86.1 12.5C86.1 11.4015 86.4645 10.5519 87.1957 9.82071L87.0543 9.67929C86.2855 10.4481 85.9 11.3485 85.9 12.5H86.1ZM87.1957 15.1793C86.4645 14.4481 86.1 13.5985 86.1 12.5H85.9C85.9 13.6515 86.2855 14.5519 87.0543 15.3207L87.1957 15.1793ZM89.875 16.275C88.7765 16.275 87.9269 15.9105 87.1957 15.1793L87.0543 15.3207C87.8231 16.0895 88.7235 16.475 89.875 16.475V16.275ZM89.875 15.4C89.1562 15.4 88.4306 15.0391 87.9457 14.5543L87.8043 14.6957C88.3194 15.2109 89.0938 15.6 89.875 15.6V15.4ZM91.7969 14.5625C91.3211 15.1573 90.604 15.4 89.875 15.4V15.6C90.646 15.6 91.4289 15.3427 91.9531 14.6875L91.7969 14.5625ZM92.65 12.5C92.65 13.346 92.2874 14.0712 91.8043 14.5543L91.9457 14.6957C92.4627 14.1788 92.85 13.404 92.85 12.5H92.65ZM91.8125 10.4531C92.4058 10.9277 92.65 11.6434 92.65 12.5H92.85C92.85 11.6066 92.5942 10.8223 91.9375 10.2969L91.8125 10.4531ZM89.875 9.6C90.5938 9.6 91.3194 9.96086 91.8043 10.4457L91.9457 10.3043C91.4306 9.78914 90.6562 9.4 89.875 9.4V9.6ZM87.9531 10.4375C88.4289 9.84266 89.146 9.6 89.875 9.6V9.4C89.104 9.4 88.3211 9.65735 87.7969 10.3125L87.9531 10.4375ZM87.1 12.5C87.1 11.654 87.4627 10.9288 87.9457 10.4457L87.8043 10.3043C87.2874 10.8212 86.9 11.596 86.9 12.5H87.1ZM87.9375 14.5469C87.3442 14.0723 87.1 13.3566 87.1 12.5H86.9C86.9 13.3934 87.1558 14.1777 87.8125 14.7031L87.9375 14.5469ZM95.225 16.25V8.75H95.025V16.25H95.225ZM96 16.15H95.125V16.35H96V16.15ZM95.9 10.125V16.25H96.1V10.125H95.9ZM99.9595 16.1965L96.0845 10.0715L95.9155 10.1785L99.7905 16.3035L99.9595 16.1965ZM100.875 16.15H99.875V16.35H100.875V16.15ZM100.775 8.75V16.25H100.975V8.75H100.775ZM99.875 8.85H100.875V8.65H99.875V8.85ZM99.975 14.625V8.75H99.775V14.625H99.975ZM96.1649 8.80251L99.7899 14.6775L99.9601 14.5725L96.3351 8.69749L96.1649 8.80251ZM95.125 8.85H96.25V8.65H95.125V8.85Z" fill="white"/>
<path fill-rule="evenodd" clip-rule="evenodd" d="M60.25 28.875V31.125H65.625C65.5 32.375 65 33.375 64.375 34C63.625 34.75 62.375 35.625 60.25 35.625C56.875 35.625 54.375 33 54.375 29.625C54.375 26.25 57 23.625 60.25 23.625C62 23.625 63.375 24.375 64.375 25.25L66 23.625C64.625 22.375 62.875 21.375 60.375 21.375C55.875 21.375 52 25.125 52 29.625C52 34.125 55.875 37.875 60.375 37.875C62.875 37.875 64.625 37.125 66.125 35.5C67.625 34 68.125 31.875 68.125 30.25C68.125 29.75 68.125 29.25 68 28.875L60.25 28.875ZM74.125 27.25C71.125 27.25 68.75 29.5 68.75 32.625C68.75 35.625 71.125 38 74.125 38C77.125 38 79.5 35.75 79.5 32.625C79.5 29.375 77.125 27.25 74.125 27.25ZM80.375 32.625C80.375 29.5 82.75 27.25 85.75 27.25C88.75 27.25 91.125 29.375 91.125 32.625C91.125 35.75 88.75 38 85.75 38C82.75 38 80.375 35.625 80.375 32.625ZM82.75 32.5C82.75 34.375 84.125 35.75 85.75 35.75C87.375 35.75 88.75 34.375 88.75 32.5C88.75 30.5 87.375 29.25 85.75 29.25C84.125 29.25 82.75 30.625 82.75 32.5ZM71.125 32.5C71.125 34.375 72.5 35.75 74.125 35.75C75.75 35.75 77.125 34.375 77.125 32.5C77.125 30.5 75.75 29.25 74.125 29.25C72.5 29.25 71.125 30.625 71.125 32.5ZM112.5 27.25C115.25 27.25 116.5 29.375 117 30.625L117.25 31.25L110.125 34.25C110.75 35.375 111.5 35.875 112.75 35.875C114 35.875 114.75 35.25 115.375 34.375L117.125 35.625C116.625 36.5 115.125 38 112.75 38C109.75 38 107.5 35.625 107.5 32.625C107.5 29.375 109.75 27.25 112.5 27.25ZM109.75 32.375C109.75 30.375 111.375 29.25 112.5 29.25C113.375 29.25 114.25 29.75 114.5 30.375L109.75 32.375ZM106.25 37.5H103.875V21.875H106.25V37.5ZM100.125 28.375C99.5 27.75 98.5 27.125 97.25 27.125C94.625 27.125 92.125 29.5 92.125 32.5C92.125 35.5 94.5 37.75 97.25 37.75C98.5 37.75 99.5 37.125 100 36.5H100.125V37.25C100.125 39.25 99 40.375 97.25 40.375C95.875 40.375 94.875 39.375 94.625 38.5L92.625 39.375C93.25 40.75 94.75 42.5 97.375 42.5C100.125 42.5 102.375 40.875 102.375 37V27.5H100.125V28.375ZM94.375 32.5C94.375 34.375 95.75 35.75 97.375 35.75C99 35.75 100.25 34.375 100.25 32.5C100.25 30.625 99 29.25 97.375 29.25C95.75 29.25 94.375 30.625 94.375 32.5ZM127.875 21.875H122.25V37.5H124.625V31.625H127.875C130.5 31.625 133 29.75 133 26.75C133 23.75 130.5 21.875 127.875 21.875ZM124.625 29.375H128C129.625 29.375 130.625 28 130.75 26.625C130.75 25.5 129.75 24 128 24H124.625V29.375ZM142.375 27.125C140.625 27.125 138.875 27.875 138.25 29.5L140.375 30.375C140.875 29.5 141.625 29.25 142.5 29.25C143.75 29.25 144.875 30 145 31.25V31.375C144.625 31.125 143.625 30.75 142.625 30.75C140.375 30.75 138.125 32 138.125 34.25C138.125 36.375 140 37.75 142 37.75C143.625 37.75 144.375 37 145 36.25H145.125V37.5H147.375V31.5C147.125 28.75 145 27.125 142.375 27.125ZM140.25 34.375C140.25 35.375 141.375 35.75 142.125 35.75C143.375 35.75 144.625 34.75 144.875 33.25C144.812 33.2248 144.75 33.1997 144.689 33.1748L144.689 33.1745C144.144 32.952 143.649 32.75 142.75 32.75C141.625 32.75 140.25 33.125 140.25 34.375ZM155.25 27.5L152.625 34.25H152.5L149.75 27.5H147.25L151.375 37L149 42.25H151.375L157.75 27.5H155.25ZM136.625 37.5H134.25V21.875H136.625V37.5Z" fill="white"/>
<path d="M13.625 9.375C13.25 9.75 13.125 10.375 13.125 11.125V38.75C13.125 39.5 13.375 40.125 13.75 40.5L13.875 40.625L29.375 25.125V24.875L13.625 9.375Z" fill="url(#paint0_linear_3712_1176)"/>
<path d="M34.375 30.375L29.25 25.25V24.875L34.375 19.75L34.5 19.875L40.625 23.375C42.375 24.375 42.375 26 40.625 27L34.375 30.375Z" fill="url(#paint1_linear_3712_1176)"/>
<path d="M34.5 30.25L29.25 25L13.625 40.625C14.25 41.25 15.125 41.25 16.25 40.75L34.5 30.25Z" fill="url(#paint2_linear_3712_1176)"/>
<path d="M34.5 19.75L16.25 9.37502C15.125 8.75002 14.25 8.87502 13.625 9.50002L29.25 25L34.5 19.75H34.5Z" fill="url(#paint3_linear_3712_1176)"/>
<path opacity="0.2" d="M34.375 30.125L16.25 40.375C15.25 41 14.375 40.875 13.75 40.375L13.625 40.5L13.75 40.625C14.375 41.125 15.25 41.25 16.25 40.625L34.375 30.125Z" fill="black"/>
<path opacity="0.12" fill-rule="evenodd" clip-rule="evenodd" d="M34.375 30.125L40.625 26.625C41.375 26.125 41.875 25.625 41.875 25C41.875 25.625 41.5 26.25 40.625 26.75L34.5 30.25L34.375 30.125ZM13.125 38.625C13.125 38.8021 13.132 38.9722 13.1476 39.1337C13.1327 39.0101 13.125 38.882 13.125 38.75V38.625ZM13.1476 39.1337C13.2081 39.6392 13.3869 40.0685 13.6372 40.375L13.1476 39.1337ZM13.6372 40.375H13.75V40.5C13.711 40.461 13.6733 40.4193 13.6372 40.375Z" fill="black"/>
<path opacity="0.25" d="M16.25 9.50009L40.625 23.3751C41.375 23.8751 41.875 24.3751 41.875 25.0001C41.875 24.3751 41.5 23.7501 40.625 23.2501L16.25 9.37509C14.5 8.37509 13.125 9.12509 13.125 11.1251V11.2501C13.125 9.37509 14.5 8.50009 16.25 9.50009Z" fill="white"/>
<defs>
<linearGradient id="paint0_linear_3712_1176" x1="33.3292" y1="21.4406" x2="8.49405" y2="14.7256" gradientUnits="userSpaceOnUse">
<stop stop-color="#00A0FF"/>
<stop offset="0.007" stop-color="#00A1FF"/>
<stop offset="0.26" stop-color="#00BEFF"/>
<stop offset="0.512" stop-color="#00D2FF"/>
<stop offset="0.76" stop-color="#00DFFF"/>
<stop offset="1" stop-color="#00E3FF"/>
</linearGradient>
<linearGradient id="paint1_linear_3712_1176" x1="42.9175" y1="14.8341" x2="12.6713" y2="14.8341" gradientUnits="userSpaceOnUse">
<stop stop-color="#FFE000"/>
<stop offset="0.409" stop-color="#FFBD00"/>
<stop offset="0.775" stop-color="#FFA500"/>
<stop offset="1" stop-color="#FF9C00"/>
</linearGradient>
<linearGradient id="paint2_linear_3712_1176" x1="50.0888" y1="13.6525" x2="30.1323" y2="-19.8524" gradientUnits="userSpaceOnUse">
<stop stop-color="#FF3A44"/>
<stop offset="1" stop-color="#C31162"/>
</linearGradient>
<linearGradient id="paint3_linear_3712_1176" x1="18.0149" y1="57.1594" x2="26.8565" y2="42.1766" gradientUnits="userSpaceOnUse">
<stop stop-color="#32A071"/>
<stop offset="0.069" stop-color="#2DA771"/>
<stop offset="0.476" stop-color="#15CF74"/>
<stop offset="0.801" stop-color="#06E775"/>
<stop offset="1" stop-color="#00F076"/>
</linearGradient>
</defs>
</svg>
