<svg width="50" height="50" viewBox="0 0 50 50" fill="none" xmlns="http://www.w3.org/2000/svg">
<rect width="50" height="50" rx="10" fill="#F5F6FA"/>
<path d="M25.0004 20.0681C23.9848 20.0681 22.992 20.3693 22.1476 20.9335C21.3032 21.4977 20.645 22.2997 20.2564 23.238C19.8677 24.1762 19.766 25.2087 19.9641 26.2048C20.1623 27.2008 20.6513 28.1158 21.3695 28.8339C22.0876 29.552 23.0025 30.0411 23.9986 30.2392C24.9947 30.4374 26.0271 30.3357 26.9654 29.947C27.9037 29.5584 28.7056 28.9002 29.2699 28.0558C29.8341 27.2114 30.1353 26.2186 30.1353 25.203C30.1353 24.5287 30.0025 23.861 29.7444 23.238C29.4864 22.615 29.1081 22.0489 28.6313 21.5721C28.1545 21.0952 27.5884 20.717 26.9654 20.459C26.3424 20.2009 25.6747 20.0681 25.0004 20.0681ZM25.0004 28.5366C24.341 28.5366 23.6965 28.3411 23.1483 27.9748C22.6001 27.6085 22.1728 27.0878 21.9205 26.4787C21.6682 25.8695 21.6022 25.1993 21.7308 24.5526C21.8595 23.9059 22.177 23.312 22.6432 22.8458C23.1094 22.3795 23.7034 22.062 24.35 21.9334C24.9967 21.8048 25.667 21.8708 26.2761 22.1231C26.8853 22.3755 27.4059 22.8027 27.7722 23.3509C28.1385 23.8992 28.334 24.5437 28.334 25.203C28.334 25.6408 28.2478 26.0743 28.0803 26.4788C27.9128 26.8833 27.6673 27.2508 27.3577 27.5603C27.0481 27.8699 26.6806 28.1154 26.2761 28.2829C25.8717 28.4504 25.4382 28.5366 25.0004 28.5366Z" fill="#AAB0B7"/>
<path d="M34.9398 21.0803C34.9234 20.2508 34.7664 19.43 34.4754 18.6531C34.2238 17.9859 33.8302 17.3815 33.3219 16.8816C32.8227 16.3727 32.2184 15.9791 31.5513 15.7281C30.7743 15.4369 29.9535 15.2799 29.124 15.2637C28.0577 15.2151 27.7169 15.2031 25.0012 15.2031C22.2855 15.2031 21.9444 15.2144 20.8775 15.2637C20.048 15.2801 19.2273 15.4371 18.4503 15.7281C17.783 15.9793 17.1785 16.3729 16.6788 16.8816C16.1697 17.3808 15.776 17.9855 15.5254 18.6531C15.2344 19.43 15.0774 20.2508 15.061 21.0803C15.0117 22.1465 15.0004 22.4874 15.0004 25.2031C15.0004 27.9188 15.0117 28.2597 15.061 29.3259C15.0774 30.1554 15.2344 30.9762 15.5254 31.7532C15.7761 32.4207 16.1698 33.0254 16.6788 33.5247C17.1787 34.033 17.7832 34.4266 18.4503 34.6781C19.2273 34.969 20.048 35.126 20.8775 35.1425C21.9444 35.191 22.2847 35.2031 25.0004 35.2031C27.716 35.2031 28.0569 35.1918 29.1232 35.1425C29.9527 35.1261 30.7735 34.9691 31.5504 34.6781C32.2148 34.4212 32.8182 34.0283 33.3219 33.5246C33.8256 33.021 34.2185 32.4176 34.4754 31.7532C34.7667 30.9763 34.9238 30.1555 34.9398 29.3259C34.9883 28.2589 34.9996 27.9188 34.9996 25.2031C34.9996 22.4874 34.9883 22.1465 34.9398 21.0803ZM33.1408 29.2444C33.1331 29.8785 33.0168 30.5066 32.7968 31.1015C32.6304 31.5327 32.3755 31.9243 32.0486 32.2511C31.7216 32.5779 31.3299 32.8326 30.8986 32.9989C30.3039 33.2193 29.6757 33.3357 29.0415 33.3429C27.9874 33.3913 27.6708 33.401 25.0003 33.401C22.3298 33.401 22.0141 33.3913 20.9603 33.3429C20.3261 33.3356 19.6979 33.2192 19.1032 32.9989C18.6689 32.8383 18.2759 32.5828 17.953 32.2509C17.6206 31.9287 17.3649 31.5359 17.205 31.1015C16.9845 30.5068 16.8681 29.8786 16.861 29.2444C16.8125 28.1903 16.8028 27.8737 16.8028 25.2032C16.8028 22.5327 16.8133 22.217 16.861 21.162C16.869 20.5279 16.9853 19.8999 17.205 19.305C17.3655 18.8706 17.6211 18.4776 17.953 18.1548C18.2753 17.8222 18.6685 17.5665 19.1032 17.4068C19.6979 17.1863 20.3261 17.0699 20.9603 17.0628C22.0144 17.0143 22.331 17.0046 25.0003 17.0046C27.6696 17.0046 27.9865 17.0151 29.0415 17.0628C29.6756 17.0707 30.3037 17.1871 30.8986 17.4068C31.33 17.573 31.7219 17.8278 32.0488 18.1548C32.3758 18.4817 32.6306 18.8736 32.7968 19.305C33.0173 19.8997 33.1336 20.5278 33.1408 21.162C33.1893 22.217 33.199 22.5327 33.199 25.2032C33.199 27.8737 33.1893 28.1894 33.1408 29.2444H33.1408Z" fill="#AAB0B7"/>
<path d="M30.339 18.665H30.3385C30.0204 18.6651 29.7152 18.7915 29.4903 19.0166C29.2653 19.2416 29.1389 19.5468 29.139 19.8649C29.139 20.1831 29.2654 20.4883 29.4904 20.7132C29.7154 20.9382 30.0206 21.0646 30.3388 21.0646C30.657 21.0646 30.9621 20.9382 31.1871 20.7132C31.4121 20.4883 31.5385 20.1831 31.5386 19.8649C31.5386 19.5468 31.4122 19.2416 31.1873 19.0166C30.9623 18.7915 30.6572 18.6651 30.339 18.665Z" fill="#AAB0B7"/>
</svg>
