<svg width="50" height="50" viewBox="0 0 50 50" fill="none" xmlns="http://www.w3.org/2000/svg">
<rect width="50" height="50" rx="10" fill="#F5F6FA"/>
<path d="M18.0035 19.9999H17.9754C17.6688 20.0184 17.3616 19.9735 17.0731 19.868C16.7847 19.7624 16.521 19.5986 16.2987 19.3866C16.0764 19.1746 15.9002 18.919 15.7811 18.6359C15.662 18.3528 15.6025 18.0481 15.6064 17.741C15.6103 17.4338 15.6775 17.1307 15.8037 16.8507C15.93 16.5707 16.1127 16.3197 16.3403 16.1134C16.5679 15.9072 16.8356 15.75 17.1267 15.6519C17.4177 15.5537 17.7259 15.5166 18.032 15.5429C18.3395 15.5206 18.6484 15.5622 18.9391 15.665C19.2298 15.7679 19.4961 15.9298 19.7212 16.1405C19.9463 16.3513 20.1254 16.6063 20.2472 16.8896C20.369 17.173 20.4309 17.4784 20.4289 17.7868C20.4269 18.0951 20.3612 18.3998 20.2358 18.6815C20.1104 18.9632 19.9281 19.216 19.7003 19.4238C19.4725 19.6317 19.2042 19.7902 18.9122 19.8893C18.6202 19.9885 18.3108 20.0261 18.0035 19.9999Z" fill="#AAB0B7"/>
<path d="M20.018 23H16.018V35H20.018V23Z" fill="#AAB0B7"/>
<path d="M30.5176 23C29.8435 23.0018 29.1786 23.156 28.5725 23.451C27.9665 23.746 27.4349 24.1741 27.0176 24.7034V23H23.0176V35H27.0176V29.5C27.0176 28.9696 27.2283 28.4609 27.6034 28.0858C27.9784 27.7107 28.4871 27.5 29.0176 27.5C29.548 27.5 30.0567 27.7107 30.4318 28.0858C30.8069 28.4609 31.0176 28.9696 31.0176 29.5V35H35.0176V27.5C35.0176 26.9091 34.9012 26.3239 34.675 25.7779C34.4489 25.232 34.1174 24.7359 33.6996 24.318C33.2817 23.9002 32.7856 23.5687 32.2397 23.3425C31.6937 23.1164 31.1085 23 30.5176 23Z" fill="#AAB0B7"/>
</svg>
