<svg width="165" height="56" viewBox="0 0 165 56" fill="none" xmlns="http://www.w3.org/2000/svg">
<rect width="165" height="56" rx="12" fill="#030319"/>
<path d="M24.4165 15.3564C24.1041 15.6595 24 16.1645 24 16.7705V39.0925C24 39.6985 24.2082 40.2036 24.5206 40.5066L24.6247 40.6076L37.5358 28.083V27.881L24.4165 15.3564Z" fill="url(#paint0_linear_3712_972)"/>
<path d="M41.7006 32.3251L37.4316 28.1839V27.8809L41.7006 23.7397L41.8047 23.8407L46.9067 26.6689C48.3644 27.4769 48.3644 28.79 46.9067 29.598L41.7006 32.3251Z" fill="url(#paint1_linear_3712_972)"/>
<path d="M41.8043 32.2241L37.4312 27.9819L24.416 40.6075C24.9366 41.1125 25.6655 41.1125 26.6026 40.7085L41.8043 32.2241Z" fill="url(#paint2_linear_3712_972)"/>
<path d="M41.8043 23.7415L26.6026 15.3582C25.6655 14.8531 24.9366 14.9541 24.416 15.4592L37.4312 27.9837L41.8043 23.7415H41.8043Z" fill="url(#paint3_linear_3712_972)"/>
<path opacity="0.2" d="M41.7002 32.1233L26.6026 40.4057C25.7696 40.9107 25.0407 40.8097 24.5201 40.4057L24.416 40.5067L24.5201 40.6077C25.0407 41.0117 25.7696 41.1127 26.6026 40.6077L41.7002 32.1233Z" fill="black"/>
<path opacity="0.12" fill-rule="evenodd" clip-rule="evenodd" d="M41.7012 32.1231L46.9073 29.295C47.532 28.891 47.9485 28.487 47.9485 27.9819C47.9485 28.487 47.6362 28.992 46.9073 29.396L41.8053 32.2241L41.7012 32.1231ZM24 38.9914C24 39.1345 24.0058 39.2719 24.0188 39.4024C24.0065 39.3026 24 39.199 24 39.0924V38.9914ZM24.0188 39.4024C24.0692 39.8109 24.2181 40.1578 24.4266 40.4054L24.0188 39.4024ZM24.4266 40.4054H24.5206V40.5064C24.4881 40.4749 24.4567 40.4412 24.4266 40.4054Z" fill="black"/>
<path opacity="0.25" d="M26.603 15.4574L46.9067 26.6689C47.5315 27.0729 47.9479 27.4769 47.9479 27.9819C47.9479 27.4769 47.6356 26.9719 46.9067 26.5679L26.603 15.3564C25.1453 14.5483 24 15.1543 24 16.7704V16.8714C24 15.3564 25.1453 14.6493 26.603 15.4574Z" fill="white"/>
<path d="M63.1729 28.9902V34H61.4854V21.2031H66.2051C67.6055 21.2031 68.7012 21.5605 69.4922 22.2754C70.2891 22.9902 70.6875 23.9365 70.6875 25.1143C70.6875 26.3564 70.2979 27.3145 69.5186 27.9883C68.7451 28.6562 67.6348 28.9902 66.1875 28.9902H63.1729ZM63.1729 27.6104H66.2051C67.1074 27.6104 67.7988 27.3994 68.2793 26.9775C68.7598 26.5498 69 25.9346 69 25.1318C69 24.3701 68.7598 23.7607 68.2793 23.3037C67.7988 22.8467 67.1396 22.6094 66.3018 22.5918H63.1729V27.6104ZM74.3525 34H72.7266V20.5H74.3525V34ZM82.834 34C82.7402 33.8125 82.6641 33.4785 82.6055 32.998C81.8496 33.7832 80.9473 34.1758 79.8984 34.1758C78.9609 34.1758 78.1904 33.9121 77.5869 33.3848C76.9893 32.8516 76.6904 32.1777 76.6904 31.3633C76.6904 30.373 77.0654 29.6055 77.8154 29.0605C78.5713 28.5098 79.6318 28.2344 80.9971 28.2344H82.5791V27.4873C82.5791 26.9189 82.4092 26.4678 82.0693 26.1338C81.7295 25.7939 81.2285 25.624 80.5664 25.624C79.9863 25.624 79.5 25.7705 79.1074 26.0635C78.7148 26.3564 78.5186 26.7109 78.5186 27.127H76.8838C76.8838 26.6523 77.0508 26.1953 77.3848 25.7559C77.7246 25.3105 78.1816 24.959 78.7559 24.7012C79.3359 24.4434 79.9717 24.3145 80.6631 24.3145C81.7588 24.3145 82.6172 24.5898 83.2383 25.1406C83.8594 25.6855 84.1816 26.4385 84.2051 27.3994V31.7764C84.2051 32.6494 84.3164 33.3438 84.5391 33.8594V34H82.834ZM80.1357 32.7607C80.6455 32.7607 81.1289 32.6289 81.5859 32.3652C82.043 32.1016 82.374 31.7588 82.5791 31.3369V29.3857H81.3047C79.3125 29.3857 78.3164 29.9688 78.3164 31.1348C78.3164 31.6445 78.4863 32.043 78.8262 32.3301C79.166 32.6172 79.6025 32.7607 80.1357 32.7607ZM89.7246 31.6182L91.9395 24.4902H93.6797L89.8564 35.4678C89.2646 37.0498 88.3242 37.8408 87.0352 37.8408L86.7275 37.8145L86.1211 37.7002V36.3818L86.5605 36.417C87.1113 36.417 87.5391 36.3057 87.8438 36.083C88.1543 35.8604 88.4092 35.4531 88.6084 34.8613L88.9688 33.8945L85.5762 24.4902H87.3516L89.7246 31.6182ZM103.629 28.2959C102.182 27.8799 101.127 27.3701 100.465 26.7666C99.8086 26.1572 99.4805 25.4072 99.4805 24.5166C99.4805 23.5088 99.8818 22.6768 100.685 22.0205C101.493 21.3584 102.542 21.0273 103.831 21.0273C104.71 21.0273 105.492 21.1973 106.178 21.5371C106.869 21.877 107.402 22.3457 107.777 22.9434C108.158 23.541 108.349 24.1943 108.349 24.9033H106.652C106.652 24.1299 106.406 23.5234 105.914 23.084C105.422 22.6387 104.728 22.416 103.831 22.416C102.999 22.416 102.349 22.6006 101.88 22.9697C101.417 23.333 101.186 23.8398 101.186 24.4902C101.186 25.0117 101.405 25.4541 101.845 25.8174C102.29 26.1748 103.043 26.5029 104.104 26.8018C105.17 27.1006 106.002 27.4316 106.6 27.7949C107.203 28.1523 107.648 28.5713 107.936 29.0518C108.229 29.5322 108.375 30.0977 108.375 30.748C108.375 31.7852 107.971 32.6172 107.162 33.2441C106.354 33.8652 105.272 34.1758 103.919 34.1758C103.04 34.1758 102.22 34.0088 101.458 33.6748C100.696 33.335 100.107 32.8721 99.6914 32.2861C99.2812 31.7002 99.0762 31.0352 99.0762 30.291H100.772C100.772 31.0645 101.057 31.6768 101.625 32.1279C102.199 32.5732 102.964 32.7959 103.919 32.7959C104.81 32.7959 105.492 32.6143 105.967 32.251C106.441 31.8877 106.679 31.3926 106.679 30.7656C106.679 30.1387 106.459 29.6553 106.02 29.3154C105.58 28.9697 104.783 28.6299 103.629 28.2959ZM112.497 22.1875V24.4902H114.272V25.7471H112.497V31.6445C112.497 32.0254 112.576 32.3125 112.734 32.5059C112.893 32.6934 113.162 32.7871 113.543 32.7871C113.73 32.7871 113.988 32.752 114.316 32.6816V34C113.889 34.1172 113.473 34.1758 113.068 34.1758C112.342 34.1758 111.794 33.9561 111.425 33.5166C111.056 33.0771 110.871 32.4531 110.871 31.6445V25.7471H109.14V24.4902H110.871V22.1875H112.497ZM115.573 29.1572C115.573 28.2256 115.755 27.3877 116.118 26.6436C116.487 25.8994 116.997 25.3252 117.647 24.9209C118.304 24.5166 119.051 24.3145 119.889 24.3145C121.184 24.3145 122.229 24.7627 123.026 25.6592C123.829 26.5557 124.23 27.748 124.23 29.2363V29.3506C124.23 30.2764 124.052 31.1084 123.694 31.8467C123.343 32.5791 122.836 33.1504 122.174 33.5605C121.518 33.9707 120.762 34.1758 119.906 34.1758C118.617 34.1758 117.571 33.7275 116.769 32.8311C115.972 31.9346 115.573 30.748 115.573 29.2715V29.1572ZM117.208 29.3506C117.208 30.4053 117.451 31.252 117.938 31.8906C118.43 32.5293 119.086 32.8486 119.906 32.8486C120.732 32.8486 121.389 32.5264 121.875 31.8818C122.361 31.2314 122.604 30.3232 122.604 29.1572C122.604 28.1143 122.355 27.2705 121.857 26.626C121.365 25.9756 120.709 25.6504 119.889 25.6504C119.086 25.6504 118.438 25.9697 117.946 26.6084C117.454 27.2471 117.208 28.1611 117.208 29.3506ZM130.866 25.9492C130.62 25.9082 130.354 25.8877 130.066 25.8877C129 25.8877 128.276 26.3418 127.896 27.25V34H126.27V24.4902H127.852L127.878 25.5889C128.411 24.7393 129.167 24.3145 130.146 24.3145C130.462 24.3145 130.702 24.3555 130.866 24.4375V25.9492ZM136.14 34.1758C134.851 34.1758 133.802 33.7539 132.993 32.9102C132.185 32.0605 131.78 30.9268 131.78 29.5088V29.21C131.78 28.2666 131.959 27.4258 132.316 26.6875C132.68 25.9434 133.184 25.3633 133.828 24.9473C134.479 24.5254 135.182 24.3145 135.938 24.3145C137.174 24.3145 138.135 24.7217 138.82 25.5361C139.506 26.3506 139.849 27.5166 139.849 29.0342V29.7109H133.406C133.43 30.6484 133.702 31.4072 134.224 31.9873C134.751 32.5615 135.419 32.8486 136.228 32.8486C136.802 32.8486 137.288 32.7314 137.687 32.4971C138.085 32.2627 138.434 31.9521 138.732 31.5654L139.726 32.3389C138.929 33.5635 137.733 34.1758 136.14 34.1758ZM135.938 25.6504C135.281 25.6504 134.73 25.8906 134.285 26.3711C133.84 26.8457 133.564 27.5137 133.459 28.375H138.223V28.252C138.176 27.4258 137.953 26.7871 137.555 26.3359C137.156 25.8789 136.617 25.6504 135.938 25.6504Z" fill="white"/>
<rect x="0.3" y="0.3" width="164.4" height="55.4" rx="11.7" stroke="#8F92A1" stroke-opacity="0.4" stroke-width="0.6"/>
<defs>
<linearGradient id="paint0_linear_3712_972" x1="40.8295" y1="25.1059" x2="20.2305" y2="19.3644" gradientUnits="userSpaceOnUse">
<stop stop-color="#00A0FF"/>
<stop offset="0.007" stop-color="#00A1FF"/>
<stop offset="0.26" stop-color="#00BEFF"/>
<stop offset="0.512" stop-color="#00D2FF"/>
<stop offset="0.76" stop-color="#00DFFF"/>
<stop offset="1" stop-color="#00E3FF"/>
</linearGradient>
<linearGradient id="paint1_linear_3712_972" x1="48.8163" y1="19.7675" x2="23.622" y2="19.7675" gradientUnits="userSpaceOnUse">
<stop stop-color="#FFE000"/>
<stop offset="0.409" stop-color="#FFBD00"/>
<stop offset="0.775" stop-color="#FFA500"/>
<stop offset="1" stop-color="#FF9C00"/>
</linearGradient>
<linearGradient id="paint2_linear_3712_972" x1="54.7894" y1="18.8128" x2="38.9011" y2="-8.68514" gradientUnits="userSpaceOnUse">
<stop stop-color="#FF3A44"/>
<stop offset="1" stop-color="#C31162"/>
</linearGradient>
<linearGradient id="paint3_linear_3712_972" x1="28.0727" y1="53.9697" x2="35.1103" y2="41.6757" gradientUnits="userSpaceOnUse">
<stop stop-color="#32A071"/>
<stop offset="0.069" stop-color="#2DA771"/>
<stop offset="0.476" stop-color="#15CF74"/>
<stop offset="0.801" stop-color="#06E775"/>
<stop offset="1" stop-color="#00F076"/>
</linearGradient>
</defs>
</svg>
