<svg width="50" height="50" viewBox="0 0 50 50" fill="none" xmlns="http://www.w3.org/2000/svg">
<rect width="50" height="50" rx="10" fill="#F5F6FA"/>
<mask id="mask0_3712_1063" style="mask-type:alpha" maskUnits="userSpaceOnUse" x="11" y="11" width="28" height="28">
<rect x="11" y="11" width="28" height="28" fill="white"/>
</mask>
<g mask="url(#mask0_3712_1063)">
</g>
<path d="M33.4751 21.0078C33.4854 21.1929 33.4854 21.378 33.4854 21.5528C33.4828 22.6915 33.3165 23.8238 32.9918 24.9152C32.3074 27.4303 30.8048 29.6458 28.7211 31.2118C26.6375 32.7778 24.0915 33.6051 21.4854 33.5631C19.1911 33.5657 16.945 32.905 15.0175 31.6607C15.3518 31.7021 15.6884 31.7227 16.0252 31.7224C17.9236 31.7242 19.7674 31.0867 21.2592 29.9126C20.3805 29.8961 19.5289 29.6059 18.8229 29.0825C18.117 28.559 17.5919 27.8284 17.3209 26.9924C17.5825 27.0372 17.8473 27.0613 18.1127 27.0644C18.4917 27.0658 18.869 27.0138 19.2335 26.9101C18.3311 26.7314 17.5123 26.2614 16.9029 25.5721C16.2936 24.8829 15.9274 24.0127 15.8607 23.0952C15.8436 22.9898 15.8367 22.8831 15.8401 22.7764V22.725C16.4262 23.0512 17.0823 23.2311 17.7527 23.2494C17.1757 22.8648 16.7028 22.3433 16.3762 21.7315C16.0497 21.1197 15.8797 20.4365 15.8813 19.743C15.8806 18.9963 16.0756 18.2624 16.4468 17.6145C17.5059 18.9193 18.8278 19.9865 20.3266 20.7466C21.8255 21.5066 23.4676 21.9425 25.146 22.0258C24.9336 21.121 25.026 20.1713 25.4088 19.3244C25.7916 18.4775 26.4433 17.7807 27.2628 17.3422C28.0823 16.9038 29.0236 16.7482 29.9406 16.8997C30.8576 17.0512 31.6988 17.5013 32.3337 18.18C33.2805 17.9932 34.1883 17.6454 35.0175 17.1518C35.0532 17.8676 34.9338 18.5828 34.6676 19.2483C34.4014 19.9138 33.9947 20.514 33.4751 21.0078Z" fill="#AAB0B7"/>
</svg>
